<svg width="202" height="174" viewBox="0 0 202 174" fill="none" xmlns="http://www.w3.org/2000/svg">
<circle cx="45" cy="143" r="3" fill="#4E95FD"/>
<circle cx="59" cy="143" r="3" fill="#4E95FD"/>
<circle cx="73" cy="143" r="3" fill="#4E95FD"/>
<circle cx="45" cy="171" r="3" fill="#4E95FD"/>
<circle cx="59" cy="171" r="3" fill="#4E95FD"/>
<circle cx="73" cy="171" r="3" fill="#4E95FD"/>
<circle cx="3" cy="17" r="3" fill="#4E95FD"/>
<circle cx="17" cy="17" r="3" fill="#4E95FD"/>
<circle cx="31" cy="17" r="3" fill="#4E95FD"/>
<circle cx="3" cy="73" r="3" fill="#4E95FD"/>
<circle cx="17" cy="73" r="3" fill="#4E95FD"/>
<circle cx="31" cy="73" r="3" fill="#4E95FD"/>
<circle cx="3" cy="143" r="3" fill="#4E95FD"/>
<circle cx="17" cy="143" r="3" fill="#4E95FD"/>
<circle cx="31" cy="143" r="3" fill="#4E95FD"/>
<circle cx="3" cy="45" r="3" fill="#4E95FD"/>
<circle cx="17" cy="45" r="3" fill="#4E95FD"/>
<circle cx="31" cy="45" r="3" fill="#4E95FD"/>
<circle cx="3" cy="115" r="3" fill="#4E95FD"/>
<circle cx="17" cy="115" r="3" fill="#4E95FD"/>
<circle cx="31" cy="115" r="3" fill="#4E95FD"/>
<circle cx="3" cy="101" r="3" fill="#4E95FD"/>
<circle cx="17" cy="101" r="3" fill="#4E95FD"/>
<circle cx="31" cy="101" r="3" fill="#4E95FD"/>
<circle cx="3" cy="171" r="3" fill="#4E95FD"/>
<circle cx="17" cy="171" r="3" fill="#4E95FD"/>
<circle cx="31" cy="171" r="3" fill="#4E95FD"/>
<circle cx="3" cy="3" r="3" fill="#4E95FD"/>
<circle cx="17" cy="3" r="3" fill="#4E95FD"/>
<circle cx="31" cy="3" r="3" fill="#4E95FD"/>
<circle cx="3" cy="59" r="3" fill="#4E95FD"/>
<circle cx="17" cy="59" r="3" fill="#4E95FD"/>
<circle cx="31" cy="59" r="3" fill="#4E95FD"/>
<circle cx="3" cy="129" r="3" fill="#4E95FD"/>
<circle cx="17" cy="129" r="3" fill="#4E95FD"/>
<circle cx="31" cy="129" r="3" fill="#4E95FD"/>
<circle cx="3" cy="31" r="3" fill="#4E95FD"/>
<circle cx="17" cy="31" r="3" fill="#4E95FD"/>
<circle cx="31" cy="31" r="3" fill="#4E95FD"/>
<circle cx="3" cy="87" r="3" fill="#4E95FD"/>
<circle cx="17" cy="87" r="3" fill="#4E95FD"/>
<circle cx="31" cy="87" r="3" fill="#4E95FD"/>
<circle cx="3" cy="157" r="3" fill="#4E95FD"/>
<circle cx="17" cy="157" r="3" fill="#4E95FD"/>
<circle cx="31" cy="157" r="3" fill="#4E95FD"/>
<circle cx="45" cy="157" r="3" fill="#4E95FD"/>
<circle cx="59" cy="157" r="3" fill="#4E95FD"/>
<circle cx="73" cy="157" r="3" fill="#4E95FD"/>
<circle cx="87" cy="143" r="3" fill="#4E95FD"/>
<circle cx="101" cy="143" r="3" fill="#4E95FD"/>
<circle cx="115" cy="143" r="3" fill="#4E95FD"/>
<circle cx="129" cy="143" r="3" fill="#4E95FD"/>
<circle cx="143" cy="143" r="3" fill="#4E95FD"/>
<circle cx="157" cy="143" r="3" fill="#4E95FD"/>
<circle cx="87" cy="171" r="3" fill="#4E95FD"/>
<circle cx="101" cy="171" r="3" fill="#4E95FD"/>
<circle cx="115" cy="171" r="3" fill="#4E95FD"/>
<circle cx="129" cy="171" r="3" fill="#4E95FD"/>
<circle cx="143" cy="171" r="3" fill="#4E95FD"/>
<circle cx="157" cy="171" r="3" fill="#4E95FD"/>
<circle cx="87" cy="157" r="3" fill="#4E95FD"/>
<circle cx="101" cy="157" r="3" fill="#4E95FD"/>
<circle cx="115" cy="157" r="3" fill="#4E95FD"/>
<circle cx="129" cy="157" r="3" fill="#4E95FD"/>
<circle cx="143" cy="157" r="3" fill="#4E95FD"/>
<circle cx="157" cy="157" r="3" fill="#4E95FD"/>
<circle cx="171" cy="143" r="3" fill="#4E95FD"/>
<circle cx="185" cy="143" r="3" fill="#4E95FD"/>
<circle cx="199" cy="143" r="3" fill="#4E95FD"/>
<circle cx="171" cy="171" r="3" fill="#4E95FD"/>
<circle cx="185" cy="171" r="3" fill="#4E95FD"/>
<circle cx="199" cy="171" r="3" fill="#4E95FD"/>
<circle cx="171" cy="157" r="3" fill="#4E95FD"/>
<circle cx="185" cy="157" r="3" fill="#4E95FD"/>
<circle cx="199" cy="157" r="3" fill="#4E95FD"/>
</svg>
