<svg width="202" height="174" viewBox="0 0 202 174" fill="none" xmlns="http://www.w3.org/2000/svg">
<circle cx="157" cy="31" r="3" transform="rotate(180 157 31)" fill="#8484FC"/>
<circle cx="143" cy="31" r="3" transform="rotate(180 143 31)" fill="#8484FC"/>
<circle cx="129" cy="31" r="3" transform="rotate(180 129 31)" fill="#8484FC"/>
<circle cx="157" cy="3" r="3" transform="rotate(180 157 3)" fill="#8484FC"/>
<circle cx="143" cy="3" r="3" transform="rotate(180 143 3)" fill="#8484FC"/>
<circle cx="129" cy="3" r="3" transform="rotate(180 129 3)" fill="#8484FC"/>
<circle cx="199" cy="157" r="3" transform="rotate(180 199 157)" fill="#8484FC"/>
<circle cx="185" cy="157" r="3" transform="rotate(180 185 157)" fill="#8484FC"/>
<circle cx="171" cy="157" r="3" transform="rotate(180 171 157)" fill="#8484FC"/>
<circle cx="199" cy="101" r="3" transform="rotate(180 199 101)" fill="#8484FC"/>
<circle cx="185" cy="101" r="3" transform="rotate(180 185 101)" fill="#8484FC"/>
<circle cx="171" cy="101" r="3" transform="rotate(180 171 101)" fill="#8484FC"/>
<circle cx="199" cy="31" r="3" transform="rotate(180 199 31)" fill="#8484FC"/>
<circle cx="185" cy="31" r="3" transform="rotate(180 185 31)" fill="#8484FC"/>
<circle cx="171" cy="31" r="3" transform="rotate(180 171 31)" fill="#8484FC"/>
<circle cx="199" cy="129" r="3" transform="rotate(180 199 129)" fill="#8484FC"/>
<circle cx="185" cy="129" r="3" transform="rotate(180 185 129)" fill="#8484FC"/>
<circle cx="171" cy="129" r="3" transform="rotate(180 171 129)" fill="#8484FC"/>
<circle cx="199" cy="59" r="3" transform="rotate(180 199 59)" fill="#8484FC"/>
<circle cx="185" cy="59" r="3" transform="rotate(180 185 59)" fill="#8484FC"/>
<circle cx="171" cy="59" r="3" transform="rotate(180 171 59)" fill="#8484FC"/>
<circle cx="199" cy="73" r="3" transform="rotate(180 199 73)" fill="#8484FC"/>
<circle cx="185" cy="73" r="3" transform="rotate(180 185 73)" fill="#8484FC"/>
<circle cx="171" cy="73" r="3" transform="rotate(180 171 73)" fill="#8484FC"/>
<circle cx="199" cy="3" r="3" transform="rotate(180 199 3)" fill="#8484FC"/>
<circle cx="185" cy="3" r="3" transform="rotate(180 185 3)" fill="#8484FC"/>
<circle cx="171" cy="3" r="3" transform="rotate(180 171 3)" fill="#8484FC"/>
<circle cx="199" cy="171" r="3" transform="rotate(180 199 171)" fill="#8484FC"/>
<circle cx="185" cy="171" r="3" transform="rotate(180 185 171)" fill="#8484FC"/>
<circle cx="171" cy="171" r="3" transform="rotate(180 171 171)" fill="#8484FC"/>
<circle cx="199" cy="115" r="3" transform="rotate(180 199 115)" fill="#8484FC"/>
<circle cx="185" cy="115" r="3" transform="rotate(180 185 115)" fill="#8484FC"/>
<circle cx="171" cy="115" r="3" transform="rotate(180 171 115)" fill="#8484FC"/>
<circle cx="199" cy="45" r="3" transform="rotate(180 199 45)" fill="#8484FC"/>
<circle cx="185" cy="45" r="3" transform="rotate(180 185 45)" fill="#8484FC"/>
<circle cx="171" cy="45" r="3" transform="rotate(180 171 45)" fill="#8484FC"/>
<circle cx="199" cy="143" r="3" transform="rotate(180 199 143)" fill="#8484FC"/>
<circle cx="185" cy="143" r="3" transform="rotate(180 185 143)" fill="#8484FC"/>
<circle cx="171" cy="143" r="3" transform="rotate(180 171 143)" fill="#8484FC"/>
<circle cx="199" cy="87" r="3" transform="rotate(180 199 87)" fill="#8484FC"/>
<circle cx="185" cy="87" r="3" transform="rotate(180 185 87)" fill="#8484FC"/>
<circle cx="171" cy="87" r="3" transform="rotate(180 171 87)" fill="#8484FC"/>
<circle cx="199" cy="17" r="3" transform="rotate(180 199 17)" fill="#8484FC"/>
<circle cx="185" cy="17" r="3" transform="rotate(180 185 17)" fill="#8484FC"/>
<circle cx="171" cy="17" r="3" transform="rotate(180 171 17)" fill="#8484FC"/>
<circle cx="157" cy="17" r="3" transform="rotate(180 157 17)" fill="#8484FC"/>
<circle cx="143" cy="17" r="3" transform="rotate(180 143 17)" fill="#8484FC"/>
<circle cx="129" cy="17" r="3" transform="rotate(180 129 17)" fill="#8484FC"/>
<circle cx="115" cy="31" r="3" transform="rotate(180 115 31)" fill="#8484FC"/>
<circle cx="101" cy="31" r="3" transform="rotate(180 101 31)" fill="#8484FC"/>
<circle cx="87" cy="31" r="3" transform="rotate(180 87 31)" fill="#8484FC"/>
<circle cx="73" cy="31" r="3" transform="rotate(180 73 31)" fill="#8484FC"/>
<circle cx="59" cy="31" r="3" transform="rotate(180 59 31)" fill="#8484FC"/>
<circle cx="45" cy="31" r="3" transform="rotate(180 45 31)" fill="#8484FC"/>
<circle cx="115" cy="3" r="3" transform="rotate(180 115 3)" fill="#8484FC"/>
<circle cx="101" cy="3" r="3" transform="rotate(180 101 3)" fill="#8484FC"/>
<circle cx="87" cy="3" r="3" transform="rotate(180 87 3)" fill="#8484FC"/>
<circle cx="73" cy="3" r="3" transform="rotate(180 73 3)" fill="#8484FC"/>
<circle cx="59" cy="3" r="3" transform="rotate(180 59 3)" fill="#8484FC"/>
<circle cx="45" cy="3" r="3" transform="rotate(180 45 3)" fill="#8484FC"/>
<circle cx="115" cy="17" r="3" transform="rotate(180 115 17)" fill="#8484FC"/>
<circle cx="101" cy="17" r="3" transform="rotate(180 101 17)" fill="#8484FC"/>
<circle cx="87" cy="17" r="3" transform="rotate(180 87 17)" fill="#8484FC"/>
<circle cx="73" cy="17" r="3" transform="rotate(180 73 17)" fill="#8484FC"/>
<circle cx="59" cy="17" r="3" transform="rotate(180 59 17)" fill="#8484FC"/>
<circle cx="45" cy="17" r="3" transform="rotate(180 45 17)" fill="#8484FC"/>
<circle cx="31" cy="31" r="3" transform="rotate(180 31 31)" fill="#8484FC"/>
<circle cx="17" cy="31" r="3" transform="rotate(180 17 31)" fill="#8484FC"/>
<circle cx="3" cy="31" r="3" transform="rotate(180 3 31)" fill="#8484FC"/>
<circle cx="31" cy="3" r="3" transform="rotate(180 31 3)" fill="#8484FC"/>
<circle cx="17" cy="3" r="3" transform="rotate(180 17 3)" fill="#8484FC"/>
<circle cx="3" cy="3" r="3" transform="rotate(180 3 3)" fill="#8484FC"/>
<circle cx="31" cy="17" r="3" transform="rotate(180 31 17)" fill="#8484FC"/>
<circle cx="17" cy="17" r="3" transform="rotate(180 17 17)" fill="#8484FC"/>
<circle cx="3" cy="17" r="3" transform="rotate(180 3 17)" fill="#8484FC"/>
</svg>
