<svg width="129" height="256" viewBox="0 0 129 256" fill="none" xmlns="http://www.w3.org/2000/svg">
<path d="M85.8564 251.443L68.886 249.508C69.6303 248.168 70.0769 244.447 70.3746 241.47C70.6723 237.45 70.5235 232.538 70.5235 232.538C70.5235 232.538 81.6882 229.858 81.6882 232.538C81.6882 236.557 82.2837 238.492 83.028 241.47C84.3677 246.233 85.8564 251.443 85.8564 251.443Z" fill="#22272E"/>
<path d="M86.303 252.634C86.303 252.783 86.303 252.932 86.303 253.081C86.303 253.974 86.0052 254.421 85.5587 255.909H67.8439C67.3973 254.569 67.2485 254.123 67.0996 253.081C67.0996 252.932 67.0996 252.783 67.0996 252.783C67.0996 248.615 71.4167 245.042 76.6269 245.042C81.9859 245.042 86.303 248.466 86.303 252.634Z" fill="#22272E"/>
<path d="M70.3745 242.214C70.6722 238.195 70.5234 232.687 70.5234 232.687C70.5234 232.687 81.6881 230.007 81.6881 232.687C81.6881 236.706 82.2835 239.534 83.0279 242.214H70.3745Z" fill="#617085"/>
<path d="M86.3032 252.485C86.3032 252.485 86.0055 255.165 85.5589 255.165H67.8442C67.3976 255.165 67.2487 252.485 67.0999 252.485H86.3032Z" fill="#515D6E" stroke="#515D6E" stroke-miterlimit="10"/>
<path d="M79.9018 246.382C78.562 244.596 75.4359 245.191 73.9473 246.382C73.6496 246.531 73.9473 246.829 74.245 246.829C75.1382 246.68 75.8825 246.233 76.9246 246.084C77.9666 246.084 78.7109 246.68 79.7529 246.68C79.9018 246.829 80.0507 246.531 79.9018 246.382Z" fill="#515D6E"/>
<path d="M79.3062 248.168C77.8176 247.126 74.9892 246.829 73.6495 248.317C73.5006 248.466 73.6494 248.913 73.9472 248.764C74.8403 248.466 75.8824 248.466 76.6267 248.466C77.5199 248.466 78.2642 249.062 79.1574 248.913C79.604 248.764 79.604 248.317 79.3062 248.168Z" fill="#515D6E"/>
<path d="M57.2749 252.486C57.1261 253.528 56.9772 254.272 56.8283 254.867C56.8283 254.867 29.8841 256.058 27.9489 255.165C27.6512 255.016 27.8001 254.719 28.0978 254.421C28.2466 254.123 28.2466 253.825 28.3955 253.379C29.2887 251.146 31.9682 247.573 39.2625 248.02C40.6023 247.424 41.6443 246.829 42.2398 246.531C43.1329 246.085 43.8772 244.745 44.3238 243.256C45.3659 239.832 45.6636 235.218 45.3659 234.176L56.8283 234.324C56.8283 234.324 57.2749 238.493 57.4237 243.256C57.5726 246.531 57.5727 249.955 57.2749 252.486Z" fill="#22272E"/>
<path d="M44.3237 243.554C45.3658 239.535 45.6635 235.218 45.3658 234.325L56.8282 234.622C56.8282 234.622 57.2748 238.195 57.4237 243.703H44.3237V243.554Z" fill="#617085"/>
<path d="M57.2749 252.485C57.1261 253.527 56.9772 254.272 56.8283 254.867C56.8283 254.867 29.8841 256.058 27.9489 255.165C27.6512 255.016 27.8001 254.718 28.0978 254.421C28.2466 254.123 28.2466 253.825 28.3955 253.378C33.1591 253.378 49.9806 253.527 57.2749 252.485Z" fill="#515D6E" stroke="#515D6E" stroke-miterlimit="10"/>
<path d="M42.0908 248.615C41.6442 247.275 39.5601 246.829 38.3692 247.573C38.2204 247.722 38.2204 247.871 38.3692 247.871C38.8158 248.169 39.4113 248.02 40.0067 248.169C40.6022 248.317 40.8999 248.764 41.1976 249.062C41.6442 249.211 42.2397 249.062 42.0908 248.615Z" fill="#515D6E"/>
<path d="M45.9611 246.978C45.6634 246.085 44.6214 245.489 43.5793 245.34C42.835 245.34 41.3464 245.489 41.4952 246.382C41.4952 246.531 41.6441 246.531 41.6441 246.531C42.0907 246.531 42.5373 246.234 42.9839 246.234C43.5793 246.234 44.0259 246.531 44.4725 246.978C44.7702 247.276 44.9191 247.722 45.5145 247.722C45.9611 247.722 46.11 247.276 45.9611 246.978Z" fill="#515D6E"/>
<path d="M38.3693 68.3421C38.3693 68.3421 63.8249 63.5785 88.0896 67.7467C88.0896 67.7467 82.7305 114.043 80.7953 123.868C80.7953 123.868 61.592 128.632 45.0682 123.57C45.0682 123.57 38.0716 77.2739 38.3693 68.3421Z" fill="#EBE6E2"/>
<path d="M70.6723 65.3649C70.6723 69.6819 66.653 73.1058 62.4848 73.1058C58.3167 73.1058 54.2974 69.6819 54.2974 65.3649V55.5399C54.2974 51.2229 58.3167 47.7991 62.4848 47.7991C66.653 47.7991 70.6723 51.2229 70.6723 55.5399V65.3649Z" fill="#D8826C"/>
<path d="M63.8246 79.2088C63.8246 79.8042 63.3779 80.2508 62.7825 80.2508C62.187 80.2508 61.7405 79.8042 61.7405 79.2088C61.7405 78.6133 62.187 78.1667 62.7825 78.1667C63.3779 78.1667 63.8246 78.6133 63.8246 79.2088Z" fill="white"/>
<path d="M63.8246 90.6715C63.8246 91.2669 63.3779 91.7135 62.7825 91.7135C62.187 91.7135 61.7405 91.2669 61.7405 90.6715C61.7405 90.076 62.187 89.6294 62.7825 89.6294C63.3779 89.6294 63.8246 90.076 63.8246 90.6715Z" fill="white"/>
<path d="M63.6759 113.596C63.6759 114.192 63.2293 114.638 62.6338 114.638C62.0384 114.638 61.5918 114.192 61.5918 113.596C61.5918 113.001 62.0384 112.554 62.6338 112.554C63.2293 112.405 63.6759 113.001 63.6759 113.596Z" fill="white"/>
<path d="M63.8246 101.985C63.8246 102.581 63.3779 103.027 62.7825 103.027C62.187 103.027 61.7405 102.581 61.7405 101.985C61.7405 101.39 62.187 100.943 62.7825 100.943C63.3779 100.943 63.8246 101.39 63.8246 101.985Z" fill="white"/>
<path d="M80.1997 43.9283C80.1997 50.0316 73.7986 54.9441 69.4815 57.1771C65.1645 59.41 61.443 58.6657 61.443 58.6657C44.3237 54.7952 45.5146 46.6078 44.6215 39.9089C44.1749 36.634 43.7283 30.3817 45.2169 22.7897C45.3658 21.7477 45.6635 20.8545 46.1101 19.9613C48.7896 14.4534 55.0419 12.3693 55.0419 12.3693C58.7634 11.0295 63.0805 10.7318 66.9509 11.4761C72.6077 12.5182 76.9247 15.3466 78.4133 21.1522C78.8599 22.9386 79.1576 24.8738 79.3065 26.809C79.7531 30.6795 80.0508 34.5499 80.1997 38.5692C80.1997 40.2067 80.1997 42.1419 80.1997 43.9283Z" fill="#F5AE94"/>
<path d="M62.3362 26.9583C62.3362 26.9583 60.9964 25.7674 61.1452 30.2333C61.1452 34.6992 61.7407 39.3139 61.7407 39.3139C61.7407 39.3139 58.6146 37.8253 59.8055 40.2071C60.4009 41.5469 61.7407 42.1423 63.0805 42.2912C64.2714 42.5889 65.0157 42.1423 65.76 41.2491C66.0577 40.9514 67.8441 38.8673 67.2486 38.4207C66.9509 38.123 65.4623 38.8673 65.0157 39.0162C64.8668 39.1651 64.4203 25.7674 62.3362 26.9583Z" fill="#DD876C"/>
<path d="M67.3972 23.8323C67.3972 23.8323 75.138 22.3436 77.5198 28.0004C77.5198 28.0004 68.8858 25.4698 67.2483 26.6607L67.3972 23.8323Z" fill="#0D0D0C"/>
<path d="M58.168 24.4276C58.168 24.4276 50.576 22.3435 47.7476 28.0003C47.7476 28.0003 56.5305 25.9162 58.168 27.4048V24.4276Z" fill="#0D0D0C"/>
<path d="M49.5337 33.5081C49.6825 35.741 51.7666 37.3785 54.2973 37.2296C56.828 37.0808 58.6143 35.1456 58.4655 32.9126C58.3166 30.6797 56.2325 29.0422 53.7018 29.191C51.32 29.3399 49.3848 31.2751 49.5337 33.5081Z" fill="white"/>
<path d="M56.9771 32.7642C57.1259 34.6994 55.935 36.4858 54.4464 36.4858C52.9578 36.6346 51.618 35.146 51.4691 33.0619C51.3203 31.1267 52.5112 29.3403 53.9998 29.3403C55.4885 29.3403 56.8282 30.829 56.9771 32.7642Z" fill="#5C8696"/>
<path d="M56.2327 32.9128C56.3815 34.2525 55.4884 35.4435 54.4463 35.5923C53.4043 35.5923 52.3622 34.5503 52.3622 33.2105C52.2134 31.8707 53.1066 30.6799 54.1486 30.531C55.1907 30.3821 56.0838 31.4242 56.2327 32.9128Z" fill="#0D0D0C"/>
<path d="M56.0838 30.5309C56.0838 30.9775 55.6373 31.2752 55.0418 31.2752C54.4464 31.2752 53.9998 30.9775 53.9998 30.6798C53.9998 30.2332 54.4464 29.9355 55.0418 29.9355C55.6373 29.7866 56.0838 30.0843 56.0838 30.5309Z" fill="white"/>
<path d="M67.3973 32.9128C67.5462 35.1458 69.6303 36.7833 72.161 36.6344C74.6916 36.4855 76.478 34.5503 76.3291 32.3174C76.1802 30.0844 74.0961 28.447 71.5655 28.5958C69.0348 28.7447 67.2485 30.6799 67.3973 32.9128Z" fill="white"/>
<path d="M74.2451 32.3174C74.394 34.2526 73.2031 36.039 71.7145 36.039C70.2258 36.1878 68.8861 34.6992 68.7372 32.6151C68.5883 30.6799 69.7793 28.8936 71.2679 28.8936C72.7565 28.8936 74.0963 30.3822 74.2451 32.3174Z" fill="#5C8696"/>
<path d="M73.3521 32.4662C73.5009 33.806 72.6077 34.9969 71.5657 35.1458C70.5237 35.2947 69.4816 34.1038 69.4816 32.764C69.3328 31.4242 70.226 30.2333 71.268 30.0845C72.31 29.9356 73.3521 30.9776 73.3521 32.4662Z" fill="#0D0D0C"/>
<path d="M73.3519 30.0844C73.3519 30.531 72.9053 30.8287 72.3098 30.8287C71.7144 30.8287 71.2678 30.531 71.2678 30.2332C71.2678 29.7866 71.7144 29.4889 72.3098 29.4889C72.9053 29.3401 73.3519 29.6378 73.3519 30.0844Z" fill="white"/>
<path d="M72.6075 43.6309C72.6075 43.6309 71.8632 45.715 70.6723 47.9479C70.0768 49.1389 69.1837 50.3297 68.2905 51.2229C65.9087 53.7536 62.7825 55.0934 58.9121 51.5206C57.5723 50.3297 56.2326 48.5434 54.7439 46.1616C54.1485 45.2684 53.7019 44.2264 53.1064 43.0355C53.1064 42.8866 69.928 45.8639 72.6075 43.6309Z" fill="#712311"/>
<path d="M72.6076 43.6309C72.6076 43.6309 71.8633 45.715 70.6724 47.9479C65.4622 49.7343 58.7633 47.6502 54.8929 46.1616C54.2974 45.2684 53.8508 44.2264 53.2554 43.0355C53.1065 42.8866 69.928 45.8639 72.6076 43.6309Z" fill="white"/>
<path d="M68.2905 51.2227C65.9087 53.7534 62.7825 55.0932 58.9121 51.5204C60.8473 50.4784 64.2712 49.1386 68.2905 51.2227Z" fill="#D5503B"/>
<path d="M85.8564 8.64814C84.8144 9.98791 83.1769 11.4765 81.3905 11.7743C82.8791 10.2856 84.2189 8.20157 84.0701 5.96862C84.0701 5.81976 83.9212 5.81975 83.9212 5.81975C83.6235 5.96861 83.3257 6.26633 83.1769 6.41519C81.8371 7.6061 79.6042 7.60611 78.1155 7.01066C75.2872 5.96862 73.0542 4.0334 70.5235 2.54477C67.844 0.907278 64.7179 -0.134758 61.4429 0.0141048C59.6565 0.162968 58.019 0.460689 56.3816 1.05614C52.3623 2.54477 47.5986 5.37316 46.5566 9.83905C46.4077 10.4345 46.4077 11.03 46.4077 11.7743C46.4077 12.2209 46.7054 13.4118 46.5566 13.7095C46.4077 13.8584 46.7055 14.0072 46.7055 14.0072C46.7055 14.0072 46.8543 14.0072 46.8543 13.8583C46.8543 13.7095 46.8543 13.7095 46.8543 13.7095C48.7895 12.2209 51.9156 18.1754 53.1065 19.0685C57.5724 22.7901 63.8247 23.2367 69.0349 21.897C74.8406 20.2595 81.3905 16.2402 84.8144 11.3277C85.4098 10.5834 85.8564 9.69019 86.303 8.79701C86.1541 8.64815 86.0053 8.49928 85.8564 8.64814Z" fill="#242422"/>
<path d="M79.604 31.1263C79.604 31.1263 83.3256 22.6411 86.4517 29.34C88.8335 34.699 84.8142 39.7604 81.5392 39.4626C78.1154 39.1649 79.604 31.1263 79.604 31.1263Z" fill="#F0A98F"/>
<path d="M79.7531 32.4663C79.7531 32.4663 82.5815 27.1072 83.9212 29.0424C85.4099 30.9776 85.4099 33.6572 85.4099 33.6572C85.4099 33.6572 84.3678 30.8288 82.4326 32.6151C82.4326 32.6151 85.1121 37.081 80.6462 36.1878C80.6462 36.1878 78.5622 34.9969 79.7531 32.4663Z" fill="#D8826C"/>
<path d="M50.7249 13.4114C50.7249 13.4114 51.1715 20.2591 48.3431 23.6829C45.5147 27.1068 45.217 33.8056 45.217 33.8056C45.217 33.8056 34.6477 20.4079 46.7056 12.5182C46.5568 12.5182 48.9385 11.625 50.7249 13.4114Z" fill="#242422"/>
<path d="M73.7985 16.091C73.7985 16.091 78.7109 22.641 79.753 31.8705C79.753 31.8705 86.6007 21.599 80.0507 13.1138C80.0507 12.9649 72.9053 9.98765 73.7985 16.091Z" fill="#242422"/>
<path d="M45.3657 32.4664C45.3657 32.4664 41.6441 23.9812 38.518 30.6801C36.1361 36.0391 40.1554 41.1005 43.4304 40.8027C46.7054 40.505 45.3657 32.4664 45.3657 32.4664Z" fill="#F0A98F"/>
<path d="M45.0677 33.8061C45.0677 33.8061 42.2393 28.447 40.8995 30.3823C39.4109 32.3175 39.4109 34.997 39.4109 34.997C39.4109 34.997 40.4529 32.1686 42.3881 34.1038C42.3881 34.1038 39.7086 38.5697 44.1745 37.6765C44.3233 37.5277 46.2586 36.1879 45.0677 33.8061Z" fill="#D8826C"/>
<path opacity="0.4" d="M56.6793 28.4471C55.1907 28.1494 53.5532 28.1494 52.0646 28.1494C51.1714 29.638 50.2782 31.2755 49.5339 33.0619C49.0873 34.2528 48.4919 35.5926 48.343 36.9323C49.8316 38.2721 51.618 38.7187 53.5532 38.7187C54.2975 35.146 54.893 31.4244 56.6793 28.4471Z" fill="#EAECED"/>
<path opacity="0.4" d="M76.1802 28.1495C74.5427 28.0007 73.054 28.1496 71.5654 28.2984C70.8211 29.9359 70.0768 31.5734 69.4813 33.3598C69.0347 34.5507 68.737 35.8904 68.5881 37.2302C70.0768 38.4211 72.012 38.5699 73.9472 38.4211C74.5427 34.9972 74.5427 31.1268 76.1802 28.1495Z" fill="#EAECED"/>
<path d="M80.0508 35.1458C81.5395 30.6799 81.0929 28.7447 81.0929 28.5959L80.944 28.2981L80.6463 28.1493C80.3485 28.0004 73.9475 25.4697 66.9509 28.7447C66.2066 29.0424 65.4622 29.489 64.8668 29.9356V29.7868L62.3361 29.9356V29.7868L62.0384 29.6379C61.2941 29.1913 60.5498 28.8936 59.6566 28.5959C52.5112 25.9163 46.1101 28.8936 45.8123 28.8936L45.5146 29.0425L45.3658 29.3402C45.3658 29.489 45.068 31.4243 46.8544 35.8901C47.4499 37.5276 48.7896 38.5697 50.4271 39.314C52.5112 40.0583 54.7441 39.9094 54.893 39.9094C59.9543 39.314 60.8475 36.9322 61.443 35.2947C61.443 35.1458 61.443 35.1458 61.5918 34.997C62.0384 33.8061 62.1873 32.9129 62.3361 32.1686C62.7827 32.0197 63.527 31.8708 64.5691 32.1686C64.718 33.0617 65.0156 34.1038 65.6111 35.2947C65.6111 35.4436 65.6111 35.4436 65.76 35.5924C66.5043 37.2299 67.5463 39.6117 72.6077 39.7606C72.7565 39.7606 74.8406 39.7606 76.9247 38.8674C78.2645 37.9742 79.4554 36.6345 80.0508 35.1458ZM54.4464 38.1231C54.4464 38.1231 52.5112 38.2719 50.7248 37.6765C49.385 37.2299 48.4919 36.3367 47.8964 35.1458C46.7055 32.3174 46.5567 30.5311 46.5567 29.9356C48.0453 29.3402 53.2555 27.7027 58.7634 29.7868C59.3589 30.0845 59.9543 30.2334 60.5498 30.5311C60.5498 31.1265 60.4009 32.4663 59.8055 34.2527C59.8055 34.4015 59.8054 34.4015 59.6566 34.5504C59.21 36.039 58.6145 37.6765 54.4464 38.1231ZM76.0315 37.3788C74.2452 38.1231 72.3099 38.1231 72.3099 38.1231C68.1418 37.9742 67.3975 36.3367 66.802 34.8481C66.802 34.6992 66.6532 34.6992 66.6532 34.5504C65.9088 32.9129 65.76 31.4243 65.6111 30.8288C66.2066 30.5311 66.802 30.2333 67.2486 29.9356C72.7565 27.405 77.9668 28.8936 79.4554 29.3402C79.4554 30.0845 79.4554 31.722 78.4133 34.6992C78.1156 35.7413 77.2224 36.7833 76.0315 37.3788Z" fill="#5C311E"/>
<path d="M55.0421 60.7502L48.9387 67.1514L54.0001 80.549L62.6341 73.2547C62.6341 73.1059 55.9353 66.1093 55.0421 60.7502Z" fill="#F5F0EB"/>
<path d="M70.2258 60.7502L76.3292 67.1514L71.2679 80.549L62.6338 73.2547C62.6338 73.1059 69.3326 66.1093 70.2258 60.7502Z" fill="#F5F0EB"/>
<path d="M43.4302 241.321H58.1677L62.3359 150.663C62.7824 150.663 63.3779 150.812 63.8245 150.812L69.0347 240.725H83.7721C83.921 229.412 84.5164 143.667 80.646 124.017L44.9189 123.719C45.3655 124.464 43.2814 205.892 43.4302 241.321Z" fill="#22272E"/>
<path d="M77.0736 129.078H81.2418L80.9441 124.017H76.7759C76.7759 125.655 76.9248 127.292 77.0736 129.078Z" fill="#8C4C09"/>
<path d="M73.0543 123.868L54.8931 123.719C54.8931 125.654 55.0419 127.59 55.0419 129.525L73.5009 129.227C72.9055 127.441 72.9055 125.654 73.0543 123.868Z" fill="#8C4C09"/>
<path d="M50.2783 123.57H45.0681V129.673L50.8738 129.525C50.2783 127.738 50.2783 125.654 50.2783 123.57Z" fill="#8C4C09"/>
<path d="M67.844 122.23H59.6565V130.418H67.844V122.23Z" fill="#C28C4B"/>
<path d="M27.5023 84.5683C30.3307 81.4422 9.7876 103.772 9.7876 108.535C9.7876 113.001 38.3693 131.162 38.3693 131.162L40.9 125.208C40.9 125.208 25.5671 108.386 21.2501 106.005C21.2501 106.005 32.1171 95.733 34.0523 92.7558C35.8386 89.7785 27.5023 84.5683 27.5023 84.5683Z" fill="#D8826C"/>
<path d="M49.0874 124.464C50.7249 124.315 52.3624 124.315 53.9999 124.166C54.2976 124.166 54.4465 124.017 54.4465 123.719C54.4465 121.784 52.3624 120.593 50.5761 120.444C49.534 120.295 48.6409 120.444 47.5988 120.742C48.492 119.849 49.534 118.956 50.2783 118.062C50.4272 117.914 50.4272 117.467 50.1295 117.467C48.3431 116.723 46.8545 117.616 45.5147 118.807C44.4727 119.7 43.5795 120.742 42.6863 121.784C41.7931 122.826 40.6023 123.273 39.4114 123.719H39.2625C35.9875 124.315 35.5409 127.441 36.8807 130.12C37.7738 131.609 39.1136 132.353 40.7511 132.502C41.7931 132.651 43.1329 132.204 44.1749 132.056C46.7056 131.609 48.7897 132.949 50.7249 134.437C51.0226 134.735 51.4692 134.586 51.4692 134.14C51.7669 131.014 49.534 128.929 46.8545 127.59C49.3852 127.143 51.4692 129.078 54.1488 129.376C54.4465 129.376 54.5953 129.227 54.5953 128.929C54.7442 125.952 51.6181 125.208 49.0874 124.464Z" fill="#F0A98F"/>
<path d="M42.2397 83.9725C39.709 88.885 22.5898 106.004 22.5898 106.004C25.4182 107.939 33.4568 115.829 37.3272 119.7C38.667 121.039 39.5601 121.933 39.5601 121.933L35.0942 130.12C34.2011 129.673 33.159 129.227 32.2659 128.631C14.4023 118.955 8.00122 108.237 8.00122 108.237C12.1694 91.4157 38.3693 68.6396 38.3693 68.6396C42.6863 71.3192 42.2397 83.9725 42.2397 83.9725Z" fill="#EBE6E2"/>
<path d="M99.2541 83.9728C96.4257 80.8467 116.969 103.176 116.969 107.94C116.969 112.406 88.3871 130.567 88.3871 130.567L85.8564 124.612C85.8564 124.612 101.189 107.791 105.506 105.409C105.506 105.409 94.6394 95.1376 92.7042 92.1603C90.9178 89.183 99.2541 83.9728 99.2541 83.9728Z" fill="#D8826C"/>
<path d="M72.0122 128.334C72.0122 128.483 72.1611 128.781 72.4588 128.781C75.1383 128.483 77.0735 126.548 79.7531 126.994C77.0735 128.185 74.8406 130.269 75.1383 133.544C75.1383 133.991 75.5849 134.14 75.8827 133.842C77.8179 132.353 79.9019 131.014 82.4326 131.46C83.4747 131.609 84.8144 132.056 85.8564 131.907C87.4939 131.758 88.8337 131.014 89.7269 129.525C91.2155 126.845 90.6201 123.719 87.3451 123.124C87.1962 123.124 87.1962 123.124 87.1962 123.124C86.0053 122.677 84.9633 122.082 83.9212 121.189C83.0281 120.295 82.1349 119.104 81.0929 118.211C79.7531 117.02 78.2645 116.127 76.4781 116.872C76.1804 117.02 76.1804 117.318 76.3292 117.616C77.0735 118.509 77.9667 119.402 79.0087 120.295C78.1156 120.147 77.0735 119.998 76.0315 119.998C74.2451 120.147 72.1611 121.337 72.1611 123.273C72.1611 123.57 72.3099 123.719 72.6076 123.719C74.2451 123.868 75.8826 123.868 77.5201 124.017C75.1383 124.612 72.0122 125.506 72.0122 128.334Z" fill="#F0A98F"/>
<path d="M84.5168 83.3776C87.0475 88.29 104.167 105.409 104.167 105.409C101.338 107.344 93.2997 115.234 89.4292 119.105C88.0895 120.444 87.1963 121.338 87.1963 121.338L91.6622 129.525C92.5554 129.078 93.5974 128.632 94.4906 128.036C112.354 118.36 118.755 107.642 118.755 107.642C114.587 90.8207 88.3872 68.0447 88.3872 68.0447C84.0702 70.8731 84.5168 83.3776 84.5168 83.3776Z" fill="#EBE6E2"/>
<path d="M2.34424 84.8657L4.13061 148.579L122.477 153.045L128.133 79.0601L2.34424 84.8657Z" fill="#EDDBC3"/>
<path d="M113.396 86.9502L101.189 94.5422L103.869 96.7752C94.3417 106.749 80.944 120.742 80.7952 121.486C80.3486 122.677 70.2259 99.1569 70.5236 97.966C70.9702 96.7751 44.026 131.014 44.026 131.014L35.6897 110.917L16.0398 137.861L36.1363 118.509L44.1749 134.884L70.6725 104.516L81.9861 125.803L104.911 97.6683L106.697 99.157L113.396 86.9502Z" fill="#1F51EE"/>
<path d="M116.671 145.9L10.6804 140.987L9.63843 90.6716H10.6804L11.8714 139.796L116.82 144.709L116.671 145.9Z" fill="#1F51EE"/>
<path d="M1.00483 112.703C1.60028 111.959 2.49345 111.512 3.83322 111.661C4.87526 111.81 5.91734 111.959 6.66165 112.405C8.74573 113.596 8.59683 114.787 6.06616 114.638C11.1275 115.085 8.29914 119.253 4.42871 119.551C4.8753 119.551 8.00139 119.253 6.21504 120.444C4.27982 121.635 -0.334943 119.997 0.111646 116.871C-0.18608 115.383 0.111655 113.745 1.00483 112.703Z" fill="#F0A98F"/>
</svg>
