<svg width="76" height="169" viewBox="0 0 76 169" fill="none" xmlns="http://www.w3.org/2000/svg">
<path d="M69.2684 113.589C69.2684 115.432 70.7618 116.925 72.6039 116.925C74.4461 116.925 75.9395 115.432 75.9395 113.589C75.9395 111.747 74.4461 110.254 72.6039 110.254C70.7618 110.254 69.2684 111.747 69.2684 113.589Z" fill="#EBF5FF"/>
<path d="M2.55807 39.8145C1.28273 39.8145 0.301695 38.8335 0.301695 37.5582C0.301695 36.2828 1.28273 35.3018 2.55807 35.3018C3.83342 35.3018 4.81445 36.2828 4.81445 37.5582C4.81445 38.8335 3.73531 39.8145 2.55807 39.8145Z" fill="#84B4FE"/>
<path d="M14.3308 129.579L15.0175 128.206C15.0175 128.108 15.1156 128.01 15.2137 128.01L16.5871 127.323C16.8814 127.127 16.8814 126.636 16.5871 126.44L15.2137 125.753C15.1156 125.753 15.0175 125.655 15.0175 125.557L14.3308 124.184C14.1345 123.889 13.644 123.889 13.4478 124.184L12.7611 125.557C12.7611 125.655 12.663 125.753 12.5649 125.753L11.1914 126.44C10.8971 126.636 10.8971 127.127 11.1914 127.323L12.5649 128.01C12.663 128.01 12.7611 128.108 12.7611 128.206L13.4478 129.579C13.644 129.874 14.1345 129.874 14.3308 129.579Z" fill="#EBF5FF"/>
<path d="M59.2618 50.3125L60.1447 48.6447C60.2429 48.5466 60.2429 48.4485 60.4391 48.3504L62.1068 47.4675C62.4992 47.2713 62.4992 46.5846 62.1068 46.3884L60.4391 45.5054C60.341 45.4073 60.2429 45.4073 60.1447 45.2111L59.2618 43.5433C59.0656 43.1509 58.3789 43.1509 58.1827 43.5433L57.2998 45.2111C57.2017 45.3092 57.2017 45.4073 57.0054 45.5054L55.3377 46.3884C54.9453 46.5846 54.9453 47.2713 55.3377 47.4675L57.0054 48.3504C57.1035 48.4485 57.2017 48.4485 57.2998 48.6447L58.1827 50.3125C58.477 50.803 59.0656 50.803 59.2618 50.3125Z" fill="#C1DDF7"/>
<path d="M25.3179 167.84L26.397 165.78C26.4951 165.682 26.5932 165.584 26.6913 165.486L28.7515 164.406C29.242 164.112 29.242 163.425 28.7515 163.131L26.6913 162.052C26.5932 161.954 26.4951 161.856 26.397 161.758L25.3179 159.697C25.0236 159.207 24.3368 159.207 24.0425 159.697L22.9634 161.758C22.8653 161.856 22.7672 161.954 22.6691 162.052L20.6089 163.131C20.1184 163.425 20.1184 164.112 20.6089 164.406L22.6691 165.486C22.7672 165.584 22.8653 165.682 22.9634 165.78L24.0425 167.84C24.2387 168.429 25.0236 168.429 25.3179 167.84Z" fill="#C1DDF7"/>
<path d="M33.1664 8.12793L34.1474 6.26397C34.2455 6.16587 34.3436 6.06776 34.4417 5.96966L36.3057 4.98863C36.7962 4.69432 36.7962 4.0076 36.3057 3.81139L34.4417 2.83036C34.3436 2.73225 34.2455 2.63415 34.1474 2.53604L33.1664 0.672087C32.8721 0.18157 32.1854 0.18157 31.9892 0.672087L31.0081 2.53604C30.91 2.63415 30.8119 2.73225 30.7138 2.83036L28.8499 3.81139C28.3593 4.1057 28.3593 4.79242 28.8499 4.98863L30.7138 5.96966C30.8119 6.06776 30.91 6.16587 31.0081 6.26397L31.9892 8.12793C32.1854 8.61845 32.8721 8.61845 33.1664 8.12793Z" fill="#84B4FE"/>
<path d="M44.8407 133.406L45.6255 132.033C45.6255 131.935 45.7236 131.837 45.8218 131.837L47.1952 131.052C47.5876 130.856 47.5876 130.365 47.1952 130.169L45.8218 129.384C45.7236 129.384 45.6255 129.286 45.6255 129.188L44.8407 127.814C44.6445 127.422 44.154 127.422 43.9578 127.814L43.173 129.188C43.173 129.286 43.0749 129.384 42.9767 129.384L41.6033 130.169C41.2109 130.365 41.2109 130.856 41.6033 131.052L42.9767 131.837C43.0749 131.837 43.173 131.935 43.173 132.033L43.9578 133.406C44.154 133.799 44.6445 133.799 44.8407 133.406Z" fill="#84B4FE"/>
</svg>
