<svg width="64" height="285" viewBox="0 0 64 285" fill="none" xmlns="http://www.w3.org/2000/svg">
<path d="M-2.39737 126.651C-2.39737 139.221 7.66085 149.411 20.0683 149.411C32.4757 149.411 42.5339 139.221 42.5339 126.651C42.5339 114.081 32.4757 103.891 20.0683 103.891C7.66085 103.891 -2.39737 114.081 -2.39737 126.651Z" fill="#4E95FD"/>
<path d="M-0.0431519 196.207C-0.0431519 207.476 8.96093 216.612 20.068 216.612C31.1751 216.612 40.1792 207.476 40.1792 196.207C40.1792 184.937 31.1751 175.801 20.068 175.801C8.96093 175.801 -0.0431519 184.937 -0.0431519 196.207Z" fill="#4E95FD"/>
<path d="M21.7359 162.558C21.7359 171.335 28.7634 178.451 37.4324 178.451C46.1013 178.451 53.1289 171.335 53.1289 162.558C53.1289 153.78 46.1013 146.665 37.4324 146.665C28.7634 146.665 21.7359 153.78 21.7359 162.558Z" fill="#4E95FD"/>
<path d="M35.9607 133.519C35.9607 139.641 40.8799 144.604 46.9482 144.604C53.0165 144.604 57.9358 139.641 57.9358 133.519C57.9358 127.396 53.0165 122.433 46.9482 122.433C40.8799 122.433 35.9607 127.396 35.9607 133.519Z" fill="#4E95FD"/>
<path d="M48.6161 161.87C48.6161 166.042 51.9543 169.424 56.072 169.424C60.1898 169.424 63.5278 166.042 63.5278 161.87C63.5278 157.698 60.1898 154.316 56.072 154.316C51.9543 154.316 48.6161 157.698 48.6161 161.87Z" fill="#4E95FD"/>
<path d="M24.3849 148.333C24.3849 155.756 30.3144 161.773 37.6289 161.773C44.9433 161.773 50.8728 155.756 50.8728 148.333C50.8728 140.91 44.9433 134.893 37.6289 134.893C30.3144 134.893 24.3849 140.91 24.3849 148.333Z" fill="#4E95FD"/>
<path d="M-53.9999 41.1053C-53.9999 63.8071 -35.86 82.2106 -13.4832 82.2106C8.8935 82.2106 27.0334 63.8071 27.0334 41.1053C27.0334 18.4035 8.8935 0 -13.4832 0C-35.86 0 -53.9999 18.4035 -53.9999 41.1053Z" fill="#4E95FD"/>
<path d="M-20.6448 90.4509C-20.6448 107.464 -7.02891 121.255 9.76718 121.255C26.5633 121.255 40.1792 107.464 40.1792 90.4509C40.1792 73.4381 26.5633 59.6465 9.76718 59.6465C-7.02891 59.6465 -20.6448 73.4381 -20.6448 90.4509Z" fill="#4E95FD"/>
<path d="M-53.9014 241.138C-53.9014 265.194 -34.6634 284.696 -10.9322 284.696C12.7991 284.696 32.0371 265.194 32.0371 241.138C32.0371 217.082 12.7991 197.58 -10.9322 197.58C-34.6634 197.58 -53.9014 217.082 -53.9014 241.138Z" fill="#4E95FD"/>
<path d="M-31.2398 133.126C-31.2398 150.139 -17.6239 163.93 -0.827789 163.93C15.9683 163.93 29.5842 150.139 29.5842 133.126C29.5842 116.113 15.9683 102.321 -0.827789 102.321C-17.6239 102.321 -31.2398 116.113 -31.2398 133.126Z" fill="#4E95FD"/>
<path d="M-31.2401 170.111C-31.2401 189.237 -15.9551 204.741 2.89986 204.741C21.7548 204.741 37.0398 189.237 37.0398 170.111C37.0398 150.985 21.7548 135.48 2.89986 135.48C-15.9551 135.48 -31.2401 150.985 -31.2401 170.111Z" fill="#4E95FD"/>
</svg>
