<svg width="148" height="88" viewBox="0 0 148 88" fill="none" xmlns="http://www.w3.org/2000/svg">
<path d="M51.21 18.8096C51.21 18.8096 38.2603 -7.97256 4.19617e-05 2.6226C4.19617e-05 2.6226 19.2283 8.31261 24.2316 26.4617L51.21 18.8096Z" fill="#1F51EE"/>
<path d="M51.21 68.9406C51.21 68.9406 38.2603 95.7228 4.19617e-05 85.1277C4.19617e-05 85.1277 19.2283 79.4377 24.2316 61.2886L51.21 68.9406Z" fill="#1F51EE"/>
<path d="M16.1875 52.5571V34.408C16.1875 33.7213 16.678 33.0346 17.3647 32.9365L21.7794 31.9554C22.7604 31.7592 23.6433 32.4459 23.6433 33.427V53.6363C23.6433 54.6173 22.7604 55.4021 21.7794 55.1078L17.3647 54.1268C16.678 53.9306 16.1875 53.342 16.1875 52.5571Z" fill="#214A81"/>
<path d="M61.5106 17.2401C61.5106 17.2401 35.9056 19.987 19.6205 28.6201C19.6205 28.6201 26.1934 42.3546 19.6205 58.5416C19.6205 58.5416 33.3549 68.4501 63.5707 70.5102C80.935 71.6875 100.85 70.314 118.018 64.5259V24.3036C103.989 18.9079 85.2516 15.0818 61.5106 17.2401Z" fill="#C1DDF7"/>
<path d="M145.782 40.6865C141.171 36.6643 132.047 29.6989 118.018 24.3032V64.5256C129.006 60.7976 138.816 55.402 146.174 47.6518C147.94 45.6897 147.842 42.4523 145.782 40.6865Z" fill="#1F51EE"/>
<path d="M62.7861 43.1398C62.7861 43.1398 34.7286 30.7788 1.37346 43.1398C1.37346 43.1398 29.1367 56.8742 62.7861 43.1398Z" fill="#1F51EE"/>
<path d="M73.2833 44.3167C73.2833 52.8773 80.223 59.8171 88.7836 59.8171C97.3442 59.8171 104.284 52.8773 104.284 44.3167C104.284 35.7561 97.3442 28.8164 88.7836 28.8164C80.223 28.8164 73.2833 35.7561 73.2833 44.3167Z" fill="#214A81"/>
<path d="M86.3097 54.8723C92.1116 56.2354 97.92 52.6369 99.283 46.8349C100.646 41.0329 97.0476 35.2246 91.2456 33.8615C85.4437 32.4985 79.6353 36.097 78.2722 41.8989C76.9092 47.7009 80.5077 53.5093 86.3097 54.8723Z" fill="#FFD474"/>
</svg>
