<svg width="25" height="24" viewBox="0 0 25 24" fill="none" xmlns="http://www.w3.org/2000/svg">
<path d="M10.2459 8.75507H9.90329H7.61938V10.8487H10.0746C10.5123 10.8487 10.893 10.7345 10.893 9.72573C10.893 8.71701 10.2459 8.75507 10.2459 8.75507Z" fill="#35305A"/>
<path d="M10.2459 12.3711H7.61938V15.0356H9.92232C9.96039 15.0356 10.0175 15.0356 10.0936 15.0356C10.4743 15.0356 11.1975 14.8834 11.1975 13.7414C11.2165 12.3901 10.2459 12.3711 10.2459 12.3711Z" fill="#35305A"/>
<path d="M18.9249 0H6.97253C3.66087 0 0.958252 2.70262 0.958252 6.01427V17.9857C0.958252 21.2784 3.66087 23.981 6.97253 23.981H18.944C22.2556 23.981 24.9583 21.2783 24.9583 17.9667V6.01427C24.9392 2.70262 22.2366 0 18.9249 0ZM15.0423 7.61301H19.0391V8.56463H15.0423V7.61301ZM13.1771 13.8747C13.1771 16.8438 10.2461 16.9389 10.2461 16.9389H7.5435H7.46737H5.52606V7.04203H7.44834H7.52447H10.2271C11.6926 7.04203 12.8536 7.87946 12.8536 9.63045C12.8536 11.3814 11.4452 11.4766 11.4452 11.4766C13.3104 11.4576 13.1771 13.8747 13.1771 13.8747ZM20.3524 13.7034H15.5372C15.5372 15.6067 17.174 15.4544 17.174 15.4544C18.7156 15.4544 18.6585 14.4647 18.6585 14.4647H20.2953C20.2953 17.1293 17.1169 17.0151 17.1169 17.0151C13.3104 17.0151 13.5578 13.2657 13.5578 13.2657C13.5578 13.2657 13.5578 9.49722 17.1169 9.49722C20.8663 9.47819 20.3524 13.7034 20.3524 13.7034Z" fill="#35305A"/>
<path d="M17.1551 10.8677C15.7277 10.8677 15.5183 12.3712 15.5183 12.3712H18.5635C18.5635 12.3712 18.5825 10.8677 17.1551 10.8677Z" fill="#35305A"/>
</svg>
