<svg width="375" height="202" viewBox="0 0 375 202" fill="none" xmlns="http://www.w3.org/2000/svg">
<circle cx="374.427" cy="20.6481" r="1.99822" transform="rotate(-180 374.427 20.6481)" fill="#4E95FD"/>
<circle cx="365.103" cy="20.6481" r="1.99822" transform="rotate(-180 365.103 20.6481)" fill="#4E95FD"/>
<circle cx="355.777" cy="20.6481" r="1.99822" transform="rotate(-180 355.777 20.6481)" fill="#4E95FD"/>
<circle cx="374.427" cy="1.99824" r="1.99822" transform="rotate(-180 374.427 1.99824)" fill="#4E95FD"/>
<circle cx="365.103" cy="1.99824" r="1.99822" transform="rotate(-180 365.103 1.99824)" fill="#4E95FD"/>
<circle cx="355.777" cy="1.99824" r="1.99822" transform="rotate(-180 355.777 1.99824)" fill="#4E95FD"/>
<circle cx="374.073" cy="162.195" r="1.99822" transform="rotate(-180 374.073 162.195)" fill="#8484FC"/>
<circle cx="364.749" cy="162.195" r="1.99822" transform="rotate(-180 364.749 162.195)" fill="#8484FC"/>
<circle cx="355.423" cy="162.195" r="1.99822" transform="rotate(-180 355.423 162.195)" fill="#8484FC"/>
<circle cx="374.073" cy="124.895" r="1.99822" transform="rotate(-180 374.073 124.895)" fill="#8484FC"/>
<circle cx="364.749" cy="124.895" r="1.99822" transform="rotate(-180 364.749 124.895)" fill="#8484FC"/>
<circle cx="355.423" cy="124.895" r="1.99822" transform="rotate(-180 355.423 124.895)" fill="#8484FC"/>
<circle cx="374.073" cy="143.544" r="1.99822" transform="rotate(-180 374.073 143.544)" fill="#8484FC"/>
<circle cx="364.749" cy="143.544" r="1.99822" transform="rotate(-180 364.749 143.544)" fill="#8484FC"/>
<circle cx="355.423" cy="143.544" r="1.99822" transform="rotate(-180 355.423 143.544)" fill="#8484FC"/>
<circle cx="374.073" cy="171.519" r="1.99822" transform="rotate(-180 374.073 171.519)" fill="#8484FC"/>
<circle cx="364.749" cy="171.519" r="1.99822" transform="rotate(-180 364.749 171.519)" fill="#8484FC"/>
<circle cx="355.423" cy="171.519" r="1.99822" transform="rotate(-180 355.423 171.519)" fill="#8484FC"/>
<circle cx="374.073" cy="134.219" r="1.99822" transform="rotate(-180 374.073 134.219)" fill="#8484FC"/>
<circle cx="364.749" cy="134.219" r="1.99822" transform="rotate(-180 364.749 134.219)" fill="#8484FC"/>
<circle cx="355.423" cy="134.219" r="1.99822" transform="rotate(-180 355.423 134.219)" fill="#8484FC"/>
<circle cx="374.073" cy="152.87" r="1.99822" transform="rotate(-180 374.073 152.87)" fill="#8484FC"/>
<circle cx="364.749" cy="152.87" r="1.99822" transform="rotate(-180 364.749 152.87)" fill="#8484FC"/>
<circle cx="355.423" cy="152.87" r="1.99822" transform="rotate(-180 355.423 152.87)" fill="#8484FC"/>
<circle cx="374.427" cy="104.574" r="1.99822" transform="rotate(-180 374.427 104.574)" fill="#4E95FD"/>
<circle cx="365.103" cy="104.574" r="1.99822" transform="rotate(-180 365.103 104.574)" fill="#4E95FD"/>
<circle cx="355.777" cy="104.574" r="1.99822" transform="rotate(-180 355.777 104.574)" fill="#4E95FD"/>
<circle cx="374.427" cy="67.2736" r="1.99822" transform="rotate(-180 374.427 67.2736)" fill="#4E95FD"/>
<circle cx="365.103" cy="67.2736" r="1.99822" transform="rotate(-180 365.103 67.2736)" fill="#4E95FD"/>
<circle cx="355.777" cy="67.2736" r="1.99822" transform="rotate(-180 355.777 67.2736)" fill="#4E95FD"/>
<circle cx="374.427" cy="85.9233" r="1.99822" transform="rotate(-180 374.427 85.9233)" fill="#4E95FD"/>
<circle cx="365.103" cy="85.9233" r="1.99822" transform="rotate(-180 365.103 85.9233)" fill="#4E95FD"/>
<circle cx="355.777" cy="85.9233" r="1.99822" transform="rotate(-180 355.777 85.9233)" fill="#4E95FD"/>
<circle cx="374.427" cy="39.298" r="1.99822" transform="rotate(-180 374.427 39.298)" fill="#4E95FD"/>
<circle cx="365.103" cy="39.298" r="1.99822" transform="rotate(-180 365.103 39.298)" fill="#4E95FD"/>
<circle cx="355.777" cy="39.298" r="1.99822" transform="rotate(-180 355.777 39.298)" fill="#4E95FD"/>
<circle cx="374.427" cy="48.623" r="1.99822" transform="rotate(-180 374.427 48.623)" fill="#4E95FD"/>
<circle cx="365.103" cy="48.623" r="1.99822" transform="rotate(-180 365.103 48.623)" fill="#4E95FD"/>
<circle cx="355.777" cy="48.623" r="1.99822" transform="rotate(-180 355.777 48.623)" fill="#4E95FD"/>
<circle cx="374.427" cy="113.898" r="1.99822" transform="rotate(-180 374.427 113.898)" fill="#8484FC"/>
<circle cx="365.103" cy="113.898" r="1.99822" transform="rotate(-180 365.103 113.898)" fill="#8484FC"/>
<circle cx="355.777" cy="113.898" r="1.99822" transform="rotate(-180 355.777 113.898)" fill="#8484FC"/>
<circle cx="374.427" cy="76.5983" r="1.99822" transform="rotate(-180 374.427 76.5983)" fill="#4E95FD"/>
<circle cx="365.103" cy="76.5983" r="1.99822" transform="rotate(-180 365.103 76.5983)" fill="#4E95FD"/>
<circle cx="355.777" cy="76.5983" r="1.99822" transform="rotate(-180 355.777 76.5983)" fill="#4E95FD"/>
<circle cx="374.427" cy="29.9728" r="1.99822" transform="rotate(-180 374.427 29.9728)" fill="#4E95FD"/>
<circle cx="365.103" cy="29.9728" r="1.99822" transform="rotate(-180 365.103 29.9728)" fill="#4E95FD"/>
<circle cx="355.777" cy="29.9728" r="1.99822" transform="rotate(-180 355.777 29.9728)" fill="#4E95FD"/>
<circle cx="374.427" cy="95.2487" r="1.99822" transform="rotate(-180 374.427 95.2487)" fill="#4E95FD"/>
<circle cx="365.103" cy="95.2487" r="1.99822" transform="rotate(-180 365.103 95.2487)" fill="#4E95FD"/>
<circle cx="355.777" cy="95.2487" r="1.99822" transform="rotate(-180 355.777 95.2487)" fill="#4E95FD"/>
<circle cx="374.427" cy="57.9482" r="1.99822" transform="rotate(-180 374.427 57.9482)" fill="#4E95FD"/>
<circle cx="365.103" cy="57.9482" r="1.99822" transform="rotate(-180 365.103 57.9482)" fill="#4E95FD"/>
<circle cx="355.777" cy="57.9482" r="1.99822" transform="rotate(-180 355.777 57.9482)" fill="#4E95FD"/>
<circle cx="346.322" cy="162.195" r="1.99822" transform="rotate(-180 346.322 162.195)" fill="#8484FC"/>
<circle cx="336.998" cy="162.195" r="1.99822" transform="rotate(-180 336.998 162.195)" fill="#8484FC"/>
<circle cx="327.672" cy="162.195" r="1.99822" transform="rotate(-180 327.672 162.195)" fill="#8484FC"/>
<circle cx="346.322" cy="124.895" r="1.99822" transform="rotate(-180 346.322 124.895)" fill="#8484FC"/>
<circle cx="336.998" cy="124.895" r="1.99822" transform="rotate(-180 336.998 124.895)" fill="#8484FC"/>
<circle cx="327.672" cy="124.895" r="1.99822" transform="rotate(-180 327.672 124.895)" fill="#8484FC"/>
<circle cx="346.322" cy="143.544" r="1.99822" transform="rotate(-180 346.322 143.544)" fill="#8484FC"/>
<circle cx="336.998" cy="143.544" r="1.99822" transform="rotate(-180 336.998 143.544)" fill="#8484FC"/>
<circle cx="327.672" cy="143.544" r="1.99822" transform="rotate(-180 327.672 143.544)" fill="#8484FC"/>
<circle cx="346.322" cy="171.519" r="1.99822" transform="rotate(-180 346.322 171.519)" fill="#8484FC"/>
<circle cx="336.998" cy="171.519" r="1.99822" transform="rotate(-180 336.998 171.519)" fill="#8484FC"/>
<circle cx="327.672" cy="171.519" r="1.99822" transform="rotate(-180 327.672 171.519)" fill="#8484FC"/>
<circle cx="346.322" cy="134.219" r="1.99822" transform="rotate(-180 346.322 134.219)" fill="#8484FC"/>
<circle cx="336.998" cy="134.219" r="1.99822" transform="rotate(-180 336.998 134.219)" fill="#8484FC"/>
<circle cx="327.672" cy="134.219" r="1.99822" transform="rotate(-180 327.672 134.219)" fill="#8484FC"/>
<circle cx="346.322" cy="152.87" r="1.99822" transform="rotate(-180 346.322 152.87)" fill="#8484FC"/>
<circle cx="336.998" cy="152.87" r="1.99822" transform="rotate(-180 336.998 152.87)" fill="#8484FC"/>
<circle cx="327.672" cy="152.87" r="1.99822" transform="rotate(-180 327.672 152.87)" fill="#8484FC"/>
<circle cx="346.676" cy="104.574" r="1.99822" transform="rotate(-180 346.676 104.574)" fill="#4E95FD"/>
<circle cx="337.352" cy="104.574" r="1.99822" transform="rotate(-180 337.352 104.574)" fill="#4E95FD"/>
<circle cx="328.026" cy="104.574" r="1.99822" transform="rotate(-180 328.026 104.574)" fill="#4E95FD"/>
<circle cx="346.676" cy="67.2736" r="1.99822" transform="rotate(-180 346.676 67.2736)" fill="#4E95FD"/>
<circle cx="337.352" cy="67.2736" r="1.99822" transform="rotate(-180 337.352 67.2736)" fill="#4E95FD"/>
<circle cx="328.026" cy="67.2736" r="1.99822" transform="rotate(-180 328.026 67.2736)" fill="#4E95FD"/>
<circle cx="346.676" cy="85.9233" r="1.99822" transform="rotate(-180 346.676 85.9233)" fill="#4E95FD"/>
<circle cx="337.352" cy="85.9233" r="1.99822" transform="rotate(-180 337.352 85.9233)" fill="#4E95FD"/>
<circle cx="328.026" cy="85.9233" r="1.99822" transform="rotate(-180 328.026 85.9233)" fill="#4E95FD"/>
<circle cx="346.676" cy="39.298" r="1.99822" transform="rotate(-180 346.676 39.298)" fill="#4E95FD"/>
<circle cx="337.352" cy="39.298" r="1.99822" transform="rotate(-180 337.352 39.298)" fill="#4E95FD"/>
<circle cx="328.026" cy="39.298" r="1.99822" transform="rotate(-180 328.026 39.298)" fill="#4E95FD"/>
<circle cx="346.676" cy="48.623" r="1.99822" transform="rotate(-180 346.676 48.623)" fill="#4E95FD"/>
<circle cx="337.352" cy="48.623" r="1.99822" transform="rotate(-180 337.352 48.623)" fill="#4E95FD"/>
<circle cx="328.026" cy="48.623" r="1.99822" transform="rotate(-180 328.026 48.623)" fill="#4E95FD"/>
<circle cx="346.676" cy="113.898" r="1.99822" transform="rotate(-180 346.676 113.898)" fill="#8484FC"/>
<circle cx="337.352" cy="113.898" r="1.99822" transform="rotate(-180 337.352 113.898)" fill="#8484FC"/>
<circle cx="328.026" cy="113.898" r="1.99822" transform="rotate(-180 328.026 113.898)" fill="#8484FC"/>
<circle cx="346.676" cy="76.5983" r="1.99822" transform="rotate(-180 346.676 76.5983)" fill="#4E95FD"/>
<circle cx="337.352" cy="76.5983" r="1.99822" transform="rotate(-180 337.352 76.5983)" fill="#4E95FD"/>
<circle cx="328.026" cy="76.5983" r="1.99822" transform="rotate(-180 328.026 76.5983)" fill="#4E95FD"/>
<circle cx="346.676" cy="29.9728" r="1.99822" transform="rotate(-180 346.676 29.9728)" fill="#4E95FD"/>
<circle cx="337.352" cy="29.9728" r="1.99822" transform="rotate(-180 337.352 29.9728)" fill="#4E95FD"/>
<circle cx="328.026" cy="29.9728" r="1.99822" transform="rotate(-180 328.026 29.9728)" fill="#4E95FD"/>
<circle cx="346.676" cy="95.2487" r="1.99822" transform="rotate(-180 346.676 95.2487)" fill="#4E95FD"/>
<circle cx="337.352" cy="95.2487" r="1.99822" transform="rotate(-180 337.352 95.2487)" fill="#4E95FD"/>
<circle cx="328.026" cy="95.2487" r="1.99822" transform="rotate(-180 328.026 95.2487)" fill="#4E95FD"/>
<circle cx="346.676" cy="57.9482" r="1.99822" transform="rotate(-180 346.676 57.9482)" fill="#4E95FD"/>
<circle cx="337.352" cy="57.9482" r="1.99822" transform="rotate(-180 337.352 57.9482)" fill="#4E95FD"/>
<circle cx="328.026" cy="57.9482" r="1.99822" transform="rotate(-180 328.026 57.9482)" fill="#4E95FD"/>
<circle cx="318.073" cy="162.195" r="1.99822" transform="rotate(-180 318.073 162.195)" fill="#8484FC"/>
<circle cx="308.749" cy="162.195" r="1.99822" transform="rotate(-180 308.749 162.195)" fill="#8484FC"/>
<circle cx="299.423" cy="162.195" r="1.99822" transform="rotate(-180 299.423 162.195)" fill="#8484FC"/>
<circle cx="318.073" cy="124.895" r="1.99822" transform="rotate(-180 318.073 124.895)" fill="#8484FC"/>
<circle cx="308.749" cy="124.895" r="1.99822" transform="rotate(-180 308.749 124.895)" fill="#8484FC"/>
<circle cx="299.423" cy="124.895" r="1.99822" transform="rotate(-180 299.423 124.895)" fill="#8484FC"/>
<circle cx="318.073" cy="143.544" r="1.99822" transform="rotate(-180 318.073 143.544)" fill="#8484FC"/>
<circle cx="308.749" cy="143.544" r="1.99822" transform="rotate(-180 308.749 143.544)" fill="#8484FC"/>
<circle cx="299.423" cy="143.544" r="1.99822" transform="rotate(-180 299.423 143.544)" fill="#8484FC"/>
<circle cx="318.073" cy="171.519" r="1.99822" transform="rotate(-180 318.073 171.519)" fill="#8484FC"/>
<circle cx="308.749" cy="171.519" r="1.99822" transform="rotate(-180 308.749 171.519)" fill="#8484FC"/>
<circle cx="299.423" cy="171.519" r="1.99822" transform="rotate(-180 299.423 171.519)" fill="#8484FC"/>
<circle cx="318.073" cy="134.219" r="1.99822" transform="rotate(-180 318.073 134.219)" fill="#8484FC"/>
<circle cx="308.749" cy="134.219" r="1.99822" transform="rotate(-180 308.749 134.219)" fill="#8484FC"/>
<circle cx="299.423" cy="134.219" r="1.99822" transform="rotate(-180 299.423 134.219)" fill="#8484FC"/>
<circle cx="318.073" cy="152.87" r="1.99822" transform="rotate(-180 318.073 152.87)" fill="#8484FC"/>
<circle cx="308.749" cy="152.87" r="1.99822" transform="rotate(-180 308.749 152.87)" fill="#8484FC"/>
<circle cx="299.423" cy="152.87" r="1.99822" transform="rotate(-180 299.423 152.87)" fill="#8484FC"/>
<circle cx="318.427" cy="104.574" r="1.99822" transform="rotate(-180 318.427 104.574)" fill="#4E95FD"/>
<circle cx="309.103" cy="104.574" r="1.99822" transform="rotate(-180 309.103 104.574)" fill="#4E95FD"/>
<circle cx="299.777" cy="104.574" r="1.99822" transform="rotate(-180 299.777 104.574)" fill="#4E95FD"/>
<circle cx="318.427" cy="67.2736" r="1.99822" transform="rotate(-180 318.427 67.2736)" fill="#4E95FD"/>
<circle cx="309.103" cy="67.2736" r="1.99822" transform="rotate(-180 309.103 67.2736)" fill="#4E95FD"/>
<circle cx="299.777" cy="67.2736" r="1.99822" transform="rotate(-180 299.777 67.2736)" fill="#4E95FD"/>
<circle cx="318.427" cy="85.9233" r="1.99822" transform="rotate(-180 318.427 85.9233)" fill="#4E95FD"/>
<circle cx="309.103" cy="85.9233" r="1.99822" transform="rotate(-180 309.103 85.9233)" fill="#4E95FD"/>
<circle cx="299.777" cy="85.9233" r="1.99822" transform="rotate(-180 299.777 85.9233)" fill="#4E95FD"/>
<circle cx="318.427" cy="39.298" r="1.99822" transform="rotate(-180 318.427 39.298)" fill="#4E95FD"/>
<circle cx="309.103" cy="39.298" r="1.99822" transform="rotate(-180 309.103 39.298)" fill="#4E95FD"/>
<circle cx="299.777" cy="39.298" r="1.99822" transform="rotate(-180 299.777 39.298)" fill="#4E95FD"/>
<circle cx="318.427" cy="48.623" r="1.99822" transform="rotate(-180 318.427 48.623)" fill="#4E95FD"/>
<circle cx="309.103" cy="48.623" r="1.99822" transform="rotate(-180 309.103 48.623)" fill="#4E95FD"/>
<circle cx="299.777" cy="48.623" r="1.99822" transform="rotate(-180 299.777 48.623)" fill="#4E95FD"/>
<circle cx="318.427" cy="113.898" r="1.99822" transform="rotate(-180 318.427 113.898)" fill="#8484FC"/>
<circle cx="309.103" cy="113.898" r="1.99822" transform="rotate(-180 309.103 113.898)" fill="#8484FC"/>
<circle cx="299.777" cy="113.898" r="1.99822" transform="rotate(-180 299.777 113.898)" fill="#8484FC"/>
<circle cx="318.427" cy="76.5983" r="1.99822" transform="rotate(-180 318.427 76.5983)" fill="#4E95FD"/>
<circle cx="309.103" cy="76.5983" r="1.99822" transform="rotate(-180 309.103 76.5983)" fill="#4E95FD"/>
<circle cx="299.777" cy="76.5983" r="1.99822" transform="rotate(-180 299.777 76.5983)" fill="#4E95FD"/>
<circle cx="318.427" cy="29.9728" r="1.99822" transform="rotate(-180 318.427 29.9728)" fill="#4E95FD"/>
<circle cx="309.103" cy="29.9728" r="1.99822" transform="rotate(-180 309.103 29.9728)" fill="#4E95FD"/>
<circle cx="299.777" cy="29.9728" r="1.99822" transform="rotate(-180 299.777 29.9728)" fill="#4E95FD"/>
<circle cx="318.427" cy="95.2487" r="1.99822" transform="rotate(-180 318.427 95.2487)" fill="#4E95FD"/>
<circle cx="309.103" cy="95.2487" r="1.99822" transform="rotate(-180 309.103 95.2487)" fill="#4E95FD"/>
<circle cx="299.777" cy="95.2487" r="1.99822" transform="rotate(-180 299.777 95.2487)" fill="#4E95FD"/>
<circle cx="318.427" cy="57.9482" r="1.99822" transform="rotate(-180 318.427 57.9482)" fill="#4E95FD"/>
<circle cx="309.103" cy="57.9482" r="1.99822" transform="rotate(-180 309.103 57.9482)" fill="#4E95FD"/>
<circle cx="299.777" cy="57.9482" r="1.99822" transform="rotate(-180 299.777 57.9482)" fill="#4E95FD"/>
<circle cx="290.322" cy="162.195" r="1.99822" transform="rotate(-180 290.322 162.195)" fill="#8484FC"/>
<circle cx="280.998" cy="162.195" r="1.99822" transform="rotate(-180 280.998 162.195)" fill="#8484FC"/>
<circle cx="271.672" cy="162.195" r="1.99822" transform="rotate(-180 271.672 162.195)" fill="#8484FC"/>
<circle cx="290.322" cy="124.895" r="1.99822" transform="rotate(-180 290.322 124.895)" fill="#8484FC"/>
<circle cx="280.998" cy="124.895" r="1.99822" transform="rotate(-180 280.998 124.895)" fill="#8484FC"/>
<circle cx="271.672" cy="124.895" r="1.99822" transform="rotate(-180 271.672 124.895)" fill="#8484FC"/>
<circle cx="290.322" cy="143.544" r="1.99822" transform="rotate(-180 290.322 143.544)" fill="#8484FC"/>
<circle cx="280.998" cy="143.544" r="1.99822" transform="rotate(-180 280.998 143.544)" fill="#8484FC"/>
<circle cx="271.672" cy="143.544" r="1.99822" transform="rotate(-180 271.672 143.544)" fill="#8484FC"/>
<circle cx="290.322" cy="171.519" r="1.99822" transform="rotate(-180 290.322 171.519)" fill="#8484FC"/>
<circle cx="280.998" cy="171.519" r="1.99822" transform="rotate(-180 280.998 171.519)" fill="#8484FC"/>
<circle cx="271.672" cy="171.519" r="1.99822" transform="rotate(-180 271.672 171.519)" fill="#8484FC"/>
<circle cx="290.322" cy="134.219" r="1.99822" transform="rotate(-180 290.322 134.219)" fill="#8484FC"/>
<circle cx="280.998" cy="134.219" r="1.99822" transform="rotate(-180 280.998 134.219)" fill="#8484FC"/>
<circle cx="271.672" cy="134.219" r="1.99822" transform="rotate(-180 271.672 134.219)" fill="#8484FC"/>
<circle cx="290.322" cy="152.87" r="1.99822" transform="rotate(-180 290.322 152.87)" fill="#8484FC"/>
<circle cx="280.998" cy="152.87" r="1.99822" transform="rotate(-180 280.998 152.87)" fill="#8484FC"/>
<circle cx="271.672" cy="152.87" r="1.99822" transform="rotate(-180 271.672 152.87)" fill="#8484FC"/>
<circle cx="290.676" cy="104.574" r="1.99822" transform="rotate(-180 290.676 104.574)" fill="#4E95FD"/>
<circle cx="281.352" cy="104.574" r="1.99822" transform="rotate(-180 281.352 104.574)" fill="#4E95FD"/>
<circle cx="272.026" cy="104.574" r="1.99822" transform="rotate(-180 272.026 104.574)" fill="#4E95FD"/>
<circle cx="290.676" cy="67.2736" r="1.99822" transform="rotate(-180 290.676 67.2736)" fill="#4E95FD"/>
<circle cx="281.352" cy="67.2736" r="1.99822" transform="rotate(-180 281.352 67.2736)" fill="#4E95FD"/>
<circle cx="272.026" cy="67.2736" r="1.99822" transform="rotate(-180 272.026 67.2736)" fill="#4E95FD"/>
<circle cx="290.676" cy="85.9233" r="1.99822" transform="rotate(-180 290.676 85.9233)" fill="#4E95FD"/>
<circle cx="281.352" cy="85.9233" r="1.99822" transform="rotate(-180 281.352 85.9233)" fill="#4E95FD"/>
<circle cx="272.026" cy="85.9233" r="1.99822" transform="rotate(-180 272.026 85.9233)" fill="#4E95FD"/>
<circle cx="290.676" cy="39.298" r="1.99822" transform="rotate(-180 290.676 39.298)" fill="#4E95FD"/>
<circle cx="281.352" cy="39.298" r="1.99822" transform="rotate(-180 281.352 39.298)" fill="#4E95FD"/>
<circle cx="272.026" cy="39.298" r="1.99822" transform="rotate(-180 272.026 39.298)" fill="#4E95FD"/>
<circle cx="290.676" cy="48.623" r="1.99822" transform="rotate(-180 290.676 48.623)" fill="#4E95FD"/>
<circle cx="281.352" cy="48.623" r="1.99822" transform="rotate(-180 281.352 48.623)" fill="#4E95FD"/>
<circle cx="272.026" cy="48.623" r="1.99822" transform="rotate(-180 272.026 48.623)" fill="#4E95FD"/>
<circle cx="290.676" cy="113.898" r="1.99822" transform="rotate(-180 290.676 113.898)" fill="#8484FC"/>
<circle cx="281.352" cy="113.898" r="1.99822" transform="rotate(-180 281.352 113.898)" fill="#8484FC"/>
<circle cx="272.026" cy="113.898" r="1.99822" transform="rotate(-180 272.026 113.898)" fill="#8484FC"/>
<circle cx="290.676" cy="76.5983" r="1.99822" transform="rotate(-180 290.676 76.5983)" fill="#4E95FD"/>
<circle cx="281.352" cy="76.5983" r="1.99822" transform="rotate(-180 281.352 76.5983)" fill="#4E95FD"/>
<circle cx="272.026" cy="76.5983" r="1.99822" transform="rotate(-180 272.026 76.5983)" fill="#4E95FD"/>
<circle cx="290.676" cy="29.9728" r="1.99822" transform="rotate(-180 290.676 29.9728)" fill="#4E95FD"/>
<circle cx="281.352" cy="29.9728" r="1.99822" transform="rotate(-180 281.352 29.9728)" fill="#4E95FD"/>
<circle cx="272.026" cy="29.9728" r="1.99822" transform="rotate(-180 272.026 29.9728)" fill="#4E95FD"/>
<circle cx="290.676" cy="95.2487" r="1.99822" transform="rotate(-180 290.676 95.2487)" fill="#4E95FD"/>
<circle cx="281.352" cy="95.2487" r="1.99822" transform="rotate(-180 281.352 95.2487)" fill="#4E95FD"/>
<circle cx="272.026" cy="95.2487" r="1.99822" transform="rotate(-180 272.026 95.2487)" fill="#4E95FD"/>
<circle cx="290.676" cy="57.9482" r="1.99822" transform="rotate(-180 290.676 57.9482)" fill="#4E95FD"/>
<circle cx="281.352" cy="57.9482" r="1.99822" transform="rotate(-180 281.352 57.9482)" fill="#4E95FD"/>
<circle cx="272.026" cy="57.9482" r="1.99822" transform="rotate(-180 272.026 57.9482)" fill="#4E95FD"/>
<circle cx="262.073" cy="162.195" r="1.99822" transform="rotate(-180 262.073 162.195)" fill="#8484FC"/>
<circle cx="252.749" cy="162.195" r="1.99822" transform="rotate(-180 252.749 162.195)" fill="#8484FC"/>
<circle cx="243.423" cy="162.195" r="1.99822" transform="rotate(-180 243.423 162.195)" fill="#8484FC"/>
<circle cx="262.073" cy="124.895" r="1.99822" transform="rotate(-180 262.073 124.895)" fill="#8484FC"/>
<circle cx="252.749" cy="124.895" r="1.99822" transform="rotate(-180 252.749 124.895)" fill="#8484FC"/>
<circle cx="243.423" cy="124.895" r="1.99822" transform="rotate(-180 243.423 124.895)" fill="#8484FC"/>
<circle cx="262.073" cy="143.544" r="1.99822" transform="rotate(-180 262.073 143.544)" fill="#8484FC"/>
<circle cx="252.749" cy="143.544" r="1.99822" transform="rotate(-180 252.749 143.544)" fill="#8484FC"/>
<circle cx="243.423" cy="143.544" r="1.99822" transform="rotate(-180 243.423 143.544)" fill="#8484FC"/>
<circle cx="262.073" cy="171.519" r="1.99822" transform="rotate(-180 262.073 171.519)" fill="#8484FC"/>
<circle cx="252.749" cy="171.519" r="1.99822" transform="rotate(-180 252.749 171.519)" fill="#8484FC"/>
<circle cx="243.423" cy="171.519" r="1.99822" transform="rotate(-180 243.423 171.519)" fill="#8484FC"/>
<circle cx="262.073" cy="134.219" r="1.99822" transform="rotate(-180 262.073 134.219)" fill="#8484FC"/>
<circle cx="252.749" cy="134.219" r="1.99822" transform="rotate(-180 252.749 134.219)" fill="#8484FC"/>
<circle cx="243.423" cy="134.219" r="1.99822" transform="rotate(-180 243.423 134.219)" fill="#8484FC"/>
<circle cx="262.073" cy="152.87" r="1.99822" transform="rotate(-180 262.073 152.87)" fill="#8484FC"/>
<circle cx="252.749" cy="152.87" r="1.99822" transform="rotate(-180 252.749 152.87)" fill="#8484FC"/>
<circle cx="243.423" cy="152.87" r="1.99822" transform="rotate(-180 243.423 152.87)" fill="#8484FC"/>
<circle cx="262.427" cy="104.574" r="1.99822" transform="rotate(-180 262.427 104.574)" fill="#4E95FD"/>
<circle cx="253.103" cy="104.574" r="1.99822" transform="rotate(-180 253.103 104.574)" fill="#4E95FD"/>
<circle cx="243.777" cy="104.574" r="1.99822" transform="rotate(-180 243.777 104.574)" fill="#4E95FD"/>
<circle cx="262.427" cy="67.2736" r="1.99822" transform="rotate(-180 262.427 67.2736)" fill="#4E95FD"/>
<circle cx="253.103" cy="67.2736" r="1.99822" transform="rotate(-180 253.103 67.2736)" fill="#4E95FD"/>
<circle cx="243.777" cy="67.2736" r="1.99822" transform="rotate(-180 243.777 67.2736)" fill="#4E95FD"/>
<circle cx="262.427" cy="85.9233" r="1.99822" transform="rotate(-180 262.427 85.9233)" fill="#4E95FD"/>
<circle cx="253.103" cy="85.9233" r="1.99822" transform="rotate(-180 253.103 85.9233)" fill="#4E95FD"/>
<circle cx="243.777" cy="85.9233" r="1.99822" transform="rotate(-180 243.777 85.9233)" fill="#4E95FD"/>
<circle cx="262.427" cy="39.298" r="1.99822" transform="rotate(-180 262.427 39.298)" fill="#4E95FD"/>
<circle cx="253.103" cy="39.298" r="1.99822" transform="rotate(-180 253.103 39.298)" fill="#4E95FD"/>
<circle cx="243.777" cy="39.298" r="1.99822" transform="rotate(-180 243.777 39.298)" fill="#4E95FD"/>
<circle cx="262.427" cy="48.623" r="1.99822" transform="rotate(-180 262.427 48.623)" fill="#4E95FD"/>
<circle cx="253.103" cy="48.623" r="1.99822" transform="rotate(-180 253.103 48.623)" fill="#4E95FD"/>
<circle cx="243.777" cy="48.623" r="1.99822" transform="rotate(-180 243.777 48.623)" fill="#4E95FD"/>
<circle cx="262.427" cy="113.898" r="1.99822" transform="rotate(-180 262.427 113.898)" fill="#8484FC"/>
<circle cx="253.103" cy="113.898" r="1.99822" transform="rotate(-180 253.103 113.898)" fill="#8484FC"/>
<circle cx="243.777" cy="113.898" r="1.99822" transform="rotate(-180 243.777 113.898)" fill="#8484FC"/>
<circle cx="262.427" cy="76.5983" r="1.99822" transform="rotate(-180 262.427 76.5983)" fill="#4E95FD"/>
<circle cx="253.103" cy="76.5983" r="1.99822" transform="rotate(-180 253.103 76.5983)" fill="#4E95FD"/>
<circle cx="243.777" cy="76.5983" r="1.99822" transform="rotate(-180 243.777 76.5983)" fill="#4E95FD"/>
<circle cx="262.427" cy="29.9728" r="1.99822" transform="rotate(-180 262.427 29.9728)" fill="#4E95FD"/>
<circle cx="253.103" cy="29.9728" r="1.99822" transform="rotate(-180 253.103 29.9728)" fill="#4E95FD"/>
<circle cx="243.777" cy="29.9728" r="1.99822" transform="rotate(-180 243.777 29.9728)" fill="#4E95FD"/>
<circle cx="262.427" cy="95.2487" r="1.99822" transform="rotate(-180 262.427 95.2487)" fill="#4E95FD"/>
<circle cx="253.103" cy="95.2487" r="1.99822" transform="rotate(-180 253.103 95.2487)" fill="#4E95FD"/>
<circle cx="243.777" cy="95.2487" r="1.99822" transform="rotate(-180 243.777 95.2487)" fill="#4E95FD"/>
<circle cx="262.427" cy="57.9482" r="1.99822" transform="rotate(-180 262.427 57.9482)" fill="#4E95FD"/>
<circle cx="253.103" cy="57.9482" r="1.99822" transform="rotate(-180 253.103 57.9482)" fill="#4E95FD"/>
<circle cx="243.777" cy="57.9482" r="1.99822" transform="rotate(-180 243.777 57.9482)" fill="#4E95FD"/>
<circle cx="234.322" cy="162.195" r="1.99822" transform="rotate(-180 234.322 162.195)" fill="#8484FC"/>
<circle cx="224.998" cy="162.195" r="1.99822" transform="rotate(-180 224.998 162.195)" fill="#8484FC"/>
<circle cx="215.672" cy="162.195" r="1.99822" transform="rotate(-180 215.672 162.195)" fill="#8484FC"/>
<circle cx="234.322" cy="124.895" r="1.99822" transform="rotate(-180 234.322 124.895)" fill="#8484FC"/>
<circle cx="224.998" cy="124.895" r="1.99822" transform="rotate(-180 224.998 124.895)" fill="#8484FC"/>
<circle cx="215.672" cy="124.895" r="1.99822" transform="rotate(-180 215.672 124.895)" fill="#8484FC"/>
<circle cx="234.322" cy="143.544" r="1.99822" transform="rotate(-180 234.322 143.544)" fill="#8484FC"/>
<circle cx="224.998" cy="143.544" r="1.99822" transform="rotate(-180 224.998 143.544)" fill="#8484FC"/>
<circle cx="215.672" cy="143.544" r="1.99822" transform="rotate(-180 215.672 143.544)" fill="#8484FC"/>
<circle cx="234.322" cy="171.519" r="1.99822" transform="rotate(-180 234.322 171.519)" fill="#8484FC"/>
<circle cx="224.998" cy="171.519" r="1.99822" transform="rotate(-180 224.998 171.519)" fill="#8484FC"/>
<circle cx="215.672" cy="171.519" r="1.99822" transform="rotate(-180 215.672 171.519)" fill="#8484FC"/>
<circle cx="234.322" cy="134.219" r="1.99822" transform="rotate(-180 234.322 134.219)" fill="#8484FC"/>
<circle cx="224.998" cy="134.219" r="1.99822" transform="rotate(-180 224.998 134.219)" fill="#8484FC"/>
<circle cx="215.672" cy="134.219" r="1.99822" transform="rotate(-180 215.672 134.219)" fill="#8484FC"/>
<circle cx="234.322" cy="152.87" r="1.99822" transform="rotate(-180 234.322 152.87)" fill="#8484FC"/>
<circle cx="224.998" cy="152.87" r="1.99822" transform="rotate(-180 224.998 152.87)" fill="#8484FC"/>
<circle cx="215.672" cy="152.87" r="1.99822" transform="rotate(-180 215.672 152.87)" fill="#8484FC"/>
<circle cx="234.676" cy="104.574" r="1.99822" transform="rotate(-180 234.676 104.574)" fill="#4E95FD"/>
<circle cx="225.352" cy="104.574" r="1.99822" transform="rotate(-180 225.352 104.574)" fill="#4E95FD"/>
<circle cx="216.026" cy="104.574" r="1.99822" transform="rotate(-180 216.026 104.574)" fill="#4E95FD"/>
<circle cx="234.676" cy="67.2736" r="1.99822" transform="rotate(-180 234.676 67.2736)" fill="#4E95FD"/>
<circle cx="225.352" cy="67.2736" r="1.99822" transform="rotate(-180 225.352 67.2736)" fill="#4E95FD"/>
<circle cx="216.026" cy="67.2736" r="1.99822" transform="rotate(-180 216.026 67.2736)" fill="#4E95FD"/>
<circle cx="234.676" cy="85.9233" r="1.99822" transform="rotate(-180 234.676 85.9233)" fill="#4E95FD"/>
<circle cx="225.352" cy="85.9233" r="1.99822" transform="rotate(-180 225.352 85.9233)" fill="#4E95FD"/>
<circle cx="216.026" cy="85.9233" r="1.99822" transform="rotate(-180 216.026 85.9233)" fill="#4E95FD"/>
<circle cx="234.676" cy="39.298" r="1.99822" transform="rotate(-180 234.676 39.298)" fill="#4E95FD"/>
<circle cx="225.352" cy="39.298" r="1.99822" transform="rotate(-180 225.352 39.298)" fill="#4E95FD"/>
<circle cx="216.026" cy="39.298" r="1.99822" transform="rotate(-180 216.026 39.298)" fill="#4E95FD"/>
<circle cx="234.676" cy="48.623" r="1.99822" transform="rotate(-180 234.676 48.623)" fill="#4E95FD"/>
<circle cx="225.352" cy="48.623" r="1.99822" transform="rotate(-180 225.352 48.623)" fill="#4E95FD"/>
<circle cx="216.026" cy="48.623" r="1.99822" transform="rotate(-180 216.026 48.623)" fill="#4E95FD"/>
<circle cx="234.676" cy="113.898" r="1.99822" transform="rotate(-180 234.676 113.898)" fill="#8484FC"/>
<circle cx="225.352" cy="113.898" r="1.99822" transform="rotate(-180 225.352 113.898)" fill="#8484FC"/>
<circle cx="216.026" cy="113.898" r="1.99822" transform="rotate(-180 216.026 113.898)" fill="#8484FC"/>
<circle cx="234.676" cy="76.5983" r="1.99822" transform="rotate(-180 234.676 76.5983)" fill="#4E95FD"/>
<circle cx="225.352" cy="76.5983" r="1.99822" transform="rotate(-180 225.352 76.5983)" fill="#4E95FD"/>
<circle cx="216.026" cy="76.5983" r="1.99822" transform="rotate(-180 216.026 76.5983)" fill="#4E95FD"/>
<circle cx="234.676" cy="29.9728" r="1.99822" transform="rotate(-180 234.676 29.9728)" fill="#4E95FD"/>
<circle cx="225.352" cy="29.9728" r="1.99822" transform="rotate(-180 225.352 29.9728)" fill="#4E95FD"/>
<circle cx="216.026" cy="29.9728" r="1.99822" transform="rotate(-180 216.026 29.9728)" fill="#4E95FD"/>
<circle cx="234.676" cy="95.2487" r="1.99822" transform="rotate(-180 234.676 95.2487)" fill="#4E95FD"/>
<circle cx="225.352" cy="95.2487" r="1.99822" transform="rotate(-180 225.352 95.2487)" fill="#4E95FD"/>
<circle cx="216.026" cy="95.2487" r="1.99822" transform="rotate(-180 216.026 95.2487)" fill="#4E95FD"/>
<circle cx="234.676" cy="57.9482" r="1.99822" transform="rotate(-180 234.676 57.9482)" fill="#4E95FD"/>
<circle cx="225.352" cy="57.9482" r="1.99822" transform="rotate(-180 225.352 57.9482)" fill="#4E95FD"/>
<circle cx="216.026" cy="57.9482" r="1.99822" transform="rotate(-180 216.026 57.9482)" fill="#4E95FD"/>
<circle cx="206.073" cy="162.195" r="1.99822" transform="rotate(-180 206.073 162.195)" fill="#8484FC"/>
<circle cx="196.749" cy="162.195" r="1.99822" transform="rotate(-180 196.749 162.195)" fill="#8484FC"/>
<circle cx="187.423" cy="162.195" r="1.99822" transform="rotate(-180 187.423 162.195)" fill="#8484FC"/>
<circle cx="206.073" cy="124.895" r="1.99822" transform="rotate(-180 206.073 124.895)" fill="#8484FC"/>
<circle cx="196.749" cy="124.895" r="1.99822" transform="rotate(-180 196.749 124.895)" fill="#8484FC"/>
<circle cx="187.423" cy="124.895" r="1.99822" transform="rotate(-180 187.423 124.895)" fill="#8484FC"/>
<circle cx="206.073" cy="143.544" r="1.99822" transform="rotate(-180 206.073 143.544)" fill="#8484FC"/>
<circle cx="196.749" cy="143.544" r="1.99822" transform="rotate(-180 196.749 143.544)" fill="#8484FC"/>
<circle cx="187.423" cy="143.544" r="1.99822" transform="rotate(-180 187.423 143.544)" fill="#8484FC"/>
<circle cx="206.073" cy="171.519" r="1.99822" transform="rotate(-180 206.073 171.519)" fill="#8484FC"/>
<circle cx="196.749" cy="171.519" r="1.99822" transform="rotate(-180 196.749 171.519)" fill="#8484FC"/>
<circle cx="187.423" cy="171.519" r="1.99822" transform="rotate(-180 187.423 171.519)" fill="#8484FC"/>
<circle cx="206.073" cy="134.219" r="1.99822" transform="rotate(-180 206.073 134.219)" fill="#8484FC"/>
<circle cx="196.749" cy="134.219" r="1.99822" transform="rotate(-180 196.749 134.219)" fill="#8484FC"/>
<circle cx="187.423" cy="134.219" r="1.99822" transform="rotate(-180 187.423 134.219)" fill="#8484FC"/>
<circle cx="206.073" cy="152.87" r="1.99822" transform="rotate(-180 206.073 152.87)" fill="#8484FC"/>
<circle cx="196.749" cy="152.87" r="1.99822" transform="rotate(-180 196.749 152.87)" fill="#8484FC"/>
<circle cx="187.423" cy="152.87" r="1.99822" transform="rotate(-180 187.423 152.87)" fill="#8484FC"/>
<circle cx="206.427" cy="104.574" r="1.99822" transform="rotate(-180 206.427 104.574)" fill="#4E95FD"/>
<circle cx="197.103" cy="104.574" r="1.99822" transform="rotate(-180 197.103 104.574)" fill="#4E95FD"/>
<circle cx="187.777" cy="104.574" r="1.99822" transform="rotate(-180 187.777 104.574)" fill="#4E95FD"/>
<circle cx="206.427" cy="67.2736" r="1.99822" transform="rotate(-180 206.427 67.2736)" fill="#4E95FD"/>
<circle cx="197.103" cy="67.2736" r="1.99822" transform="rotate(-180 197.103 67.2736)" fill="#4E95FD"/>
<circle cx="187.777" cy="67.2736" r="1.99822" transform="rotate(-180 187.777 67.2736)" fill="#4E95FD"/>
<circle cx="206.427" cy="85.9233" r="1.99822" transform="rotate(-180 206.427 85.9233)" fill="#4E95FD"/>
<circle cx="197.103" cy="85.9233" r="1.99822" transform="rotate(-180 197.103 85.9233)" fill="#4E95FD"/>
<circle cx="187.777" cy="85.9233" r="1.99822" transform="rotate(-180 187.777 85.9233)" fill="#4E95FD"/>
<circle cx="206.427" cy="39.298" r="1.99822" transform="rotate(-180 206.427 39.298)" fill="#4E95FD"/>
<circle cx="197.103" cy="39.298" r="1.99822" transform="rotate(-180 197.103 39.298)" fill="#4E95FD"/>
<circle cx="187.777" cy="39.298" r="1.99822" transform="rotate(-180 187.777 39.298)" fill="#4E95FD"/>
<circle cx="206.427" cy="48.623" r="1.99822" transform="rotate(-180 206.427 48.623)" fill="#4E95FD"/>
<circle cx="197.103" cy="48.623" r="1.99822" transform="rotate(-180 197.103 48.623)" fill="#4E95FD"/>
<circle cx="187.777" cy="48.623" r="1.99822" transform="rotate(-180 187.777 48.623)" fill="#4E95FD"/>
<circle cx="206.427" cy="113.898" r="1.99822" transform="rotate(-180 206.427 113.898)" fill="#8484FC"/>
<circle cx="197.103" cy="113.898" r="1.99822" transform="rotate(-180 197.103 113.898)" fill="#8484FC"/>
<circle cx="187.777" cy="113.898" r="1.99822" transform="rotate(-180 187.777 113.898)" fill="#8484FC"/>
<circle cx="206.427" cy="76.5983" r="1.99822" transform="rotate(-180 206.427 76.5983)" fill="#4E95FD"/>
<circle cx="197.103" cy="76.5983" r="1.99822" transform="rotate(-180 197.103 76.5983)" fill="#4E95FD"/>
<circle cx="187.777" cy="76.5983" r="1.99822" transform="rotate(-180 187.777 76.5983)" fill="#4E95FD"/>
<circle cx="206.427" cy="29.9728" r="1.99822" transform="rotate(-180 206.427 29.9728)" fill="#4E95FD"/>
<circle cx="197.103" cy="29.9728" r="1.99822" transform="rotate(-180 197.103 29.9728)" fill="#4E95FD"/>
<circle cx="187.777" cy="29.9728" r="1.99822" transform="rotate(-180 187.777 29.9728)" fill="#4E95FD"/>
<circle cx="206.427" cy="95.2487" r="1.99822" transform="rotate(-180 206.427 95.2487)" fill="#4E95FD"/>
<circle cx="197.103" cy="95.2487" r="1.99822" transform="rotate(-180 197.103 95.2487)" fill="#4E95FD"/>
<circle cx="187.777" cy="95.2487" r="1.99822" transform="rotate(-180 187.777 95.2487)" fill="#4E95FD"/>
<circle cx="206.427" cy="57.9482" r="1.99822" transform="rotate(-180 206.427 57.9482)" fill="#4E95FD"/>
<circle cx="197.103" cy="57.9482" r="1.99822" transform="rotate(-180 197.103 57.9482)" fill="#4E95FD"/>
<circle cx="187.777" cy="57.9482" r="1.99822" transform="rotate(-180 187.777 57.9482)" fill="#4E95FD"/>
<circle cx="178.322" cy="162.195" r="1.99822" transform="rotate(-180 178.322 162.195)" fill="#8484FC"/>
<circle cx="168.998" cy="162.195" r="1.99822" transform="rotate(-180 168.998 162.195)" fill="#8484FC"/>
<circle cx="159.672" cy="162.195" r="1.99822" transform="rotate(-180 159.672 162.195)" fill="#8484FC"/>
<circle cx="178.322" cy="124.895" r="1.99822" transform="rotate(-180 178.322 124.895)" fill="#8484FC"/>
<circle cx="168.998" cy="124.895" r="1.99822" transform="rotate(-180 168.998 124.895)" fill="#8484FC"/>
<circle cx="159.672" cy="124.895" r="1.99822" transform="rotate(-180 159.672 124.895)" fill="#8484FC"/>
<circle cx="178.322" cy="143.544" r="1.99822" transform="rotate(-180 178.322 143.544)" fill="#8484FC"/>
<circle cx="168.998" cy="143.544" r="1.99822" transform="rotate(-180 168.998 143.544)" fill="#8484FC"/>
<circle cx="159.672" cy="143.544" r="1.99822" transform="rotate(-180 159.672 143.544)" fill="#8484FC"/>
<circle cx="178.322" cy="171.519" r="1.99822" transform="rotate(-180 178.322 171.519)" fill="#8484FC"/>
<circle cx="168.998" cy="171.519" r="1.99822" transform="rotate(-180 168.998 171.519)" fill="#8484FC"/>
<circle cx="159.672" cy="171.519" r="1.99822" transform="rotate(-180 159.672 171.519)" fill="#8484FC"/>
<circle cx="178.322" cy="134.219" r="1.99822" transform="rotate(-180 178.322 134.219)" fill="#8484FC"/>
<circle cx="168.998" cy="134.219" r="1.99822" transform="rotate(-180 168.998 134.219)" fill="#8484FC"/>
<circle cx="159.672" cy="134.219" r="1.99822" transform="rotate(-180 159.672 134.219)" fill="#8484FC"/>
<circle cx="178.322" cy="152.87" r="1.99822" transform="rotate(-180 178.322 152.87)" fill="#8484FC"/>
<circle cx="168.998" cy="152.87" r="1.99822" transform="rotate(-180 168.998 152.87)" fill="#8484FC"/>
<circle cx="159.672" cy="152.87" r="1.99822" transform="rotate(-180 159.672 152.87)" fill="#8484FC"/>
<circle cx="178.676" cy="104.574" r="1.99822" transform="rotate(-180 178.676 104.574)" fill="#4E95FD"/>
<circle cx="169.352" cy="104.574" r="1.99822" transform="rotate(-180 169.352 104.574)" fill="#4E95FD"/>
<circle cx="160.026" cy="104.574" r="1.99822" transform="rotate(-180 160.026 104.574)" fill="#4E95FD"/>
<circle cx="178.676" cy="67.2736" r="1.99822" transform="rotate(-180 178.676 67.2736)" fill="#4E95FD"/>
<circle cx="169.352" cy="67.2736" r="1.99822" transform="rotate(-180 169.352 67.2736)" fill="#4E95FD"/>
<circle cx="160.026" cy="67.2736" r="1.99822" transform="rotate(-180 160.026 67.2736)" fill="#4E95FD"/>
<circle cx="178.676" cy="85.9233" r="1.99822" transform="rotate(-180 178.676 85.9233)" fill="#4E95FD"/>
<circle cx="169.352" cy="85.9233" r="1.99822" transform="rotate(-180 169.352 85.9233)" fill="#4E95FD"/>
<circle cx="160.026" cy="85.9233" r="1.99822" transform="rotate(-180 160.026 85.9233)" fill="#4E95FD"/>
<circle cx="178.676" cy="39.298" r="1.99822" transform="rotate(-180 178.676 39.298)" fill="#4E95FD"/>
<circle cx="169.352" cy="39.298" r="1.99822" transform="rotate(-180 169.352 39.298)" fill="#4E95FD"/>
<circle cx="160.026" cy="39.298" r="1.99822" transform="rotate(-180 160.026 39.298)" fill="#4E95FD"/>
<circle cx="178.676" cy="48.623" r="1.99822" transform="rotate(-180 178.676 48.623)" fill="#4E95FD"/>
<circle cx="169.352" cy="48.623" r="1.99822" transform="rotate(-180 169.352 48.623)" fill="#4E95FD"/>
<circle cx="160.026" cy="48.623" r="1.99822" transform="rotate(-180 160.026 48.623)" fill="#4E95FD"/>
<circle cx="178.676" cy="113.898" r="1.99822" transform="rotate(-180 178.676 113.898)" fill="#8484FC"/>
<circle cx="169.352" cy="113.898" r="1.99822" transform="rotate(-180 169.352 113.898)" fill="#8484FC"/>
<circle cx="160.026" cy="113.898" r="1.99822" transform="rotate(-180 160.026 113.898)" fill="#8484FC"/>
<circle cx="178.676" cy="76.5983" r="1.99822" transform="rotate(-180 178.676 76.5983)" fill="#4E95FD"/>
<circle cx="169.352" cy="76.5983" r="1.99822" transform="rotate(-180 169.352 76.5983)" fill="#4E95FD"/>
<circle cx="160.026" cy="76.5983" r="1.99822" transform="rotate(-180 160.026 76.5983)" fill="#4E95FD"/>
<circle cx="178.676" cy="29.9728" r="1.99822" transform="rotate(-180 178.676 29.9728)" fill="#4E95FD"/>
<circle cx="169.352" cy="29.9728" r="1.99822" transform="rotate(-180 169.352 29.9728)" fill="#4E95FD"/>
<circle cx="160.026" cy="29.9728" r="1.99822" transform="rotate(-180 160.026 29.9728)" fill="#4E95FD"/>
<circle cx="178.676" cy="95.2487" r="1.99822" transform="rotate(-180 178.676 95.2487)" fill="#4E95FD"/>
<circle cx="169.352" cy="95.2487" r="1.99822" transform="rotate(-180 169.352 95.2487)" fill="#4E95FD"/>
<circle cx="160.026" cy="95.2487" r="1.99822" transform="rotate(-180 160.026 95.2487)" fill="#4E95FD"/>
<circle cx="178.676" cy="57.9482" r="1.99822" transform="rotate(-180 178.676 57.9482)" fill="#4E95FD"/>
<circle cx="169.352" cy="57.9482" r="1.99822" transform="rotate(-180 169.352 57.9482)" fill="#4E95FD"/>
<circle cx="160.026" cy="57.9482" r="1.99822" transform="rotate(-180 160.026 57.9482)" fill="#4E95FD"/>
<circle cx="150.073" cy="162.195" r="1.99822" transform="rotate(-180 150.073 162.195)" fill="#8484FC"/>
<circle cx="140.749" cy="162.195" r="1.99822" transform="rotate(-180 140.749 162.195)" fill="#8484FC"/>
<circle cx="131.423" cy="162.195" r="1.99822" transform="rotate(-180 131.423 162.195)" fill="#8484FC"/>
<circle cx="150.073" cy="124.895" r="1.99822" transform="rotate(-180 150.073 124.895)" fill="#8484FC"/>
<circle cx="140.749" cy="124.895" r="1.99822" transform="rotate(-180 140.749 124.895)" fill="#8484FC"/>
<circle cx="131.423" cy="124.895" r="1.99822" transform="rotate(-180 131.423 124.895)" fill="#8484FC"/>
<circle cx="150.073" cy="143.544" r="1.99822" transform="rotate(-180 150.073 143.544)" fill="#8484FC"/>
<circle cx="140.749" cy="143.544" r="1.99822" transform="rotate(-180 140.749 143.544)" fill="#8484FC"/>
<circle cx="131.423" cy="143.544" r="1.99822" transform="rotate(-180 131.423 143.544)" fill="#8484FC"/>
<circle cx="150.073" cy="171.519" r="1.99822" transform="rotate(-180 150.073 171.519)" fill="#8484FC"/>
<circle cx="140.749" cy="171.519" r="1.99822" transform="rotate(-180 140.749 171.519)" fill="#8484FC"/>
<circle cx="131.423" cy="171.519" r="1.99822" transform="rotate(-180 131.423 171.519)" fill="#8484FC"/>
<circle cx="150.073" cy="134.219" r="1.99822" transform="rotate(-180 150.073 134.219)" fill="#8484FC"/>
<circle cx="140.749" cy="134.219" r="1.99822" transform="rotate(-180 140.749 134.219)" fill="#8484FC"/>
<circle cx="131.423" cy="134.219" r="1.99822" transform="rotate(-180 131.423 134.219)" fill="#8484FC"/>
<circle cx="150.073" cy="152.87" r="1.99822" transform="rotate(-180 150.073 152.87)" fill="#8484FC"/>
<circle cx="140.749" cy="152.87" r="1.99822" transform="rotate(-180 140.749 152.87)" fill="#8484FC"/>
<circle cx="131.423" cy="152.87" r="1.99822" transform="rotate(-180 131.423 152.87)" fill="#8484FC"/>
<circle cx="150.427" cy="104.574" r="1.99822" transform="rotate(-180 150.427 104.574)" fill="#4E95FD"/>
<circle cx="141.103" cy="104.574" r="1.99822" transform="rotate(-180 141.103 104.574)" fill="#4E95FD"/>
<circle cx="131.777" cy="104.574" r="1.99822" transform="rotate(-180 131.777 104.574)" fill="#4E95FD"/>
<circle cx="150.427" cy="67.2736" r="1.99822" transform="rotate(-180 150.427 67.2736)" fill="#4E95FD"/>
<circle cx="141.103" cy="67.2736" r="1.99822" transform="rotate(-180 141.103 67.2736)" fill="#4E95FD"/>
<circle cx="131.777" cy="67.2736" r="1.99822" transform="rotate(-180 131.777 67.2736)" fill="#4E95FD"/>
<circle cx="150.427" cy="85.9233" r="1.99822" transform="rotate(-180 150.427 85.9233)" fill="#4E95FD"/>
<circle cx="141.103" cy="85.9233" r="1.99822" transform="rotate(-180 141.103 85.9233)" fill="#4E95FD"/>
<circle cx="131.777" cy="85.9233" r="1.99822" transform="rotate(-180 131.777 85.9233)" fill="#4E95FD"/>
<circle cx="150.427" cy="39.298" r="1.99822" transform="rotate(-180 150.427 39.298)" fill="#4E95FD"/>
<circle cx="141.103" cy="39.298" r="1.99822" transform="rotate(-180 141.103 39.298)" fill="#4E95FD"/>
<circle cx="131.777" cy="39.298" r="1.99822" transform="rotate(-180 131.777 39.298)" fill="#4E95FD"/>
<circle cx="150.427" cy="48.623" r="1.99822" transform="rotate(-180 150.427 48.623)" fill="#4E95FD"/>
<circle cx="141.103" cy="48.623" r="1.99822" transform="rotate(-180 141.103 48.623)" fill="#4E95FD"/>
<circle cx="131.777" cy="48.623" r="1.99822" transform="rotate(-180 131.777 48.623)" fill="#4E95FD"/>
<circle cx="150.427" cy="113.898" r="1.99822" transform="rotate(-180 150.427 113.898)" fill="#8484FC"/>
<circle cx="141.103" cy="113.898" r="1.99822" transform="rotate(-180 141.103 113.898)" fill="#8484FC"/>
<circle cx="131.777" cy="113.898" r="1.99822" transform="rotate(-180 131.777 113.898)" fill="#8484FC"/>
<circle cx="150.427" cy="76.5983" r="1.99822" transform="rotate(-180 150.427 76.5983)" fill="#4E95FD"/>
<circle cx="141.103" cy="76.5983" r="1.99822" transform="rotate(-180 141.103 76.5983)" fill="#4E95FD"/>
<circle cx="131.777" cy="76.5983" r="1.99822" transform="rotate(-180 131.777 76.5983)" fill="#4E95FD"/>
<circle cx="150.427" cy="29.9728" r="1.99822" transform="rotate(-180 150.427 29.9728)" fill="#4E95FD"/>
<circle cx="141.103" cy="29.9728" r="1.99822" transform="rotate(-180 141.103 29.9728)" fill="#4E95FD"/>
<circle cx="131.777" cy="29.9728" r="1.99822" transform="rotate(-180 131.777 29.9728)" fill="#4E95FD"/>
<circle cx="150.427" cy="95.2487" r="1.99822" transform="rotate(-180 150.427 95.2487)" fill="#4E95FD"/>
<circle cx="141.103" cy="95.2487" r="1.99822" transform="rotate(-180 141.103 95.2487)" fill="#4E95FD"/>
<circle cx="131.777" cy="95.2487" r="1.99822" transform="rotate(-180 131.777 95.2487)" fill="#4E95FD"/>
<circle cx="150.427" cy="57.9482" r="1.99822" transform="rotate(-180 150.427 57.9482)" fill="#4E95FD"/>
<circle cx="141.103" cy="57.9482" r="1.99822" transform="rotate(-180 141.103 57.9482)" fill="#4E95FD"/>
<circle cx="131.777" cy="57.9482" r="1.99822" transform="rotate(-180 131.777 57.9482)" fill="#4E95FD"/>
<circle cx="122.322" cy="162.195" r="1.99822" transform="rotate(-180 122.322 162.195)" fill="#8484FC"/>
<circle cx="112.998" cy="162.195" r="1.99822" transform="rotate(-180 112.998 162.195)" fill="#8484FC"/>
<circle cx="103.672" cy="162.195" r="1.99822" transform="rotate(-180 103.672 162.195)" fill="#8484FC"/>
<circle cx="122.322" cy="124.895" r="1.99822" transform="rotate(-180 122.322 124.895)" fill="#8484FC"/>
<circle cx="112.998" cy="124.895" r="1.99822" transform="rotate(-180 112.998 124.895)" fill="#8484FC"/>
<circle cx="103.672" cy="124.895" r="1.99822" transform="rotate(-180 103.672 124.895)" fill="#8484FC"/>
<circle cx="122.322" cy="143.544" r="1.99822" transform="rotate(-180 122.322 143.544)" fill="#8484FC"/>
<circle cx="112.998" cy="143.544" r="1.99822" transform="rotate(-180 112.998 143.544)" fill="#8484FC"/>
<circle cx="103.672" cy="143.544" r="1.99822" transform="rotate(-180 103.672 143.544)" fill="#8484FC"/>
<circle cx="122.322" cy="171.519" r="1.99822" transform="rotate(-180 122.322 171.519)" fill="#8484FC"/>
<circle cx="112.998" cy="171.519" r="1.99822" transform="rotate(-180 112.998 171.519)" fill="#8484FC"/>
<circle cx="103.672" cy="171.519" r="1.99822" transform="rotate(-180 103.672 171.519)" fill="#8484FC"/>
<circle cx="122.322" cy="134.219" r="1.99822" transform="rotate(-180 122.322 134.219)" fill="#8484FC"/>
<circle cx="112.998" cy="134.219" r="1.99822" transform="rotate(-180 112.998 134.219)" fill="#8484FC"/>
<circle cx="103.672" cy="134.219" r="1.99822" transform="rotate(-180 103.672 134.219)" fill="#8484FC"/>
<circle cx="122.322" cy="152.87" r="1.99822" transform="rotate(-180 122.322 152.87)" fill="#8484FC"/>
<circle cx="112.998" cy="152.87" r="1.99822" transform="rotate(-180 112.998 152.87)" fill="#8484FC"/>
<circle cx="103.672" cy="152.87" r="1.99822" transform="rotate(-180 103.672 152.87)" fill="#8484FC"/>
<circle cx="122.676" cy="104.574" r="1.99822" transform="rotate(-180 122.676 104.574)" fill="#4E95FD"/>
<circle cx="113.352" cy="104.574" r="1.99822" transform="rotate(-180 113.352 104.574)" fill="#4E95FD"/>
<circle cx="104.026" cy="104.574" r="1.99822" transform="rotate(-180 104.026 104.574)" fill="#4E95FD"/>
<circle cx="122.676" cy="67.2736" r="1.99822" transform="rotate(-180 122.676 67.2736)" fill="#4E95FD"/>
<circle cx="113.352" cy="67.2736" r="1.99822" transform="rotate(-180 113.352 67.2736)" fill="#4E95FD"/>
<circle cx="104.026" cy="67.2736" r="1.99822" transform="rotate(-180 104.026 67.2736)" fill="#4E95FD"/>
<circle cx="122.676" cy="85.9233" r="1.99822" transform="rotate(-180 122.676 85.9233)" fill="#4E95FD"/>
<circle cx="113.352" cy="85.9233" r="1.99822" transform="rotate(-180 113.352 85.9233)" fill="#4E95FD"/>
<circle cx="104.026" cy="85.9233" r="1.99822" transform="rotate(-180 104.026 85.9233)" fill="#4E95FD"/>
<circle cx="122.676" cy="39.298" r="1.99822" transform="rotate(-180 122.676 39.298)" fill="#4E95FD"/>
<circle cx="113.352" cy="39.298" r="1.99822" transform="rotate(-180 113.352 39.298)" fill="#4E95FD"/>
<circle cx="104.026" cy="39.298" r="1.99822" transform="rotate(-180 104.026 39.298)" fill="#4E95FD"/>
<circle cx="122.676" cy="48.623" r="1.99822" transform="rotate(-180 122.676 48.623)" fill="#4E95FD"/>
<circle cx="113.352" cy="48.623" r="1.99822" transform="rotate(-180 113.352 48.623)" fill="#4E95FD"/>
<circle cx="104.026" cy="48.623" r="1.99822" transform="rotate(-180 104.026 48.623)" fill="#4E95FD"/>
<circle cx="122.676" cy="113.898" r="1.99822" transform="rotate(-180 122.676 113.898)" fill="#8484FC"/>
<circle cx="113.352" cy="113.898" r="1.99822" transform="rotate(-180 113.352 113.898)" fill="#8484FC"/>
<circle cx="104.026" cy="113.898" r="1.99822" transform="rotate(-180 104.026 113.898)" fill="#8484FC"/>
<circle cx="122.676" cy="76.5983" r="1.99822" transform="rotate(-180 122.676 76.5983)" fill="#4E95FD"/>
<circle cx="113.352" cy="76.5983" r="1.99822" transform="rotate(-180 113.352 76.5983)" fill="#4E95FD"/>
<circle cx="104.026" cy="76.5983" r="1.99822" transform="rotate(-180 104.026 76.5983)" fill="#4E95FD"/>
<circle cx="122.676" cy="29.9728" r="1.99822" transform="rotate(-180 122.676 29.9728)" fill="#4E95FD"/>
<circle cx="113.352" cy="29.9728" r="1.99822" transform="rotate(-180 113.352 29.9728)" fill="#4E95FD"/>
<circle cx="104.026" cy="29.9728" r="1.99822" transform="rotate(-180 104.026 29.9728)" fill="#4E95FD"/>
<circle cx="122.676" cy="95.2487" r="1.99822" transform="rotate(-180 122.676 95.2487)" fill="#4E95FD"/>
<circle cx="113.352" cy="95.2487" r="1.99822" transform="rotate(-180 113.352 95.2487)" fill="#4E95FD"/>
<circle cx="104.026" cy="95.2487" r="1.99822" transform="rotate(-180 104.026 95.2487)" fill="#4E95FD"/>
<circle cx="122.676" cy="57.9482" r="1.99822" transform="rotate(-180 122.676 57.9482)" fill="#4E95FD"/>
<circle cx="113.352" cy="57.9482" r="1.99822" transform="rotate(-180 113.352 57.9482)" fill="#4E95FD"/>
<circle cx="104.026" cy="57.9482" r="1.99822" transform="rotate(-180 104.026 57.9482)" fill="#4E95FD"/>
<circle cx="94.0734" cy="162.195" r="1.99822" transform="rotate(-180 94.0734 162.195)" fill="#8484FC"/>
<circle cx="84.7492" cy="162.195" r="1.99822" transform="rotate(-180 84.7492 162.195)" fill="#8484FC"/>
<circle cx="75.423" cy="162.195" r="1.99822" transform="rotate(-180 75.423 162.195)" fill="#8484FC"/>
<circle cx="94.0734" cy="124.895" r="1.99822" transform="rotate(-180 94.0734 124.895)" fill="#8484FC"/>
<circle cx="84.7492" cy="124.895" r="1.99822" transform="rotate(-180 84.7492 124.895)" fill="#8484FC"/>
<circle cx="75.423" cy="124.895" r="1.99822" transform="rotate(-180 75.423 124.895)" fill="#8484FC"/>
<circle cx="94.0734" cy="143.544" r="1.99822" transform="rotate(-180 94.0734 143.544)" fill="#8484FC"/>
<circle cx="84.7492" cy="143.544" r="1.99822" transform="rotate(-180 84.7492 143.544)" fill="#8484FC"/>
<circle cx="75.423" cy="143.544" r="1.99822" transform="rotate(-180 75.423 143.544)" fill="#8484FC"/>
<circle cx="94.0734" cy="171.519" r="1.99822" transform="rotate(-180 94.0734 171.519)" fill="#8484FC"/>
<circle cx="84.7492" cy="171.519" r="1.99822" transform="rotate(-180 84.7492 171.519)" fill="#8484FC"/>
<circle cx="75.423" cy="171.519" r="1.99822" transform="rotate(-180 75.423 171.519)" fill="#8484FC"/>
<circle cx="94.0734" cy="134.219" r="1.99822" transform="rotate(-180 94.0734 134.219)" fill="#8484FC"/>
<circle cx="84.7492" cy="134.219" r="1.99822" transform="rotate(-180 84.7492 134.219)" fill="#8484FC"/>
<circle cx="75.423" cy="134.219" r="1.99822" transform="rotate(-180 75.423 134.219)" fill="#8484FC"/>
<circle cx="94.0734" cy="152.87" r="1.99822" transform="rotate(-180 94.0734 152.87)" fill="#8484FC"/>
<circle cx="84.7492" cy="152.87" r="1.99822" transform="rotate(-180 84.7492 152.87)" fill="#8484FC"/>
<circle cx="75.423" cy="152.87" r="1.99822" transform="rotate(-180 75.423 152.87)" fill="#8484FC"/>
<circle cx="94.4269" cy="104.574" r="1.99822" transform="rotate(-180 94.4269 104.574)" fill="#4E95FD"/>
<circle cx="85.1027" cy="104.574" r="1.99822" transform="rotate(-180 85.1027 104.574)" fill="#4E95FD"/>
<circle cx="75.7766" cy="104.574" r="1.99822" transform="rotate(-180 75.7766 104.574)" fill="#4E95FD"/>
<circle cx="94.4269" cy="67.2736" r="1.99822" transform="rotate(-180 94.4269 67.2736)" fill="#4E95FD"/>
<circle cx="85.1027" cy="67.2736" r="1.99822" transform="rotate(-180 85.1027 67.2736)" fill="#4E95FD"/>
<circle cx="75.7766" cy="67.2736" r="1.99822" transform="rotate(-180 75.7766 67.2736)" fill="#4E95FD"/>
<circle cx="94.4269" cy="85.9233" r="1.99822" transform="rotate(-180 94.4269 85.9233)" fill="#4E95FD"/>
<circle cx="85.1027" cy="85.9233" r="1.99822" transform="rotate(-180 85.1027 85.9233)" fill="#4E95FD"/>
<circle cx="75.7766" cy="85.9233" r="1.99822" transform="rotate(-180 75.7766 85.9233)" fill="#4E95FD"/>
<circle cx="94.4269" cy="39.298" r="1.99822" transform="rotate(-180 94.4269 39.298)" fill="#4E95FD"/>
<circle cx="85.1027" cy="39.298" r="1.99822" transform="rotate(-180 85.1027 39.298)" fill="#4E95FD"/>
<circle cx="75.7766" cy="39.298" r="1.99822" transform="rotate(-180 75.7766 39.298)" fill="#4E95FD"/>
<circle cx="94.4269" cy="48.623" r="1.99822" transform="rotate(-180 94.4269 48.623)" fill="#4E95FD"/>
<circle cx="85.1027" cy="48.623" r="1.99822" transform="rotate(-180 85.1027 48.623)" fill="#4E95FD"/>
<circle cx="75.7766" cy="48.623" r="1.99822" transform="rotate(-180 75.7766 48.623)" fill="#4E95FD"/>
<circle cx="94.4269" cy="113.898" r="1.99822" transform="rotate(-180 94.4269 113.898)" fill="#8484FC"/>
<circle cx="85.1027" cy="113.898" r="1.99822" transform="rotate(-180 85.1027 113.898)" fill="#8484FC"/>
<circle cx="75.7766" cy="113.898" r="1.99822" transform="rotate(-180 75.7766 113.898)" fill="#8484FC"/>
<circle cx="94.4269" cy="76.5983" r="1.99822" transform="rotate(-180 94.4269 76.5983)" fill="#4E95FD"/>
<circle cx="85.1027" cy="76.5983" r="1.99822" transform="rotate(-180 85.1027 76.5983)" fill="#4E95FD"/>
<circle cx="75.7766" cy="76.5983" r="1.99822" transform="rotate(-180 75.7766 76.5983)" fill="#4E95FD"/>
<circle cx="94.4269" cy="29.9728" r="1.99822" transform="rotate(-180 94.4269 29.9728)" fill="#4E95FD"/>
<circle cx="85.1027" cy="29.9728" r="1.99822" transform="rotate(-180 85.1027 29.9728)" fill="#4E95FD"/>
<circle cx="75.7766" cy="29.9728" r="1.99822" transform="rotate(-180 75.7766 29.9728)" fill="#4E95FD"/>
<circle cx="94.4269" cy="95.2487" r="1.99822" transform="rotate(-180 94.4269 95.2487)" fill="#4E95FD"/>
<circle cx="85.1027" cy="95.2487" r="1.99822" transform="rotate(-180 85.1027 95.2487)" fill="#4E95FD"/>
<circle cx="75.7766" cy="95.2487" r="1.99822" transform="rotate(-180 75.7766 95.2487)" fill="#4E95FD"/>
<circle cx="94.4269" cy="57.9482" r="1.99822" transform="rotate(-180 94.4269 57.9482)" fill="#4E95FD"/>
<circle cx="85.1027" cy="57.9482" r="1.99822" transform="rotate(-180 85.1027 57.9482)" fill="#4E95FD"/>
<circle cx="75.7766" cy="57.9482" r="1.99822" transform="rotate(-180 75.7766 57.9482)" fill="#4E95FD"/>
<circle cx="66.3225" cy="162.195" r="1.99822" transform="rotate(-180 66.3225 162.195)" fill="#8484FC"/>
<circle cx="56.9982" cy="162.195" r="1.99822" transform="rotate(-180 56.9982 162.195)" fill="#8484FC"/>
<circle cx="47.6721" cy="162.195" r="1.99822" transform="rotate(-180 47.6721 162.195)" fill="#8484FC"/>
<circle cx="66.3225" cy="124.895" r="1.99822" transform="rotate(-180 66.3225 124.895)" fill="#8484FC"/>
<circle cx="56.9982" cy="124.895" r="1.99822" transform="rotate(-180 56.9982 124.895)" fill="#8484FC"/>
<circle cx="47.6721" cy="124.895" r="1.99822" transform="rotate(-180 47.6721 124.895)" fill="#8484FC"/>
<circle cx="66.3225" cy="143.544" r="1.99822" transform="rotate(-180 66.3225 143.544)" fill="#8484FC"/>
<circle cx="56.9982" cy="143.544" r="1.99822" transform="rotate(-180 56.9982 143.544)" fill="#8484FC"/>
<circle cx="47.6721" cy="143.544" r="1.99822" transform="rotate(-180 47.6721 143.544)" fill="#8484FC"/>
<circle cx="66.3225" cy="171.519" r="1.99822" transform="rotate(-180 66.3225 171.519)" fill="#8484FC"/>
<circle cx="56.9982" cy="171.519" r="1.99822" transform="rotate(-180 56.9982 171.519)" fill="#8484FC"/>
<circle cx="47.6721" cy="171.519" r="1.99822" transform="rotate(-180 47.6721 171.519)" fill="#8484FC"/>
<circle cx="66.3225" cy="134.219" r="1.99822" transform="rotate(-180 66.3225 134.219)" fill="#8484FC"/>
<circle cx="56.9982" cy="134.219" r="1.99822" transform="rotate(-180 56.9982 134.219)" fill="#8484FC"/>
<circle cx="47.6721" cy="134.219" r="1.99822" transform="rotate(-180 47.6721 134.219)" fill="#8484FC"/>
<circle cx="66.3225" cy="152.87" r="1.99822" transform="rotate(-180 66.3225 152.87)" fill="#8484FC"/>
<circle cx="56.9982" cy="152.87" r="1.99822" transform="rotate(-180 56.9982 152.87)" fill="#8484FC"/>
<circle cx="47.6721" cy="152.87" r="1.99822" transform="rotate(-180 47.6721 152.87)" fill="#8484FC"/>
<circle cx="66.676" cy="104.574" r="1.99822" transform="rotate(-180 66.676 104.574)" fill="#4E95FD"/>
<circle cx="57.3518" cy="104.574" r="1.99822" transform="rotate(-180 57.3518 104.574)" fill="#4E95FD"/>
<circle cx="48.0256" cy="104.574" r="1.99822" transform="rotate(-180 48.0256 104.574)" fill="#4E95FD"/>
<circle cx="66.676" cy="67.2736" r="1.99822" transform="rotate(-180 66.676 67.2736)" fill="#4E95FD"/>
<circle cx="57.3518" cy="67.2736" r="1.99822" transform="rotate(-180 57.3518 67.2736)" fill="#4E95FD"/>
<circle cx="48.0256" cy="67.2736" r="1.99822" transform="rotate(-180 48.0256 67.2736)" fill="#4E95FD"/>
<circle cx="66.676" cy="85.9233" r="1.99822" transform="rotate(-180 66.676 85.9233)" fill="#4E95FD"/>
<circle cx="57.3518" cy="85.9233" r="1.99822" transform="rotate(-180 57.3518 85.9233)" fill="#4E95FD"/>
<circle cx="48.0256" cy="85.9233" r="1.99822" transform="rotate(-180 48.0256 85.9233)" fill="#4E95FD"/>
<circle cx="66.676" cy="39.298" r="1.99822" transform="rotate(-180 66.676 39.298)" fill="#4E95FD"/>
<circle cx="57.3518" cy="39.298" r="1.99822" transform="rotate(-180 57.3518 39.298)" fill="#4E95FD"/>
<circle cx="48.0256" cy="39.298" r="1.99822" transform="rotate(-180 48.0256 39.298)" fill="#4E95FD"/>
<circle cx="66.676" cy="48.623" r="1.99822" transform="rotate(-180 66.676 48.623)" fill="#4E95FD"/>
<circle cx="57.3518" cy="48.623" r="1.99822" transform="rotate(-180 57.3518 48.623)" fill="#4E95FD"/>
<circle cx="48.0256" cy="48.623" r="1.99822" transform="rotate(-180 48.0256 48.623)" fill="#4E95FD"/>
<circle cx="66.676" cy="113.898" r="1.99822" transform="rotate(-180 66.676 113.898)" fill="#8484FC"/>
<circle cx="57.3518" cy="113.898" r="1.99822" transform="rotate(-180 57.3518 113.898)" fill="#8484FC"/>
<circle cx="48.0256" cy="113.898" r="1.99822" transform="rotate(-180 48.0256 113.898)" fill="#8484FC"/>
<circle cx="66.676" cy="76.5983" r="1.99822" transform="rotate(-180 66.676 76.5983)" fill="#4E95FD"/>
<circle cx="57.3518" cy="76.5983" r="1.99822" transform="rotate(-180 57.3518 76.5983)" fill="#4E95FD"/>
<circle cx="48.0256" cy="76.5983" r="1.99822" transform="rotate(-180 48.0256 76.5983)" fill="#4E95FD"/>
<circle cx="66.676" cy="29.9728" r="1.99822" transform="rotate(-180 66.676 29.9728)" fill="#4E95FD"/>
<circle cx="57.3518" cy="29.9728" r="1.99822" transform="rotate(-180 57.3518 29.9728)" fill="#4E95FD"/>
<circle cx="48.0256" cy="29.9728" r="1.99822" transform="rotate(-180 48.0256 29.9728)" fill="#4E95FD"/>
<circle cx="66.676" cy="95.2487" r="1.99822" transform="rotate(-180 66.676 95.2487)" fill="#4E95FD"/>
<circle cx="57.3518" cy="95.2487" r="1.99822" transform="rotate(-180 57.3518 95.2487)" fill="#4E95FD"/>
<circle cx="48.0256" cy="95.2487" r="1.99822" transform="rotate(-180 48.0256 95.2487)" fill="#4E95FD"/>
<circle cx="66.676" cy="57.9482" r="1.99822" transform="rotate(-180 66.676 57.9482)" fill="#4E95FD"/>
<circle cx="57.3518" cy="57.9482" r="1.99822" transform="rotate(-180 57.3518 57.9482)" fill="#4E95FD"/>
<circle cx="48.0256" cy="57.9482" r="1.99822" transform="rotate(-180 48.0256 57.9482)" fill="#4E95FD"/>
<circle cx="38.0734" cy="162.195" r="1.99822" transform="rotate(-180 38.0734 162.195)" fill="#8484FC"/>
<circle cx="28.7492" cy="162.195" r="1.99822" transform="rotate(-180 28.7492 162.195)" fill="#8484FC"/>
<circle cx="19.423" cy="162.195" r="1.99822" transform="rotate(-180 19.423 162.195)" fill="#8484FC"/>
<circle cx="38.0734" cy="124.895" r="1.99822" transform="rotate(-180 38.0734 124.895)" fill="#8484FC"/>
<circle cx="28.7492" cy="124.895" r="1.99822" transform="rotate(-180 28.7492 124.895)" fill="#8484FC"/>
<circle cx="19.423" cy="124.895" r="1.99822" transform="rotate(-180 19.423 124.895)" fill="#8484FC"/>
<circle cx="38.0734" cy="143.544" r="1.99822" transform="rotate(-180 38.0734 143.544)" fill="#8484FC"/>
<circle cx="28.7492" cy="143.544" r="1.99822" transform="rotate(-180 28.7492 143.544)" fill="#8484FC"/>
<circle cx="19.423" cy="143.544" r="1.99822" transform="rotate(-180 19.423 143.544)" fill="#8484FC"/>
<circle cx="38.0734" cy="171.519" r="1.99822" transform="rotate(-180 38.0734 171.519)" fill="#8484FC"/>
<circle cx="28.7492" cy="171.519" r="1.99822" transform="rotate(-180 28.7492 171.519)" fill="#8484FC"/>
<circle cx="19.423" cy="171.519" r="1.99822" transform="rotate(-180 19.423 171.519)" fill="#8484FC"/>
<circle cx="38.0734" cy="134.219" r="1.99822" transform="rotate(-180 38.0734 134.219)" fill="#8484FC"/>
<circle cx="28.7492" cy="134.219" r="1.99822" transform="rotate(-180 28.7492 134.219)" fill="#8484FC"/>
<circle cx="19.423" cy="134.219" r="1.99822" transform="rotate(-180 19.423 134.219)" fill="#8484FC"/>
<circle cx="38.0734" cy="152.87" r="1.99822" transform="rotate(-180 38.0734 152.87)" fill="#8484FC"/>
<circle cx="28.7492" cy="152.87" r="1.99822" transform="rotate(-180 28.7492 152.87)" fill="#8484FC"/>
<circle cx="19.423" cy="152.87" r="1.99822" transform="rotate(-180 19.423 152.87)" fill="#8484FC"/>
<circle cx="38.4269" cy="104.574" r="1.99822" transform="rotate(-180 38.4269 104.574)" fill="#4E95FD"/>
<circle cx="29.1027" cy="104.574" r="1.99822" transform="rotate(-180 29.1027 104.574)" fill="#4E95FD"/>
<circle cx="19.7766" cy="104.574" r="1.99822" transform="rotate(-180 19.7766 104.574)" fill="#4E95FD"/>
<circle cx="38.4269" cy="67.2736" r="1.99822" transform="rotate(-180 38.4269 67.2736)" fill="#4E95FD"/>
<circle cx="29.1027" cy="67.2736" r="1.99822" transform="rotate(-180 29.1027 67.2736)" fill="#4E95FD"/>
<circle cx="19.7766" cy="67.2736" r="1.99822" transform="rotate(-180 19.7766 67.2736)" fill="#4E95FD"/>
<circle cx="38.4269" cy="85.9233" r="1.99822" transform="rotate(-180 38.4269 85.9233)" fill="#4E95FD"/>
<circle cx="29.1027" cy="85.9233" r="1.99822" transform="rotate(-180 29.1027 85.9233)" fill="#4E95FD"/>
<circle cx="19.7766" cy="85.9233" r="1.99822" transform="rotate(-180 19.7766 85.9233)" fill="#4E95FD"/>
<circle cx="38.4269" cy="39.298" r="1.99822" transform="rotate(-180 38.4269 39.298)" fill="#4E95FD"/>
<circle cx="29.1027" cy="39.298" r="1.99822" transform="rotate(-180 29.1027 39.298)" fill="#4E95FD"/>
<circle cx="19.7766" cy="39.298" r="1.99822" transform="rotate(-180 19.7766 39.298)" fill="#4E95FD"/>
<circle cx="38.4269" cy="48.623" r="1.99822" transform="rotate(-180 38.4269 48.623)" fill="#4E95FD"/>
<circle cx="29.1027" cy="48.623" r="1.99822" transform="rotate(-180 29.1027 48.623)" fill="#4E95FD"/>
<circle cx="19.7766" cy="48.623" r="1.99822" transform="rotate(-180 19.7766 48.623)" fill="#4E95FD"/>
<circle cx="38.4269" cy="113.898" r="1.99822" transform="rotate(-180 38.4269 113.898)" fill="#8484FC"/>
<circle cx="29.1027" cy="113.898" r="1.99822" transform="rotate(-180 29.1027 113.898)" fill="#8484FC"/>
<circle cx="19.7766" cy="113.898" r="1.99822" transform="rotate(-180 19.7766 113.898)" fill="#8484FC"/>
<circle cx="38.4269" cy="76.5983" r="1.99822" transform="rotate(-180 38.4269 76.5983)" fill="#4E95FD"/>
<circle cx="29.1027" cy="76.5983" r="1.99822" transform="rotate(-180 29.1027 76.5983)" fill="#4E95FD"/>
<circle cx="19.7766" cy="76.5983" r="1.99822" transform="rotate(-180 19.7766 76.5983)" fill="#4E95FD"/>
<circle cx="38.4269" cy="29.9728" r="1.99822" transform="rotate(-180 38.4269 29.9728)" fill="#4E95FD"/>
<circle cx="29.1027" cy="29.9728" r="1.99822" transform="rotate(-180 29.1027 29.9728)" fill="#4E95FD"/>
<circle cx="19.7766" cy="29.9728" r="1.99822" transform="rotate(-180 19.7766 29.9728)" fill="#4E95FD"/>
<circle cx="38.4269" cy="95.2487" r="1.99822" transform="rotate(-180 38.4269 95.2487)" fill="#4E95FD"/>
<circle cx="29.1027" cy="95.2487" r="1.99822" transform="rotate(-180 29.1027 95.2487)" fill="#4E95FD"/>
<circle cx="19.7766" cy="95.2487" r="1.99822" transform="rotate(-180 19.7766 95.2487)" fill="#4E95FD"/>
<circle cx="38.4269" cy="57.9482" r="1.99822" transform="rotate(-180 38.4269 57.9482)" fill="#4E95FD"/>
<circle cx="29.1027" cy="57.9482" r="1.99822" transform="rotate(-180 29.1027 57.9482)" fill="#4E95FD"/>
<circle cx="19.7766" cy="57.9482" r="1.99822" transform="rotate(-180 19.7766 57.9482)" fill="#4E95FD"/>
<circle cx="10.3225" cy="162.195" r="1.99822" transform="rotate(-180 10.3225 162.195)" fill="#8484FC"/>
<circle cx="0.998236" cy="162.195" r="1.99822" transform="rotate(-180 0.998236 162.195)" fill="#8484FC"/>
<circle cx="10.3225" cy="124.895" r="1.99822" transform="rotate(-180 10.3225 124.895)" fill="#8484FC"/>
<circle cx="0.998236" cy="124.895" r="1.99822" transform="rotate(-180 0.998236 124.895)" fill="#8484FC"/>
<circle cx="10.3225" cy="143.544" r="1.99822" transform="rotate(-180 10.3225 143.544)" fill="#8484FC"/>
<circle cx="0.998236" cy="143.544" r="1.99822" transform="rotate(-180 0.998236 143.544)" fill="#8484FC"/>
<circle cx="10.3225" cy="171.519" r="1.99822" transform="rotate(-180 10.3225 171.519)" fill="#8484FC"/>
<circle cx="0.998236" cy="171.519" r="1.99822" transform="rotate(-180 0.998236 171.519)" fill="#8484FC"/>
<circle cx="10.3225" cy="134.219" r="1.99822" transform="rotate(-180 10.3225 134.219)" fill="#8484FC"/>
<circle cx="0.998236" cy="134.219" r="1.99822" transform="rotate(-180 0.998236 134.219)" fill="#8484FC"/>
<circle cx="10.3225" cy="152.87" r="1.99822" transform="rotate(-180 10.3225 152.87)" fill="#8484FC"/>
<circle cx="0.998236" cy="152.87" r="1.99822" transform="rotate(-180 0.998236 152.87)" fill="#8484FC"/>
<circle cx="10.676" cy="104.574" r="1.99822" transform="rotate(-180 10.676 104.574)" fill="#4E95FD"/>
<circle cx="1.35175" cy="104.574" r="1.99822" transform="rotate(-180 1.35175 104.574)" fill="#4E95FD"/>
<circle cx="10.676" cy="67.2736" r="1.99822" transform="rotate(-180 10.676 67.2736)" fill="#4E95FD"/>
<circle cx="1.35175" cy="67.2736" r="1.99822" transform="rotate(-180 1.35175 67.2736)" fill="#4E95FD"/>
<circle cx="10.676" cy="85.9233" r="1.99822" transform="rotate(-180 10.676 85.9233)" fill="#4E95FD"/>
<circle cx="1.35175" cy="85.9233" r="1.99822" transform="rotate(-180 1.35175 85.9233)" fill="#4E95FD"/>
<circle cx="10.676" cy="39.298" r="1.99822" transform="rotate(-180 10.676 39.298)" fill="#4E95FD"/>
<circle cx="1.35175" cy="39.298" r="1.99822" transform="rotate(-180 1.35175 39.298)" fill="#4E95FD"/>
<circle cx="10.676" cy="48.623" r="1.99822" transform="rotate(-180 10.676 48.623)" fill="#4E95FD"/>
<circle cx="1.35175" cy="48.623" r="1.99822" transform="rotate(-180 1.35175 48.623)" fill="#4E95FD"/>
<circle cx="10.676" cy="113.898" r="1.99822" transform="rotate(-180 10.676 113.898)" fill="#8484FC"/>
<circle cx="1.35175" cy="113.898" r="1.99822" transform="rotate(-180 1.35175 113.898)" fill="#8484FC"/>
<circle cx="10.676" cy="76.5983" r="1.99822" transform="rotate(-180 10.676 76.5983)" fill="#4E95FD"/>
<circle cx="1.35175" cy="76.5983" r="1.99822" transform="rotate(-180 1.35175 76.5983)" fill="#4E95FD"/>
<circle cx="10.676" cy="29.9728" r="1.99822" transform="rotate(-180 10.676 29.9728)" fill="#4E95FD"/>
<circle cx="1.35175" cy="29.9728" r="1.99822" transform="rotate(-180 1.35175 29.9728)" fill="#4E95FD"/>
<circle cx="10.676" cy="95.2487" r="1.99822" transform="rotate(-180 10.676 95.2487)" fill="#4E95FD"/>
<circle cx="1.35175" cy="95.2487" r="1.99822" transform="rotate(-180 1.35175 95.2487)" fill="#4E95FD"/>
<circle cx="10.676" cy="57.9482" r="1.99822" transform="rotate(-180 10.676 57.9482)" fill="#4E95FD"/>
<circle cx="1.35175" cy="57.9482" r="1.99822" transform="rotate(-180 1.35175 57.9482)" fill="#4E95FD"/>
<circle cx="374.427" cy="11.3229" r="1.99822" transform="rotate(-180 374.427 11.3229)" fill="#4E95FD"/>
<circle cx="365.103" cy="11.3229" r="1.99822" transform="rotate(-180 365.103 11.3229)" fill="#4E95FD"/>
<circle cx="355.777" cy="11.3229" r="1.99822" transform="rotate(-180 355.777 11.3229)" fill="#4E95FD"/>
<circle cx="346.451" cy="20.6481" r="1.99822" transform="rotate(-180 346.451 20.6481)" fill="#4E95FD"/>
<circle cx="337.125" cy="20.6481" r="1.99822" transform="rotate(-180 337.125 20.6481)" fill="#4E95FD"/>
<circle cx="327.801" cy="20.6481" r="1.99822" transform="rotate(-180 327.801 20.6481)" fill="#4E95FD"/>
<circle cx="346.451" cy="1.99824" r="1.99822" transform="rotate(-180 346.451 1.99824)" fill="#4E95FD"/>
<circle cx="337.125" cy="1.99824" r="1.99822" transform="rotate(-180 337.125 1.99824)" fill="#4E95FD"/>
<circle cx="327.801" cy="1.99824" r="1.99822" transform="rotate(-180 327.801 1.99824)" fill="#4E95FD"/>
<circle cx="346.451" cy="11.3229" r="1.99822" transform="rotate(-180 346.451 11.3229)" fill="#4E95FD"/>
<circle cx="337.125" cy="11.3229" r="1.99822" transform="rotate(-180 337.125 11.3229)" fill="#4E95FD"/>
<circle cx="327.801" cy="11.3229" r="1.99822" transform="rotate(-180 327.801 11.3229)" fill="#4E95FD"/>
<circle cx="318.478" cy="20.6481" r="1.99822" transform="rotate(-180 318.478 20.6481)" fill="#4E95FD"/>
<circle cx="309.152" cy="20.6481" r="1.99822" transform="rotate(-180 309.152 20.6481)" fill="#4E95FD"/>
<circle cx="299.827" cy="20.6481" r="1.99822" transform="rotate(-180 299.827 20.6481)" fill="#4E95FD"/>
<circle cx="290.501" cy="20.6481" r="1.99822" transform="rotate(-180 290.501 20.6481)" fill="#4E95FD"/>
<circle cx="281.177" cy="20.6481" r="1.99822" transform="rotate(-180 281.177 20.6481)" fill="#4E95FD"/>
<circle cx="271.851" cy="20.6481" r="1.99822" transform="rotate(-180 271.851 20.6481)" fill="#4E95FD"/>
<circle cx="318.478" cy="1.99824" r="1.99822" transform="rotate(-180 318.478 1.99824)" fill="#4E95FD"/>
<circle cx="309.152" cy="1.99824" r="1.99822" transform="rotate(-180 309.152 1.99824)" fill="#4E95FD"/>
<circle cx="299.827" cy="1.99824" r="1.99822" transform="rotate(-180 299.827 1.99824)" fill="#4E95FD"/>
<circle cx="290.501" cy="1.99824" r="1.99822" transform="rotate(-180 290.501 1.99824)" fill="#4E95FD"/>
<circle cx="281.177" cy="1.99824" r="1.99822" transform="rotate(-180 281.177 1.99824)" fill="#4E95FD"/>
<circle cx="271.851" cy="1.99824" r="1.99822" transform="rotate(-180 271.851 1.99824)" fill="#4E95FD"/>
<circle cx="318.478" cy="11.3229" r="1.99822" transform="rotate(-180 318.478 11.3229)" fill="#4E95FD"/>
<circle cx="309.152" cy="11.3229" r="1.99822" transform="rotate(-180 309.152 11.3229)" fill="#4E95FD"/>
<circle cx="299.827" cy="11.3229" r="1.99822" transform="rotate(-180 299.827 11.3229)" fill="#4E95FD"/>
<circle cx="290.501" cy="11.3229" r="1.99822" transform="rotate(-180 290.501 11.3229)" fill="#4E95FD"/>
<circle cx="281.177" cy="11.3229" r="1.99822" transform="rotate(-180 281.177 11.3229)" fill="#4E95FD"/>
<circle cx="271.851" cy="11.3229" r="1.99822" transform="rotate(-180 271.851 11.3229)" fill="#4E95FD"/>
<circle cx="262.527" cy="20.6481" r="1.99822" transform="rotate(-180 262.527 20.6481)" fill="#4E95FD"/>
<circle cx="253.201" cy="20.6481" r="1.99822" transform="rotate(-180 253.201 20.6481)" fill="#4E95FD"/>
<circle cx="243.876" cy="20.6481" r="1.99822" transform="rotate(-180 243.876 20.6481)" fill="#4E95FD"/>
<circle cx="262.527" cy="1.99824" r="1.99822" transform="rotate(-180 262.527 1.99824)" fill="#4E95FD"/>
<circle cx="253.201" cy="1.99824" r="1.99822" transform="rotate(-180 253.201 1.99824)" fill="#4E95FD"/>
<circle cx="243.876" cy="1.99824" r="1.99822" transform="rotate(-180 243.876 1.99824)" fill="#4E95FD"/>
<circle cx="262.527" cy="11.3229" r="1.99822" transform="rotate(-180 262.527 11.3229)" fill="#4E95FD"/>
<circle cx="253.201" cy="11.3229" r="1.99822" transform="rotate(-180 253.201 11.3229)" fill="#4E95FD"/>
<circle cx="243.876" cy="11.3229" r="1.99822" transform="rotate(-180 243.876 11.3229)" fill="#4E95FD"/>
<circle cx="234.998" cy="20.6481" r="1.99822" transform="rotate(-180 234.998 20.6481)" fill="#4E95FD"/>
<circle cx="225.672" cy="20.6481" r="1.99822" transform="rotate(-180 225.672 20.6481)" fill="#4E95FD"/>
<circle cx="216.348" cy="20.6481" r="1.99822" transform="rotate(-180 216.348 20.6481)" fill="#4E95FD"/>
<circle cx="234.998" cy="1.99824" r="1.99822" transform="rotate(-180 234.998 1.99824)" fill="#4E95FD"/>
<circle cx="225.672" cy="1.99824" r="1.99822" transform="rotate(-180 225.672 1.99824)" fill="#4E95FD"/>
<circle cx="216.348" cy="1.99824" r="1.99822" transform="rotate(-180 216.348 1.99824)" fill="#4E95FD"/>
<circle cx="234.998" cy="11.3229" r="1.99822" transform="rotate(-180 234.998 11.3229)" fill="#4E95FD"/>
<circle cx="225.672" cy="11.3229" r="1.99822" transform="rotate(-180 225.672 11.3229)" fill="#4E95FD"/>
<circle cx="216.348" cy="11.3229" r="1.99822" transform="rotate(-180 216.348 11.3229)" fill="#4E95FD"/>
<circle cx="207.025" cy="20.6481" r="1.99822" transform="rotate(-180 207.025 20.6481)" fill="#4E95FD"/>
<circle cx="197.698" cy="20.6481" r="1.99822" transform="rotate(-180 197.698 20.6481)" fill="#4E95FD"/>
<circle cx="188.374" cy="20.6481" r="1.99822" transform="rotate(-180 188.374 20.6481)" fill="#4E95FD"/>
<circle cx="179.048" cy="20.6481" r="1.99822" transform="rotate(-180 179.048 20.6481)" fill="#4E95FD"/>
<circle cx="169.724" cy="20.6481" r="1.99822" transform="rotate(-180 169.724 20.6481)" fill="#4E95FD"/>
<circle cx="160.398" cy="20.6481" r="1.99822" transform="rotate(-180 160.398 20.6481)" fill="#4E95FD"/>
<circle cx="207.025" cy="1.99824" r="1.99822" transform="rotate(-180 207.025 1.99824)" fill="#4E95FD"/>
<circle cx="197.698" cy="1.99824" r="1.99822" transform="rotate(-180 197.698 1.99824)" fill="#4E95FD"/>
<circle cx="188.374" cy="1.99824" r="1.99822" transform="rotate(-180 188.374 1.99824)" fill="#4E95FD"/>
<circle cx="179.048" cy="1.99824" r="1.99822" transform="rotate(-180 179.048 1.99824)" fill="#4E95FD"/>
<circle cx="169.724" cy="1.99824" r="1.99822" transform="rotate(-180 169.724 1.99824)" fill="#4E95FD"/>
<circle cx="160.398" cy="1.99824" r="1.99822" transform="rotate(-180 160.398 1.99824)" fill="#4E95FD"/>
<circle cx="207.025" cy="11.3229" r="1.99822" transform="rotate(-180 207.025 11.3229)" fill="#4E95FD"/>
<circle cx="197.698" cy="11.3229" r="1.99822" transform="rotate(-180 197.698 11.3229)" fill="#4E95FD"/>
<circle cx="188.374" cy="11.3229" r="1.99822" transform="rotate(-180 188.374 11.3229)" fill="#4E95FD"/>
<circle cx="179.048" cy="11.3229" r="1.99822" transform="rotate(-180 179.048 11.3229)" fill="#4E95FD"/>
<circle cx="169.724" cy="11.3229" r="1.99822" transform="rotate(-180 169.724 11.3229)" fill="#4E95FD"/>
<circle cx="160.398" cy="11.3229" r="1.99822" transform="rotate(-180 160.398 11.3229)" fill="#4E95FD"/>
<circle cx="151.073" cy="20.6481" r="1.99822" transform="rotate(-180 151.073 20.6481)" fill="#4E95FD"/>
<circle cx="141.748" cy="20.6481" r="1.99822" transform="rotate(-180 141.748 20.6481)" fill="#4E95FD"/>
<circle cx="132.423" cy="20.6481" r="1.99822" transform="rotate(-180 132.423 20.6481)" fill="#4E95FD"/>
<circle cx="151.073" cy="1.99824" r="1.99822" transform="rotate(-180 151.073 1.99824)" fill="#4E95FD"/>
<circle cx="141.748" cy="1.99824" r="1.99822" transform="rotate(-180 141.748 1.99824)" fill="#4E95FD"/>
<circle cx="132.423" cy="1.99824" r="1.99822" transform="rotate(-180 132.423 1.99824)" fill="#4E95FD"/>
<circle cx="151.073" cy="11.3229" r="1.99822" transform="rotate(-180 151.073 11.3229)" fill="#4E95FD"/>
<circle cx="141.748" cy="11.3229" r="1.99822" transform="rotate(-180 141.748 11.3229)" fill="#4E95FD"/>
<circle cx="132.423" cy="11.3229" r="1.99822" transform="rotate(-180 132.423 11.3229)" fill="#4E95FD"/>
<circle cx="122.998" cy="20.6481" r="1.99822" transform="rotate(-180 122.998 20.6481)" fill="#4E95FD"/>
<circle cx="113.672" cy="20.6481" r="1.99822" transform="rotate(-180 113.672 20.6481)" fill="#4E95FD"/>
<circle cx="104.348" cy="20.6481" r="1.99822" transform="rotate(-180 104.348 20.6481)" fill="#4E95FD"/>
<circle cx="122.998" cy="1.99824" r="1.99822" transform="rotate(-180 122.998 1.99824)" fill="#4E95FD"/>
<circle cx="113.672" cy="1.99824" r="1.99822" transform="rotate(-180 113.672 1.99824)" fill="#4E95FD"/>
<circle cx="104.348" cy="1.99824" r="1.99822" transform="rotate(-180 104.348 1.99824)" fill="#4E95FD"/>
<circle cx="122.998" cy="11.3229" r="1.99822" transform="rotate(-180 122.998 11.3229)" fill="#4E95FD"/>
<circle cx="113.672" cy="11.3229" r="1.99822" transform="rotate(-180 113.672 11.3229)" fill="#4E95FD"/>
<circle cx="104.348" cy="11.3229" r="1.99822" transform="rotate(-180 104.348 11.3229)" fill="#4E95FD"/>
<circle cx="95.0246" cy="20.6481" r="1.99822" transform="rotate(-180 95.0246 20.6481)" fill="#4E95FD"/>
<circle cx="85.6984" cy="20.6481" r="1.99822" transform="rotate(-180 85.6984 20.6481)" fill="#4E95FD"/>
<circle cx="76.3742" cy="20.6481" r="1.99822" transform="rotate(-180 76.3742 20.6481)" fill="#4E95FD"/>
<circle cx="67.048" cy="20.6481" r="1.99822" transform="rotate(-180 67.048 20.6481)" fill="#4E95FD"/>
<circle cx="57.7238" cy="20.6481" r="1.99822" transform="rotate(-180 57.7238 20.6481)" fill="#4E95FD"/>
<circle cx="48.3977" cy="20.6481" r="1.99822" transform="rotate(-180 48.3977 20.6481)" fill="#4E95FD"/>
<circle cx="95.0246" cy="1.99824" r="1.99822" transform="rotate(-180 95.0246 1.99824)" fill="#4E95FD"/>
<circle cx="85.6984" cy="1.99824" r="1.99822" transform="rotate(-180 85.6984 1.99824)" fill="#4E95FD"/>
<circle cx="76.3742" cy="1.99824" r="1.99822" transform="rotate(-180 76.3742 1.99824)" fill="#4E95FD"/>
<circle cx="67.048" cy="1.99824" r="1.99822" transform="rotate(-180 67.048 1.99824)" fill="#4E95FD"/>
<circle cx="57.7238" cy="1.99824" r="1.99822" transform="rotate(-180 57.7238 1.99824)" fill="#4E95FD"/>
<circle cx="48.3977" cy="1.99824" r="1.99822" transform="rotate(-180 48.3977 1.99824)" fill="#4E95FD"/>
<circle cx="95.0246" cy="11.3229" r="1.99822" transform="rotate(-180 95.0246 11.3229)" fill="#4E95FD"/>
<circle cx="85.6984" cy="11.3229" r="1.99822" transform="rotate(-180 85.6984 11.3229)" fill="#4E95FD"/>
<circle cx="76.3742" cy="11.3229" r="1.99822" transform="rotate(-180 76.3742 11.3229)" fill="#4E95FD"/>
<circle cx="67.048" cy="11.3229" r="1.99822" transform="rotate(-180 67.048 11.3229)" fill="#4E95FD"/>
<circle cx="57.7238" cy="11.3229" r="1.99822" transform="rotate(-180 57.7238 11.3229)" fill="#4E95FD"/>
<circle cx="48.3977" cy="11.3229" r="1.99822" transform="rotate(-180 48.3977 11.3229)" fill="#4E95FD"/>
<circle cx="39.0734" cy="20.6481" r="1.99822" transform="rotate(-180 39.0734 20.6481)" fill="#4E95FD"/>
<circle cx="29.7482" cy="20.6481" r="1.99822" transform="rotate(-180 29.7482 20.6481)" fill="#4E95FD"/>
<circle cx="20.423" cy="20.6481" r="1.99822" transform="rotate(-180 20.423 20.6481)" fill="#4E95FD"/>
<circle cx="39.0734" cy="1.99824" r="1.99822" transform="rotate(-180 39.0734 1.99824)" fill="#4E95FD"/>
<circle cx="29.7482" cy="1.99824" r="1.99822" transform="rotate(-180 29.7482 1.99824)" fill="#4E95FD"/>
<circle cx="20.423" cy="1.99824" r="1.99822" transform="rotate(-180 20.423 1.99824)" fill="#4E95FD"/>
<circle cx="39.0734" cy="11.3229" r="1.99822" transform="rotate(-180 39.0734 11.3229)" fill="#4E95FD"/>
<circle cx="29.7482" cy="11.3229" r="1.99822" transform="rotate(-180 29.7482 11.3229)" fill="#4E95FD"/>
<circle cx="20.423" cy="11.3229" r="1.99822" transform="rotate(-180 20.423 11.3229)" fill="#4E95FD"/>
<circle cx="10.9982" cy="20.6481" r="1.99822" transform="rotate(-180 10.9982 20.6481)" fill="#4E95FD"/>
<circle cx="1.67206" cy="20.6481" r="1.99822" transform="rotate(-180 1.67206 20.6481)" fill="#4E95FD"/>
<circle cx="10.9982" cy="1.99824" r="1.99822" transform="rotate(-180 10.9982 1.99824)" fill="#4E95FD"/>
<circle cx="1.67206" cy="1.99824" r="1.99822" transform="rotate(-180 1.67206 1.99824)" fill="#4E95FD"/>
<circle cx="10.9982" cy="11.3229" r="1.99822" transform="rotate(-180 10.9982 11.3229)" fill="#4E95FD"/>
<circle cx="1.67206" cy="11.3229" r="1.99822" transform="rotate(-180 1.67206 11.3229)" fill="#4E95FD"/>
<circle cx="374.427" cy="199.648" r="1.99822" transform="rotate(-180 374.427 199.648)" fill="#8484FC"/>
<circle cx="365.103" cy="199.648" r="1.99822" transform="rotate(-180 365.103 199.648)" fill="#8484FC"/>
<circle cx="355.777" cy="199.648" r="1.99822" transform="rotate(-180 355.777 199.648)" fill="#8484FC"/>
<circle cx="374.427" cy="180.998" r="1.99822" transform="rotate(-180 374.427 180.998)" fill="#8484FC"/>
<circle cx="365.103" cy="180.998" r="1.99822" transform="rotate(-180 365.103 180.998)" fill="#8484FC"/>
<circle cx="355.777" cy="180.998" r="1.99822" transform="rotate(-180 355.777 180.998)" fill="#8484FC"/>
<circle cx="374.427" cy="190.323" r="1.99822" transform="rotate(-180 374.427 190.323)" fill="#8484FC"/>
<circle cx="365.103" cy="190.323" r="1.99822" transform="rotate(-180 365.103 190.323)" fill="#8484FC"/>
<circle cx="355.777" cy="190.323" r="1.99822" transform="rotate(-180 355.777 190.323)" fill="#8484FC"/>
<circle cx="346.452" cy="199.648" r="1.99822" transform="rotate(-180 346.452 199.648)" fill="#8484FC"/>
<circle cx="337.126" cy="199.648" r="1.99822" transform="rotate(-180 337.126 199.648)" fill="#8484FC"/>
<circle cx="327.801" cy="199.648" r="1.99822" transform="rotate(-180 327.801 199.648)" fill="#8484FC"/>
<circle cx="346.452" cy="180.998" r="1.99822" transform="rotate(-180 346.452 180.998)" fill="#8484FC"/>
<circle cx="337.126" cy="180.998" r="1.99822" transform="rotate(-180 337.126 180.998)" fill="#8484FC"/>
<circle cx="327.801" cy="180.998" r="1.99822" transform="rotate(-180 327.801 180.998)" fill="#8484FC"/>
<circle cx="346.452" cy="190.323" r="1.99822" transform="rotate(-180 346.452 190.323)" fill="#8484FC"/>
<circle cx="337.126" cy="190.323" r="1.99822" transform="rotate(-180 337.126 190.323)" fill="#8484FC"/>
<circle cx="327.801" cy="190.323" r="1.99822" transform="rotate(-180 327.801 190.323)" fill="#8484FC"/>
<circle cx="318.478" cy="199.648" r="1.99822" transform="rotate(-180 318.478 199.648)" fill="#8484FC"/>
<circle cx="309.152" cy="199.648" r="1.99822" transform="rotate(-180 309.152 199.648)" fill="#8484FC"/>
<circle cx="299.828" cy="199.648" r="1.99822" transform="rotate(-180 299.828 199.648)" fill="#8484FC"/>
<circle cx="290.502" cy="199.648" r="1.99822" transform="rotate(-180 290.502 199.648)" fill="#8484FC"/>
<circle cx="281.177" cy="199.648" r="1.99822" transform="rotate(-180 281.177 199.648)" fill="#8484FC"/>
<circle cx="271.851" cy="199.648" r="1.99822" transform="rotate(-180 271.851 199.648)" fill="#8484FC"/>
<circle cx="318.478" cy="180.998" r="1.99822" transform="rotate(-180 318.478 180.998)" fill="#8484FC"/>
<circle cx="309.152" cy="180.998" r="1.99822" transform="rotate(-180 309.152 180.998)" fill="#8484FC"/>
<circle cx="299.828" cy="180.998" r="1.99822" transform="rotate(-180 299.828 180.998)" fill="#8484FC"/>
<circle cx="290.502" cy="180.998" r="1.99822" transform="rotate(-180 290.502 180.998)" fill="#8484FC"/>
<circle cx="281.177" cy="180.998" r="1.99822" transform="rotate(-180 281.177 180.998)" fill="#8484FC"/>
<circle cx="271.851" cy="180.998" r="1.99822" transform="rotate(-180 271.851 180.998)" fill="#8484FC"/>
<circle cx="318.478" cy="190.323" r="1.99822" transform="rotate(-180 318.478 190.323)" fill="#8484FC"/>
<circle cx="309.152" cy="190.323" r="1.99822" transform="rotate(-180 309.152 190.323)" fill="#8484FC"/>
<circle cx="299.828" cy="190.323" r="1.99822" transform="rotate(-180 299.828 190.323)" fill="#8484FC"/>
<circle cx="290.502" cy="190.323" r="1.99822" transform="rotate(-180 290.502 190.323)" fill="#8484FC"/>
<circle cx="281.177" cy="190.323" r="1.99822" transform="rotate(-180 281.177 190.323)" fill="#8484FC"/>
<circle cx="271.851" cy="190.323" r="1.99822" transform="rotate(-180 271.851 190.323)" fill="#8484FC"/>
<circle cx="262.527" cy="199.648" r="1.99822" transform="rotate(-180 262.527 199.648)" fill="#8484FC"/>
<circle cx="253.202" cy="199.648" r="1.99822" transform="rotate(-180 253.202 199.648)" fill="#8484FC"/>
<circle cx="243.877" cy="199.648" r="1.99822" transform="rotate(-180 243.877 199.648)" fill="#8484FC"/>
<circle cx="262.527" cy="180.998" r="1.99822" transform="rotate(-180 262.527 180.998)" fill="#8484FC"/>
<circle cx="253.202" cy="180.998" r="1.99822" transform="rotate(-180 253.202 180.998)" fill="#8484FC"/>
<circle cx="243.877" cy="180.998" r="1.99822" transform="rotate(-180 243.877 180.998)" fill="#8484FC"/>
<circle cx="262.527" cy="190.323" r="1.99822" transform="rotate(-180 262.527 190.323)" fill="#8484FC"/>
<circle cx="253.202" cy="190.323" r="1.99822" transform="rotate(-180 253.202 190.323)" fill="#8484FC"/>
<circle cx="243.877" cy="190.323" r="1.99822" transform="rotate(-180 243.877 190.323)" fill="#8484FC"/>
<circle cx="234.999" cy="199.648" r="1.99822" transform="rotate(-180 234.999 199.648)" fill="#8484FC"/>
<circle cx="225.672" cy="199.648" r="1.99822" transform="rotate(-180 225.672 199.648)" fill="#8484FC"/>
<circle cx="216.348" cy="199.648" r="1.99822" transform="rotate(-180 216.348 199.648)" fill="#8484FC"/>
<circle cx="234.999" cy="180.998" r="1.99822" transform="rotate(-180 234.999 180.998)" fill="#8484FC"/>
<circle cx="225.672" cy="180.998" r="1.99822" transform="rotate(-180 225.672 180.998)" fill="#8484FC"/>
<circle cx="216.348" cy="180.998" r="1.99822" transform="rotate(-180 216.348 180.998)" fill="#8484FC"/>
<circle cx="234.999" cy="190.323" r="1.99822" transform="rotate(-180 234.999 190.323)" fill="#8484FC"/>
<circle cx="225.672" cy="190.323" r="1.99822" transform="rotate(-180 225.672 190.323)" fill="#8484FC"/>
<circle cx="216.348" cy="190.323" r="1.99822" transform="rotate(-180 216.348 190.323)" fill="#8484FC"/>
<circle cx="207.025" cy="199.648" r="1.99822" transform="rotate(-180 207.025 199.648)" fill="#8484FC"/>
<circle cx="197.699" cy="199.648" r="1.99822" transform="rotate(-180 197.699 199.648)" fill="#8484FC"/>
<circle cx="188.375" cy="199.648" r="1.99822" transform="rotate(-180 188.375 199.648)" fill="#8484FC"/>
<circle cx="179.048" cy="199.648" r="1.99822" transform="rotate(-180 179.048 199.648)" fill="#8484FC"/>
<circle cx="169.724" cy="199.648" r="1.99822" transform="rotate(-180 169.724 199.648)" fill="#8484FC"/>
<circle cx="160.398" cy="199.648" r="1.99822" transform="rotate(-180 160.398 199.648)" fill="#8484FC"/>
<circle cx="207.025" cy="180.998" r="1.99822" transform="rotate(-180 207.025 180.998)" fill="#8484FC"/>
<circle cx="197.699" cy="180.998" r="1.99822" transform="rotate(-180 197.699 180.998)" fill="#8484FC"/>
<circle cx="188.375" cy="180.998" r="1.99822" transform="rotate(-180 188.375 180.998)" fill="#8484FC"/>
<circle cx="179.048" cy="180.998" r="1.99822" transform="rotate(-180 179.048 180.998)" fill="#8484FC"/>
<circle cx="169.724" cy="180.998" r="1.99822" transform="rotate(-180 169.724 180.998)" fill="#8484FC"/>
<circle cx="160.398" cy="180.998" r="1.99822" transform="rotate(-180 160.398 180.998)" fill="#8484FC"/>
<circle cx="207.025" cy="190.323" r="1.99822" transform="rotate(-180 207.025 190.323)" fill="#8484FC"/>
<circle cx="197.699" cy="190.323" r="1.99822" transform="rotate(-180 197.699 190.323)" fill="#8484FC"/>
<circle cx="188.375" cy="190.323" r="1.99822" transform="rotate(-180 188.375 190.323)" fill="#8484FC"/>
<circle cx="179.048" cy="190.323" r="1.99822" transform="rotate(-180 179.048 190.323)" fill="#8484FC"/>
<circle cx="169.724" cy="190.323" r="1.99822" transform="rotate(-180 169.724 190.323)" fill="#8484FC"/>
<circle cx="160.398" cy="190.323" r="1.99822" transform="rotate(-180 160.398 190.323)" fill="#8484FC"/>
<circle cx="151.074" cy="199.648" r="1.99822" transform="rotate(-180 151.074 199.648)" fill="#8484FC"/>
<circle cx="141.749" cy="199.648" r="1.99822" transform="rotate(-180 141.749 199.648)" fill="#8484FC"/>
<circle cx="132.423" cy="199.648" r="1.99822" transform="rotate(-180 132.423 199.648)" fill="#8484FC"/>
<circle cx="151.074" cy="180.998" r="1.99822" transform="rotate(-180 151.074 180.998)" fill="#8484FC"/>
<circle cx="141.749" cy="180.998" r="1.99822" transform="rotate(-180 141.749 180.998)" fill="#8484FC"/>
<circle cx="132.423" cy="180.998" r="1.99822" transform="rotate(-180 132.423 180.998)" fill="#8484FC"/>
<circle cx="151.074" cy="190.323" r="1.99822" transform="rotate(-180 151.074 190.323)" fill="#8484FC"/>
<circle cx="141.749" cy="190.323" r="1.99822" transform="rotate(-180 141.749 190.323)" fill="#8484FC"/>
<circle cx="132.423" cy="190.323" r="1.99822" transform="rotate(-180 132.423 190.323)" fill="#8484FC"/>
<circle cx="122.999" cy="199.648" r="1.99822" transform="rotate(-180 122.999 199.648)" fill="#8484FC"/>
<circle cx="113.672" cy="199.648" r="1.99822" transform="rotate(-180 113.672 199.648)" fill="#8484FC"/>
<circle cx="104.348" cy="199.648" r="1.99822" transform="rotate(-180 104.348 199.648)" fill="#8484FC"/>
<circle cx="122.999" cy="180.998" r="1.99822" transform="rotate(-180 122.999 180.998)" fill="#8484FC"/>
<circle cx="113.672" cy="180.998" r="1.99822" transform="rotate(-180 113.672 180.998)" fill="#8484FC"/>
<circle cx="104.348" cy="180.998" r="1.99822" transform="rotate(-180 104.348 180.998)" fill="#8484FC"/>
<circle cx="122.999" cy="190.323" r="1.99822" transform="rotate(-180 122.999 190.323)" fill="#8484FC"/>
<circle cx="113.672" cy="190.323" r="1.99822" transform="rotate(-180 113.672 190.323)" fill="#8484FC"/>
<circle cx="104.348" cy="190.323" r="1.99822" transform="rotate(-180 104.348 190.323)" fill="#8484FC"/>
<circle cx="95.025" cy="199.648" r="1.99822" transform="rotate(-180 95.025 199.648)" fill="#8484FC"/>
<circle cx="85.6988" cy="199.648" r="1.99822" transform="rotate(-180 85.6988 199.648)" fill="#8484FC"/>
<circle cx="76.3746" cy="199.648" r="1.99822" transform="rotate(-180 76.3746 199.648)" fill="#8484FC"/>
<circle cx="67.0484" cy="199.648" r="1.99822" transform="rotate(-180 67.0484 199.648)" fill="#8484FC"/>
<circle cx="57.7242" cy="199.648" r="1.99822" transform="rotate(-180 57.7242 199.648)" fill="#8484FC"/>
<circle cx="48.398" cy="199.648" r="1.99822" transform="rotate(-180 48.398 199.648)" fill="#8484FC"/>
<circle cx="95.025" cy="180.998" r="1.99822" transform="rotate(-180 95.025 180.998)" fill="#8484FC"/>
<circle cx="85.6988" cy="180.998" r="1.99822" transform="rotate(-180 85.6988 180.998)" fill="#8484FC"/>
<circle cx="76.3746" cy="180.998" r="1.99822" transform="rotate(-180 76.3746 180.998)" fill="#8484FC"/>
<circle cx="67.0484" cy="180.998" r="1.99822" transform="rotate(-180 67.0484 180.998)" fill="#8484FC"/>
<circle cx="57.7242" cy="180.998" r="1.99822" transform="rotate(-180 57.7242 180.998)" fill="#8484FC"/>
<circle cx="48.398" cy="180.998" r="1.99822" transform="rotate(-180 48.398 180.998)" fill="#8484FC"/>
<circle cx="95.025" cy="190.323" r="1.99822" transform="rotate(-180 95.025 190.323)" fill="#8484FC"/>
<circle cx="85.6988" cy="190.323" r="1.99822" transform="rotate(-180 85.6988 190.323)" fill="#8484FC"/>
<circle cx="76.3746" cy="190.323" r="1.99822" transform="rotate(-180 76.3746 190.323)" fill="#8484FC"/>
<circle cx="67.0484" cy="190.323" r="1.99822" transform="rotate(-180 67.0484 190.323)" fill="#8484FC"/>
<circle cx="57.7242" cy="190.323" r="1.99822" transform="rotate(-180 57.7242 190.323)" fill="#8484FC"/>
<circle cx="48.398" cy="190.323" r="1.99822" transform="rotate(-180 48.398 190.323)" fill="#8484FC"/>
<circle cx="39.0738" cy="199.648" r="1.99822" transform="rotate(-180 39.0738 199.648)" fill="#8484FC"/>
<circle cx="29.7486" cy="199.648" r="1.99822" transform="rotate(-180 29.7486 199.648)" fill="#8484FC"/>
<circle cx="20.4234" cy="199.648" r="1.99822" transform="rotate(-180 20.4234 199.648)" fill="#8484FC"/>
<circle cx="39.0738" cy="180.998" r="1.99822" transform="rotate(-180 39.0738 180.998)" fill="#8484FC"/>
<circle cx="29.7486" cy="180.998" r="1.99822" transform="rotate(-180 29.7486 180.998)" fill="#8484FC"/>
<circle cx="20.4234" cy="180.998" r="1.99822" transform="rotate(-180 20.4234 180.998)" fill="#8484FC"/>
<circle cx="39.0738" cy="190.323" r="1.99822" transform="rotate(-180 39.0738 190.323)" fill="#8484FC"/>
<circle cx="29.7486" cy="190.323" r="1.99822" transform="rotate(-180 29.7486 190.323)" fill="#8484FC"/>
<circle cx="20.4234" cy="190.323" r="1.99822" transform="rotate(-180 20.4234 190.323)" fill="#8484FC"/>
<circle cx="10.9986" cy="199.648" r="1.99822" transform="rotate(-180 10.9986 199.648)" fill="#8484FC"/>
<circle cx="1.67243" cy="199.648" r="1.99822" transform="rotate(-180 1.67243 199.648)" fill="#8484FC"/>
<circle cx="10.9986" cy="180.998" r="1.99822" transform="rotate(-180 10.9986 180.998)" fill="#8484FC"/>
<circle cx="1.67243" cy="180.998" r="1.99822" transform="rotate(-180 1.67243 180.998)" fill="#8484FC"/>
<circle cx="10.9986" cy="190.323" r="1.99822" transform="rotate(-180 10.9986 190.323)" fill="#8484FC"/>
<circle cx="1.67243" cy="190.323" r="1.99822" transform="rotate(-180 1.67243 190.323)" fill="#8484FC"/>
</svg>
