<svg width="165" height="93" viewBox="0 0 165 93" fill="none" xmlns="http://www.w3.org/2000/svg">
<path d="M23.855 8.56074C46.3247 0.221782 69.1568 7.59273 84.645 23.6542C100.133 39.7156 132.635 12.568 149.875 28.6024C161.637 39.5479 156.251 67.6797 140.119 79.8691C118.196 96.4335 51.5163 88.0296 37.0935 85.2121C20.475 81.962 8.32892 72.1088 3.39152 60.152C-8.50042 31.3333 13.9261 12.2489 23.855 8.56074Z" fill="#E7F3FE"/>
<path d="M100.652 20.1498C100.728 19.4684 100.771 18.7816 100.771 18.0786C100.771 17.7108 100.76 17.3431 100.739 16.9808L97.3156 15.8721C97.1047 14.4282 96.6937 13.0546 96.1042 11.773L98.3755 8.9825C97.851 8.05775 97.2507 7.18708 96.5801 6.37049L93.1569 7.48451C92.1619 6.46783 91.0208 5.58634 89.7716 4.87791L89.9663 1.28167C89.0091 0.849038 88.014 0.492118 86.9811 0.221724L84.8666 3.13657C84.0446 2.99597 83.1956 2.92567 82.3357 2.92567C81.7463 2.92567 81.1676 2.95811 80.5944 3.02301L78.6367 0C77.5876 0.210908 76.5709 0.513749 75.5975 0.897709L75.6029 4.49936C74.3158 5.13749 73.1315 5.95949 72.0824 6.92209L68.7241 5.6242C68.0102 6.40294 67.3613 7.24657 66.7881 8.13887L68.908 11.0483C68.2536 12.2975 67.7669 13.6495 67.4803 15.0772L64.003 16.0019C63.9273 16.6833 63.884 17.3701 63.884 18.0732C63.884 18.4409 63.8948 18.8086 63.9165 19.171L67.3397 20.2796C67.5506 21.7235 67.9616 23.0971 68.551 24.3787L66.2797 27.1692C66.8043 28.094 67.4046 28.9646 68.0751 29.7812L71.4983 28.6672C72.4934 29.6839 73.6345 30.5654 74.8837 31.2738L74.689 34.87C75.6462 35.3027 76.6412 35.6596 77.6741 35.93L79.7886 33.0151C80.6106 33.1557 81.4597 33.226 82.3195 33.226C82.909 33.226 83.4876 33.1936 84.0609 33.1287L86.0185 36.1517C87.0676 35.9408 88.0843 35.638 89.0577 35.254L89.0523 31.6523C90.3394 31.0142 91.5237 30.1922 92.5729 29.2296L95.9312 30.5275C96.645 29.7488 97.2939 28.9051 97.8672 28.0128L95.7473 25.1034C96.4016 23.8542 96.8884 22.5022 97.175 21.0745L100.652 20.1498ZM82.3249 25.3143C78.3285 25.3143 75.0892 22.075 75.0892 18.0786C75.0892 14.0821 78.3285 10.8428 82.3249 10.8428C86.3213 10.8428 89.5607 14.0821 89.5607 18.0786C89.5607 22.075 86.3213 25.3143 82.3249 25.3143Z" fill="#9EC8FF"/>
<path d="M92.1942 26.3311C92.1347 26.3311 92.0698 26.3094 92.0212 26.2662C91.9076 26.1688 91.8914 26.0012 91.9887 25.8876C93.8058 23.7028 94.8062 20.9286 94.8062 18.0786C94.8062 16.7158 94.5845 15.3747 94.1411 14.0984C94.0924 13.9578 94.1681 13.801 94.3087 13.7523C94.4493 13.7036 94.6061 13.7794 94.6548 13.92C95.1145 15.2557 95.347 16.6509 95.347 18.0786C95.347 21.053 94.3033 23.9462 92.4051 26.2337C92.3456 26.2932 92.2699 26.3311 92.1942 26.3311Z" fill="white"/>
<path d="M91.145 9.2528C91.0801 9.2528 91.0098 9.22576 90.9611 9.17709C89.7389 8.02521 88.3221 7.15454 86.7538 6.58671C86.6132 6.53804 86.5429 6.38121 86.5916 6.2406C86.6402 6.1 86.797 6.0297 86.9376 6.07837C88.5762 6.67323 90.0526 7.58176 91.3289 8.78231C91.437 8.88506 91.4424 9.05811 91.3397 9.16627C91.291 9.22576 91.2153 9.2528 91.145 9.2528Z" fill="white"/>
<path d="M79.518 6.24067C79.399 6.24067 79.2854 6.15955 79.2584 6.03517C79.2205 5.88915 79.3071 5.74314 79.4531 5.70529C80.4698 5.44571 81.5243 5.31592 82.5842 5.31592C82.7357 5.31592 82.8546 5.43489 82.8546 5.58631C82.8546 5.73773 82.7357 5.85671 82.5842 5.85671C81.5676 5.85671 80.5617 5.98109 79.5829 6.22985C79.5612 6.23526 79.5396 6.24067 79.518 6.24067Z" fill="white"/>
<path d="M42.5067 65.9546C42.5608 65.4841 42.5879 65.0028 42.5879 64.5215C42.5879 64.2673 42.577 64.0131 42.5662 63.759L40.1976 62.9911C40.0516 61.9906 39.7649 61.0388 39.3594 60.1519L40.9331 58.2159C40.5707 57.5778 40.1543 56.9721 39.6892 56.4043L37.3206 57.1776C36.6284 56.4691 35.8388 55.8635 34.9736 55.3713L35.1088 52.8783C34.449 52.5755 33.7568 52.3321 33.0375 52.1428L31.572 54.1654C31.0042 54.068 30.4147 54.0194 29.8198 54.0194C29.4143 54.0194 29.0087 54.041 28.6139 54.0897L27.2565 51.9968C26.5319 52.1428 25.8288 52.3537 25.1528 52.6187L25.1582 55.1118C24.2659 55.5552 23.444 56.123 22.7193 56.7882L20.3939 55.8905C19.9018 56.4313 19.4529 57.0153 19.0527 57.6318L20.5183 59.649C20.064 60.5142 19.7287 61.4552 19.5286 62.4395L17.1221 63.0776C17.0681 63.5481 17.041 64.0294 17.041 64.5107C17.041 64.7648 17.0518 65.019 17.0626 65.2732L19.4313 66.0411C19.5773 67.0416 19.8639 67.9933 20.2695 68.8802L18.6958 70.8163C19.0582 71.4544 19.4746 72.0601 19.9396 72.6279L22.3083 71.8546C23.0005 72.563 23.7901 73.1687 24.6553 73.6608L24.5201 76.1538C25.1799 76.4567 25.8721 76.7 26.5913 76.8893L28.0569 74.8668C28.6301 74.9641 29.2142 75.0128 29.809 75.0128C30.2146 75.0128 30.6202 74.9912 31.015 74.9425L32.3724 77.0353C33.097 76.8893 33.8 76.6784 34.476 76.4134L34.4706 73.9204C35.3629 73.4769 36.1849 72.9091 36.9096 72.2439L39.235 73.1417C39.7271 72.6009 40.1759 72.0168 40.5761 71.4003L39.1106 69.3832C39.5649 68.5179 39.9001 67.5769 40.1002 66.5927L42.5067 65.9546ZM29.8144 69.5292C27.0456 69.5292 24.8013 67.2849 24.8013 64.5161C24.8013 61.7472 27.0456 59.503 29.8144 59.503C32.5833 59.503 34.8275 61.7472 34.8275 64.5161C34.8275 67.2849 32.5833 69.5292 29.8144 69.5292Z" fill="#9EC8FF"/>
<path d="M36.65 70.3188C36.5905 70.3188 36.5256 70.2972 36.477 70.2539C36.3634 70.1566 36.3472 69.9889 36.4445 69.8753C37.6938 68.3774 38.3806 66.4738 38.3806 64.5215C38.3806 63.586 38.2291 62.6666 37.9263 61.7906C37.8776 61.65 37.9533 61.4931 38.0939 61.4445C38.2345 61.3958 38.3914 61.4715 38.44 61.6121C38.7591 62.5477 38.9268 63.5211 38.9268 64.5161C38.9268 66.5982 38.1967 68.6207 36.8663 70.216C36.8015 70.2863 36.7257 70.3188 36.65 70.3188Z" fill="white"/>
<path d="M35.9253 58.4917C35.8604 58.4917 35.7901 58.4646 35.7414 58.4159C34.9032 57.6264 33.9352 57.0315 32.859 56.6368C32.7184 56.5881 32.6481 56.4313 32.6968 56.2907C32.7454 56.15 32.9023 56.0797 33.0429 56.1284C34.1893 56.5448 35.2223 57.183 36.1146 58.0212C36.2227 58.1239 36.2281 58.297 36.1254 58.4051C36.0659 58.4646 35.9956 58.4917 35.9253 58.4917Z" fill="white"/>
<path d="M27.873 56.4042C27.754 56.4042 27.6404 56.323 27.6134 56.1987C27.5755 56.0526 27.662 55.9066 27.8081 55.8688C28.5219 55.6903 29.2574 55.5984 29.9983 55.5984C30.1497 55.5984 30.2686 55.7174 30.2686 55.8688C30.2686 56.0202 30.1497 56.1392 29.9983 56.1392C29.3006 56.1392 28.6084 56.2257 27.9433 56.3934C27.9162 56.3988 27.8946 56.4042 27.873 56.4042Z" fill="white"/>
<path d="M111.701 33.9236C111.701 33.783 111.695 33.6424 111.69 33.5072L113.464 32.0796C113.323 31.3657 113.107 30.6843 112.82 30.0408L110.527 29.8677C110.008 29.0457 109.332 28.3319 108.542 27.7641L108.537 25.4765C107.899 25.1412 107.217 24.8763 106.504 24.6924L104.935 26.3796C104.665 26.3526 104.389 26.3364 104.113 26.3364C103.421 26.3364 102.756 26.4283 102.118 26.6014L100.322 25.1791C99.6464 25.4711 99.0083 25.8443 98.4242 26.2823L98.7649 28.5482C98.0943 29.2134 97.5481 30.0083 97.1642 30.8844L94.9307 31.4036C94.7414 32.0958 94.6279 32.815 94.6008 33.5559L96.5693 34.697C96.6721 35.692 96.9641 36.633 97.4129 37.482L96.4287 39.5478C96.8505 40.1265 97.3372 40.6565 97.878 41.1215L99.9871 40.2941C100.814 40.8349 101.761 41.2189 102.772 41.3973L103.767 43.4469C103.886 43.4523 104.005 43.4523 104.124 43.4523C104.719 43.4523 105.303 43.3983 105.871 43.2901L106.541 41.1215C107.52 40.7917 108.407 40.2725 109.159 39.6019L111.376 40.0994C111.83 39.5641 112.231 38.98 112.56 38.3527L111.273 36.4653C111.544 35.6704 111.701 34.8159 111.701 33.9236ZM104.027 37.2711C102.264 37.2711 100.831 35.838 100.831 34.0751C100.831 32.3121 102.264 30.879 104.027 30.879C105.79 30.879 107.223 32.3121 107.223 34.0751C107.223 35.838 105.795 37.2711 104.027 37.2711Z" fill="#9EC8FF"/>
<g opacity="0.8">
<path opacity="0.8" d="M141.249 15.5097H138.502C137.442 15.5097 136.577 14.6445 136.577 13.5845V10.8373C136.577 9.77737 137.442 8.91211 138.502 8.91211H141.249C142.309 8.91211 143.175 9.77737 143.175 10.8373V13.5845C143.169 14.6499 142.309 15.5097 141.249 15.5097ZM138.502 9.67462C137.859 9.67462 137.334 10.1992 137.334 10.8427V13.5899C137.334 14.2335 137.859 14.758 138.502 14.758H141.249C141.893 14.758 142.417 14.2335 142.417 13.5899V10.8427C142.417 10.1992 141.893 9.67462 141.249 9.67462H138.502Z" fill="#9EC8FF"/>
</g>
<g opacity="0.8">
<path opacity="0.8" d="M128.319 15.5097H125.572C124.512 15.5097 123.647 14.6445 123.647 13.5845V10.8373C123.647 9.77737 124.512 8.91211 125.572 8.91211H128.319C129.379 8.91211 130.244 9.77737 130.244 10.8373V13.5845C130.244 14.6499 129.384 15.5097 128.319 15.5097ZM125.572 9.67462C124.928 9.67462 124.404 10.1992 124.404 10.8427V13.5899C124.404 14.2335 124.928 14.758 125.572 14.758H128.319C128.963 14.758 129.487 14.2335 129.487 13.5899V10.8427C129.487 10.1992 128.963 9.67462 128.319 9.67462H125.572Z" fill="#9EC8FF"/>
</g>
<path d="M127.119 13.909C127.113 13.909 127.108 13.909 127.102 13.909C127.005 13.9036 126.919 13.8604 126.859 13.7847L124.885 11.2105C124.777 11.0699 124.804 10.8644 124.945 10.7562C125.085 10.6481 125.291 10.6751 125.399 10.8157L127.14 13.087L131.688 8.21453C131.813 8.08475 132.018 8.07393 132.148 8.19831C132.278 8.32269 132.289 8.52819 132.164 8.65798L127.357 13.8117C127.297 13.8766 127.211 13.909 127.119 13.909Z" fill="#F37168"/>
<path d="M150.329 86.4613C139.081 85.9097 100.82 86.8452 89.1875 87.2076C77.5498 87.5699 64.0463 86.7263 57.0268 85.4879C50.0128 84.2495 9.45368 85.5906 11.2978 88.9219C13.1365 92.2531 29.3655 90.409 47.7685 91.7502C66.1716 93.0913 107.564 91.5825 116.898 91.7502C126.232 91.9178 134.798 91.4149 146.825 90.7443C158.852 90.0737 156.846 86.7803 150.329 86.4613Z" fill="#CCE2FF"/>
<path d="M35.3684 16.824H11.8604V55.3606H35.3684V16.824Z" fill="#99BBEB"/>
<path d="M34.6004 17.6082H13.0933V53.8897H34.6004V17.6082Z" fill="white"/>
<path d="M19.5232 32.1553C20.3344 30.4139 21.7026 29.8569 23.9523 29.8569C26.6292 29.8569 28.0244 30.8249 28.4138 32.2418C23.6224 32.3067 19.5232 32.1553 19.5232 32.1553Z" fill="#9BD6E8"/>
<path d="M23.0167 21.3883C21.8811 21.7073 21.9352 22.3455 21.5566 22.9349C21.1781 23.5244 20.3561 23.9192 20.2587 24.3139C20.1614 24.7087 20.5129 25.5307 20.0965 25.9904C19.6801 26.45 19.5395 26.6826 19.7017 27.1423C19.8639 27.6019 20.2263 28.3266 20.2587 28.4239C20.2912 28.5213 20.7508 29.2135 21.3078 29.3108C21.8649 29.4082 22.9194 29.5758 23.444 29.8029C23.9685 30.0355 25.6612 29.5109 26.5968 29.5434C27.5323 29.5758 28.1759 28.8836 28.1056 28.4239C28.0407 27.9643 28.7978 27.0449 28.7978 26.2554C28.7978 25.4063 27.8135 24.779 27.5485 24.2166C27.2836 23.6596 27.581 22.6699 26.5968 22.0859C25.9748 21.7181 25.5476 21.7506 25.0501 21.5829C24.5634 21.4261 23.7414 21.1882 23.0167 21.3883Z" fill="#3A384D"/>
<path d="M24.3957 31.2469C24.1415 31.6255 23.9522 31.6417 23.671 31.2469C23.4493 30.9333 23.0112 30.2194 23.0112 29.8571V26.2555C23.0112 25.8931 23.3087 25.5957 23.671 25.5957H24.3957C24.758 25.5957 25.0554 25.8931 25.0554 26.2555V29.8625C25.0554 30.2249 24.6282 30.9117 24.3957 31.2469Z" fill="#F09959"/>
<path d="M24.3957 25.5957H23.671C23.3087 25.5957 23.0112 25.8931 23.0112 26.2555V29.4732C23.8224 29.7327 24.5633 29.219 25.05 28.6403V26.2555C25.0554 25.8931 24.758 25.5957 24.3957 25.5957Z" fill="#E38540"/>
<path d="M24.0388 28.6133C25.2454 28.6133 26.2236 27.2792 26.2236 25.6336C26.2236 23.9879 25.2454 22.6538 24.0388 22.6538C22.8322 22.6538 21.854 23.9879 21.854 25.6336C21.854 27.2792 22.8322 28.6133 24.0388 28.6133Z" fill="#F09959"/>
<path d="M25.0555 23.2647C23.6765 25.5955 21.6377 25.3684 21.6377 25.3684C21.6377 25.3684 21.6864 22.2805 23.3033 22.1182C24.9203 21.956 25.8721 22.605 26.2019 23.6757C26.5318 24.7465 26.2019 25.4549 26.2019 25.4549C26.2019 25.4549 25.6774 25.0439 25.4124 24.3896C25.1528 23.7244 25.0555 23.2647 25.0555 23.2647Z" fill="#3A384D"/>
<path d="M21.9245 26.6107C22.2105 26.4749 22.2772 26.0171 22.0734 25.5881C21.8697 25.1591 21.4727 24.9215 21.1868 25.0573C20.9008 25.1931 20.8341 25.651 21.0378 26.0799C21.2415 26.5089 21.6385 26.7465 21.9245 26.6107Z" fill="#F09959"/>
<path d="M25.8991 25.5902C25.6936 26.0228 25.7639 26.4771 26.0505 26.6177C26.3372 26.7529 26.7373 26.5149 26.9374 26.0877C27.1429 25.6551 27.0726 25.2008 26.786 25.0602C26.4994 24.9196 26.1046 25.1576 25.8991 25.5902Z" fill="#F09959"/>
<path d="M24.8554 27.2505C24.8554 27.2505 24.4877 27.7264 24.0334 27.7264C23.5792 27.7264 23.2114 27.2505 23.2114 27.2505H24.8554Z" fill="white"/>
<path d="M26.6401 36.8818H21.124C20.7725 36.8818 20.4805 36.5952 20.4805 36.2383C20.4805 35.8868 20.7671 35.5947 21.124 35.5947H26.6401C26.9916 35.5947 27.2836 35.8813 27.2836 36.2383C27.2782 36.5898 26.9916 36.8818 26.6401 36.8818Z" fill="#99BBEB"/>
<path d="M27.646 38.8503H20.1074C19.7559 38.8503 19.4639 38.5637 19.4639 38.2068C19.4639 37.8553 19.7505 37.5632 20.1074 37.5632H27.646C27.9975 37.5632 28.2895 37.8499 28.2895 38.2068C28.2895 38.5637 28.0029 38.8503 27.646 38.8503Z" fill="#99BBEB"/>
<path d="M33.0484 45.9401H14.7103C14.5048 45.9401 14.3372 45.7725 14.3372 45.567C14.3372 45.3615 14.5048 45.1938 14.7103 45.1938H33.0484C33.2539 45.1938 33.4216 45.3615 33.4216 45.567C33.4216 45.7725 33.2539 45.9401 33.0484 45.9401Z" fill="#99BBEB"/>
<path d="M33.0484 47.6706H14.7103C14.5048 47.6706 14.3372 47.503 14.3372 47.2975C14.3372 47.092 14.5048 46.9243 14.7103 46.9243H33.0484C33.2539 46.9243 33.4216 47.092 33.4216 47.2975C33.4216 47.503 33.2539 47.6706 33.0484 47.6706Z" fill="#99BBEB"/>
<path d="M33.0484 49.4011H14.7103C14.5048 49.4011 14.3372 49.2334 14.3372 49.0279C14.3372 48.8224 14.5048 48.6548 14.7103 48.6548H33.0484C33.2539 48.6548 33.4216 48.8224 33.4216 49.0279C33.4216 49.2334 33.2539 49.4011 33.0484 49.4011Z" fill="#99BBEB"/>
<path d="M30.485 32.588H17.2736C16.9058 32.588 16.6084 32.2905 16.6084 31.9228V19.7496C16.6084 19.3819 16.9058 19.0845 17.2736 19.0845H30.4796C30.8474 19.0845 31.1448 19.3819 31.1448 19.7496V31.9228C31.1448 32.2851 30.8474 32.588 30.485 32.588ZM17.2736 19.6253C17.2087 19.6253 17.1492 19.6793 17.1492 19.7496V31.9228C17.1492 31.9877 17.2033 32.0472 17.2736 32.0472H30.4796C30.5445 32.0472 30.604 31.9931 30.604 31.9228V19.7496C30.604 19.6847 30.5499 19.6253 30.4796 19.6253H17.2736Z" fill="#99BBEB"/>
<path d="M19.1827 40.5269L19.5613 41.3002L20.4157 41.4246L19.7992 42.0302L19.9453 42.8793L19.1827 42.4791L18.4148 42.8793L18.5608 42.0302L17.9443 41.4246L18.7988 41.3002L19.1827 40.5269Z" fill="#99BBEB"/>
<path d="M22.3136 40.5269L22.6976 41.3002L23.552 41.4246L22.9301 42.0302L23.0761 42.8793L22.3136 42.4791L21.5457 42.8793L21.6917 42.0302L21.0752 41.4246L21.9296 41.3002L22.3136 40.5269Z" fill="#99BBEB"/>
<path d="M25.4449 40.5269L25.8289 41.3002L26.6834 41.4246L26.0614 42.0302L26.2075 42.8793L25.4449 42.4791L24.6824 42.8793L24.8284 42.0302L24.2065 41.4246L25.061 41.3002L25.4449 40.5269Z" fill="#99BBEB"/>
<path d="M28.5761 40.5269L28.96 41.3002L29.8145 41.4246L29.198 42.0302L29.344 42.8793L28.5761 42.4791L27.8135 42.8793L27.9596 42.0302L27.3376 41.4246L28.1921 41.3002L28.5761 40.5269Z" fill="#99BBEB"/>
<path d="M87.7815 16.824H64.2734V55.3606H87.7815V16.824Z" fill="#99BBEB"/>
<path d="M87.0137 17.6082H65.5066V53.8897H87.0137V17.6082Z" fill="white"/>
<path d="M72.958 25.4385C72.958 27.1636 73.9963 29.9487 76.4461 29.8621C78.8959 29.7702 79.4421 27.1203 79.534 26.3686C79.6313 25.6169 72.958 25.4385 72.958 25.4385Z" fill="#7A4E34"/>
<path d="M71.936 32.155C72.7472 30.4137 74.1154 29.8567 76.3651 29.8567C79.042 29.8567 80.4372 30.8247 80.8266 32.2416C76.0352 32.3065 71.936 32.155 71.936 32.155Z" fill="#D54A41"/>
<path d="M76.8139 31.2467C76.5597 31.6253 76.3704 31.6415 76.0892 31.2467C75.8675 30.933 75.4294 30.2192 75.4294 29.8569V26.2552C75.4294 25.8929 75.7269 25.5955 76.0892 25.5955H76.8139C77.1762 25.5955 77.4736 25.8929 77.4736 26.2552V29.8623C77.4682 30.2246 77.041 30.9114 76.8139 31.2467Z" fill="#F09959"/>
<path d="M76.8139 25.5955H76.0892C75.7269 25.5955 75.4294 25.8929 75.4294 26.2552V29.4729C76.2406 29.7325 76.9815 29.2187 77.4682 28.6401V26.2552C77.4682 25.8929 77.1708 25.5955 76.8139 25.5955Z" fill="#E38540"/>
<path d="M76.4516 28.6131C77.6583 28.6131 78.6364 27.279 78.6364 25.6333C78.6364 23.9876 77.6583 22.6536 76.4516 22.6536C75.245 22.6536 74.2668 23.9876 74.2668 25.6333C74.2668 27.279 75.245 28.6131 76.4516 28.6131Z" fill="#F09959"/>
<path d="M77.6521 23.3728C77.3925 24.2867 76.8247 24.2759 76.0297 24.5787C75.2348 24.8815 74.8562 25.1844 74.5966 25.7684C74.2667 26.5147 74.748 28.6941 74.748 28.6941C74.748 28.6941 72.7417 27.1907 72.9689 24.8275C73.2014 22.4642 74.5966 21.5503 75.9053 21.5503C77.2194 21.5503 77.717 22.3507 77.717 22.3507C77.717 22.3507 78.4146 22.3561 79.0744 23.1348C79.9612 24.1893 79.6909 26.7419 79.0744 27.6558C78.4579 28.5697 78.0469 28.8563 78.0631 28.8185C78.0793 28.7752 78.6363 26.677 78.3389 25.3737C78.0414 24.0704 77.6521 23.3728 77.6521 23.3728Z" fill="#7A4E34"/>
<path d="M77.2736 27.2502C77.2736 27.2502 76.9059 27.7261 76.4516 27.7261C75.9974 27.7261 75.6296 27.2502 75.6296 27.2502H77.2736Z" fill="white"/>
<path d="M79.0529 36.8818H73.5369C73.1853 36.8818 72.8933 36.5952 72.8933 36.2383C72.8933 35.8868 73.1799 35.5947 73.5369 35.5947H79.0529C79.4044 35.5947 79.6964 35.8813 79.6964 36.2383C79.691 36.5898 79.4044 36.8818 79.0529 36.8818Z" fill="#99BBEB"/>
<path d="M80.0642 38.8503H72.5256C72.1741 38.8503 71.8821 38.5637 71.8821 38.2068C71.8821 37.8553 72.1687 37.5632 72.5256 37.5632H80.0642C80.4157 37.5632 80.7077 37.8499 80.7077 38.2068C80.7023 38.5637 80.4157 38.8503 80.0642 38.8503Z" fill="#99BBEB"/>
<path d="M85.4613 45.9401H67.1231C66.9176 45.9401 66.75 45.7725 66.75 45.567C66.75 45.3615 66.9176 45.1938 67.1231 45.1938H85.4613C85.6668 45.1938 85.8344 45.3615 85.8344 45.567C85.8344 45.7725 85.6668 45.9401 85.4613 45.9401Z" fill="#99BBEB"/>
<path d="M85.4613 47.6706H67.1231C66.9176 47.6706 66.75 47.503 66.75 47.2975C66.75 47.092 66.9176 46.9243 67.1231 46.9243H85.4613C85.6668 46.9243 85.8344 47.092 85.8344 47.2975C85.8344 47.503 85.6668 47.6706 85.4613 47.6706Z" fill="#99BBEB"/>
<path d="M85.4613 49.4011H67.1231C66.9176 49.4011 66.75 49.2334 66.75 49.0279C66.75 48.8224 66.9176 48.6548 67.1231 48.6548H85.4613C85.6668 48.6548 85.8344 48.8224 85.8344 49.0279C85.8344 49.2334 85.6668 49.4011 85.4613 49.4011Z" fill="#99BBEB"/>
<path d="M82.8978 32.588H69.6918C69.324 32.588 69.0266 32.2905 69.0266 31.9228V19.7496C69.0266 19.3819 69.324 19.0845 69.6918 19.0845H82.8978C83.2656 19.0845 83.563 19.3819 83.563 19.7496V31.9228C83.563 32.2851 83.2602 32.588 82.8978 32.588ZM69.6864 19.6253C69.6215 19.6253 69.562 19.6793 69.562 19.7496V31.9228C69.562 31.9877 69.6161 32.0472 69.6864 32.0472H82.8978C82.9627 32.0472 83.0222 31.9931 83.0222 31.9228V19.7496C83.0222 19.6847 82.9681 19.6253 82.8978 19.6253H69.6864Z" fill="#99BBEB"/>
<path d="M71.5956 40.5269L71.9795 41.3002L72.834 41.4246L72.2121 42.0302L72.3581 42.8793L71.5956 42.4791L70.8277 42.8793L70.9737 42.0302L70.3572 41.4246L71.2116 41.3002L71.5956 40.5269Z" fill="#99BBEB"/>
<path d="M74.7267 40.5269L75.1106 41.3002L75.9651 41.4246L75.3432 42.0302L75.4892 42.8793L74.7267 42.4791L73.9642 42.8793L74.1102 42.0302L73.4883 41.4246L74.3427 41.3002L74.7267 40.5269Z" fill="#99BBEB"/>
<path d="M77.8578 40.5269L78.2418 41.3002L79.0962 41.4246L78.4797 42.0302L78.6257 42.8793L77.8578 42.4791L77.0953 42.8793L77.2413 42.0302L76.6194 41.4246L77.4738 41.3002L77.8578 40.5269Z" fill="#99BBEB"/>
<path d="M80.9889 40.5269L81.3729 41.3002L82.2273 41.4246L81.6108 42.0302L81.7568 42.8793L80.9889 42.4791L80.2264 42.8793L80.3724 42.0302L79.7505 41.4246L80.6103 41.3002L80.9889 40.5269Z" fill="#99BBEB"/>
<path opacity="0.2" d="M66.9179 54.9712H29.8145L32.4373 16.9646H68.2537L66.9179 54.9712Z" fill="#99BBEB"/>
<path d="M65.8256 9.77734H33.7136V62.4123H65.8256V9.77734Z" fill="#99BBEB"/>
<path d="M64.7714 10.8481H35.3958V60.4006H64.7714V10.8481Z" fill="white"/>
<path d="M47.3418 21.2585C47.3202 21.199 46.8065 18.2463 46.747 17.0999C46.6875 15.9534 48.5911 15.7858 48.5911 15.7858C48.5911 15.7858 50.1485 14.9475 51.2788 15.3748C52.4036 15.8074 53.1715 16.532 53.6853 17.4297C54.199 18.3329 53.2364 21.145 53.2364 21.145L47.3418 21.2585Z" fill="#2E2D3D"/>
<path d="M43.8105 30.7386C43.8051 30.6899 43.9402 29.5272 43.9457 29.484C44.2052 27.0396 47.2228 26.3474 50.2296 26.3474C53.7664 26.3474 56.1621 26.9964 56.546 29.5381C56.5568 29.6138 56.7623 30.7765 56.7515 30.8576C50.1972 30.9441 43.8105 30.7386 43.8105 30.7386Z" fill="#D5E1E8"/>
<path d="M50.8353 28.2456C50.4837 28.7648 50.2296 28.7864 49.8456 28.2456C49.5428 27.8184 48.5315 26.8396 48.5315 26.3474L48.9479 21.4263C48.9479 20.9342 49.3535 20.5286 49.8456 20.5286H50.8353C51.3274 20.5286 51.733 20.9342 51.733 21.4263L51.9276 26.3474C51.9276 26.845 51.1489 27.7859 50.8353 28.2456Z" fill="#F09959"/>
<path d="M50.8354 20.5286H49.8457C49.3536 20.5286 48.948 20.9342 48.948 21.4263L48.5857 25.7958C49.6943 26.1474 51.1923 25.4335 51.8521 24.6386L51.7277 21.4263C51.7331 20.9342 51.3275 20.5286 50.8354 20.5286Z" fill="#E38540"/>
<path d="M46.9524 26.7096L48.5369 29.6353C48.5369 29.6353 49.3859 28.9377 49.4671 29.0729C49.5482 29.2081 49.3156 30.9332 49.3156 30.9332C49.3156 30.9332 51.203 30.9602 51.2841 30.8791C51.3652 30.798 50.9001 29.008 51.0948 29.008C51.2841 29.008 51.8627 29.5271 51.8627 29.5271L53.6311 26.7096L53.2418 26.6177L50.3485 28.1751L47.2498 26.6501L46.9524 26.7096Z" fill="#BDCCD4"/>
<path d="M48.7642 28.0562L49.9377 28.8457L49.5753 30.9386L51.1598 30.8466L50.7651 28.9431L51.7385 28.0562L51.2842 27.6235H49.2238L48.7642 28.0562Z" fill="#D54A41"/>
<path d="M48.6181 25.2712L47.1633 26.6556C47.1633 26.6556 48.6451 29.2892 48.7262 29.2892C48.8073 29.2892 49.9808 27.8345 49.9808 27.8345L50.7325 27.8237L51.9223 29.0729L53.3013 26.6286L51.8952 25.136C51.8952 25.136 50.6947 27.4614 50.473 27.5155C50.2566 27.5695 50.2512 27.5966 50.0782 27.4614C49.9051 27.3262 48.6181 25.2712 48.6181 25.2712Z" fill="#D5E1E8"/>
<path d="M50.3433 24.644C51.992 24.644 53.3285 22.8232 53.3285 20.5772C53.3285 18.3312 51.992 16.5105 50.3433 16.5105C48.6946 16.5105 47.3582 18.3312 47.3582 20.5772C47.3582 22.8232 48.6946 24.644 50.3433 24.644Z" fill="#F09959"/>
<path d="M47.6663 20.5176C47.9475 21.1071 47.8555 21.7344 47.4607 21.9183C47.0714 22.1021 46.5252 21.7777 46.244 21.1936C45.9628 20.6042 46.0547 19.9769 46.4495 19.793C46.8388 19.6037 47.385 19.9282 47.6663 20.5176Z" fill="#F09959"/>
<path d="M52.8848 20.5176C52.6036 21.1071 52.6956 21.7344 53.0903 21.9183C53.4851 22.1021 54.0259 21.7777 54.3071 21.1936C54.5883 20.6042 54.4964 19.9769 54.1016 19.793C53.7123 19.6037 53.1661 19.9282 52.8848 20.5176Z" fill="#F09959"/>
<path d="M51.6682 22.2483C51.6682 22.2483 51.0733 23.2109 50.3432 23.2109C49.6132 23.2109 49.0183 22.2483 49.0183 22.2483H51.6682Z" fill="white"/>
<path d="M48.5911 17.8137C49.8187 16.9538 50.3757 17.0944 51.295 18.5113C52.2198 19.9281 53.323 19.9498 53.323 19.9498L53.469 18.4842C53.469 18.4842 52.0954 15.8236 50.2513 16.1751C48.4072 16.5212 47.3581 18.1814 47.3581 18.1814C47.3581 18.1814 47.2662 21.2909 47.5257 21.3991C47.7853 21.5072 47.8123 20.3932 47.9962 20.1715C48.1801 19.9444 47.8123 18.879 48.0557 18.3869C48.3045 17.8948 48.5911 17.8137 48.5911 17.8137Z" fill="#2E2D3D"/>
<path d="M52.5496 19.4089C52.9768 19.8794 52.8145 21.7451 53.0417 21.7235C53.2688 21.7019 53.3499 19.9389 53.285 19.755C53.2255 19.5766 52.5496 19.4089 52.5496 19.4089Z" fill="#2E2D3D"/>
<path d="M56.9789 37.1684H43.2699C42.7886 37.1684 42.3938 36.7736 42.3938 36.2923C42.3938 35.811 42.7886 35.4163 43.2699 35.4163H56.9789C57.4602 35.4163 57.8549 35.811 57.8549 36.2923C57.8549 36.7736 57.4656 37.1684 56.9789 37.1684Z" fill="#99BBEB"/>
<path d="M55.2752 39.8615H44.9786C44.4973 39.8615 44.1025 39.4668 44.1025 38.9855C44.1025 38.5042 44.4973 38.1094 44.9786 38.1094H55.2752C55.7565 38.1094 56.1513 38.5042 56.1513 38.9855C56.1513 39.4668 55.7565 39.8615 55.2752 39.8615Z" fill="#99BBEB"/>
<path d="M62.6517 49.547H37.6023C37.3211 49.547 37.094 49.3198 37.094 49.0386C37.094 48.7574 37.3211 48.5303 37.6023 48.5303H62.6462C62.9275 48.5303 63.1546 48.7574 63.1546 49.0386C63.1546 49.3198 62.9275 49.547 62.6517 49.547Z" fill="#99BBEB"/>
<path d="M62.6517 51.9102H37.6023C37.3211 51.9102 37.094 51.6831 37.094 51.4019C37.094 51.1207 37.3211 50.8936 37.6023 50.8936H62.6462C62.9275 50.8936 63.1546 51.1207 63.1546 51.4019C63.1546 51.6831 62.9275 51.9102 62.6517 51.9102Z" fill="#99BBEB"/>
<path d="M62.6517 54.2735H37.6023C37.3211 54.2735 37.094 54.0464 37.094 53.7652C37.094 53.484 37.3211 53.2568 37.6023 53.2568H62.6462C62.9275 53.2568 63.1546 53.484 63.1546 53.7652C63.1546 54.0464 62.9275 54.2735 62.6517 54.2735Z" fill="#99BBEB"/>
<path d="M59.1473 31.2035H41.1066C40.6631 31.2035 40.2954 30.8412 40.2954 30.3923V13.7685C40.2954 13.325 40.6577 12.9573 41.1066 12.9573H59.1473C59.5907 12.9573 59.9585 13.3196 59.9585 13.7685V30.3923C59.9585 30.8412 59.5907 31.2035 59.1473 31.2035ZM41.1066 13.5035C40.9606 13.5035 40.8362 13.6224 40.8362 13.7739V30.3977C40.8362 30.5437 40.9552 30.6681 41.1066 30.6681H59.1473C59.2933 30.6681 59.4177 30.5491 59.4177 30.3977V13.7685C59.4177 13.6224 59.2987 13.4981 59.1473 13.4981H41.1066V13.5035Z" fill="#99BBEB"/>
<path d="M41.5393 42.1489L42.0585 43.2035L43.2266 43.3765L42.383 44.1985L42.5831 45.3612L41.5393 44.815L40.4956 45.3612L40.6903 44.1985L39.8467 43.3765L41.0148 43.2035L41.5393 42.1489Z" fill="#99BBEB"/>
<path d="M45.8169 42.1489L46.3361 43.2035L47.5042 43.3765L46.6606 44.1985L46.8607 45.3612L45.8169 44.815L44.7732 45.3612L44.9679 44.1985L44.1243 43.3765L45.2924 43.2035L45.8169 42.1489Z" fill="#99BBEB"/>
<path d="M50.0945 42.1489L50.6137 43.2035L51.7818 43.3765L50.9382 44.1985L51.1382 45.3612L50.0945 44.815L49.0508 45.3612L49.2455 44.1985L48.4019 43.3765L49.57 43.2035L50.0945 42.1489Z" fill="#99BBEB"/>
<path d="M54.3721 42.1489L54.8913 43.2035L56.0594 43.3765L55.2157 44.1985L55.4158 45.3612L54.3721 44.815L53.3284 45.3612L53.5285 44.1985L52.6794 43.3765L53.8476 43.2035L54.3721 42.1489Z" fill="#99BBEB"/>
<path d="M58.7146 42.1489L59.2392 43.2035L60.4073 43.3765L59.5636 44.1985L59.7637 45.3612L58.7146 44.815L57.6709 45.3612L57.871 44.1985L57.0273 43.3765L58.1954 43.2035L58.7146 42.1489Z" fill="#99BBEB"/>
<path d="M117.395 60.7143H76.1871C75.9384 60.7143 75.7383 60.5142 75.7383 60.2654V59.5949C75.7383 59.3461 75.9384 59.146 76.1871 59.146H117.395C117.644 59.146 117.844 59.3461 117.844 59.5949V60.2654C117.844 60.5142 117.644 60.7143 117.395 60.7143Z" fill="#2E5B9A"/>
<path d="M128.005 38.1202C128.562 40.0887 127.2 42.1166 125.696 42.5438C124.193 42.9711 123.122 41.6299 122.565 39.6614C122.008 37.693 122.771 35.7515 124.274 35.3243C125.777 34.9025 127.448 36.1517 128.005 38.1202Z" fill="#F09959"/>
<path d="M119.585 76.262C119.585 76.262 123.436 82.2431 123.955 82.5027C124.474 82.7622 125.777 82.8271 125.285 83.8006C124.799 84.774 124.604 88.6082 124.15 88.8028C123.695 88.9975 119.796 89.4518 120.38 88.8028C120.964 88.1539 121.327 88.4784 121.619 87.3103C121.916 86.1422 122.327 83.9303 121.776 83.4761C121.224 83.0218 117.844 78.9281 117.844 78.9281L119.585 76.262Z" fill="#F09959"/>
<path d="M100.209 78.8308C100.209 78.8308 95.531 86.5425 94.6603 87.2347C93.795 87.9269 90.9343 88.9706 93.2759 89.1437C95.6175 89.3167 96.7423 88.3649 98.2133 87.9323C99.6842 87.4997 101.507 87.2401 100.814 86.1098C100.122 84.985 100.409 82.5244 101.901 80.9615C103.399 79.404 100.209 78.8308 100.209 78.8308Z" fill="#F09959"/>
<path d="M124.09 60.947C124.09 60.947 112.506 60.6441 107.91 64.4134C105.222 68.4856 98.7217 80.5019 98.2188 81.8268C98.5649 82.1729 100.517 82.8002 101.382 82.7137C103.94 79.6637 107.32 77.03 108.661 74.6397C110.316 71.6924 110.83 70.2215 113.512 69.9619C116.2 69.7023 122.268 68.8371 124.085 68.8371C125.902 68.8371 124.09 60.947 124.09 60.947Z" fill="#6791C9"/>
<path d="M134.192 89.1651H133.586L129.228 70.9946H130.563L134.192 89.1651Z" fill="#2E5B9A"/>
<path d="M116 89.1651H116.606L121.603 70.3511H120.267L116 89.1651Z" fill="#2E5B9A"/>
<path d="M130.688 60.1519L123.955 61.3146C123.955 61.3146 115.005 61.3957 110.911 62.1582C107.19 62.8504 106.639 67.0794 110.911 72.9036C113.339 76.2133 115.389 78.8523 119.585 81.8267C120.651 81.0425 121.062 80.7451 121.354 78.8631C121.051 78.4467 120.267 75.8401 120.018 75.3318C117.698 70.4809 114.599 68.7179 114.556 68.2421C115.075 67.3984 128.33 72.6441 130.963 69.5562C133.484 66.6089 130.688 60.1519 130.688 60.1519Z" fill="#75A1DE"/>
<path d="M130.969 44.9017C129.195 44.6529 127.389 44.9882 125.696 46.2158C124.22 47.7192 122.549 50.2014 122.652 54.2952C122.781 59.4921 121.846 59.8274 122.819 61.2605C126.886 62.937 133.84 70.1565 132.202 62.4178C131.018 56.8152 134.803 52.6458 131.748 46.4321C131.504 45.9238 131.196 45.437 130.969 44.9017Z" fill="#F37168"/>
<path d="M122.652 56.2527C122.57 58.9621 122.192 59.7624 122.484 60.6115C124.144 60.7791 127.173 61.4443 127.93 62.5042C128.795 63.7156 129.666 63.8886 129.26 62.9963C128.854 62.0986 127.789 60.8278 129.433 56.469C131.077 52.1049 131.861 49.163 130.244 46.1292L122.652 56.2527Z" fill="#D54A41"/>
<path d="M130.969 44.9016C129.877 42.3166 129.606 39.4126 129.606 39.4126L126.745 40.2562C126.745 40.2562 128.368 43.8957 126.81 45.1936C126.48 45.4694 126.096 45.8047 125.696 46.2103C127.389 44.9935 129.195 44.6528 130.969 44.9016Z" fill="#F09959"/>
<path d="M129.693 40.0993C129.525 39.9479 129.309 39.7586 129.087 39.564L126.756 40.2508C126.756 40.2562 126.751 40.2616 126.751 40.2616C126.805 40.3914 127.4 41.7758 127.481 43.1115C128.178 42.6897 128.936 42.0029 129.806 40.8024C129.763 40.5374 129.725 40.2994 129.693 40.0993Z" fill="#E38540"/>
<path d="M128.957 45.7182C126.01 46.7457 126.34 49.8499 123.63 54.4249C122.23 56.7936 120.926 56.7557 120.926 56.7557C120.926 56.7557 117.638 56.7828 113.658 56.2961C111.165 55.9932 111.008 56.7341 112.739 57.3506C116.232 58.5998 119.861 59.9464 122.787 59.6219C125.712 59.2974 130.715 51.8345 130.974 49.8931C131.326 47.2108 130.439 45.1991 128.957 45.7182Z" fill="#F09959"/>
<path d="M127.443 71.7519C127.259 71.7519 127.07 71.7519 126.881 71.7465C124.479 71.687 122.846 71.3571 121.532 71.0867C120.002 70.7731 119.153 70.6054 118.174 71.0705C117.795 71.249 117.346 71.0921 117.163 70.7136C116.979 70.335 117.141 69.8862 117.519 69.7023C118.958 69.0155 120.164 69.2589 121.835 69.5996C123.09 69.8537 124.652 70.1728 126.918 70.2269C129.455 70.2918 131.001 69.9132 131.785 69.0425C132.483 68.2692 132.689 66.9659 132.429 64.9434C132.342 64.2512 132.251 63.6779 132.175 63.1696C131.953 61.7365 131.807 60.7901 131.991 59.33C132.159 57.9726 132.607 56.1664 133.651 52.6566C133.77 52.2565 134.192 52.0293 134.592 52.1483C134.992 52.2673 135.219 52.6891 135.101 53.0893C133.159 59.622 133.256 60.2601 133.673 62.937C133.754 63.4508 133.84 64.0403 133.932 64.7487C134.251 67.2417 133.927 68.9236 132.91 70.0538C131.861 71.2219 130.163 71.7519 127.443 71.7519Z" fill="#2E5B9A"/>
<path d="M100.528 85.3311C97.4237 86.8507 95.7527 87.7213 94.7576 87.6348C94.5251 87.6132 94.3304 87.5915 94.1628 87.5645C93.0541 88.2189 91.2858 88.9922 93.2759 89.1382C95.6175 89.3113 96.7423 88.3595 98.2133 87.9268C99.6842 87.4942 101.507 87.2346 100.814 86.1044C100.679 85.8935 100.582 85.6285 100.528 85.3311Z" fill="#D54A41"/>
<path d="M124.29 82.627C124.214 85.0875 123.874 87.5211 122.37 87.9808C121.97 88.1051 121.608 88.1214 121.289 88.0781C121.051 88.3701 120.764 88.3755 120.375 88.8028C119.791 89.4517 123.69 88.9974 124.144 88.8028C124.598 88.6081 124.793 84.7739 125.28 83.8005C125.685 83.0001 124.88 82.8162 124.29 82.627Z" fill="#D54A41"/>
<path d="M112.333 59.3624H102.469C102.177 59.3624 101.907 59.1893 101.782 58.9244L97.7969 50.342C97.6184 49.9635 97.7861 49.5146 98.1646 49.3362C98.5432 49.1577 98.992 49.3254 99.1705 49.7039L102.956 57.8428H112.339C112.755 57.8428 113.096 58.1835 113.096 58.5999C113.096 59.0163 112.75 59.3624 112.333 59.3624Z" fill="#75A1DE"/>
<path d="M114.394 56.3827C112.398 56.3556 110.424 55.1659 109.44 55.339C108.456 55.512 105.249 57.7347 105.655 57.8212C106.06 57.9077 108.602 56.5882 108.688 56.572C108.775 56.5503 109.327 57.4859 110.684 57.8266C112.041 58.1673 110.695 56.8099 114.902 58.0808C117.639 58.9082 114.394 56.3827 114.394 56.3827Z" fill="#F09959"/>
<path d="M130.677 42.5439L130.969 44.9018C130.969 44.9018 128.389 45.0532 127.108 45.7779C125.826 46.5025 123.928 48.5846 123.928 48.5846L125.475 45.9185L125.696 44.215L130.677 42.5439Z" fill="#F2E5DE"/>
<path d="M129.579 45.4315C127.665 45.0746 126.778 46.7889 125.534 49.5902C124.29 52.3915 122.17 55.7931 121.749 56.2365C121.327 56.6745 114.643 56.2365 114.643 56.2365C114.643 56.2365 114.443 58.1725 114.643 58.4051C114.843 58.6376 116 58.6052 116 58.6052C116 58.6052 116.46 58.9729 116.898 59.2649C117.33 59.5569 121.002 60.1085 122.706 60.0166C124.409 59.9247 125.972 59.7841 126.199 59.5245C126.432 59.2649 131.083 52.0995 131.369 49.5307C131.656 46.962 130.558 45.6154 129.579 45.4315Z" fill="#F2E5DE"/>
<path d="M123.928 33.6478C120.305 33.8208 120.872 39.272 120.872 39.272C120.872 39.272 121.813 39.564 123.787 39.2395C123.636 38.6555 123.701 37.1575 123.701 37.1575C123.701 37.1575 123.928 38.3689 124.22 39.1098C124.636 39.299 125.107 39.1314 125.913 38.9367C126.324 40.6672 127.486 41.4027 128.281 41.6515C129.163 41.9273 130.093 42.2571 131.131 41.738C132.169 41.2188 131.602 35.9029 131.045 34.8321C130.217 33.226 128.838 31.7929 126.453 32.55C125.264 32.9285 123.928 33.6478 123.928 33.6478Z" fill="#303C60"/>
<path d="M130.228 40.1211L131.71 42.2843C131.71 42.2843 130.066 46.3888 134.841 48.2437C138.583 49.6985 138.14 52.2618 136.453 54.8414C134.765 57.4209 137.464 59.6706 137.464 59.6706C137.464 59.6706 137.875 56.8152 141.509 56.2744C146.463 55.539 147.869 48.8873 144.164 45.5614C141.103 42.8088 140.173 45.0909 138.096 42.6195C136.025 40.1481 132.11 41.8192 132.11 41.8192L130.677 39.7263L130.228 40.1211Z" fill="#303C60"/>
<path d="M145.868 52.2673C145.846 52.2673 145.824 52.2619 145.803 52.251C145.738 52.2186 145.716 52.1375 145.749 52.0726C146.992 49.7959 145.976 47.0379 145.467 46.2916C145.413 46.2104 145.359 46.1347 145.305 46.0482C144.802 45.2641 144.18 44.2906 140.844 43.6904C140.038 43.5444 139.389 43.0685 138.702 42.5601C137.28 41.5164 135.668 40.3321 132.164 41.9436C132.099 41.9761 132.018 41.9436 131.991 41.8787C131.959 41.8138 131.991 41.7327 132.056 41.7057C135.701 40.0292 137.377 41.2622 138.859 42.3492C139.524 42.8359 140.151 43.2956 140.892 43.4308C144.343 44.0527 145.002 45.0802 145.532 45.9076C145.586 45.9887 145.635 46.0698 145.689 46.1455C146.225 46.9297 147.29 49.8175 145.987 52.2024C145.96 52.2402 145.916 52.2673 145.868 52.2673Z" fill="#303C60"/>
<path d="M129.438 42.3382C129.201 42.3382 128.946 42.3166 128.671 42.2788C127.405 42.0895 125.702 41.3702 125.566 37.3251C125.566 37.2548 125.62 37.1899 125.696 37.1899C125.772 37.1899 125.831 37.244 125.831 37.3197C125.885 38.9854 126.215 40.2184 126.816 40.9863C127.27 41.5703 127.87 41.8948 128.708 42.0246C129.882 42.1976 130.661 41.9813 131.018 41.3811C131.055 41.3162 131.137 41.2999 131.196 41.3378C131.261 41.3756 131.277 41.4568 131.239 41.5162C130.915 42.057 130.309 42.3382 129.438 42.3382Z" fill="#303C60"/>
<path d="M80.1565 89.1652H81.1299L84.9208 60.2168H82.7793L80.1565 89.1652Z" fill="#2E5B9A"/>
<path d="M113.193 89.1652H112.22L108.434 60.2168H110.576L113.193 89.1652Z" fill="#2E5B9A"/>
<path d="M151.367 64.7271C153.049 66.2629 152.319 67.8041 151.075 70.6595C149.832 73.5149 149.61 84.0602 149.61 84.0602L150.637 83.9142C150.637 83.9142 150.491 73.0768 151.881 70.1457C153.271 67.2147 153.86 65.7545 155.104 66.7063C156.348 67.6581 151.367 64.7271 151.367 64.7271Z" fill="#74B570"/>
<path d="M150.443 62.737C150.648 61.8231 151.86 60.8388 153.487 60.0006C153.244 61.3472 152.471 63.5428 153.271 63.9916C154.353 64.5973 153.374 61.5311 153.796 59.8438C155.321 59.0975 157.154 58.4918 158.847 58.189C158.847 58.1944 158.841 58.1998 158.841 58.2052C157.889 60.6225 156.646 61.5743 157.159 61.9421C157.543 62.2179 158.803 59.4274 160.458 57.9943C161.702 57.9294 162.756 58.097 163.378 58.5892C164.341 59.3517 164.99 60.0277 164.022 62.3476C163.47 62.7424 162.751 63.029 161.918 63.1102C159.723 63.3319 158.695 63.4022 160.236 64.1377C160.988 64.4946 162.253 64.116 163.276 63.8889C162.946 64.5 162.535 65.1922 162.037 65.9817C161.724 66.4793 161.377 66.9173 161.01 67.2905C160.301 67.4257 159.685 67.4256 159.355 67.285C158.327 66.847 155.694 65.4518 155.034 66.0412C154.39 66.6145 159.917 66.9768 159.533 68.4369C156.856 69.9782 153.79 69.2481 153.244 67.8312C152.514 65.9277 149.826 65.4788 150.443 62.737Z" fill="#9CD499"/>
<path d="M155.98 73.1526C153.049 70.957 150.048 73.0066 148.512 75.3482C146.976 77.6899 148.074 82.9625 148.074 82.9625C148.074 82.9625 148.658 82.9625 148.658 82.7408C148.658 82.5191 147.046 76.5164 150.854 73.807C153.238 72.1143 154.953 72.9309 155.174 73.7313C155.396 74.5317 154.223 76.0026 154.223 76.0026L155.98 73.1526Z" fill="#74B570"/>
<path d="M149.248 68.6316C152.179 68.6316 153.13 73.1742 152.325 75.8079C151.519 78.4415 150.421 83.3519 150.421 83.3519L149.691 82.6218C149.691 82.6218 152.476 75.7376 151.816 72.6605C151.157 69.5834 149.545 69.0696 149.253 69.0696C148.956 69.075 149.248 68.6316 149.248 68.6316Z" fill="#9CD499"/>
<path d="M151.703 75.8296C151.908 75.5592 152.162 75.3321 152.476 75.1807C152.433 75.397 152.384 75.6079 152.325 75.808C151.957 77.0085 151.53 78.6796 151.173 80.1451C151.14 79.9558 151.092 79.6692 151.011 79.2204C150.994 79.1176 150.978 78.9986 150.967 78.8797C151.254 77.9116 151.524 76.8463 151.703 75.8296Z" fill="#74B570"/>
<path d="M152.503 75.8511C158.068 73.5095 155.137 70.2918 160.042 72.4171C160.388 72.5685 160.81 72.9417 161.231 73.4662C160.793 73.5906 160.263 73.6771 159.679 73.5906C158.214 73.3689 158.728 74.5424 161.145 74.8344C161.599 74.8885 161.972 74.9642 162.275 75.0724C163.427 77.2842 163.946 80.1936 161.507 81.2049C161.026 81.405 160.436 81.5186 159.771 81.5618C159.02 80.967 159.955 77.5059 158.798 77.9818C157.684 78.4415 159.144 80.9453 158.944 81.5781C157.846 81.5564 156.629 81.378 155.467 81.0913C155.007 80.8318 154.655 80.4857 154.547 80.0314C154.18 78.4956 156.597 77.5438 156.673 76.2242C156.737 75.0129 155.786 78.8903 153.26 79.4582C150.978 78.3982 149.902 76.9489 152.503 75.8511Z" fill="#9CD499"/>
<path d="M148.539 71.7087C149.123 70.4649 147.587 70.1729 147.658 71.1247C147.722 71.9683 147.728 74.0179 146.863 74.5749C145.37 74.4127 143.342 73.8124 141.806 72.8931C141.785 72.7687 141.806 72.6443 141.871 72.5091C142.531 71.1896 146.776 70.0918 145.462 69.6537C144.413 69.3022 142.574 71.368 141.092 72.4118C140.2 71.7358 139.605 70.93 139.605 70.0323C139.605 68.8155 141.082 67.4365 142.996 66.7822C143.856 66.8687 144.656 67.3392 145.905 68.0476C147.749 69.0913 147.322 67.4041 145.581 66.3982C147.084 66.4739 148.588 67.1174 149.691 68.6533C149.691 68.6533 149.588 69.3076 150.28 70.3243C152.179 73.0932 149.988 74.7155 147.371 74.6074C147.517 73.8827 148.133 72.5686 148.539 71.7087Z" fill="#9CD499"/>
<path d="M155.807 73.0281C157.24 74.1367 158.83 75.4292 160.782 76.3053C162.735 77.1868 162.345 80.0476 162.345 80.0476C162.345 80.0476 162.637 77.5762 161.01 76.7271C159.382 75.8835 158.306 74.8722 157.073 74.6775C155.84 74.4828 155.153 74.2882 155.153 74.2882C155.153 74.2882 155.542 73.5094 155.315 73.212C155.088 72.9146 155.807 73.0281 155.807 73.0281Z" fill="#74B570"/>
<path d="M162.864 60.033C157.624 61.4336 153.785 64.7865 153.065 65.5977C152.352 66.4089 152.352 66.6414 152.352 66.6414L152.903 67.6851L153.163 67.5553C153.163 67.5553 152.741 66.6738 153.844 65.5382C155.753 63.5751 158.073 62.0231 159.668 61.3417C161.269 60.6495 162.864 60.033 162.864 60.033Z" fill="#74B570"/>
<path d="M148.398 89.0357H150.399C151.822 89.0357 152.979 87.8838 152.979 86.4561V81.854H145.819V86.4561C145.824 87.8838 146.976 89.0357 148.398 89.0357Z" fill="#75A1DE"/>
<path d="M152.984 82.6814H145.824V83.1843H152.984V82.6814Z" fill="white"/>
<path d="M152.984 83.6006H145.824V83.898H152.984V83.6006Z" fill="white"/>
<path d="M17.836 82.7731H19.5449C19.9072 82.7731 20.1992 82.4811 20.1992 82.1188V80.7127C20.1992 80.3504 19.9072 80.0583 19.5449 80.0583H17.836C17.4737 80.0583 17.1816 80.3504 17.1816 80.7127V82.1188C17.1816 82.4811 17.4737 82.7731 17.836 82.7731Z" fill="#9EC8FF"/>
<path d="M12.3524 82.7731H14.0612C14.4236 82.7731 14.7156 82.4811 14.7156 82.1188V80.7127C14.7156 80.3504 14.4236 80.0583 14.0612 80.0583H12.3524C11.99 80.0583 11.698 80.3504 11.698 80.7127V82.1188C11.7034 82.4811 11.9954 82.7731 12.3524 82.7731Z" fill="#9EC8FF"/>
<path d="M6.87408 82.7731H8.58297C8.9453 82.7731 9.23733 82.4811 9.23733 82.1188V80.7127C9.23733 80.3504 8.9453 80.0583 8.58297 80.0583H6.87408C6.51175 80.0583 6.21973 80.3504 6.21973 80.7127V82.1188C6.21973 82.4811 6.51716 82.7731 6.87408 82.7731Z" fill="#9EC8FF"/>
<path d="M162.821 32.2256V30.5167C162.821 30.1543 162.529 29.8623 162.167 29.8623H160.761C160.399 29.8623 160.107 30.1543 160.107 30.5167V32.2256C160.107 32.5879 160.399 32.8799 160.761 32.8799H162.167C162.529 32.8799 162.821 32.5879 162.821 32.2256Z" fill="#9EC8FF"/>
<path d="M162.822 37.7038V35.9949C162.822 35.6326 162.53 35.3406 162.167 35.3406H160.761C160.399 35.3406 160.107 35.6326 160.107 35.9949V37.7038C160.107 38.0662 160.399 38.3582 160.761 38.3582H162.167C162.53 38.3582 162.822 38.0662 162.822 37.7038Z" fill="#9EC8FF"/>
<path d="M162.822 43.1875V41.4786C162.822 41.1162 162.53 40.8242 162.167 40.8242H160.761C160.399 40.8242 160.107 41.1162 160.107 41.4786V43.1875C160.107 43.5498 160.399 43.8418 160.761 43.8418H162.167C162.53 43.8418 162.822 43.5444 162.822 43.1875Z" fill="#9EC8FF"/>
</svg>
