<svg width="165" height="149" viewBox="0 0 165 149" fill="none" xmlns="http://www.w3.org/2000/svg">
<path opacity="0.5" d="M19.0422 139.743C15.0223 141.868 8.46095 141.868 4.44099 139.743C0.421037 137.617 0.421037 134.198 4.44099 132.072C8.46095 129.947 15.0223 129.947 19.0422 132.072C23.1084 134.198 23.1084 137.617 19.0422 139.743Z" fill="#173D7A"/>
<path d="M23.4782 131.241V128.237H22.8775C22.3231 127.359 21.3989 126.528 20.0589 125.835C15.4845 123.432 8.04528 123.432 3.42464 125.835C2.08466 126.528 1.16053 127.359 0.606054 128.237H0.00537109V131.241C0.00537109 132.812 1.16053 134.429 3.42464 135.63C7.99907 138.033 15.4383 138.033 20.0589 135.63C22.3693 134.429 23.4782 132.812 23.4782 131.241Z" fill="#FF2C9C"/>
<path d="M11.7418 134.429C18.2236 134.429 23.4782 131.657 23.4782 128.237C23.4782 124.818 18.2236 122.046 11.7418 122.046C5.25994 122.046 0.00537109 124.818 0.00537109 128.237C0.00537109 131.657 5.25994 134.429 11.7418 134.429Z" fill="#FF2C9C"/>
<path d="M20.0589 132.627C15.4845 135.03 8.04524 135.03 3.4246 132.627C1.20669 131.472 0.097739 129.947 0.00532626 128.468C-0.0870865 130.132 1.02187 131.795 3.4246 133.043C7.99903 135.445 15.4383 135.445 20.0589 133.043C22.4616 131.795 23.5706 130.132 23.4782 128.468C23.3858 129.947 22.2768 131.472 20.0589 132.627Z" fill="white"/>
<path d="M6.10445 130.27C5.91962 130.178 5.78101 130.039 5.78101 129.854V125.834C5.78101 125.511 6.24307 125.28 6.84375 125.28C7.44444 125.28 7.9065 125.511 7.9065 125.834V129.161L18.534 127.96C19.0884 127.914 19.6891 128.099 19.7815 128.376C19.9202 128.699 19.5505 128.977 18.9498 129.023L7.02858 130.363C6.70513 130.409 6.38169 130.363 6.15066 130.27C6.15066 130.317 6.10445 130.317 6.10445 130.27Z" fill="white"/>
<path opacity="0.5" d="M157.153 94.3216L117.554 71.4032C115.383 70.1556 111.64 70.2943 109.145 71.7267L26.0656 119.55C23.5705 120.983 23.2932 123.154 25.4649 124.402L65.0638 147.32C67.2355 148.568 70.9782 148.429 73.4734 146.997L156.552 99.1733C159.001 97.7409 159.279 95.5692 157.153 94.3216Z" fill="#173D7A"/>
<path d="M63.9088 138.818L22.6927 114.976C21.3527 114.19 20.7059 113.128 20.7521 112.019V106.058L23.0624 108.738C23.201 108.646 23.3396 108.553 23.5244 108.461L107.805 59.944C111.132 58.0034 116.214 57.8185 119.125 59.482L159.741 83.001C160.573 82.1231 162.282 80.1824 162.282 80.1824V86.0506C162.328 87.3906 161.404 88.7768 159.51 89.8396L75.2294 138.356C71.8563 140.297 66.7736 140.482 63.9088 138.818Z" fill="#396CAA"/>
<path d="M41.5911 124.171L43.9476 125.557C44.2711 125.742 44.5021 125.557 44.5021 125.141C44.5021 124.725 44.2249 124.217 43.9476 124.032L41.5911 122.646C41.2677 122.461 41.0366 122.646 41.0366 123.062C41.0366 123.524 41.3139 123.986 41.5911 124.171Z" fill="#173D7A"/>
<path d="M107.805 59.944C111.131 58.0034 116.214 57.8185 119.125 59.482L159.741 83.001C160.572 82.1231 162.282 80.1824 162.282 80.1824V86.0506C162.328 87.3906 161.404 88.7768 159.51 89.8396L75.2291 138.356C73.4733 139.373 71.2554 139.881 69.1299 139.927L69.2223 82.1231L107.805 59.944Z" fill="#5793CE"/>
<path d="M160.295 77.3176L119.079 53.4751C116.168 51.8117 111.132 51.9965 107.758 53.9372L23.4781 102.454C20.1512 104.395 19.7815 107.306 22.6463 108.969L63.8624 132.811C66.7734 134.475 71.8099 134.29 75.183 132.349L159.463 83.8327C162.837 81.9383 163.206 79.0273 160.295 77.3176Z" fill="#D4ECFF"/>
<path d="M63.8625 133.458L22.6465 109.616C21.1679 108.738 20.521 107.537 20.752 106.335C20.8444 107.306 21.4451 108.276 22.6927 108.969L63.9088 132.812C66.8198 134.475 71.8563 134.29 75.2293 132.35L159.51 83.8328C161.127 82.9087 162.051 81.7535 162.236 80.5984C162.328 81.9384 161.404 83.3708 159.464 84.4797L75.1831 132.996C71.81 134.937 66.7736 135.122 63.8625 133.458Z" fill="white"/>
<path d="M157.153 78.2881L117.554 55.3698C115.383 54.1222 111.64 54.2608 109.145 55.6932L26.0656 103.517C23.5705 104.949 23.2932 107.121 25.4649 108.368L65.0638 131.287C67.2355 132.534 70.9782 132.396 73.4734 130.963L156.552 83.1398C159.001 81.7074 159.279 79.5357 157.153 78.2881Z" fill="#173D7A"/>
<path d="M74.998 119.365L47.0894 103.239L48.8452 102.223L76.8001 118.349L74.998 119.365Z" fill="#D4ECFF"/>
<path d="M55.5914 114.652L41.406 106.474L43.2081 105.457L57.3472 113.636L55.5914 114.652Z" fill="#D4ECFF"/>
<path d="M62.4299 118.626L57.8555 115.992L59.6575 114.93L64.2319 117.61L62.4299 118.626Z" fill="#FF2C9C"/>
<path d="M69.3608 122.646L64.7864 119.966L66.5422 118.95L71.1629 121.583L69.3608 122.646Z" fill="white"/>
<path d="M55.7299 111.51L44.2708 104.857L46.0266 103.84L57.532 110.448L55.7299 111.51Z" fill="white"/>
<path d="M69.7304 119.597L58.2712 112.943L60.0271 111.926L71.5325 118.534L69.7304 119.597Z" fill="#D4ECFF"/>
<path d="M61.2285 105.411C60.6741 105.734 59.7037 105.734 59.1493 105.411C58.5948 105.088 58.5948 104.533 59.1493 104.21C59.7037 103.886 60.6741 103.886 61.2285 104.21C61.8292 104.533 61.8292 105.088 61.2285 105.411Z" fill="#FF2C9C"/>
<path d="M64.3704 107.213C63.8159 107.536 62.8456 107.536 62.2911 107.213C61.7366 106.89 61.7366 106.335 62.2911 106.012C62.8456 105.688 63.8159 105.688 64.3704 106.012C64.9249 106.335 64.9249 106.89 64.3704 107.213Z" fill="white"/>
<path d="M67.4663 109.015C66.9119 109.338 65.9415 109.338 65.387 109.015C64.8326 108.692 64.8326 108.137 65.387 107.814C65.9415 107.49 66.9119 107.49 67.4663 107.814C68.0208 108.137 68.0208 108.692 67.4663 109.015Z" fill="#D4ECFF"/>
<path d="M70.562 110.817C70.0076 111.14 69.0372 111.14 68.4828 110.817C67.9283 110.494 67.9283 109.939 68.4828 109.616C69.0372 109.292 70.0076 109.292 70.562 109.616C71.1165 109.939 71.1627 110.447 70.562 110.817Z" fill="#FF2C9C"/>
<path d="M73.7041 112.573C73.1497 112.896 72.1793 112.896 71.6248 112.573C71.0704 112.249 71.0704 111.695 71.6248 111.371C72.1793 111.048 73.1497 111.048 73.7041 111.371C74.2586 111.741 74.2586 112.249 73.7041 112.573Z" fill="white"/>
<path d="M136.175 78.4268L131.462 75.7468L133.311 74.6841L137.978 77.4103L136.175 78.4268Z" fill="#FF2C9C"/>
<path d="M142.737 82.2156L138.024 79.4894L139.826 78.4729L144.539 81.1529L142.737 82.2156Z" fill="white"/>
<path d="M115.152 66.1819L110.438 63.502L112.287 62.4392L117 65.1654L115.152 66.1819Z" fill="white"/>
<path d="M135.113 81.1991L128.552 77.4102L130.4 76.3474L136.961 80.1363L135.113 81.1991Z" fill="white"/>
<path d="M139.826 83.8792L136.961 82.262L138.763 81.1992L141.674 82.8627L139.826 83.8792Z" fill="#D4ECFF"/>
<path opacity="0.5" d="M156.553 131.703L148.559 127.082L156.553 122.508L164.5 127.082L156.553 131.703Z" fill="#173D7A"/>
<path d="M164.5 121.26L156.552 125.881V116.686L164.5 112.065V121.26Z" fill="#D3008D"/>
<path d="M156.553 116.686L148.559 112.065L156.553 107.49L164.5 112.065L156.553 116.686Z" fill="#FF2C9C"/>
<path d="M156.553 125.881L148.559 121.26V112.065L156.553 116.686V125.881Z" fill="#FF2C9C"/>
<path d="M153.688 120.89L151.424 119.597V117.055L153.688 118.303V120.89Z" fill="white"/>
<path opacity="0.5" d="M18.9038 95.1533L10.6328 90.3479L18.9038 85.5886L27.2209 90.3479L18.9038 95.1533Z" fill="#173D7A"/>
<path d="M27.2207 84.2949L18.9036 89.0542V79.4895L27.2207 74.7302V84.2949Z" fill="#173D7A"/>
<path d="M18.9038 79.4895L10.6328 74.7303L18.9038 69.9248L27.2209 74.7303L18.9038 79.4895Z" fill="#D4ECFF"/>
<path d="M18.9038 89.0542L10.6328 84.2949V74.7302L18.9038 79.4895V89.0542Z" fill="#5793CE"/>
<path d="M15.9465 83.9252L13.6362 82.5852V79.9053L15.9465 81.2453V83.9252Z" fill="white"/>
<path d="M75.414 10.1337L58.179 0.153114C57.8556 -0.031711 57.5322 -0.031711 57.3011 0.0607017L55.6377 1.03104C55.6377 1.03104 56.377 1.30827 56.7929 1.44689V14.015C56.7929 15.0316 57.3935 16.2329 58.179 16.6488L74.6747 26.1673V27.6459L76.3844 26.6756C76.6616 26.4907 76.8464 26.1211 76.8464 25.5666V12.7675C76.8002 11.7509 76.1533 10.5958 75.414 10.1337Z" fill="#D3008D"/>
<path d="M73.7044 27.6458L56.4694 17.7114C55.6839 17.2493 55.0833 16.0942 55.0833 15.0776V2.18604C55.0833 1.1695 55.6839 0.707434 56.4694 1.12329L73.7044 11.1039C74.4899 11.5659 75.0906 12.7211 75.0906 13.7376V26.5368C75.0906 27.5995 74.4899 28.0616 73.7044 27.6458Z" fill="#FF2C9C"/>
<path d="M74.1204 10.8268L56.8854 0.846257C56.4233 0.569019 55.9613 0.661432 55.7302 1.03108C55.9613 0.984876 56.1923 1.03108 56.4695 1.1697L73.7045 11.1041C74.49 11.5661 75.0907 12.7213 75.0907 13.7378V26.537C75.0907 26.9067 74.9983 27.2301 74.8597 27.4149C75.2293 27.3225 75.5066 26.9067 75.5066 26.2136V13.4606C75.5066 12.4441 74.9059 11.2427 74.1204 10.8268Z" fill="white"/>
<path d="M62.2454 13.2758C62.2454 14.0151 61.7371 14.3385 61.0902 13.9689C60.4433 13.5992 59.9351 12.6751 59.9351 11.9358C59.9351 11.1965 60.4433 10.873 61.0902 11.2427C61.7371 11.6124 62.2454 12.5365 62.2454 13.2758Z" fill="white"/>
<path d="M65.431 16.0692C65.8951 15.8013 65.8989 14.9391 65.4396 14.1435C64.9802 13.348 64.2316 12.9202 63.7676 13.1882C63.3035 13.4561 63.2996 14.3183 63.759 15.1139C64.2183 15.9095 64.9669 16.3372 65.431 16.0692Z" fill="white"/>
<path d="M68.9835 18.0861C69.4476 17.8181 69.4514 16.956 68.9921 16.1604C68.5327 15.3648 67.7841 14.9371 67.32 15.205C66.856 15.473 66.8521 16.3351 67.3115 17.1307C67.7708 17.9263 68.5194 18.354 68.9835 18.0861Z" fill="white"/>
<path d="M88.0747 102.639L116.353 86.2817C119.403 84.5259 119.033 81.4301 115.475 79.397C111.917 77.3639 106.604 77.1329 103.508 78.8887L75.2294 95.2458C72.1798 97.0016 72.5494 100.097 76.1073 102.131C79.6652 104.21 85.0251 104.395 88.0747 102.639Z" fill="#092E63"/>
<path d="M103.6 75.9315V72.6047L107.528 52.7821L103.646 50.3794L95.8836 54.6766L95.8374 80.2287C95.8374 81.9384 96.4843 83.0935 97.4546 83.5094L100.92 85.6811L101.336 84.0176L101.937 81.0142C102.953 79.5356 103.6 77.6412 103.6 75.9315Z" fill="#5793CE"/>
<path d="M103.6 85.5885C101.428 86.7899 99.7188 85.4499 99.7188 82.6313L99.765 57.0792L107.528 52.782L107.481 78.3341C107.481 81.1527 105.772 84.3871 103.6 85.5885Z" fill="#5793CE"/>
<path d="M121.65 45.6258C125.628 43.3291 125.636 35.8956 121.668 29.0227C117.7 22.1497 111.258 18.44 107.28 20.7367C103.302 23.0334 103.295 30.4669 107.263 37.3398C111.231 44.2128 117.673 47.9226 121.65 45.6258Z" fill="#FF2C9C"/>
<path d="M121.713 45.5739L92.1408 62.5317L76.2458 38.643L107.066 20.8535L121.713 45.5739Z" fill="#FF2C9C"/>
<path d="M110.115 47.6995C110.115 41.0458 105.448 32.9135 99.6724 29.5866C97.0386 28.0618 94.6359 27.7846 92.8338 28.5701H92.7876H92.7414C92.649 28.6163 92.6028 28.6625 92.5104 28.7087C81.6057 34.0687 69.4996 36.6562 57.3473 36.1479L53.8818 36.0093L81.9291 84.0639L83.4539 81.1067C88.9987 70.3869 97.0848 61.238 107.019 54.3995C108.914 53.4291 110.115 51.0726 110.115 47.6995Z" fill="#D4ECFF"/>
<path d="M85.1635 73.2517C85.1635 60.4525 76.1994 44.9272 65.1099 38.5045C59.5651 35.3162 54.5748 34.9928 50.9708 37.0721C50.9708 37.0721 50.9707 37.0721 50.9245 37.0721L47.6439 39.0127L48.799 38.7817C46.4425 41.2307 45.1025 45.0658 45.1025 50.0561C45.1025 62.8552 54.0666 78.3806 65.1561 84.8033C69.4995 87.2984 73.5195 88.0377 76.8001 87.206L76.2918 87.9915L79.3415 86.2357C79.3415 86.2357 79.3877 86.2357 79.3877 86.1895L79.4801 86.1432C82.9918 84.0178 85.1635 79.5819 85.1635 73.2517Z" fill="#D4ECFF"/>
<path d="M82.8072 74.6377C82.8072 61.8386 73.8432 46.3132 62.7537 39.8905C57.3013 36.7485 52.3572 36.4251 48.7532 38.3657L48.2449 38.643C48.0601 38.7354 47.9214 38.874 47.7366 38.9664L48.7532 38.7354C46.3966 41.1843 45.0566 45.0194 45.0566 50.0097C45.0566 62.8089 54.0207 78.3342 65.1102 84.7569C69.4536 87.2521 73.4736 87.9914 76.7542 87.1597L76.2922 87.8528C80.3121 86.0507 82.8072 81.3839 82.8072 74.6377Z" fill="white"/>
<path d="M76.2959 88.022C84.1192 83.5052 84.1101 68.8436 76.2758 55.2745C68.4414 41.7054 55.7484 34.3671 47.9252 38.884C40.102 43.4008 40.111 58.0624 47.9454 71.6315C55.7797 85.2006 68.4727 92.5389 76.2959 88.022Z" fill="#5793CE"/>
<path d="M74.5632 85.0211C81.4361 81.0529 81.4325 68.1797 74.5552 56.2681C67.6778 44.3564 56.5309 37.917 49.658 41.8852C42.785 45.8534 42.7886 58.7266 49.666 70.6382C56.5434 82.5499 67.6902 88.9893 74.5632 85.0211Z" fill="#173D7A"/>
<path d="M62.9383 83.4171C53.235 77.8261 45.3337 64.149 45.3337 52.9209C45.3337 47.0064 47.5054 42.9865 50.9708 41.2769C47.0433 42.7093 44.502 46.914 44.502 53.2905C44.502 64.5187 52.357 78.1495 62.1066 83.7867C66.7272 86.4667 70.932 86.8363 74.074 85.2653C71.0244 86.3743 67.1431 85.866 62.9383 83.4171Z" fill="white"/>
<path d="M59.4731 59.2509L84.9791 39.4746L94.2665 55.6006L64.3248 67.8915L59.4731 59.2509Z" fill="#D4ECFF"/>
<path d="M64.6057 67.7752C65.9759 66.9841 65.9695 64.408 64.5915 62.0212C63.2135 59.6345 60.9856 58.341 59.6154 59.1321C58.2453 59.9231 58.2516 62.4993 59.6297 64.886C61.0077 67.2728 63.2356 68.5663 64.6057 67.7752Z" fill="#5793CE"/>
<path d="M97.8242 76.1627L97.6856 76.0703C97.1773 75.7931 96.7615 75.0076 96.7615 74.3145V69.3704C96.7615 68.6773 97.1773 68.3538 97.6856 68.6773L97.8242 68.7697C98.3325 69.0469 98.7484 69.8324 98.7484 70.5255V75.4696C98.7484 76.1165 98.3325 76.44 97.8242 76.1627Z" fill="white"/>
</svg>
