<svg width="165" height="127" viewBox="0 0 165 127" fill="none" xmlns="http://www.w3.org/2000/svg">
<path d="M163.177 75.9364C160.345 68.0163 155.833 65.5682 151.609 60.4801C146.425 54.24 142.873 49.7279 144.265 41.7598C146.473 28.7036 147.433 -3.889 112.824 0.383077C100.44 1.9191 90.6479 11.4233 83.4958 20.8794C77.4477 28.9436 66.5035 29.6636 57.7193 31.5356C46.9191 33.8397 35.9269 37.3437 25.9428 42.4318C5.39841 52.944 -0.745694 68.1123 0.0703206 87.5046C0.310325 93.3607 1.17434 102.577 11.0625 113.377C24.4067 127.921 43.7991 129.889 67.1755 123.217C72.5036 121.681 77.5917 119.281 82.8238 117.457C88.2959 115.585 93.96 114.337 99.7201 113.809C113.112 112.513 127.033 114.865 139.897 110.833C146.713 108.721 152.953 104.833 157.849 99.6968C163.993 93.2647 166.153 84.2886 163.177 75.9364Z" fill="#EAE6FF"/>
<path d="M11.0625 105.793C11.0625 107.713 35.3509 109.249 65.3035 109.249C95.256 109.249 119.544 107.713 119.544 105.793C119.544 103.873 95.256 102.337 65.3035 102.337C35.3509 102.337 11.0625 103.873 11.0625 105.793Z" fill="#CDCCFF"/>
<path d="M44.135 110.113C44.135 111.313 37.9909 112.273 30.3588 112.273C22.7746 112.273 16.5825 111.313 16.5825 110.113C16.5825 108.913 22.7266 107.953 30.3588 107.953C37.9909 107.905 44.135 108.913 44.135 110.113Z" fill="#CDCCFF"/>
<path d="M135.769 112.273C148.52 112.273 158.857 111.499 158.857 110.545C158.857 109.591 148.52 108.817 135.769 108.817C123.017 108.817 112.68 109.591 112.68 110.545C112.68 111.499 123.017 112.273 135.769 112.273Z" fill="#CDCCFF"/>
<path d="M16.4865 81.9844L15.5745 94.4166H27.4307L26.6147 81.9844H16.4865Z" fill="#D7D7FF"/>
<path d="M18.8386 83.0884C18.8386 82.8964 19.0306 82.7524 19.2226 82.7524C19.4626 82.7524 19.6066 82.8964 19.6066 83.0884C19.6066 83.2804 19.4146 83.4245 19.2226 83.4245C18.9826 83.4245 18.8386 83.2804 18.8386 83.0884ZM19.2226 82.8964C19.0786 82.8964 18.9346 82.9924 18.9346 83.0884C18.9346 83.1844 19.0786 83.2805 19.2226 83.2805C19.3666 83.2805 19.5106 83.1844 19.5106 83.0884C19.5106 82.9924 19.3666 82.8964 19.2226 82.8964Z" fill="#EAE6FF"/>
<path d="M22.8704 83.0886H22.9184H22.8704C22.8704 82.9926 22.9184 82.9446 22.9664 82.8486C23.0624 82.7526 23.1584 82.7046 23.2544 82.7046C23.4944 82.7046 23.6384 82.8486 23.6384 83.0406C23.6384 83.1366 23.5904 83.2326 23.4944 83.2806C23.3984 83.3286 23.3024 83.3766 23.2064 83.3766C23.0624 83.4246 22.8704 83.2806 22.8704 83.0886ZM23.2544 82.8486C23.1584 82.8486 23.1104 82.8966 23.0144 82.9446C22.9664 82.9926 22.9664 82.9926 22.9664 83.0886C22.9664 83.1846 23.1104 83.2806 23.2544 83.2806C23.3504 83.2806 23.3984 83.2326 23.4464 83.2326C23.4944 83.1846 23.5424 83.1366 23.5424 83.0886C23.5424 82.9446 23.3984 82.8486 23.2544 82.8486Z" fill="#EAE6FF"/>
<path d="M21.1425 85.5845C21.1905 85.5845 21.2385 85.5845 21.2385 85.5845C21.9585 85.5365 22.5345 85.3445 22.9185 84.8645C23.5425 84.1445 23.3985 83.0885 23.3985 83.0405C23.3985 82.9925 23.3025 82.8965 23.2545 82.9445C23.2065 82.9445 23.1105 83.0405 23.1585 83.0885C23.1585 83.0885 23.3025 84.0485 22.7265 84.7205C22.3905 85.1045 21.9105 85.2965 21.2385 85.3445C20.6145 85.3445 20.1345 85.2005 19.7984 84.8645C19.2224 84.2405 19.3664 83.1845 19.3664 83.1365C19.3664 83.0885 19.3184 82.9925 19.2704 82.9925C19.2224 82.9925 19.1264 83.0405 19.1264 83.0885C19.1264 83.1365 18.9824 84.2885 19.6064 85.0085C19.9424 85.3925 20.4705 85.5845 21.1425 85.5845Z" fill="#EAE6FF"/>
<path d="M22.0548 85.4884L20.6147 94.7046H33.479L32.183 85.4404L22.0548 85.4884Z" fill="#BDC6F9"/>
<path d="M17.3025 101.089C15.8625 101.089 14.7104 102.241 14.7104 103.681C14.7104 105.121 15.8625 106.273 17.3025 106.273C18.7425 106.273 19.8945 105.121 19.8945 103.681C19.8945 102.241 18.7425 101.089 17.3025 101.089ZM17.3025 104.881C16.6305 104.881 16.1025 104.353 16.1025 103.681C16.1025 103.009 16.6305 102.481 17.3025 102.481C17.9745 102.481 18.5025 103.009 18.5025 103.681C18.5025 104.353 17.9745 104.881 17.3025 104.881Z" fill="#8784EF"/>
<path d="M16.8706 101.089C15.4306 101.089 14.2786 102.241 14.2786 103.681C14.2786 105.121 15.4306 106.273 16.8706 106.273C18.3106 106.273 19.4626 105.121 19.4626 103.681C19.4626 102.241 18.3106 101.089 16.8706 101.089ZM16.8706 104.881C16.1986 104.881 15.6706 104.353 15.6706 103.681C15.6706 103.009 16.1986 102.481 16.8706 102.481C17.5426 102.481 18.0706 103.009 18.0706 103.681C18.0706 104.353 17.5426 104.881 16.8706 104.881Z" fill="#9AA3F4"/>
<path d="M32.0388 101.089C30.5988 101.089 29.4468 102.241 29.4468 103.681C29.4468 105.121 30.5988 106.273 32.0388 106.273C33.4789 106.273 34.6309 105.121 34.6309 103.681C34.6309 102.241 33.4789 101.089 32.0388 101.089ZM32.0388 104.881C31.3668 104.881 30.8388 104.353 30.8388 103.681C30.8388 103.009 31.3668 102.481 32.0388 102.481C32.7108 102.481 33.2389 103.009 33.2389 103.681C33.2389 104.353 32.7108 104.881 32.0388 104.881Z" fill="#8784EF"/>
<path d="M31.6067 101.089C30.1667 101.089 29.0146 102.241 29.0146 103.681C29.0146 105.121 30.1667 106.273 31.6067 106.273C33.0467 106.273 34.1987 105.121 34.1987 103.681C34.1987 102.241 33.0467 101.089 31.6067 101.089ZM31.6067 104.881C30.9347 104.881 30.4067 104.353 30.4067 103.681C30.4067 103.009 30.9347 102.481 31.6067 102.481C32.2787 102.481 32.8067 103.009 32.8067 103.681C32.8067 104.353 32.2787 104.881 31.6067 104.881Z" fill="#9AA3F4"/>
<path d="M51.7192 71.7603H43.8951C43.0791 71.7603 42.3111 72.1923 41.879 72.8643L37.127 80.4964" stroke="#9AA3F4" stroke-width="1.5" stroke-miterlimit="10"/>
<path d="M16.0545 94.5126H33.5748C34.4868 94.5126 35.3028 93.8406 35.4468 92.9286L37.2708 81.6004C37.4628 80.4484 36.5508 79.3923 35.3988 79.3923H14.2304C13.0784 79.3923 12.1664 80.4484 12.3584 81.6004L14.1824 92.9286C14.3264 93.8406 15.0944 94.5126 16.0545 94.5126Z" stroke="#9AA3F4" stroke-width="1.5" stroke-miterlimit="10"/>
<path d="M24.7908 79.3923V94.5126" stroke="#9AA3F4" stroke-width="1.5" stroke-miterlimit="10"/>
<path d="M36.4071 86.9285H13.2227" stroke="#9AA3F4" stroke-width="1.5" stroke-miterlimit="10"/>
<path d="M31.7509 79.3923L30.2148 94.5126" stroke="#9AA3F4" stroke-width="1.5" stroke-miterlimit="10"/>
<path d="M18.2146 79.3923L19.6066 94.5126" stroke="#9AA3F4" stroke-width="1.5" stroke-miterlimit="10"/>
<path d="M35.0149 93.8406L37.847 98.0646C38.615 99.2167 37.799 100.753 36.407 100.753H13.1746" stroke="#9AA3F4" stroke-width="1.5" stroke-miterlimit="10"/>
<path d="M96.0719 95.8088H72.0234V102.289H96.0719V95.8088Z" fill="#4A41A3"/>
<path d="M121.321 97.9208H47.0153C44.5192 97.9208 42.5032 95.9048 42.5032 93.4087V42.4798C42.5032 39.9838 44.5192 37.9678 47.0153 37.9678H121.369C123.865 37.9678 125.881 39.9838 125.881 42.4798V93.4087C125.833 95.9048 123.817 97.9208 121.321 97.9208Z" fill="#5851BC"/>
<path d="M120.504 92.1606H47.5912C46.0552 92.1606 44.8071 90.9126 44.8071 89.3765V42.9117C44.8071 41.3757 46.0552 40.1277 47.5912 40.1277H120.504C122.04 40.1277 123.289 41.3757 123.289 42.9117V89.4246C123.289 90.9606 122.04 92.1606 120.504 92.1606Z" fill="#C4C3FC"/>
<path d="M106.392 105.793H61.7034V105.265C61.7034 103.345 63.2874 101.761 65.2074 101.761H102.888C104.808 101.761 106.392 103.345 106.392 105.265V105.793Z" fill="#5851BC"/>
<g opacity="0.35">
<g opacity="0.35">
<g opacity="0.35">
<path opacity="0.35" d="M116.04 80.6408H65.9752C64.6312 80.6408 63.5752 79.5848 63.5752 78.2407V46.1762C63.5752 44.8321 64.6312 43.7761 65.9752 43.7761H116.04C117.384 43.7761 118.44 44.8321 118.44 46.1762V78.2407C118.44 79.5848 117.384 80.6408 116.04 80.6408Z" fill="white"/>
</g>
</g>
</g>
<g opacity="0.25">
<g opacity="0.25">
<g opacity="0.25">
<g opacity="0.25">
<g opacity="0.25">
<path opacity="0.25" d="M71.1596 70.7043H68.7595V76.7045H71.1596V70.7043Z" fill="#FCA70C"/>
</g>
</g>
</g>
<g opacity="0.25">
<g opacity="0.25">
<g opacity="0.25">
<path opacity="0.25" d="M76.5836 65.4243H74.1836V76.7045H76.5836V65.4243Z" fill="#B1AFFD"/>
</g>
</g>
</g>
<g opacity="0.25">
<g opacity="0.25">
<g opacity="0.25">
<path opacity="0.25" d="M81.9596 66.5764H79.5596V76.7046H81.9596V66.5764Z" fill="#FCA70C"/>
</g>
</g>
</g>
<g opacity="0.25">
<g opacity="0.25">
<g opacity="0.25">
<path opacity="0.25" d="M87.3358 60.9124H84.9358V76.7046H87.3358V60.9124Z" fill="#B1AFFD"/>
</g>
</g>
</g>
<g opacity="0.15">
<g opacity="0.15">
<g opacity="0.15">
<path opacity="0.26" d="M75.2876 65.4243H74.1836V76.7045H75.2876V65.4243Z" fill="black"/>
</g>
</g>
</g>
<g opacity="0.15">
<g opacity="0.15">
<g opacity="0.15">
<path opacity="0.26" d="M69.8635 70.7043H68.7595V76.7045H69.8635V70.7043Z" fill="black"/>
</g>
</g>
</g>
<g opacity="0.62">
<g opacity="0.62">
<g opacity="0.62">
<path opacity="0.26" d="M86.0398 60.9124H84.9358V76.7046H86.0398V60.9124Z" fill="black"/>
</g>
</g>
</g>
<g opacity="0.15">
<g opacity="0.15">
<g opacity="0.15">
<path opacity="0.26" d="M80.6636 66.5764H79.5596V76.7046H80.6636V66.5764Z" fill="black"/>
</g>
</g>
</g>
<g opacity="0.25">
<g opacity="0.25">
<g opacity="0.25">
<path opacity="0.25" d="M88.5837 78.3366H67.1753V55.5842H67.5113V78.0486H88.5837V78.3366Z" fill="#D5DBDA"/>
</g>
</g>
</g>
<g opacity="0.25">
<g opacity="0.25">
<g opacity="0.25">
<path opacity="0.25" d="M69.3834 67.8723L69.1914 67.6323L74.7595 62.6402L79.9436 63.7443L85.5597 57.5042L85.7997 57.6962L80.0876 64.1283L74.8555 62.9762L69.3834 67.8723Z" fill="#D5DBDA"/>
</g>
</g>
</g>
<g opacity="0.25">
<g opacity="0.25">
<g opacity="0.25">
<path opacity="0.25" d="M86.2317 58.6563L84.6477 57.1203L86.7118 56.5923L86.2317 58.6563Z" fill="#D5DBDA"/>
</g>
</g>
</g>
<g opacity="0.25">
<g opacity="0.25">
<g opacity="0.25">
<g opacity="0.25">
<path opacity="0.25" d="M92.2316 70.2725H90.5996V71.9045H92.2316V70.2725Z" fill="#B1AFFD"/>
</g>
</g>
</g>
<g opacity="0.25">
<g opacity="0.25">
<g opacity="0.25">
<path opacity="0.25" d="M92.2316 73.1523H90.5996V74.7844H92.2316V73.1523Z" fill="#FCA70C"/>
</g>
</g>
</g>
<g opacity="0.25">
<g opacity="0.25">
<g opacity="0.25">
<path opacity="0.25" d="M97.8958 73.8726H92.7117V74.7846H97.8958V73.8726Z" fill="#EFEFEF"/>
</g>
</g>
</g>
<g opacity="0.25">
<g opacity="0.25">
<g opacity="0.25">
<path opacity="0.25" d="M97.8958 70.9924H92.7117V71.9044H97.8958V70.9924Z" fill="#EFEFEF"/>
</g>
</g>
</g>
</g>
<g opacity="0.25">
<g opacity="0.25">
<g opacity="0.25">
<g opacity="0.25">
<path opacity="0.25" d="M101.928 70.2725H100.296V71.9045H101.928V70.2725Z" fill="#B1AFFD"/>
</g>
</g>
</g>
<g opacity="0.25">
<g opacity="0.25">
<g opacity="0.25">
<path opacity="0.25" d="M101.928 73.1523H100.296V74.7844H101.928V73.1523Z" fill="#FCA70C"/>
</g>
</g>
</g>
<g opacity="0.25">
<g opacity="0.25">
<g opacity="0.25">
<path opacity="0.25" d="M107.544 73.8726H102.36V74.7846H107.544V73.8726Z" fill="#EFEFEF"/>
</g>
</g>
</g>
<g opacity="0.25">
<g opacity="0.25">
<g opacity="0.25">
<path opacity="0.25" d="M107.544 70.9924H102.36V71.9044H107.544V70.9924Z" fill="#EFEFEF"/>
</g>
</g>
</g>
</g>
<g opacity="0.25">
<g opacity="0.25">
<g opacity="0.25">
<g opacity="0.25">
<path opacity="0.25" d="M110.616 70.2725H108.984V71.9045H110.616V70.2725Z" fill="#B1AFFD"/>
</g>
</g>
</g>
<g opacity="0.25">
<g opacity="0.25">
<g opacity="0.25">
<path opacity="0.25" d="M110.616 73.1523H108.984V74.7844H110.616V73.1523Z" fill="#FCA70C"/>
</g>
</g>
</g>
<g opacity="0.25">
<g opacity="0.25">
<g opacity="0.25">
<path opacity="0.25" d="M114.456 73.8726H111.048V74.7846H114.456V73.8726Z" fill="#EFEFEF"/>
</g>
</g>
</g>
<g opacity="0.25">
<g opacity="0.25">
<g opacity="0.25">
<path opacity="0.25" d="M114.456 70.9924H111.048V71.9044H114.456V70.9924Z" fill="#EFEFEF"/>
</g>
</g>
</g>
</g>
<g opacity="0.25">
<g opacity="0.25">
<g opacity="0.25">
<g opacity="0.25">
<path opacity="0.25" d="M114.504 54.5762H90.9358V55.0082H114.504V54.5762Z" fill="#EFEFEF"/>
</g>
</g>
</g>
<g opacity="0.25">
<g opacity="0.25">
<g opacity="0.25">
<path opacity="0.25" d="M114.456 49.344H67.1753V50.304H114.456V49.344Z" fill="#EFEFEF"/>
</g>
</g>
</g>
<g opacity="0.25">
<g opacity="0.25">
<g opacity="0.25">
<path opacity="0.25" d="M114.456 55.9202H90.8398V56.3522H114.456V55.9202Z" fill="#EFEFEF"/>
</g>
</g>
</g>
<g opacity="0.25">
<g opacity="0.25">
<g opacity="0.25">
<path opacity="0.25" d="M114.456 53.28H90.8398V53.712H114.456V53.28Z" fill="#EFEFEF"/>
</g>
</g>
</g>
<g opacity="0.25">
<g opacity="0.25">
<g opacity="0.25">
<path opacity="0.25" d="M114.456 57.2644H90.8398V57.6964H114.456V57.2644Z" fill="#EFEFEF"/>
</g>
</g>
</g>
<g opacity="0.25">
<g opacity="0.25">
<g opacity="0.25">
<path opacity="0.25" d="M114.456 58.6084H90.8398V59.0404H114.456V58.6084Z" fill="#EFEFEF"/>
</g>
</g>
</g>
<g opacity="0.25">
<g opacity="0.25">
<g opacity="0.25">
<path opacity="0.25" d="M114.456 59.9043H90.8398V60.3363H114.456V59.9043Z" fill="#EFEFEF"/>
</g>
</g>
</g>
<g opacity="0.25">
<g opacity="0.25">
<g opacity="0.25">
<path opacity="0.25" d="M114.456 61.2483H90.8398V61.6803H114.456V61.2483Z" fill="#EFEFEF"/>
</g>
</g>
</g>
<g opacity="0.25">
<g opacity="0.25">
<g opacity="0.25">
<path opacity="0.25" d="M114.456 62.5923H90.8398V63.0243H114.456V62.5923Z" fill="#EFEFEF"/>
</g>
</g>
</g>
<g opacity="0.25">
<g opacity="0.25">
<g opacity="0.25">
<path opacity="0.25" d="M114.456 63.9363H90.8398V64.3683H114.456V63.9363Z" fill="#EFEFEF"/>
</g>
</g>
</g>
<g opacity="0.25">
<g opacity="0.25">
<g opacity="0.25">
<path opacity="0.25" d="M114.504 65.2324H93.7678V65.6644H114.504V65.2324Z" fill="#EFEFEF"/>
</g>
</g>
</g>
</g>
</g>
<path opacity="0.25" d="M116.04 43.7761H65.9752C64.6312 43.7761 63.5752 44.8321 63.5752 46.1762V48.2882H118.44V46.1762C118.44 44.8321 117.384 43.7761 116.04 43.7761Z" fill="#7A7AE5"/>
<path opacity="0.25" d="M111.384 46.08C111.384 46.464 111.096 46.752 110.712 46.752C110.328 46.752 110.04 46.464 110.04 46.08C110.04 45.696 110.328 45.408 110.712 45.408C111.096 45.408 111.384 45.696 111.384 46.08Z" fill="#CFCFFF"/>
<path opacity="0.25" d="M113.496 46.752C113.867 46.752 114.168 46.4511 114.168 46.08C114.168 45.7088 113.867 45.408 113.496 45.408C113.125 45.408 112.824 45.7088 112.824 46.08C112.824 46.4511 113.125 46.752 113.496 46.752Z" fill="#CFCFFF"/>
<path opacity="0.25" d="M116.328 46.752C116.699 46.752 117 46.4511 117 46.08C117 45.7088 116.699 45.408 116.328 45.408C115.957 45.408 115.656 45.7088 115.656 46.08C115.656 46.4511 115.957 46.752 116.328 46.752Z" fill="#CFCFFF"/>
</g>
<path opacity="0.55" d="M101.448 88.8007H51.3832C50.0392 88.8007 48.9832 87.7447 48.9832 86.4007V54.3361C48.9832 52.9921 50.0392 51.936 51.3832 51.936H101.448C102.792 51.936 103.848 52.9921 103.848 54.3361V86.4007C103.848 87.7447 102.792 88.8007 101.448 88.8007Z" fill="#C4C3FC"/>
<path d="M102.552 87.3608H52.4872C51.1432 87.3608 50.0872 86.3047 50.0872 84.9607V52.8961C50.0872 51.5521 51.1432 50.4961 52.4872 50.4961H102.552C103.896 50.4961 104.952 51.5521 104.952 52.8961V84.9607C105 86.3047 103.896 87.3608 102.552 87.3608Z" fill="white"/>
<path d="M57.7191 77.4246H55.3191V83.4247H57.7191V77.4246Z" fill="#FCA70C"/>
<path d="M63.0951 72.1445H60.6951V83.4247H63.0951V72.1445Z" fill="#B1AFFD"/>
<path d="M68.4713 73.3445H66.0713V83.4727H68.4713V73.3445Z" fill="#FCA70C"/>
<path d="M73.8473 67.6323H71.4473V83.4246H73.8473V67.6323Z" fill="#B1AFFD"/>
<g opacity="0.15">
<g opacity="0.15">
<g opacity="0.15">
<path opacity="0.26" d="M61.7991 72.1445H60.6951V83.4247H61.7991V72.1445Z" fill="black"/>
</g>
</g>
</g>
<g opacity="0.15">
<g opacity="0.15">
<g opacity="0.15">
<path opacity="0.26" d="M56.4231 77.4246H55.3191V83.4247H56.4231V77.4246Z" fill="black"/>
</g>
</g>
</g>
<g opacity="0.62">
<g opacity="0.62">
<g opacity="0.62">
<path opacity="0.26" d="M72.5513 67.6323H71.4473V83.4246H72.5513V67.6323Z" fill="black"/>
</g>
</g>
</g>
<g opacity="0.15">
<g opacity="0.15">
<g opacity="0.15">
<path opacity="0.26" d="M67.1753 73.3445H66.0713V83.4727H67.1753V73.3445Z" fill="black"/>
</g>
</g>
</g>
<path d="M75.1435 85.1047H53.7351V64.3203H54.0711V84.7687H75.1435V85.1047Z" fill="#D5DBDA"/>
<path d="M55.9431 74.5926L55.7031 74.3525L61.3192 69.3605L66.5033 70.4645L72.1194 64.2244L72.3594 64.4644L66.5993 70.8485L61.4152 69.6965L55.9431 74.5926Z" fill="#D5DBDA"/>
<path d="M72.7916 65.3765L71.2075 63.8405L73.2716 63.3125L72.7916 65.3765Z" fill="#D5DBDA"/>
<path d="M78.7914 76.9924H77.1594V78.6245H78.7914V76.9924Z" fill="#B1AFFD"/>
<path d="M78.7914 79.8728H77.1594V81.5048H78.7914V79.8728Z" fill="#FCA70C"/>
<path d="M84.4075 80.5925H79.2234V81.5045H84.4075V80.5925Z" fill="#EFEFEF"/>
<path d="M84.4075 77.7126H79.2234V78.6247H84.4075V77.7126Z" fill="#EFEFEF"/>
<path d="M88.4394 76.9924H86.8074V78.6245H88.4394V76.9924Z" fill="#B1AFFD"/>
<path d="M88.4394 79.8728H86.8074V81.5048H88.4394V79.8728Z" fill="#FCA70C"/>
<path d="M94.1035 80.5925H88.9194V81.5045H94.1035V80.5925Z" fill="#EFEFEF"/>
<path d="M94.1035 77.7126H88.9194V78.6247H94.1035V77.7126Z" fill="#EFEFEF"/>
<path d="M97.1279 76.9924H95.4958V78.6245H97.1279V76.9924Z" fill="#B1AFFD"/>
<path d="M97.1279 79.8728H95.4958V81.5048H97.1279V79.8728Z" fill="#FCA70C"/>
<path d="M101.016 80.5925H97.6079V81.5045H101.016V80.5925Z" fill="#EFEFEF"/>
<path d="M101.016 77.7126H97.6079V78.6247H101.016V77.7126Z" fill="#EFEFEF"/>
<path d="M101.016 61.2961H77.4473V61.7282H101.016V61.2961Z" fill="#EFEFEF"/>
<path d="M101.016 56.0642H53.7351V57.0242H101.016V56.0642Z" fill="#EFEFEF"/>
<path d="M101.016 62.6401H77.3994V63.0721H101.016V62.6401Z" fill="#EFEFEF"/>
<path d="M101.016 60.0002H77.3994V60.4323H101.016V60.0002Z" fill="#EFEFEF"/>
<path d="M101.016 63.9844H77.3994V64.4164H101.016V63.9844Z" fill="#EFEFEF"/>
<path d="M101.016 65.3284H77.3994V65.7604H101.016V65.3284Z" fill="#EFEFEF"/>
<path d="M101.016 66.6245H77.3994V67.0565H101.016V66.6245Z" fill="#EFEFEF"/>
<path d="M101.016 67.9685H77.3994V68.4005H101.016V67.9685Z" fill="#EFEFEF"/>
<path d="M101.016 69.3123H77.3994V69.7443H101.016V69.3123Z" fill="#EFEFEF"/>
<path d="M101.016 70.6562H77.3994V71.0883H101.016V70.6562Z" fill="#EFEFEF"/>
<path d="M101.016 71.9526H80.2793V72.3846H101.016V71.9526Z" fill="#EFEFEF"/>
<path d="M102.552 50.4961H52.4872C51.1432 50.4961 50.0872 51.5521 50.0872 52.8961V55.0082H104.952V52.8961C105 51.5521 103.896 50.4961 102.552 50.4961Z" fill="#A4A4F7"/>
<path d="M97.896 52.7999C97.896 53.1839 97.608 53.472 97.224 53.472C96.84 53.472 96.552 53.1839 96.552 52.7999C96.552 52.4159 96.84 52.1279 97.224 52.1279C97.608 52.1279 97.896 52.4159 97.896 52.7999Z" fill="#CFCFFF"/>
<path d="M100.728 52.7999C100.728 53.1839 100.44 53.472 100.056 53.472C99.672 53.472 99.384 53.1839 99.384 52.7999C99.384 52.4159 99.672 52.1279 100.056 52.1279C100.44 52.1279 100.728 52.4159 100.728 52.7999Z" fill="#CFCFFF"/>
<path d="M103.56 52.7999C103.56 53.1839 103.272 53.472 102.888 53.472C102.504 53.472 102.216 53.1839 102.216 52.7999C102.216 52.4159 102.504 52.1279 102.888 52.1279C103.272 52.1279 103.56 52.4159 103.56 52.7999Z" fill="#CFCFFF"/>
<path opacity="0.35" d="M121.08 38.0156H108.216C108.312 42.1917 108.36 46.3678 108.408 50.4958C108.408 51.1199 108.408 51.7919 108.168 52.3679C107.976 52.3679 108.072 52.4159 108.024 52.7039C107.496 53.5679 106.488 53.9999 105.48 54.2399C105.48 54.2879 105.48 54.3359 105.48 54.3839C105.384 54.4799 105.336 54.6239 105.384 54.7679C105.432 54.9119 106.2 55.1039 107.208 55.0079C107.496 54.9599 108.072 54.8159 108.312 54.7199C108.456 54.6239 108.6 54.5279 108.744 54.4319C108.888 54.4319 108.984 54.3839 109.128 54.3359L109.176 54.3839L110.328 53.9039C110.328 53.9039 110.184 53.1839 110.088 52.7999C110.088 52.7039 110.04 52.6559 109.992 52.6079C110.952 50.0158 111.72 47.3278 112.248 44.5917C112.056 47.9998 110.808 54.8639 110.712 55.1039C110.568 55.4879 110.04 56.064 109.272 56.112C108.984 56.112 107.64 56.0639 107.784 56.688C107.832 56.832 108.504 57.168 109.512 57.216C109.8 57.216 110.376 57.168 110.664 57.12C111.048 57.024 111.384 56.736 111.384 56.736L111.528 56.928L112.728 56.64C112.728 56.64 112.728 56.304 112.728 55.9199C112.728 55.5359 112.488 55.1999 112.488 55.1999V54.5279L113.16 54.4319C113.16 54.4319 114.504 50.0638 115.176 48.5278C115.464 47.9038 115.752 47.3278 115.896 46.6558C116.088 45.8878 116.136 45.1198 116.184 44.3037C116.28 42.8637 116.568 41.4717 116.952 40.0797C117 39.9837 117 39.8877 117.048 39.8397C117.144 39.7437 117.336 39.6957 117.48 39.6957C119.208 39.5517 119.976 39.8397 121.08 39.5037C122.52 39.0716 122.664 38.3996 122.712 38.3996C122.328 38.1596 121.704 38.0156 121.08 38.0156Z" fill="#5851BC"/>
<g opacity="0.35">
<path opacity="0.35" d="M125.832 66.7681V51.8398C123.624 54.7679 121.416 57.3599 119.208 60.288C118.248 61.536 114.456 65.7121 117.048 67.3921C117.72 67.8241 118.872 67.8241 119.4 67.8241C121.464 67.9681 123.48 67.3921 125.497 66.8161C125.593 66.8641 125.736 66.8161 125.832 66.7681Z" fill="#5851BC"/>
</g>
<path opacity="0.35" d="M125.832 69.9844L124.584 70.0804V70.0324L123.624 70.1284L123.336 69.3124C123.192 68.8324 122.616 68.4964 122.136 68.5444C121.608 68.5924 121.368 68.9764 121.512 69.4564C121.56 69.6004 121.704 69.9844 121.8 70.2724L120.792 70.3684V70.4164L118.728 70.5604C118.392 70.5604 117.912 70.9924 118.008 71.2804V71.3284C118.008 71.3764 118.008 71.3764 118.008 71.4244L119.832 76.5125L119.784 97.9689H121.896L125.88 82.5606V69.9844H125.832ZM122.568 69.8404C122.28 69.8404 121.992 69.6484 121.896 69.4084C121.8 69.1684 121.944 68.9284 122.232 68.8804C122.52 68.8804 122.808 69.0724 122.904 69.3124C123.048 69.6004 122.856 69.7924 122.568 69.8404Z" fill="#5851BC"/>
<path opacity="0.35" d="M47.7353 61.1524C47.2553 61.6805 46.7272 62.7845 46.4872 63.2165C46.2472 63.6965 46.0072 63.9365 45.3352 64.2725C44.4232 64.7045 43.4152 65.0885 42.5032 65.4725V67.9206C44.4232 66.7685 46.1512 65.7125 46.1992 65.6645C47.6873 66.2405 48.8873 64.9925 49.2713 64.1285C49.4633 63.7445 49.1753 63.5525 49.1753 63.4085C49.1753 63.3125 49.2713 62.7365 49.2713 62.6885C49.1753 62.1605 47.7833 62.6405 47.8793 62.4005C47.9273 62.2085 48.1193 61.7765 48.4553 61.5364C49.1273 61.0564 49.6553 60.5764 49.6553 60.3844C49.6553 59.9524 47.8793 60.9604 47.7353 61.1524Z" fill="#5851BC"/>
<path d="M151.177 110.977H125.449C123.624 110.977 122.136 109.489 122.136 107.665V76.8484C122.136 75.0244 123.624 73.5364 125.449 73.5364H151.177C153.001 73.5364 154.489 75.0244 154.489 76.8484V107.665C154.489 109.489 153.001 110.977 151.177 110.977Z" fill="#A2A7F4"/>
<path d="M151.657 85.1527H125.977C125.497 85.1527 125.113 84.7687 125.113 84.2887V78.2886C125.113 77.8086 125.497 77.4246 125.977 77.4246H151.657C152.137 77.4246 152.521 77.8086 152.521 78.2886V84.2887C152.521 84.7687 152.137 85.1527 151.657 85.1527Z" fill="#9090F4"/>
<path d="M131.305 92.7367H125.977C125.497 92.7367 125.113 92.3527 125.113 91.8726V88.7046C125.113 88.2246 125.497 87.8406 125.977 87.8406H131.305C131.785 87.8406 132.169 88.2246 132.169 88.7046V91.8726C132.121 92.3527 131.737 92.7367 131.305 92.7367Z" fill="#9090F4"/>
<path d="M141.481 92.7367H136.153C135.673 92.7367 135.289 92.3527 135.289 91.8726V88.7046C135.289 88.2246 135.673 87.8406 136.153 87.8406H141.481C141.961 87.8406 142.345 88.2246 142.345 88.7046V91.8726C142.297 92.3527 141.913 92.7367 141.481 92.7367Z" fill="#9090F4"/>
<path d="M151.657 92.7367H146.329C145.849 92.7367 145.465 92.3527 145.465 91.8726V88.7046C145.465 88.2246 145.849 87.8406 146.329 87.8406H151.657C152.137 87.8406 152.521 88.2246 152.521 88.7046V91.8726C152.521 92.3527 152.137 92.7367 151.657 92.7367Z" fill="#9090F4"/>
<path d="M131.305 100.609H125.977C125.497 100.609 125.113 100.225 125.113 99.7447V96.5767C125.113 96.0966 125.497 95.7126 125.977 95.7126H131.305C131.785 95.7126 132.169 96.0966 132.169 96.5767V99.7447C132.121 100.225 131.737 100.609 131.305 100.609Z" fill="#9090F4"/>
<path d="M141.481 100.609H136.153C135.673 100.609 135.289 100.225 135.289 99.7447V96.5767C135.289 96.0966 135.673 95.7126 136.153 95.7126H141.481C141.961 95.7126 142.345 96.0966 142.345 96.5767V99.7447C142.297 100.225 141.913 100.609 141.481 100.609Z" fill="#9090F4"/>
<path d="M131.305 108.481H125.977C125.497 108.481 125.113 108.097 125.113 107.617V104.449C125.113 103.969 125.497 103.585 125.977 103.585H131.305C131.785 103.585 132.169 103.969 132.169 104.449V107.617C132.121 108.097 131.737 108.481 131.305 108.481Z" fill="#9090F4"/>
<path d="M141.481 108.481H136.153C135.673 108.481 135.289 108.097 135.289 107.617V104.449C135.289 103.969 135.673 103.585 136.153 103.585H141.481C141.961 103.585 142.345 103.969 142.345 104.449V107.617C142.297 108.097 141.913 108.481 141.481 108.481Z" fill="#9090F4"/>
<path d="M151.657 108.481H146.329C145.849 108.481 145.465 108.097 145.465 107.617V96.5767C145.465 96.0966 145.849 95.7126 146.329 95.7126H151.657C152.137 95.7126 152.521 96.0966 152.521 96.5767V107.617C152.521 108.097 152.137 108.481 151.657 108.481Z" fill="#9090F4"/>
<g opacity="0.45">
<path opacity="0.45" d="M124.584 77.8083C124.584 77.3283 124.968 76.9443 125.448 76.9443H151.129C151.609 76.9443 151.993 77.3283 151.993 77.8083V83.8085C151.993 84.2885 151.609 84.6725 151.129 84.6725H125.448" fill="#E2DEFF"/>
<path opacity="0.45" d="M130.777 92.2567H125.448C124.968 92.2567 124.584 91.8727 124.584 91.3927V88.2246C124.584 87.7446 124.968 87.3606 125.448 87.3606H130.777C131.257 87.3606 131.641 87.7446 131.641 88.2246V91.3927C131.641 91.8727 131.257 92.2567 130.777 92.2567Z" fill="#E2DEFF"/>
<path opacity="0.45" d="M140.953 92.2567H135.625C135.145 92.2567 134.761 91.8727 134.761 91.3927V88.2246C134.761 87.7446 135.145 87.3606 135.625 87.3606H140.953C141.433 87.3606 141.817 87.7446 141.817 88.2246V91.3927C141.817 91.8727 141.433 92.2567 140.953 92.2567Z" fill="#E2DEFF"/>
<path opacity="0.45" d="M151.129 92.2567H145.801C145.321 92.2567 144.937 91.8727 144.937 91.3927V88.2246C144.937 87.7446 145.321 87.3606 145.801 87.3606H151.129C151.609 87.3606 151.993 87.7446 151.993 88.2246V91.3927C151.993 91.8727 151.609 92.2567 151.129 92.2567Z" fill="#E2DEFF"/>
<path opacity="0.45" d="M130.777 100.129H125.448C124.968 100.129 124.584 99.745 124.584 99.265V96.0969C124.584 95.6169 124.968 95.2329 125.448 95.2329H130.777C131.257 95.2329 131.641 95.6169 131.641 96.0969V99.265C131.641 99.745 131.257 100.129 130.777 100.129Z" fill="#E2DEFF"/>
<path opacity="0.45" d="M140.953 100.129H135.625C135.145 100.129 134.761 99.745 134.761 99.265V96.0969C134.761 95.6169 135.145 95.2329 135.625 95.2329H140.953C141.433 95.2329 141.817 95.6169 141.817 96.0969V99.265C141.817 99.745 141.433 100.129 140.953 100.129Z" fill="#E2DEFF"/>
<path opacity="0.45" d="M130.777 107.953H125.448C124.968 107.953 124.584 107.569 124.584 107.089V103.921C124.584 103.441 124.968 103.057 125.448 103.057H130.777C131.257 103.057 131.641 103.441 131.641 103.921V107.089C131.641 107.569 131.257 107.953 130.777 107.953Z" fill="#E2DEFF"/>
<path opacity="0.45" d="M140.953 107.953H135.625C135.145 107.953 134.761 107.569 134.761 107.089V103.921C134.761 103.441 135.145 103.057 135.625 103.057H140.953C141.433 103.057 141.817 103.441 141.817 103.921V107.089C141.817 107.569 141.433 107.953 140.953 107.953Z" fill="#E2DEFF"/>
</g>
<path d="M151.129 107.953H145.801C145.321 107.953 144.937 107.569 144.937 107.089V96.0488C144.937 95.5688 145.321 95.1848 145.801 95.1848H151.129C151.609 95.1848 151.993 95.5688 151.993 96.0488V107.089C151.993 107.569 151.609 107.953 151.129 107.953Z" fill="#FCA70C"/>
<path d="M145.465 107.617V96.5768C145.465 96.0968 145.849 95.7128 146.329 95.7128H151.657C151.753 95.7128 151.849 95.7128 151.945 95.7608C151.801 95.4248 151.513 95.1848 151.129 95.1848H145.801C145.321 95.1848 144.937 95.5688 144.937 96.0488V107.089C144.937 107.473 145.177 107.761 145.513 107.905C145.465 107.809 145.465 107.713 145.465 107.617Z" fill="#F9C110"/>
<path opacity="0.35" d="M122.088 82.3686L122.952 84.6727H126.6C126.6 84.6727 126.36 94.5609 126.312 96.3849C126.312 98.2569 127.848 111.025 127.848 111.025H129.961L129.721 94.9449L132.697 86.6887C132.697 86.6887 134.953 97.7289 135.865 99.601C136.777 101.473 141.817 111.073 141.817 111.073H143.737L138.793 89.9048L136.681 82.5607L125.928 77.4246L122.088 77.8086" fill="#5851BC"/>
<path d="M49.5591 90.5768L47.8311 108.097H64.4873L62.8553 90.5288L49.5591 90.5768Z" fill="#FCA70C"/>
<path d="M52.4395 92.1608C52.4395 91.8728 52.7275 91.6328 53.0635 91.6328C53.3995 91.6328 53.6875 91.8728 53.6875 92.1608C53.6875 92.4488 53.3995 92.6888 53.0635 92.6888C52.7275 92.6888 52.4395 92.4488 52.4395 92.1608ZM53.0635 91.8248C52.8235 91.8248 52.6315 91.9688 52.6315 92.1608C52.6315 92.3528 52.8235 92.4968 53.0635 92.4968C53.3035 92.4968 53.4955 92.3528 53.4955 92.1608C53.4955 91.9688 53.3035 91.8248 53.0635 91.8248Z" fill="#5851BC"/>
<path d="M58.6313 92.1608H58.7273H58.6313C58.6313 92.0168 58.6793 91.9208 58.7753 91.8248C58.8713 91.7288 59.0633 91.6328 59.2554 91.6328C59.5914 91.6328 59.8794 91.8728 59.8794 92.1608C59.8794 92.3048 59.8314 92.4488 59.6874 92.5448C59.5914 92.6408 59.3994 92.6888 59.2554 92.6888C58.9193 92.6888 58.6313 92.4488 58.6313 92.1608ZM59.2554 91.8248C59.1114 91.8248 59.0154 91.8728 58.9194 91.9688C58.8714 92.0168 58.8233 92.0648 58.8233 92.1608C58.8233 92.3528 59.0153 92.4968 59.2554 92.4968C59.3514 92.4968 59.4954 92.4488 59.5434 92.4008C59.6394 92.3528 59.6394 92.2568 59.6394 92.1608C59.6874 91.9688 59.4954 91.8248 59.2554 91.8248Z" fill="#5851BC"/>
<path d="M55.9914 96.0007C56.0394 96.0007 56.0874 96.0007 56.1834 96.0007C57.3354 95.9527 58.1994 95.6167 58.7754 94.8967C59.7354 93.7447 59.4954 92.1607 59.4954 92.1127C59.4954 92.0167 59.3994 91.9207 59.2554 91.9207C59.1594 91.9207 59.0634 92.0167 59.0634 92.1607C59.0634 92.1607 59.2554 93.6487 58.4394 94.6087C57.9594 95.1847 57.1914 95.5207 56.1354 95.5687C55.1274 95.6167 54.4073 95.3287 53.9273 94.8007C53.0153 93.7927 53.2553 92.2087 53.2553 92.1607C53.2553 92.0647 53.2073 91.9687 53.0633 91.9207C52.9673 91.9207 52.8713 91.9687 52.8233 92.1127C52.8233 92.2087 52.5833 93.9367 53.5913 95.0887C54.1673 95.7127 54.9834 96.0007 55.9914 96.0007Z" fill="#5851BC"/>
<path d="M33.1909 51.0237C33.8149 52.1277 33.2869 53.6638 33.9109 54.7678C34.1509 55.1998 34.6309 55.5838 34.7269 56.0638C34.8229 56.4958 34.6789 56.9758 34.3429 57.2158C34.0069 57.5038 33.5269 57.5038 33.1429 57.3118C33.0469 57.2638 32.9989 57.2158 32.9029 57.1678C32.5668 57.0718 32.2788 57.3598 31.9908 57.5518C31.6548 57.7918 31.2228 57.8878 30.8388 57.7438C30.3588 57.5998 30.0228 57.0718 29.8788 56.5918C29.3988 55.1998 29.7348 53.6638 30.1668 52.2717C30.3588 51.5517 30.6948 50.7837 31.3668 50.5437" fill="#5045AF"/>
<path d="M48.119 62.8801C48.119 63.0241 48.359 63.1681 48.215 63.5041C47.879 64.2241 46.775 65.2322 45.479 64.7521C45.431 64.7521 38.2789 68.8802 37.7509 68.8802C37.2229 68.8802 33.4308 65.3282 32.2308 60.9601C31.9428 59.9041 32.0388 58.704 33.0468 58.176C33.0468 58.176 33.8628 58.368 34.3908 59.376C35.2068 60.9121 37.6549 66.0002 38.1829 66.1922C38.8549 65.7602 42.1189 64.7521 44.759 63.6481C45.335 63.4081 45.575 63.1681 45.767 62.7841C45.959 62.4001 46.439 61.4881 46.871 61.0561C47.015 60.9121 48.5991 60.0481 48.5991 60.3361C48.5991 60.4801 48.119 60.9121 47.543 61.2961C47.255 61.4881 47.111 61.8721 47.015 62.0161C46.919 62.2081 48.119 61.8241 48.263 62.2561C48.263 62.3041 48.119 62.7841 48.119 62.8801Z" fill="#FFB9B0"/>
<path d="M32.7108 58.0322C33.6228 58.2722 34.3908 58.8482 34.8228 59.6643C34.9188 59.8563 35.0149 60.0963 35.1109 60.3363C35.4949 61.2963 36.0229 62.1603 36.4069 63.1683C35.8789 63.6003 35.2548 63.7923 34.7268 63.9843C34.2468 64.1763 33.6708 64.2243 33.1428 64.1763C33.0468 64.1763 32.9508 64.1763 32.9028 64.1283C32.8068 64.0803 32.7108 63.9843 32.6148 63.8883C32.4708 63.6963 32.2788 63.5043 32.1348 63.3123C31.9908 63.1683 31.8948 62.9763 31.7988 62.7843C31.7028 62.4963 31.7988 62.2083 31.8948 61.9203" fill="#7762EF"/>
<g opacity="0.35">
<path opacity="0.35" d="M33.671 60.6721C33.623 60.6241 33.623 60.5761 33.527 60.5761C33.431 60.5281 33.335 60.6241 33.287 60.6721C33.239 60.7681 33.239 60.8641 33.239 60.9601C33.239 61.3441 33.287 61.7281 33.431 62.1121L33.287 64.1761C33.767 64.2241 34.295 64.1281 34.727 63.9841C34.967 63.8881 35.207 63.8401 35.447 63.6961C35.207 62.5441 34.439 61.5841 33.671 60.6721Z" fill="#7762EF"/>
</g>
<path d="M30.5029 56.016C30.5029 56.016 30.4549 57.312 30.6949 57.36C31.0789 57.504 31.5109 57.6 31.5109 57.6V60.2401L28.0069 59.7121L25.5588 58.368C25.5588 58.368 28.1029 57.552 28.1029 57.264C28.1029 57.024 27.9589 55.584 27.9589 55.584" fill="#FFB9B0"/>
<path d="M25.0787 94.2727C24.1186 98.8327 24.5506 105.121 24.3586 108.577C24.4066 108.577 25.6547 108.769 25.6547 108.769C25.6547 108.769 28.6307 94.2726 29.1587 91.4886C29.2067 91.2966 29.2067 91.1046 29.2067 90.9606C29.3507 88.8486 27.4307 88.7526 26.3747 90.4806C26.1827 90.7686 26.0387 91.0566 25.8947 91.3926C25.8467 91.5366 25.7987 91.6806 25.7027 91.8246C25.5107 92.2566 25.3667 92.7846 25.2227 93.2646V93.3126C25.1747 93.4566 25.1266 93.6006 25.1266 93.7446V93.7926C25.1746 93.9367 25.1267 94.0807 25.0787 94.2727Z" fill="#FFB9B0"/>
<path d="M30.7428 77.8564C30.6948 78.2404 30.5028 80.0164 30.2628 82.1764C30.0708 83.9525 29.8308 85.9685 29.6388 87.5525C29.4948 88.7526 29.3988 89.7126 29.3508 90.1446C29.3508 90.4326 29.3028 90.6726 29.2548 90.9126C28.8228 93.0246 27.3348 93.1206 26.4707 92.6406C26.3267 92.5926 26.2307 92.4966 26.1347 92.4006C25.9427 92.2086 25.7987 92.0166 25.7507 91.7766C25.7027 91.3446 25.6547 90.7686 25.6067 90.0486C25.5107 88.7045 25.4147 86.9285 25.3187 85.2485C25.2227 83.1364 25.1747 81.1684 25.1267 80.0164C25.1267 79.9684 25.1267 79.8724 25.1267 79.8244C25.1267 76.3203 28.2948 74.1123 30.3108 75.2163C30.3588 75.2163 30.3588 75.2163 30.3588 75.2643C30.4068 75.2643 30.4068 75.3123 30.4548 75.3123C30.6948 75.4563 30.7428 75.9843 30.7428 76.5603C30.7908 76.9923 30.7428 77.4243 30.7428 77.8564Z" fill="#FFB9B0"/>
<path d="M25.8467 90.9606L25.6067 90.0486C25.6067 90.2406 25.6547 91.7286 25.3187 93.2166V93.2646C25.2707 93.4086 25.2707 93.5526 25.2227 93.6967V93.7447C25.1747 93.9847 25.1267 94.1287 25.1267 94.2247C25.1267 94.6567 25.9907 92.7846 26.1827 92.3526C26.2307 92.3046 26.2307 92.2566 26.2307 92.2566L25.9907 91.2966L25.8467 90.9606Z" fill="#FFB9B0"/>
<path d="M32.7589 95.1369C32.6629 99.9369 34.151 105.553 34.535 109.057C34.583 109.057 35.735 108.913 35.735 108.913C35.735 108.913 35.975 94.2248 35.975 91.3448C35.975 91.1528 35.975 90.9608 35.927 90.7688C35.687 88.6567 33.959 89.0407 33.3349 91.0088C33.2389 91.3448 33.1429 91.6808 33.0469 92.0648C32.9989 92.2088 32.9989 92.3528 32.9509 92.5448C32.8549 93.0248 32.8069 93.5528 32.7589 94.1288V94.1768C32.7589 94.3208 32.7589 94.5128 32.7109 94.6568V94.7049C32.7589 94.8009 32.7589 94.9449 32.7589 95.1369Z" fill="#FFB9B0"/>
<path d="M33.767 93.1686C33.623 93.1206 33.527 93.0726 33.431 93.0246C33.191 92.8806 33.047 92.6886 32.999 92.4966C32.855 92.0646 32.7109 91.4886 32.5669 90.8166C32.2309 89.4726 31.8469 87.7925 31.5109 86.1125C31.0789 84.0485 30.6949 82.0804 30.4549 80.9284C30.4549 80.8804 30.2629 80.0644 30.2629 79.9684C29.6389 76.4643 32.3749 74.2083 34.343 74.8803C34.391 74.8803 34.391 74.8803 34.439 74.9283C34.823 75.0723 34.967 76.5123 35.015 77.4243C35.111 78.3844 35.783 88.1765 35.927 89.9526C35.975 90.2406 35.975 90.4806 35.975 90.7686C35.927 92.9766 34.631 93.4566 33.767 93.1686Z" fill="#FFB9B0"/>
<path d="M32.9028 91.6807L32.5188 90.8167C32.5668 91.0087 32.8068 92.4967 32.8068 94.0807V94.1287C32.8068 94.2727 32.8068 94.4647 32.7588 94.6087V94.6567C32.7588 94.8967 32.7588 95.0887 32.7588 95.1367C32.8068 95.5687 33.2868 93.5047 33.4308 93.0247C33.4308 92.9767 33.4308 92.9287 33.4308 92.9287L33.0468 92.0167L32.9028 91.6807Z" fill="#FFB9B0"/>
<path d="M26.8068 71.1364C26.8068 71.1364 24.2628 74.4004 24.5028 77.6645C24.5988 79.0085 24.7908 80.2085 24.9348 81.6005C24.9348 81.7925 25.2708 84.6726 25.1748 84.6726C25.1748 84.6726 30.4549 86.3046 35.591 84.1446C35.591 83.8086 36.023 77.0885 33.2389 70.7043C29.9269 71.1844 26.8068 71.1364 26.8068 71.1364Z" fill="#5146AF"/>
<path d="M34.8707 63.6003C34.8707 64.5123 34.3427 65.0883 33.6227 65.9043C33.5267 66.0483 33.3347 68.1123 33.2387 69.5044C33.1907 70.2244 33.5267 70.6564 33.2387 70.7524C32.2307 71.6644 28.5346 72.3844 26.8066 71.1364C26.9986 69.6484 26.3266 66.3363 25.8465 64.6083C25.7985 64.3683 25.7025 64.1283 25.6545 63.9363C25.2225 62.6402 24.4545 58.5602 25.0305 58.3682C25.1265 58.3202 25.3185 58.2722 25.5105 58.2242C26.3746 57.9362 27.7186 57.5042 27.7186 57.5042C27.7186 57.5042 28.4866 59.7602 30.5026 60.0482C31.6067 59.6162 31.5107 58.2242 31.4626 57.6002C31.7987 57.6962 31.9907 57.7922 33.0947 58.1282C33.3827 58.5602 33.1427 59.5202 33.6227 60.9122C33.7667 61.2482 34.8707 62.4482 34.8707 63.6003Z" fill="#7762EF"/>
<path d="M33.0467 50.784C33.0467 50.784 33.2387 53.232 32.8067 54.528C32.4707 55.488 31.2227 56.4001 30.1187 56.3521C27.1906 56.3521 26.6626 52.368 26.6626 52.176C26.6626 51.984 31.0307 50.304 31.0307 50.304L33.0467 50.784Z" fill="#FFB9B0"/>
<path d="M38.6628 110.401C37.6068 110.593 36.5028 110.305 36.0228 110.353C35.6388 110.401 34.6788 110.689 34.2947 110.353C33.9107 110.017 34.0067 108.865 34.3908 108.721C34.3908 108.721 34.4868 108.769 34.6788 108.769C34.9188 108.817 35.3988 108.817 35.9268 108.673C36.7428 109.009 36.7428 109.153 37.6548 109.345C38.0388 109.441 38.5188 109.537 38.8068 109.681C39.2388 109.873 39.2388 110.305 38.6628 110.401Z" fill="#5045AF"/>
<path d="M27.3348 110.881C26.2787 110.689 25.6067 110.113 25.1747 110.065C24.7907 110.017 23.8307 109.825 23.7347 109.441C23.6387 109.153 23.9267 107.953 24.4067 107.953C24.4067 107.953 24.5027 108.001 24.6467 108.097C24.8867 108.241 25.2707 108.385 25.8467 108.433C26.4707 109.009 26.4708 109.153 27.2388 109.633C27.5748 109.825 27.9588 110.113 28.1988 110.353C28.5348 110.593 27.9108 110.977 27.3348 110.881Z" fill="#5045AF"/>
<path d="M12.0225 61.824L12.9825 60.672L18.8866 65.9521C18.8866 65.9521 21.7666 62.112 22.5346 60.912C23.3987 59.616 24.1667 58.464 25.4627 58.272C25.7507 58.464 25.3667 63.1681 25.2227 63.3121C23.4467 64.6561 19.9906 68.9282 18.8866 69.1682C17.5906 69.4082 12.0225 61.824 12.0225 61.824Z" fill="#FFB9B0"/>
<path d="M25.8947 58.0801C25.8947 58.0801 24.6947 58.0801 24.1666 58.5121C23.6386 58.9441 21.1906 62.8802 21.1906 62.8802C21.1906 62.8802 21.1426 63.6002 21.8626 64.2242C22.6306 64.8962 23.6387 64.9922 23.6387 64.9922C23.6387 64.9922 24.8867 63.7442 25.5587 63.2162C25.9907 62.8802 26.0387 63.7442 26.0387 63.7442L28.2467 61.5841L25.8947 58.0801Z" fill="#7762EF"/>
<path d="M25.1747 58.128C25.1267 58.08 25.0307 58.032 24.9827 58.032C24.6467 57.84 24.3107 57.6 24.2147 57.216C24.0227 56.6399 23.9267 55.8239 24.2147 55.2959C24.4067 54.9119 24.7907 54.6719 25.0307 54.3839C25.3668 53.9519 25.4628 53.3279 25.5108 52.7519C25.5588 52.1759 25.5107 51.5999 25.6067 51.0719C25.7988 50.1118 26.0868 49.1998 26.8068 48.6238C27.9588 47.6638 30.3588 47.0398 31.6069 48.1438C31.8469 48.3358 31.8949 48.4798 32.1829 48.5278C32.6149 48.5758 32.8549 48.6238 33.2389 48.8638C33.6709 49.1038 34.1509 49.4398 34.1029 50.0158C34.0549 50.3998 33.6229 51.0239 33.2869 51.1679C33.1429 51.2639 32.9989 51.2639 32.8549 51.2639C32.3749 51.2639 31.9429 50.9278 31.4629 51.0238C31.2229 51.0719 30.9829 51.1679 30.8389 51.3599C30.6469 51.5999 30.6948 51.8879 30.5028 52.0799C30.1668 52.4159 29.6388 52.3679 29.2548 52.6079C29.2068 52.6559 29.1108 52.7039 29.0628 52.7519C29.0148 52.7999 29.0148 52.8959 29.0148 52.9439C29.0148 53.1359 29.0148 53.3759 29.0148 53.5679C28.8228 53.4719 28.8228 53.1839 28.6308 53.0879C28.4868 52.9439 28.2468 52.9919 28.0548 53.1359C27.9108 53.2799 27.8148 53.4719 27.7668 53.6639C27.7188 53.9039 27.8148 54.1439 27.8628 54.3839C28.0068 54.8159 28.3428 55.1999 28.6308 54.9119C28.8228 55.1999 28.6308 55.7279 28.5828 56.1119C28.5828 56.3999 28.5828 56.928 28.8228 57.12C29.0628 57.312 29.4468 57.168 29.4468 57.6C29.4468 57.984 29.0628 58.32 28.6788 58.368C28.2948 58.416 27.9108 58.272 27.5268 58.176C27.1428 58.08 26.7108 57.984 26.3748 58.128C26.1348 58.224 25.9428 58.368 25.7028 58.416C25.6068 58.272 25.3667 58.224 25.1747 58.128Z" fill="#5045AF"/>
<path d="M14.4707 62.0162C14.4707 62.0162 13.0786 60.9121 12.9826 60.6241C12.8866 60.3361 12.8866 60.0001 12.7426 59.7121C12.5986 59.2801 12.2146 58.9441 11.7826 58.7521C11.4466 58.6081 11.5906 58.5121 11.2546 58.5601C10.6786 58.6561 10.4386 59.2321 10.1986 59.6641C9.23859 61.4881 11.8786 61.8242 11.9746 61.8722C12.1666 61.8722 13.1266 62.9762 13.1266 62.9762" fill="#FFB9B0"/>
<path d="M10.1025 61.1522L11.0625 61.7762C11.2065 61.8722 11.3505 61.8242 11.4465 61.6802L13.5106 58.1762L12.2625 57.5042L10.0065 60.7682C9.95849 60.9122 9.95849 61.0562 10.1025 61.1522Z" fill="#8484EF"/>
<path d="M6.69444 53.7122L7.03045 53.9522L8.37447 52.0322L8.03847 51.7922C7.55846 51.4562 6.88645 51.6482 6.55044 52.1762C6.16643 52.7042 6.21443 53.4242 6.69444 53.7122Z" fill="#C4C4F7"/>
<path d="M5.49438 56.064L11.5425 56.9761L12.9345 54.96L9.91047 49.6799L5.49438 56.064Z" fill="#C4C4F7"/>
<path d="M5.87866 56.1599L11.5428 56.9759L12.1188 56.2079L7.31869 54.0479L5.87866 56.1599Z" fill="#BBBBF2"/>
<path d="M14.0388 58.4641C14.3748 58.7041 14.8548 58.5601 15.0948 58.1761L15.3348 57.8401C15.5748 57.4561 15.5268 56.9761 15.1908 56.7841C14.8548 56.5441 14.3747 56.6881 14.1347 57.0721L13.8947 57.4081C13.7027 57.7441 13.7507 58.2241 14.0388 58.4641Z" fill="#C4C4F7"/>
<path d="M14.1827 57.0239L13.9427 57.3599C13.7027 57.7439 13.7507 58.2239 14.0867 58.4159C14.4227 58.6559 14.9027 58.5119 15.1428 58.1279L15.3828 57.7919C15.3828 57.7439 15.4308 57.7439 15.4308 57.6959C15.1908 57.9839 14.7587 58.0799 14.4227 57.8879C14.0867 57.6959 14.0387 57.2639 14.2307 56.8799C14.2307 56.9759 14.1827 57.0239 14.1827 57.0239Z" fill="#BBBBF2"/>
<path d="M5.30254 56.2561C5.49454 56.4001 5.78254 56.3041 5.92654 56.1121L10.1026 50.064C10.2466 49.8239 10.1986 49.5839 10.0066 49.4399C9.81461 49.2959 9.52661 49.3919 9.38261 49.5839L5.20653 55.6321C5.06253 55.8721 5.11053 56.1601 5.30254 56.2561Z" fill="#A4A4F7"/>
<path d="M10.1026 49.5359L6.64656 54.576C6.50255 54.816 6.21455 54.864 6.02255 54.72C5.97455 54.672 5.92654 54.672 5.92654 54.624L5.20653 55.632C5.06253 55.872 5.11053 56.112 5.30254 56.256C5.49454 56.4 5.78254 56.304 5.92654 56.112L10.1026 50.0639C10.1986 49.8719 10.1986 49.6799 10.1026 49.5359Z" fill="#8484EF"/>
<path d="M12.1186 58.08L12.5026 58.368C13.0786 58.752 13.9426 58.56 14.3746 57.888L14.7586 57.312C15.1906 56.6399 15.0946 55.7759 14.5186 55.3919L14.1346 55.1039C13.5586 54.7199 12.6946 54.9119 12.2626 55.5839L11.8786 56.1599C11.3985 56.7839 11.5425 57.648 12.1186 58.08Z" fill="#A4A4F7"/>
<path d="M11.8785 56.1121L11.3025 56.9761C11.1585 57.1681 11.2065 57.4561 11.3505 57.6001L13.1746 58.8481C13.3666 58.9921 13.6066 58.8961 13.7506 58.7041L14.3266 57.8401C14.1826 58.0321 13.8946 58.1281 13.7506 57.9841L11.9265 56.7361C11.7825 56.5921 11.7345 56.3041 11.8785 56.1121Z" fill="#8484EF"/>
<path d="M10.2945 60.24C10.1985 59.712 10.3425 59.184 10.6305 58.8C10.7265 58.656 10.8705 58.56 10.9665 58.416C11.0145 58.368 11.0625 58.32 11.1585 58.272C11.3025 58.224 11.4465 58.272 11.5905 58.368C11.7345 58.464 11.8785 58.56 11.9745 58.752C12.0705 58.992 11.9265 59.184 11.6865 59.328L11.6385 59.376C11.6385 59.424 11.6385 59.472 11.6865 59.472C11.7825 59.616 11.8305 59.808 11.8305 59.952C11.8305 60.096 11.6865 60.24 11.4945 60.192C11.4465 60.192 11.3505 60.144 11.3025 60.192V60.24C11.3025 60.384 11.3025 60.528 11.2065 60.624C11.2065 60.672 11.1585 60.672 11.1105 60.672C11.0625 60.672 11.0625 60.672 11.0145 60.672C10.9185 60.624 10.7745 60.576 10.6785 60.528" fill="#FFB9B0"/>
<path d="M12.9828 60.6722C12.9348 60.4801 12.8868 60.1441 12.8868 59.9041C12.8868 59.3281 12.5508 58.8001 12.0708 58.5121C12.0228 58.5121 11.9748 58.4641 11.9268 58.4641C11.8788 58.4641 11.8308 58.5121 11.8308 58.6081C11.8308 58.6561 11.8308 58.7041 11.8788 58.8001C11.9268 58.9921 12.1668 59.3281 12.1188 59.4721C12.0228 59.7601 11.9268 60.0481 11.9268 60.3361C11.9268 60.5761 12.0708 61.0082 12.3588 61.0562" fill="#FFB9B0"/>
<path d="M5.92651 46.752L7.17454 49.632" stroke="#C4C4F7" stroke-width="0.75" stroke-miterlimit="10" stroke-linecap="round" stroke-linejoin="round"/>
<path d="M3.38232 49.2959L5.87837 51.1679" stroke="#C4C4F7" stroke-width="0.75" stroke-miterlimit="10" stroke-linecap="round" stroke-linejoin="round"/>
<path d="M1.75049 52.8L4.87054 53.0881" stroke="#C4C4F7" stroke-width="0.75" stroke-miterlimit="10" stroke-linecap="round" stroke-linejoin="round"/>
<path d="M101.544 22.4634C101.544 22.4634 100.44 21.6954 100.392 21.3593C100.344 21.0233 99.5761 19.6793 99.3361 19.4393C99.0961 19.1513 97.752 18.7193 97.512 18.6713C97.224 18.6233 95.64 18.7673 95.832 19.0073C96.024 19.2473 97.08 19.1513 97.272 19.2473C97.464 19.3433 97.464 19.3433 97.464 19.3433C97.464 19.3433 97.272 19.6313 97.368 19.7753C97.464 19.9193 97.032 20.2073 97.176 20.4473C97.32 20.7353 97.128 20.6873 97.272 21.0233C97.512 21.5034 98.1361 21.7914 98.2801 21.6474C98.3761 21.9354 98.8561 22.5114 99.2881 22.4634C99.7201 22.4154 100.776 23.4234 100.776 23.4234" fill="#FFB9B0"/>
<path d="M118.585 16.8472C118.633 17.6152 118.585 18.9112 118.777 19.1032C118.969 19.2952 119.689 19.2472 119.689 19.2472C119.689 19.2472 117.193 22.3673 117.001 22.2233C116.761 22.0313 113.832 19.6792 114.504 19.5352C115.176 19.3912 115.801 19.4392 115.801 19.1032C115.801 18.7672 115.752 18.4312 115.752 18.0952" fill="#FFB9B0"/>
<path d="M121.416 33.5995C121.416 33.5995 116.568 34.1275 115.464 34.1755C114.36 34.1755 114.408 33.5995 114.408 33.5995C114.36 32.3515 114.12 29.4714 113.928 28.5114C113.736 27.5994 113.64 27.2634 113.448 26.3993C113.016 24.4793 113.064 24.0953 112.632 21.6953L115.512 19.3912C115.512 19.3912 115.8 20.3032 117 20.3032C118.632 20.3032 119.112 19.1992 119.112 19.1992L123.049 21.8393L123.433 28.2234L122.952 33.4555" fill="#FCA70C"/>
<path d="M118.632 16.1751C118.536 16.5591 118.44 16.9431 118.296 17.2791C118.056 17.9511 117.672 18.1911 116.952 18.1911C116.472 18.1911 115.944 18.1911 115.464 18.2391C115.08 18.2391 114.6 18.2391 114.312 17.9991C114.024 17.7591 114.024 17.2791 113.928 16.9431C113.832 16.4631 113.784 15.9831 113.736 15.5511C113.64 14.6391 113.592 13.6791 113.592 12.767C113.592 12.623 113.592 12.527 113.64 12.383C113.64 12.335 113.688 12.287 113.688 12.239C113.736 12.191 113.784 12.191 113.88 12.191C114.792 12.047 115.752 11.999 116.664 11.999C117.336 11.999 118.008 12.095 118.536 12.479C119.064 12.863 119.304 13.5351 119.544 14.1591C119.592 14.2551 119.592 14.3991 119.496 14.4471" fill="#FFB9B0"/>
<path d="M107.784 50.8798C107.784 50.8798 107.928 51.8398 108.072 52.1758C108.216 52.5118 109.272 52.2238 109.368 51.9838C109.416 51.7918 109.032 50.2078 109.032 50.2078" fill="#ED9C80"/>
<path d="M109.704 52.2719C109.8 52.6079 109.896 53.3279 109.896 53.3279L108.84 53.8079L108.648 53.6639C108.648 53.6639 108.36 53.9999 108.072 54.1439C107.832 54.2399 107.304 54.3839 107.016 54.4319C106.056 54.5279 105.384 54.3359 105.336 54.2399C105.096 53.7119 106.344 53.5679 106.584 53.4719C107.304 53.2799 107.688 52.6559 107.784 52.2719C107.832 51.9839 107.784 51.9359 107.928 51.9359C107.928 51.9359 108.072 51.9359 108.216 52.0799C108.408 52.2719 108.696 52.3679 108.984 52.2719C109.128 52.2239 109.272 52.0799 109.368 51.9359C109.368 51.8879 109.608 51.8879 109.704 52.2719Z" fill="#38287C"/>
<path d="M112.536 38.3038C110.856 38.6398 108.744 38.6398 107.016 38.4478C107.256 39.1198 107.832 39.9838 108.072 40.9918C108.792 44.1599 109.08 48.4319 109.272 51.072C109.272 51.072 108.936 51.744 107.784 51.216C106.104 47.0399 103.128 38.5918 103.176 36.7197C103.224 34.3677 109.032 33.8397 113.304 33.2637" fill="#453087"/>
<path d="M119.976 33.5995C121.32 34.5595 112.536 38.2556 112.536 38.2556C111.576 38.4476 110.616 38.5436 109.656 38.5436C109.56 38.3516 109.464 38.2076 109.464 38.0156C109.416 37.7756 109.416 37.4876 109.416 37.2476C109.32 36.7675 108.984 36.3355 108.552 36.0475C108.12 35.8075 107.592 35.6635 107.112 35.5675C105.912 35.3755 103.848 35.5195 103.848 35.5195C106.488 33.5515 111.912 33.3115 114.408 33.1675C114.84 33.9835 119.784 33.4555 119.976 33.5995Z" fill="#38287C"/>
<path d="M110.568 53.088C110.568 53.088 110.568 54.048 110.616 54.432C110.664 54.768 111.816 54.672 111.912 54.48C112.008 54.288 111.864 52.656 111.864 52.656" fill="#ED9C80"/>
<path d="M112.248 54.8162C112.296 55.2003 112.296 55.8723 112.296 55.8723L111.144 56.1603L111 55.9683C111 55.9683 110.664 56.2563 110.328 56.3523C110.088 56.4003 109.512 56.4963 109.272 56.4483C108.312 56.4003 107.688 56.1123 107.64 55.9683C107.496 55.3923 108.744 55.4403 109.032 55.4403C109.752 55.3923 110.28 54.8642 110.424 54.4802C110.52 54.1922 110.472 54.1442 110.616 54.1922C110.616 54.1922 110.76 54.1922 110.856 54.3842C111 54.6242 111.288 54.7683 111.576 54.6723C111.72 54.6242 111.912 54.5762 112.008 54.4322C111.96 54.3362 112.2 54.4322 112.248 54.8162Z" fill="#38287C"/>
<path d="M122.952 33.4077C122.952 33.4077 120.264 33.6957 117 33.5997C116.232 33.5997 110.472 34.7037 109.944 35.6638C109.032 37.2478 110.52 46.6559 110.376 53.3761C110.376 53.3761 111.048 53.9521 112.296 53.4241C112.584 50.112 114.552 42.3359 113.208 38.7358C116.376 39.1678 118.92 39.5518 121.848 38.6398C122.52 38.3998 123.048 37.9198 123.336 37.0558C123.576 36.1438 123.432 34.2237 122.952 33.4077Z" fill="#453087"/>
<path d="M115.464 19.3911C115.464 19.3911 114.792 19.4391 114.648 19.4391C114.072 19.4871 113.496 19.5831 112.92 19.7751C112.152 20.0631 111.576 20.7831 110.952 21.3591C110.328 21.8872 107.16 24.9592 106.536 25.0552C105.96 25.1512 100.728 21.5991 100.728 21.5991L99.4321 22.8952C99.4321 22.8952 105.096 28.1273 106.776 28.1273C107.592 28.1273 112.104 25.7752 113.544 24.8152L115.464 19.3911Z" fill="#FCA70C"/>
<path opacity="0.25" d="M106.824 27.1194C105.672 27.1674 100.344 23.1353 99.7202 22.6553L99.4802 22.8953C99.4802 22.8953 105.144 28.1274 106.824 28.1274C107.496 28.1274 110.76 26.4953 112.68 25.3913L113.16 25.1033L112.872 23.3273C112.824 23.3273 108.072 27.0234 106.824 27.1194Z" fill="#CE4A30"/>
<path d="M101.4 34.4633H114.36L112.056 26.8792C111.912 26.4472 111.528 26.1592 111.096 26.1592H99.7682C99.3362 26.1592 99.0002 26.5912 99.1442 26.9752L101.4 34.4633Z" fill="#A4A4F7"/>
<path d="M101.208 34.4633H113.976L111.672 26.8792C111.528 26.4472 111.144 26.1592 110.712 26.1592H99.3839C98.9519 26.1592 98.6159 26.5912 98.7599 26.9752L100.968 34.2233C101.016 34.4153 101.112 34.4633 101.208 34.4633Z" fill="#7A74D1"/>
<g opacity="0.25">
<path opacity="0.25" d="M121.129 23.0393C120.505 25.9673 120.361 28.2234 120.169 30.3354C117.912 31.1994 117 32.5435 114.744 33.5035C114.744 33.5035 113.016 33.2155 112.824 33.8875C112.728 34.2715 114.888 34.5595 114.888 34.5595C116.952 34.5595 122.377 33.0715 122.713 32.9755C123.097 32.8795 124.153 25.9673 124.201 22.2713C124.201 21.7433 124.201 21.1673 123.865 20.7352C123.673 20.4952 123.433 20.3512 123.193 20.2552C121.753 19.5352 120.697 19.2952 119.065 19.1992" fill="#CE4A30"/>
</g>
<path d="M115.128 33.9351C114.888 33.6471 114.456 33.5991 114.072 33.5991C113.784 33.5991 113.496 33.6471 113.208 33.6471C113.064 33.6471 112.92 33.6951 112.92 33.8391C112.92 33.9831 113.544 33.8391 113.88 33.9351C113.208 33.9831 112.536 34.0311 111.864 33.9831C111.768 33.9831 111.72 33.9831 111.624 33.9831C111.528 34.0311 111.48 34.0791 111.48 34.1751C111.48 34.2231 111.528 34.2711 111.576 34.3191C111.768 34.4631 112.008 34.5591 112.248 34.6071C113.256 34.7991 114.36 34.7511 115.272 34.3191" fill="#FFB9B0"/>
<path d="M121.033 22.9914C120.985 26.1115 120.745 27.5515 120.841 30.6716C119.257 31.0076 117.097 32.7836 114.889 33.7436C114.889 33.7436 114.745 34.1756 114.985 34.5596C115.177 34.6076 122.473 32.8316 123.049 32.3036C123.577 31.8236 124.249 25.9675 124.297 22.2234C124.297 21.6954 124.297 21.1194 123.961 20.6874C123.769 20.4474 123.529 20.3034 123.289 20.2074C121.849 19.4874 120.793 19.2474 119.161 19.1514" fill="#FCA70C"/>
<path opacity="0.45" d="M107.832 30.4793C107.88 31.1513 107.112 31.6793 106.056 31.6793C105.048 31.6793 104.184 31.1513 104.136 30.4793C104.088 29.8073 104.856 29.2793 105.912 29.2793C106.92 29.2793 107.784 29.8073 107.832 30.4793Z" stroke="#A4A4F7" stroke-miterlimit="10"/>
<path d="M107.141 30.5325C107.156 30.1617 106.652 29.841 106.016 29.8162C105.38 29.7914 104.853 30.0719 104.839 30.4428C104.824 30.8136 105.328 31.1344 105.964 31.1591C106.6 31.1839 107.127 30.9034 107.141 30.5325Z" fill="#A4A4F7"/>
<path d="M116.328 14.1588C116.28 14.0628 116.04 14.0148 115.8 14.0628C115.56 14.1108 114.84 14.1588 114.696 14.3028C114.552 14.3988 114.552 14.4948 114.504 14.4948C114.408 14.4948 114.408 14.4468 114.264 14.3508C114.12 14.2548 113.688 14.3508 113.448 14.3508C113.208 14.3988 112.92 14.4468 112.968 14.5428C112.968 14.6388 113.016 14.8788 113.064 14.8788C113.112 14.9268 113.112 14.9268 113.304 15.3588C113.4 15.5988 113.592 15.7908 113.928 15.6948C114.36 15.5988 114.36 15.1188 114.408 14.9268C114.456 14.7348 114.456 14.6868 114.552 14.6868C114.6 14.6868 114.648 14.6868 114.744 14.8788C114.84 15.0708 114.888 15.5028 115.32 15.5508C115.896 15.5988 116.136 15.4068 116.232 15.0228C116.328 14.5428 116.329 14.5428 116.377 14.4948L116.808 14.5428V14.3988C116.76 14.3988 116.376 14.2068 116.328 14.1588ZM114.264 15.1668C114.264 15.4068 114.12 15.6468 113.832 15.6948C113.592 15.7428 113.448 15.5988 113.304 15.2628C113.16 14.9748 113.16 14.7348 113.208 14.6388C113.256 14.5428 113.4 14.5428 113.736 14.5428C114.072 14.5428 114.168 14.4948 114.216 14.6388C114.264 14.7348 114.264 14.9268 114.264 15.1668ZM116.137 14.9268C116.088 15.3108 115.944 15.4548 115.608 15.5028C115.08 15.5508 114.984 15.3588 114.936 15.1188C114.84 14.8788 114.84 14.6868 114.84 14.6388C114.84 14.4948 114.984 14.4468 115.272 14.3988C115.608 14.3508 116.04 14.2548 116.088 14.3508C116.136 14.3508 116.185 14.5908 116.137 14.9268Z" fill="#483A99"/>
<path d="M119.832 13.3912C119.784 13.1032 119.736 12.8632 119.688 12.6232C119.496 11.9512 119.112 11.3751 118.488 11.0391C117.72 10.6071 116.616 10.5111 115.8 10.7511C115.32 10.8951 115.128 11.1351 114.888 11.1351C114.696 11.1351 114.456 10.9911 114.216 10.8951C112.296 10.1751 112.584 12.0952 112.824 12.6232C112.92 12.8632 113.352 13.0072 113.4 13.1032C113.448 13.1992 113.448 13.6792 113.496 13.8712C113.544 14.0632 113.736 14.1592 113.736 14.1592C113.736 14.1592 113.736 13.5352 113.736 13.4872C113.784 13.2472 113.832 13.0552 114.024 12.9112C114.216 12.7672 114.504 12.7672 114.744 12.7192C114.984 12.6712 116.088 12.9112 116.184 12.9592C116.568 13.2472 116.616 13.9672 116.76 14.3992C116.808 14.5912 116.856 14.7352 116.952 14.7352C117 14.1592 117.192 14.1592 117.576 14.3512C117.768 14.4472 117.864 14.8312 117.864 15.1192C117.864 15.5032 117.672 15.8872 117.288 15.9832C117.144 16.0312 117.576 16.7992 117.768 16.9912C117.816 17.0392 117.912 17.1352 117.96 17.1832C118.008 17.2312 118.104 17.2312 118.2 17.2792C118.296 17.3272 118.392 17.3272 118.488 17.3752C118.632 17.4232 118.728 17.4232 118.872 17.4232C119.064 17.3752 119.208 17.1352 119.256 16.9432C119.4 16.6072 119.592 16.3192 119.688 15.9832C119.832 15.1672 119.928 14.2552 119.832 13.3912Z" fill="#483A99"/>
<path d="M154.729 42.0959H130.201L133.129 39.9359V29.3277C133.129 28.4637 133.849 27.7437 134.713 27.7437H154.681C155.545 27.7437 156.265 28.4637 156.265 29.3277V40.5119C156.313 41.3759 155.641 42.0959 154.729 42.0959Z" fill="#D5D2FF"/>
<path opacity="0.45" d="M154.249 29.8071H143.017V30.8631H154.249V29.8071Z" fill="white"/>
<path opacity="0.45" d="M154.249 31.3911H143.017V32.4471H154.249V31.3911Z" fill="white"/>
<path opacity="0.45" d="M154.249 32.9756H143.017V34.0316H154.249V32.9756Z" fill="white"/>
<path opacity="0.45" d="M154.249 34.5596H143.017V35.6156H154.249V34.5596Z" fill="white"/>
<path opacity="0.45" d="M150.841 36.4316H143.017V37.4877H150.841V36.4316Z" fill="white"/>
<path d="M140.473 38.0154H136.681C135.769 38.0154 135.049 37.2954 135.049 36.3834V31.3913C135.049 30.4793 135.769 29.7593 136.681 29.7593H140.473C141.385 29.7593 142.105 30.4793 142.105 31.3913V36.3834C142.105 37.2954 141.385 38.0154 140.473 38.0154Z" fill="#A9ADFF"/>
<path opacity="0.45" d="M142.105 39.0715H135.049V39.9355H142.105V39.0715Z" fill="white"/>
<path d="M139.273 35.1355H136.729C136.585 35.1355 136.441 35.0395 136.441 34.8955L135.961 33.0715C135.913 32.8795 136.057 32.6875 136.249 32.6875H139.801C139.993 32.6875 140.185 32.8795 140.089 33.0715L139.609 34.8955C139.561 35.0395 139.417 35.1355 139.273 35.1355Z" fill="white"/>
<path d="M139.753 35.5194H136.681C136.633 35.5194 136.633 35.4714 136.633 35.4714C136.633 35.4234 136.681 35.4234 136.681 35.4234H139.705L140.761 31.6793C140.761 31.6313 140.809 31.6313 140.809 31.6313H141.481C141.529 31.6313 141.529 31.6793 141.529 31.6793C141.529 31.7273 141.481 31.7273 141.481 31.7273H140.857L139.801 35.4714C139.801 35.5194 139.753 35.5194 139.753 35.5194Z" fill="white"/>
<path d="M137.113 36.0476C137.113 36.2396 136.969 36.4316 136.729 36.4316C136.537 36.4316 136.345 36.2876 136.345 36.0476C136.345 35.8556 136.489 35.6636 136.729 35.6636C136.969 35.6636 137.113 35.8556 137.113 36.0476Z" fill="white"/>
<path d="M139.465 36.4316C139.677 36.4316 139.849 36.2597 139.849 36.0476C139.849 35.8355 139.677 35.6636 139.465 35.6636C139.253 35.6636 139.081 35.8355 139.081 36.0476C139.081 36.2597 139.253 36.4316 139.465 36.4316Z" fill="white"/>
<path d="M63.6235 27.3114H94.8721L91.128 24.5273V7.43903C91.128 6.33501 90.216 5.375 89.064 5.375H63.5755C62.4715 5.375 61.5115 6.28701 61.5115 7.43903V25.2474C61.5595 26.3994 62.4715 27.3114 63.6235 27.3114Z" fill="#D5D2FF"/>
<g opacity="0.45">
<path opacity="0.45" d="M64.2573 9.92871L78.5615 9.92871V8.58469L64.2573 8.58469V9.92871Z" fill="white"/>
<path opacity="0.45" d="M64.2573 11.9473L78.5615 11.9473V10.6032L64.2573 10.6032V11.9473Z" fill="white"/>
<path opacity="0.45" d="M64.2573 14.0142L78.5615 14.0142V12.6701L64.2573 12.6701V14.0142Z" fill="white"/>
<path opacity="0.45" d="M64.2573 15.9766L78.5615 15.9766V14.6325L64.2573 14.6325V15.9766Z" fill="white"/>
<path opacity="0.45" d="M64.2573 17.9863H78.5615V16.6423H64.2573V17.9863Z" fill="white"/>
<path opacity="0.45" d="M64.2573 21.6152H78.5615V20.2712H64.2573V21.6152Z" fill="white"/>
<path opacity="0.45" d="M64.2699 23.7598L88.6543 23.7598V22.4157L64.2699 22.4157V23.7598Z" fill="white"/>
</g>
<path d="M81.7679 19.0555H86.616C87.768 19.0555 88.68 18.1435 88.68 16.9915V10.6553C88.68 9.50332 87.768 8.59131 86.616 8.59131H81.7679C80.6159 8.59131 79.7039 9.50332 79.7039 10.6553V16.9915C79.7039 18.0955 80.6159 19.0555 81.7679 19.0555Z" fill="#C4C4F7"/>
<path opacity="0.45" d="M79.6735 21.4712H88.6497V20.3672H79.6735V21.4712Z" fill="white"/>
<path d="M83.3042 15.3598H86.5683C86.7603 15.3598 86.9043 15.2158 86.9523 15.0718L87.5763 12.7678C87.6243 12.5278 87.4323 12.2397 87.1923 12.2397H82.6802C82.3922 12.2397 82.2002 12.4798 82.2962 12.7678L82.9202 15.0718C82.9682 15.2158 83.1122 15.3598 83.3042 15.3598Z" fill="white"/>
<path d="M82.7281 15.8876H86.6642C86.7122 15.8876 86.7602 15.8396 86.7602 15.7916C86.7602 15.7436 86.7122 15.6956 86.6642 15.6956H82.8241L81.4801 10.9435C81.4801 10.8955 81.4321 10.8955 81.3841 10.8955H80.5201C80.4721 10.8955 80.4241 10.9435 80.4241 10.9915C80.4241 11.0395 80.4721 11.0875 80.5201 11.0875H81.3361L82.6801 15.8396C82.6321 15.8396 82.6801 15.8876 82.7281 15.8876Z" fill="white"/>
<path d="M86.0403 16.5117C86.0403 16.7518 86.2323 16.9918 86.5203 16.9918C86.7603 16.9918 87.0003 16.7998 87.0003 16.5117C87.0003 16.2237 86.8083 16.0317 86.5203 16.0317C86.2323 16.0317 86.0403 16.2717 86.0403 16.5117Z" fill="white"/>
<path d="M82.5842 16.5117C82.5842 16.7518 82.7762 16.9918 83.0642 16.9918C83.3042 16.9918 83.5442 16.7998 83.5442 16.5117C83.5442 16.2237 83.3522 16.0317 83.0642 16.0317C82.8242 16.0317 82.5842 16.2717 82.5842 16.5117Z" fill="white"/>
<path d="M135.913 117.265C143.521 117.265 149.689 116.62 149.689 115.825C149.689 115.03 143.521 114.385 135.913 114.385C128.304 114.385 122.136 115.03 122.136 115.825C122.136 116.62 128.304 117.265 135.913 117.265Z" fill="#EAE6FF"/>
<path d="M128.521 113.761C128.425 114.001 127.849 114.529 127.081 114.865C126.313 115.201 124.681 115.345 125.593 115.681C126.505 115.969 127.561 115.777 128.089 115.729C128.617 115.633 129.145 115.633 129.769 115.633C130.585 115.633 130.585 115.585 130.489 114.625C130.297 113.329 128.857 113.041 128.521 113.761Z" fill="#9AA3F4"/>
<path d="M143.545 113.329C143.497 113.569 143.881 114.385 143.209 114.961C142.537 115.537 141.049 116.161 142.057 116.161C143.065 116.161 144.025 115.969 144.505 115.681C145.033 115.441 144.601 115.057 145.225 114.865C146.041 114.625 145.897 114.001 145.465 113.617C144.889 112.369 143.689 112.465 143.545 113.329Z" fill="#9AA3F4"/>
<path d="M140.377 87.0725C140.377 87.0725 142.345 81.2644 136.729 76.4644C136.729 76.4644 133.705 77.6644 131.305 77.8084C129.385 77.9044 128.425 77.7604 128.425 77.7604C128.425 77.7604 128.281 82.9445 128.281 85.7285L140.377 87.0725Z" fill="#4A41A3"/>
<path d="M127.849 96.7687C127.753 94.1767 130.537 94.5127 131.593 96.4327C133.753 100.465 130.777 109.681 130.393 114.097C130.009 114.241 129.289 114.385 128.905 114.193C128.617 114.049 128.473 113.713 128.473 113.713C128.569 108.337 127.945 99.5528 127.849 96.7687Z" fill="#4A41A3"/>
<path d="M131.497 97.1527C131.161 98.2087 127.561 99.3127 127.849 95.4726C127.993 93.7446 128.329 84.2884 128.377 83.3764C128.425 82.4644 128.617 81.1204 129.049 80.9764C131.257 80.1604 135.145 83.0404 134.569 86.4485C134.185 88.7045 132.169 94.9446 131.497 97.1527Z" fill="#4A41A3"/>
<path d="M137.161 98.6408C136.297 96.1928 139.129 95.7608 140.713 97.2488C144.457 100.801 144.601 109.105 145.513 113.425C144.985 113.761 144.169 113.905 143.881 113.905C143.593 113.905 143.449 113.665 143.449 113.665C141.913 108.529 138.073 101.233 137.161 98.6408Z" fill="#4A41A3"/>
<path d="M140.857 97.8248C140.953 98.9288 137.977 101.233 136.777 97.5368C136.249 95.9047 133.993 86.2086 133.753 85.3446C133.465 84.4805 133.561 82.6565 133.897 82.3685C135.625 80.7845 139.513 82.1765 140.281 85.5846C140.761 87.8406 140.665 95.5207 140.857 97.8248Z" fill="#4A41A3"/>
<path d="M125.448 55.4881C125.544 55.3921 125.641 55.2961 125.737 55.1521C126.457 54.2401 126.553 53.4241 127.225 52.368C127.321 52.224 127.465 51.792 127.705 51.456C127.945 51.072 128.617 50.688 128.761 50.592C129.049 50.448 128.809 51.12 128.809 51.12C128.809 51.12 129.049 50.736 129.337 50.784C129.433 50.784 129.433 51.36 129.433 51.456C129.433 52.272 129.241 53.04 128.905 53.7601C128.809 53.9041 128.713 54.0961 128.713 54.2881C128.953 54.2881 129.145 54.1441 129.337 54.0001C129.529 53.8561 129.769 53.7121 130.009 53.8081C129.961 53.9041 129.913 54.0001 129.865 54.0961C129.577 54.6241 129.289 55.2001 128.713 55.4401C128.377 55.5841 128.041 55.6321 127.705 55.7761C127.129 56.0641 126.841 56.7841 126.265 57.0721" fill="#F2A181"/>
<path d="M128.808 55.6799L127.128 54.9599C126.984 54.9119 126.888 54.7199 126.984 54.5759L128.472 50.9759C128.52 50.8319 128.712 50.7359 128.856 50.8319L130.537 51.5519C130.681 51.5999 130.777 51.7919 130.681 51.9359L129.192 55.5359C129.144 55.6799 128.952 55.7279 128.808 55.6799Z" fill="#5E5DBB"/>
<path d="M130.614 51.8261L128.71 51.0295L127.154 54.7495L129.058 55.546L130.614 51.8261Z" fill="#B4B4DB"/>
<path d="M130.633 59.1361C130.633 59.1361 129.193 59.2321 127.897 59.6161C125.929 60.1921 125.257 61.1041 124.585 61.4881C125.881 59.8081 127.369 56.304 127.369 56.304C127.369 56.304 125.593 54.864 125.401 55.2C125.209 55.536 117.817 64.1762 118.009 65.6162C118.105 66.1922 118.969 66.7682 119.737 66.7202C121.849 66.6722 124.249 65.9042 126.841 65.0402C127.945 64.6562 128.329 65.4722 128.329 65.4722" fill="#7A74D1"/>
<path d="M124.585 61.4883C124.585 61.4883 123.673 63.3603 123.385 63.5043C123.097 63.6483 124.057 63.1203 124.585 62.5923C125.113 62.0643 125.833 60.6243 125.833 60.6243C125.545 60.7203 124.585 61.4883 124.585 61.4883Z" fill="#6960C4"/>
<path d="M127.513 52.3682C127.609 52.4162 127.609 52.5602 127.657 52.6562C127.705 53.0882 127.801 53.5202 127.609 53.9042C127.513 54.1442 127.321 54.3842 127.129 54.5282C126.889 54.7202 126.649 54.9122 126.361 55.0562" fill="#F2A181"/>
<path d="M130.681 49.248C130.201 49.392 129.912 50.0161 129.768 50.4481C129.576 50.9761 129.48 51.5521 129.384 52.0801C129.336 52.4641 129.288 52.8961 129.48 53.2321C129.576 53.4241 129.673 53.5681 129.817 53.7121C129.865 53.8081 129.961 53.9041 130.057 53.9521C130.153 54.0001 130.248 54.0481 130.392 54.0001C130.536 53.9521 130.584 53.7601 130.632 53.6161C130.92 52.5601 131.209 51.5521 131.833 50.6401" fill="#170D54"/>
<path d="M130.104 52.56C130.104 52.224 129.768 52.032 129.432 52.368C129.192 52.656 129.096 53.184 129.096 53.568C129.096 54.048 129.432 54.144 129.768 54.192" fill="#F2A181"/>
<path d="M126.793 60.8642C127.417 60.1442 129.337 58.9922 131.929 59.0882C133.705 59.1362 138.553 59.4242 139.129 60.6242C139.417 61.2482 139.705 67.4883 139.321 69.6483C139.033 71.2804 138.217 75.2644 138.217 76.2245C138.217 77.1845 138.745 77.6165 138.505 77.9045C137.977 78.5285 134.233 78.8165 132.505 78.8165C130.969 78.8165 128.329 78.3845 128.185 77.9045C127.993 77.1845 128.473 77.1845 128.569 76.4165C128.617 75.6484 128.809 70.6084 128.569 69.7923C128.041 68.3043 127.801 65.9043 127.417 64.8003C127.033 63.9362 126.217 61.5362 126.793 60.8642Z" fill="#7A74D1"/>
<path d="M137.929 65.9044C138.121 66.2884 139.369 68.3044 139.369 68.3044L139.417 68.5444C139.369 68.9764 139.321 69.3124 139.273 69.6004C138.985 71.2325 138.169 75.2165 138.169 76.1765C138.169 77.1366 138.649 77.5206 138.457 77.8566C138.025 78.4326 131.017 79.7286 131.353 78.1446C131.401 78.0006 137.209 73.5365 137.257 73.3925C137.545 72.0965 137.785 71.1845 137.881 70.2724C138.217 68.0164 137.737 65.5204 137.929 65.9044Z" fill="#6960C4"/>
<path d="M130.536 56.8323C130.536 56.8323 130.536 58.8483 130.44 58.9443C130.344 59.0403 129.96 59.2323 129.96 59.2323C129.96 59.2323 130.248 61.0083 130.68 60.8643C131.112 60.7203 134.041 59.2803 134.041 59.2803C134.041 59.2803 133.609 59.0883 133.609 58.9443C133.609 58.8003 133.993 55.5842 133.993 55.5842" fill="#FFBE9D"/>
<path d="M132.553 49.488C132.121 49.584 131.017 49.392 130.681 49.824C130.393 50.3041 130.105 51.4081 129.961 51.6961C129.721 52.3201 129.577 52.9921 129.433 53.6161C129.193 54.4321 128.857 55.9681 129.673 56.6402C129.913 56.8322 130.009 56.9282 130.297 56.9762C130.681 57.0242 131.065 57.1202 131.449 57.2162C132.025 57.3122 132.697 57.4562 133.273 57.2642C134.041 57.0242 134.473 55.9201 134.713 55.2001L135.865 50.9761L132.553 49.488Z" fill="#FFBE9D"/>
<path d="M130.489 61.6802C130.489 61.6802 130.297 69.6003 130.009 74.4004L131.161 75.9844L131.977 73.9684C131.977 73.9684 132.313 68.1603 131.209 61.6802H130.489Z" fill="#3B2E7A"/>
<path d="M130.201 60.9601L130.249 61.0561C130.297 61.2481 130.393 61.4401 130.489 61.6322L131.209 61.6801C131.209 61.6801 131.689 61.4401 131.737 61.1521C131.785 60.8641 130.921 60.4321 130.921 60.4321L130.825 60.4801C130.585 60.6241 130.393 60.7681 130.201 60.9601Z" fill="#3B2E7A"/>
<path d="M133.705 58.416C133.705 58.416 134.185 58.704 134.521 59.232C134.137 60.0961 133.321 61.5841 132.409 62.2561C131.977 61.1041 130.969 60.4321 130.969 60.4321C130.969 60.4321 133.417 60 133.705 58.416Z" fill="white"/>
<path d="M130.921 60.4801C130.921 60.4801 130.009 60.8161 129.481 61.8241C129.481 61.8241 129.289 60.4801 129.673 59.3281C129.673 59.3281 130.249 58.5601 130.441 58.5601C130.393 59.5201 130.921 60.4801 130.921 60.4801Z" fill="white"/>
<path d="M131.065 78.1445C130.2 78.2885 129.864 78.6245 129.336 79.1045C129.288 79.1525 129.24 79.2005 129.24 79.2485C129.24 79.2965 129.336 79.3446 129.384 79.3446C129.816 79.3926 129.864 79.1525 130.248 79.0085C130.488 78.9125 130.777 78.7685 131.017 78.6725" fill="#F2A181"/>
<path d="M128.04 71.7125L131.16 81.7926C131.256 82.0806 131.112 82.2727 130.824 82.3207L124.296 82.8967C124.056 82.8967 123.816 82.7047 123.768 82.4647L120.408 72.5765C120.312 72.2885 120.696 71.9045 120.984 71.9045L127.512 71.3284C127.704 71.2804 127.944 71.4725 128.04 71.7125Z" fill="#E9E6FF"/>
<path d="M127.8 71.9525L130.872 81.8407C130.968 82.1287 130.824 82.3207 130.536 82.3687L124.008 82.9447C123.768 82.9447 123.528 82.7527 123.48 82.5127L120.408 72.6245C120.312 72.3365 120.456 72.1445 120.744 72.0965L127.272 71.5205C127.512 71.5205 127.752 71.7125 127.8 71.9525Z" fill="#E0D9FF"/>
<path d="M122.568 71.6642L122.808 72.5282L125.88 72.2402L125.64 71.3762L122.568 71.6642Z" fill="white"/>
<path d="M123.192 70.8484C123.24 71.0404 123.48 71.8084 123.48 71.8084L124.92 71.6644L124.632 70.7044C124.488 70.2724 124.056 69.9844 123.672 69.9844C123.24 70.0324 123.048 70.4164 123.192 70.8484ZM123.48 70.8004C123.384 70.5604 123.528 70.3684 123.768 70.3204C124.008 70.3204 124.248 70.4644 124.296 70.7044C124.392 70.9444 124.248 71.1364 124.008 71.1844C123.816 71.2324 123.576 71.0404 123.48 70.8004Z" fill="white"/>
<path d="M133.561 77.4724C132.888 77.6164 131.064 78.1444 130.872 78.2404C130.632 78.3364 129.864 78.9124 129.72 79.1044C129.048 79.7764 129.384 80.1125 129.096 81.0725C129.096 81.1205 129.096 81.1685 129.096 81.2165C129.096 81.3125 129.24 81.4085 129.384 81.3125C129.432 81.4565 129.672 81.3605 129.768 81.2165C129.768 81.3125 129.912 81.3605 130.104 81.2645C130.2 81.2165 130.2 81.2165 130.44 80.9765C130.632 80.8325 130.824 80.6885 131.208 80.5445C131.448 80.4485 131.736 80.3525 131.928 80.2085C132.216 80.0164 132.696 79.9685 132.937 79.2004C132.985 79.0084 133.177 78.9124 133.321 78.8164C133.705 78.5764 134.089 78.3364 134.425 78.0964" fill="#FFBE9D"/>
<path d="M137.737 64.5601C138.025 65.6162 139.225 72.8163 139.225 72.8163L132.408 77.7604L132.984 79.2484C132.984 79.2484 141.145 76.5124 141.817 74.6403C142.441 72.7683 142.441 64.3201 140.185 61.3441C139.465 60.3841 138.025 59.9041 138.025 59.9041" fill="#7A74D1"/>
<path d="M130.777 80.0647C130.585 80.2567 130.393 80.4007 130.249 80.5927C130.105 80.7847 129.961 80.9767 129.769 81.1207C129.865 80.8807 130.009 80.6887 130.201 80.4967C130.297 80.4007 130.393 80.3047 130.489 80.2567C130.537 80.1607 130.633 80.1127 130.777 80.0647Z" fill="#F2A181"/>
<path d="M130.393 79.5845C130.249 79.6805 130.201 79.8245 130.105 79.9205C130.009 80.0645 129.913 80.1605 129.865 80.3045C129.721 80.5925 129.577 80.8805 129.385 81.1205C129.481 80.8325 129.625 80.5445 129.769 80.2565C129.865 80.1125 129.961 79.9685 130.057 79.8725C130.153 79.7765 130.249 79.6805 130.393 79.5845Z" fill="#F2A181"/>
<path d="M129.961 79.2485C129.865 79.3925 129.769 79.4885 129.673 79.6326C129.577 79.7286 129.529 79.8725 129.481 80.0166L129.145 80.8326C129.145 80.5446 129.241 80.2086 129.385 79.9685C129.433 79.8245 129.529 79.6805 129.625 79.5845C129.721 79.4405 129.865 79.3445 129.961 79.2485Z" fill="#F2A181"/>
<path d="M135.145 54.4322C134.857 54.2882 134.665 54.0962 134.521 54.3842C134.425 54.5282 134.377 54.7202 134.233 54.7682C134.089 54.8162 133.897 54.6722 133.897 54.5282C133.849 54.3842 133.897 54.1922 133.945 54.0482C134.041 53.7122 134.137 53.3762 134.281 52.9921C134.377 52.6561 134.473 52.2721 134.377 51.9361C134.329 51.7921 134.185 51.6481 134.041 51.5041C133.609 51.1201 133.033 50.9281 132.457 50.8321C131.881 50.7361 131.305 50.6401 130.729 50.4961C130.489 50.4001 130.249 50.3041 130.057 50.1601C129.769 49.9201 129.577 49.4881 129.577 49.1041C129.577 48.7201 129.721 48.3361 129.913 48.0001C129.961 48.1441 130.009 48.2881 130.105 48.3841C130.153 48.1921 130.297 48.0481 130.441 47.9041C130.585 48.8161 134.521 48.5281 135.433 48.9121C136.057 49.2001 136.585 49.3921 136.585 50.4001C136.585 50.4481 136.681 50.4961 136.729 50.5441C137.305 51.0721 137.545 51.6961 137.593 52.6081C137.689 53.7602 137.017 54.9602 136.345 55.9202C136.201 56.1602 136.105 56.3042 135.865 56.4962C135.625 56.6882 135.241 56.7362 134.953 56.6882C134.665 56.6402 134.137 56.6402 134.089 56.3522C134.089 56.1602 134.521 55.7762 134.665 55.6322" fill="#3B2E7A"/>
<path d="M134.137 55.4881C134.137 55.4881 134.089 55.6801 134.233 55.8241C134.329 55.9681 134.569 55.9201 134.713 55.8721C135.145 55.7281 135.433 55.3441 135.481 54.9121C135.577 54.432 135.289 53.904 134.857 54.048C134.617 54.144 134.425 54.432 134.425 54.72" fill="#FFBE9D"/>
<path d="M130.537 57.0242L131.785 57.2642C131.785 57.2642 131.353 57.7442 130.537 57.7442" fill="#F2A181"/>
<g opacity="0.3">
<g opacity="0.3">
<g opacity="0.3">
<path opacity="0.3" d="M32.0391 35.5198L33.7191 36.3839L32.9031 34.3198" fill="#3939D3"/>
</g>
<path opacity="0.3" d="M26.8547 32.8796C26.8547 34.7516 28.4388 36.2396 30.4068 36.2396C32.3748 36.2396 33.9589 34.7516 33.9589 32.8796C33.9589 31.0076 32.3748 29.5195 30.4068 29.5195C28.4388 29.5195 26.8547 31.0076 26.8547 32.8796Z" fill="#3939D3"/>
</g>
<path opacity="0.3" d="M29.4949 31.7756V34.1756C29.4949 34.3676 29.6869 34.5116 29.8789 34.4156L31.9429 33.2156C32.0869 33.1196 32.0869 32.8796 31.9429 32.7836L29.8789 31.5836C29.7349 31.4876 29.4949 31.5836 29.4949 31.7756Z" fill="#FEFEFE"/>
</g>
<g opacity="0.3">
<g opacity="0.3">
<g opacity="0.3">
<path opacity="0.3" d="M148.297 61.0081L146.617 61.8721L147.481 59.8081" fill="#3939D3"/>
</g>
<path opacity="0.3" d="M153.529 58.3681C153.529 60.2401 151.945 61.7282 149.977 61.7282C148.009 61.7282 146.425 60.2401 146.425 58.3681C146.425 56.4961 148.009 55.0081 149.977 55.0081C151.945 55.0081 153.529 56.4961 153.529 58.3681Z" fill="#3939D3"/>
</g>
<g opacity="0.3">
<g opacity="0.3">
<g opacity="0.3">
<path opacity="0.3" d="M149.353 60.0003C150.121 60.0003 150.889 60.0003 151.609 59.9523C151.849 59.9523 152.041 59.6163 151.753 59.4723C151.849 59.4243 151.993 59.3763 152.041 59.2323C152.089 59.1363 152.041 58.9443 151.897 58.9443C152.185 58.9923 152.281 58.6083 152.041 58.4643C152.137 58.3683 152.233 58.2723 152.281 58.1283C152.281 57.9843 152.233 57.8403 152.137 57.7923C152.041 57.7443 151.945 57.7443 151.849 57.7443C151.513 57.7443 151.225 57.7443 150.889 57.7443C150.985 57.2643 150.985 56.7362 150.745 56.3522C150.649 56.2082 150.457 56.0642 150.313 56.1602C150.169 56.2562 150.217 56.4962 150.217 56.6402C150.265 57.2163 149.881 57.8403 149.353 58.1283C149.305 58.0803 149.353 59.3283 149.353 60.0003Z" fill="#FEFEFE"/>
</g>
</g>
<path opacity="0.3" d="M149.017 58.0803H147.865V60.0004H149.017V58.0803Z" fill="#FEFEFE"/>
</g>
</g>
<g opacity="0.3">
<g opacity="0.3">
<g opacity="0.3">
<path opacity="0.3" d="M94.5358 31.9192L95.7838 30.5752L94.1038 30.9112" fill="#3939D3"/>
</g>
<path opacity="0.3" d="M90.0237 32.2073C90.0237 33.5513 91.1757 34.6554 92.6157 34.6554C94.0557 34.6554 95.2078 33.5513 95.2078 32.2073C95.2078 30.8633 94.0557 29.7593 92.6157 29.7593C91.1757 29.8073 90.0237 30.8633 90.0237 32.2073Z" fill="#3939D3"/>
</g>
<g opacity="0.3">
<g opacity="0.3">
<g opacity="0.3">
<path opacity="0.3" d="M92.0881 33.4075C92.6161 33.4075 93.0962 33.4075 93.5762 33.4075C93.7202 33.4075 93.8642 33.1675 93.6722 33.0715C93.7682 33.0235 93.8162 32.9755 93.8642 32.9275C93.9122 32.8315 93.8642 32.7355 93.7682 32.6875C93.9602 32.7355 94.0082 32.4475 93.8642 32.3515C93.9602 32.3035 94.0082 32.2075 94.0082 32.1115C94.0082 32.0155 94.0082 31.9195 93.9122 31.8715C93.8642 31.8235 93.7682 31.8235 93.7202 31.8235C93.5282 31.8235 93.2882 31.8235 93.0962 31.8235C93.1442 31.4875 93.1922 31.1035 93.0002 30.8155C92.9522 30.7195 92.8082 30.6235 92.7122 30.6715C92.6162 30.7195 92.6161 30.9115 92.6642 31.0075C92.6642 31.4395 92.4721 31.8715 92.0881 32.0635C92.0881 32.0155 92.0881 32.9275 92.0881 33.4075Z" fill="#FEFEFE"/>
</g>
</g>
<path opacity="0.3" d="M91.8959 32.0156H91.1279V33.4077H91.8959V32.0156Z" fill="#FEFEFE"/>
</g>
</g>
<g opacity="0.3">
<path opacity="0.3" d="M106.536 14.1592C107.064 13.4872 107.352 12.6712 107.352 11.8072C107.352 9.69517 105.672 8.01514 103.56 8.01514C101.448 8.01514 99.7681 9.69517 99.7681 11.8072C99.7681 13.9192 101.448 15.5993 103.56 15.5993C104.328 15.5993 105.048 15.3593 105.672 14.9753L107.16 15.7433L106.536 14.1592Z" fill="#3939D3"/>
<path opacity="0.3" d="M101.976 10.7513C102.36 10.4153 102.936 10.4153 103.272 10.7513L103.512 10.9913L103.752 10.7513C104.136 10.3673 104.712 10.4153 105.048 10.7513C105.384 11.1353 105.384 11.7113 105.048 12.0473L104.136 12.9593C103.992 13.1033 103.8 13.1993 103.608 13.1993C103.32 13.2473 103.032 13.1513 102.792 12.9113L101.88 11.9993C101.592 11.6633 101.592 11.0873 101.976 10.7513Z" fill="white"/>
</g>
</svg>
