<svg width="165" height="134" viewBox="0 0 165 134" fill="none" xmlns="http://www.w3.org/2000/svg">
<g opacity="0.1">
<g opacity="0.1">
<path opacity="0.1" d="M8.22673 61.3562C2.79626 64.5173 2.75573 69.583 8.14568 72.7035C13.5356 75.8645 22.2892 75.8645 27.7602 72.7035C33.1907 69.583 33.2312 64.4767 27.8413 61.3562C22.4513 58.2357 13.6572 58.2357 8.22673 61.3562Z" fill="black"/>
</g>
</g>
<path d="M7.01108 40.6474C2.79638 43.079 2.79638 47.01 6.97055 49.401C11.1447 51.8326 17.9126 51.8326 22.1273 49.401C26.342 46.9694 26.342 43.0384 22.1678 40.6474C17.9936 38.2158 11.2258 38.2158 7.01108 40.6474Z" fill="#E53399"/>
<path d="M6.97055 49.401C11.1447 51.8326 17.9126 51.8326 22.1273 49.401C26.342 46.9694 26.342 43.0384 22.1678 40.6474C17.9936 38.2158 11.2258 38.2158 7.01107 40.6474C2.8369 43.079 2.79638 47.01 6.97055 49.401ZM8.38896 41.4174C11.8337 39.4316 17.3857 39.4316 20.7899 41.4174C24.1941 43.4032 24.1941 46.6452 20.7494 48.631C17.3047 50.6168 11.7526 50.6168 8.3079 48.631C4.94425 46.6452 4.94425 43.4032 8.38896 41.4174Z" fill="#FF76C4"/>
<path d="M20.7899 29.3408C20.7899 29.3813 20.8304 29.4219 20.8304 29.4624C20.8304 29.4624 20.8304 29.4624 20.8304 29.5029C20.8304 29.5434 20.871 29.584 20.9115 29.6245C20.9115 29.665 20.952 29.665 20.9925 29.7056C21.0331 29.7461 21.0331 29.7461 21.0736 29.7461C21.1546 29.8271 21.2762 29.8677 21.3978 29.9487C21.3978 29.9487 21.4383 29.9487 21.4383 29.9892C21.5599 30.0298 21.6815 30.0703 21.8436 30.0703C22.0057 30.0703 22.1273 30.1108 22.2894 30.0703C22.4109 30.0703 22.573 30.0298 22.6946 29.9892C22.9378 29.8677 23.0594 29.7461 23.0999 29.5434L19.0068 60.789C18.9662 60.9511 18.8447 61.1132 18.6015 61.2347C18.561 61.2753 18.4799 61.2753 18.4394 61.2753C18.3989 61.2753 18.3583 61.3158 18.2773 61.3158C18.2368 61.3158 18.2368 61.3158 18.1962 61.3158H18.1557C18.1152 61.3158 18.0747 61.3158 18.0341 61.3158C17.9936 61.3158 17.9531 61.3158 17.9126 61.3158C17.872 61.3158 17.8315 61.3158 17.791 61.3158H17.7505C17.7099 61.3158 17.7099 61.3158 17.6694 61.3158C17.6289 61.3158 17.5883 61.3158 17.5478 61.2753C17.5073 61.2753 17.4668 61.2347 17.3857 61.2347C17.3857 61.2347 17.3452 61.2347 17.3452 61.1942C17.3047 61.1942 17.3047 61.1942 17.3047 61.1942C17.2641 61.1942 17.2236 61.1537 17.2236 61.1537C17.1426 61.1132 17.0615 61.0726 16.9805 60.9916L16.9399 60.9511C16.8994 60.9105 16.8994 60.9105 16.8589 60.87C16.8184 60.8295 16.8184 60.8295 16.7778 60.789C16.7778 60.789 16.7778 60.7889 16.7778 60.7484V60.7079C16.7778 60.6674 16.7778 60.6674 16.7373 60.6269V60.5863C16.7373 60.5458 16.7373 60.5458 16.7373 60.5053L20.8304 29.2598C20.7899 29.2598 20.7899 29.3003 20.7899 29.3408Z" fill="#73C139"/>
<path d="M21.195 28.7735C20.7086 28.9761 20.6276 29.3814 21.0734 29.7056C21.4786 30.0298 22.2081 30.1108 22.6944 29.9082C23.1807 29.7056 23.2213 29.3003 22.816 28.9761C22.4107 28.6924 21.6813 28.5708 21.195 28.7735Z" fill="#4D9B12"/>
<path d="M14.1031 27.8818C14.1031 27.9224 14.1437 27.9629 14.1437 28.0034C14.1437 28.0034 14.1437 28.0034 14.1437 28.0439C14.1437 28.0845 14.1842 28.125 14.2247 28.1655C14.2652 28.206 14.2652 28.206 14.3058 28.2466C14.3463 28.2466 14.3463 28.2871 14.3868 28.2871C14.4679 28.3681 14.5894 28.4087 14.711 28.4897C14.711 28.4897 14.7515 28.4897 14.7515 28.5302C14.8731 28.5708 14.9947 28.6113 15.1568 28.6113C15.3189 28.6518 15.4405 28.6518 15.5621 28.6113C15.7242 28.6113 15.8457 28.5708 15.9673 28.5302C16.2105 28.4087 16.3726 28.2871 16.3726 28.0845L12.2795 59.33C12.2389 59.4921 12.1174 59.6542 11.8742 59.7758C11.8337 59.8163 11.7526 59.8163 11.7121 59.8163C11.6716 59.8163 11.631 59.8568 11.55 59.8568C11.5095 59.8568 11.5095 59.8568 11.4689 59.8568H11.4284C11.3879 59.8568 11.3474 59.8568 11.3068 59.8568C11.2663 59.8568 11.2258 59.8568 11.1853 59.8568C11.1447 59.8568 11.1042 59.8568 11.0637 59.8568H11.0232C10.9826 59.8568 10.9826 59.8568 10.9421 59.8568C10.9016 59.8568 10.8611 59.8568 10.8205 59.8163C10.78 59.8163 10.7395 59.7758 10.6584 59.7758C10.6179 59.7758 10.6179 59.7758 10.5774 59.7352H10.5368C10.4963 59.7352 10.4558 59.6947 10.4558 59.6947C10.3747 59.6542 10.2937 59.6136 10.2126 59.5326L10.1721 59.4921C10.1316 59.4515 10.1316 59.4515 10.0911 59.411C10.0505 59.3705 10.0505 59.3705 10.01 59.33C10.01 59.33 10.01 59.33 10.01 59.2894V59.2489C10.01 59.2084 9.96948 59.2084 9.96948 59.1679V59.1273C9.96948 59.0868 9.96948 59.0868 9.96948 59.0463L14.0626 27.8008C14.0626 27.8008 14.1031 27.8413 14.1031 27.8818Z" fill="#73C139"/>
<path d="M14.5085 27.3551C14.0222 27.5577 13.9816 27.963 14.3869 28.2872C14.7922 28.6114 15.5216 28.6925 16.0079 28.4898C16.4943 28.2872 16.5753 27.8819 16.1295 27.5577C15.7243 27.2335 14.9948 27.1525 14.5085 27.3551Z" fill="#4D9B12"/>
<path d="M2.95849 31.2048C2.99902 31.2453 3.03955 31.2859 3.03955 31.2859C3.08007 31.3264 3.1206 31.3264 3.16112 31.3669C3.20165 31.3669 3.24218 31.4074 3.24218 31.4074C3.2827 31.4074 3.2827 31.448 3.32323 31.448C3.44481 31.4885 3.56638 31.4885 3.68796 31.4885C3.72849 31.4885 3.72849 31.4885 3.72849 31.4885C3.85007 31.4885 4.01217 31.448 4.13375 31.4074C4.25533 31.3669 4.41743 31.2859 4.53901 31.2453C4.66058 31.1643 4.78216 31.0832 4.86321 31.0022C5.02532 30.7995 5.10637 30.5969 5.02532 30.4348L14.7515 60.3835C14.7921 60.5456 14.7515 60.7482 14.5894 60.9508C14.5489 60.9914 14.5084 61.0319 14.4679 61.0724C14.4273 61.113 14.3868 61.113 14.3463 61.1535C14.3058 61.1535 14.3058 61.194 14.3058 61.194H14.2652C14.2247 61.194 14.1842 61.2345 14.1437 61.2345C14.1031 61.2345 14.0626 61.2751 14.0221 61.2751C13.9816 61.2751 13.941 61.3156 13.9005 61.3156H13.86H13.8194C13.7789 61.3156 13.7384 61.3561 13.6979 61.3561C13.6573 61.3561 13.6168 61.3561 13.5358 61.3966C13.4952 61.3966 13.4952 61.3966 13.4547 61.3966H13.4142C13.3737 61.3966 13.3331 61.3966 13.2926 61.3966C13.2116 61.3966 13.09 61.3966 13.0089 61.3561C12.9684 61.3561 12.9684 61.3561 12.9279 61.3156C12.8874 61.3156 12.8468 61.3156 12.8468 61.2751C12.8063 61.2751 12.7658 61.2345 12.7658 61.2345C12.7658 61.2345 12.7252 61.2345 12.7252 61.194L12.6847 61.1535C12.6847 61.1535 12.6847 61.1535 12.6442 61.113C12.6442 61.0724 12.6037 61.0724 12.6037 61.0319L2.91797 31.0832C2.91797 31.1238 2.95849 31.1643 2.95849 31.2048Z" fill="#73C139"/>
<path d="M3.08001 30.516C2.71528 30.9212 2.83686 31.3265 3.36369 31.4076C3.89053 31.5291 4.57947 31.286 4.94421 30.9212C5.30894 30.516 5.18736 30.1107 4.66052 30.0297C4.13369 29.9081 3.44475 30.1107 3.08001 30.516Z" fill="#4D9B12"/>
<path d="M13.2114 31.3264C13.2114 31.3264 13.252 31.3264 13.2114 31.3264C13.252 31.3669 13.252 31.4075 13.2925 31.448C13.333 31.4885 13.3735 31.529 13.4141 31.529C13.4546 31.529 13.4951 31.5696 13.4951 31.5696C13.5356 31.5696 13.5356 31.6101 13.5762 31.6101C13.6977 31.6506 13.8193 31.6911 13.9409 31.6911H13.9814C14.103 31.6911 14.2651 31.6911 14.3867 31.6911C14.5488 31.6911 14.6704 31.6506 14.7919 31.5696C14.9135 31.529 15.0351 31.448 15.1567 31.3669C15.3593 31.2048 15.4404 31.0022 15.4404 30.8401L20.1819 62.0045C20.2224 62.1666 20.1008 62.3693 19.8982 62.5314C19.8577 62.5719 19.8172 62.6124 19.7361 62.653C19.6956 62.6935 19.6551 62.6935 19.6145 62.734C19.574 62.734 19.574 62.7745 19.5335 62.7745H19.4929C19.4524 62.7745 19.4119 62.8151 19.3714 62.8151C19.3308 62.8151 19.2903 62.8556 19.2498 62.8556C19.2093 62.8556 19.1687 62.8556 19.1282 62.8961H19.0877C19.0877 62.8961 19.0472 62.8961 19.0066 62.8961C18.9661 62.8961 18.9256 62.8961 18.8851 62.8961C18.8445 62.8961 18.804 62.8961 18.723 62.8961C18.6824 62.8961 18.6824 62.8961 18.6419 62.8961H18.6014C18.5609 62.8961 18.5203 62.8961 18.4798 62.8961C18.3987 62.8961 18.2772 62.8556 18.1961 62.8151C18.1556 62.8151 18.1556 62.7745 18.1151 62.7745C18.0745 62.7745 18.034 62.734 18.034 62.734C17.9935 62.6935 17.9935 62.6935 17.953 62.653C17.953 62.653 17.953 62.653 17.9124 62.6124L17.8719 62.5719V62.5314C17.8719 62.4909 17.8719 62.4909 17.8719 62.4503L13.2114 31.2048C13.2114 31.2453 13.2114 31.2859 13.2114 31.3264Z" fill="url(#paint0_linear)"/>
<path d="M13.4548 30.6782C13.0495 31.0024 13.09 31.4482 13.5764 31.6103C14.0627 31.8129 14.7921 31.6913 15.1974 31.3671C15.6027 31.0429 15.5621 30.5971 15.0758 30.435C14.5895 30.2324 13.86 30.3539 13.4548 30.6782Z" fill="#FFE85F"/>
<path d="M9.92871 28.1653C9.92871 28.2058 9.96923 28.2058 9.92871 28.1653C9.92871 28.2058 9.96923 28.2463 9.96923 28.2869C10.0098 28.3274 10.0098 28.3679 10.0503 28.3679C10.0908 28.4084 10.0908 28.4084 10.1313 28.449C10.1719 28.449 10.1719 28.4895 10.2124 28.4895C10.334 28.5705 10.4555 28.6111 10.5771 28.6111H10.6176C10.7392 28.6516 10.9013 28.6516 11.0229 28.6516C11.185 28.6516 11.3066 28.6516 11.4282 28.6111C11.5497 28.5705 11.7119 28.53 11.7929 28.449C12.0361 28.3274 12.1171 28.1248 12.1171 27.9626L12.4818 59.4918C12.4818 59.6539 12.3603 59.8566 12.1576 59.9781C12.1171 60.0187 12.0361 60.0187 11.9955 60.0592C11.955 60.0592 11.9145 60.0997 11.8334 60.0997C11.7929 60.0997 11.7929 60.0997 11.7524 60.0997H11.7118C11.6713 60.0997 11.6308 60.0997 11.5903 60.1402C11.5497 60.1402 11.5092 60.1402 11.4687 60.1402C11.4282 60.1402 11.3876 60.1402 11.3471 60.1402H11.3066H11.2661C11.2255 60.1402 11.185 60.1402 11.1445 60.1402C11.104 60.1402 11.0229 60.1402 10.9824 60.1402C10.9824 60.1402 10.9419 60.1402 10.9013 60.1402H10.8608C10.8203 60.1402 10.7798 60.1403 10.7392 60.0997C10.6582 60.0592 10.5771 60.0187 10.4961 59.9781L10.4555 59.9376C10.415 59.9376 10.415 59.8971 10.3745 59.8971C10.334 59.8566 10.334 59.8566 10.2934 59.816C10.2934 59.816 10.2934 59.816 10.2529 59.7755C10.2529 59.735 10.2124 59.735 10.2124 59.6945V59.6539C10.2124 59.6134 10.2124 59.6134 10.2124 59.5729L9.84766 28.0437C9.92871 28.0842 9.92871 28.1248 9.92871 28.1653Z" fill="url(#paint1_linear)"/>
<path d="M10.253 27.598C9.80725 27.8817 9.80725 28.287 10.253 28.5706C10.6988 28.8138 11.4283 28.8138 11.9146 28.5706C12.3604 28.287 12.3604 27.8817 11.9146 27.598C11.4688 27.3143 10.7394 27.3143 10.253 27.598Z" fill="#FFE85F"/>
<path d="M22.1273 49.4012C17.9126 51.8327 11.1447 51.8327 6.97055 49.4012C4.09321 47.7396 3.20164 45.3486 4.33637 43.2007H6.36266C5.18741 45.0244 5.83583 47.1317 8.34843 48.5906C11.7526 50.5764 17.3452 50.5764 20.7899 48.5906C23.3025 47.1317 23.9914 45.0244 22.8162 43.2007H24.8425C25.9367 45.3486 25.0046 47.7396 22.1273 49.4012Z" fill="#FF76C4"/>
<path d="M3.89062 45.3889C3.89062 45.5105 3.89062 45.5915 3.93115 45.7131C3.93115 45.7942 3.97167 45.8752 4.0122 45.9968C4.05272 46.1184 4.05272 46.1994 4.09325 46.321C4.13378 46.4021 4.1743 46.4831 4.21483 46.5642C4.25535 46.6857 4.29588 46.8073 4.37693 46.8884C4.41746 46.9694 4.45798 47.0505 4.49851 47.1315C4.57956 47.2531 4.66061 47.3747 4.74166 47.4963C4.82272 47.6178 4.90377 47.7394 5.02535 47.861C5.06587 47.9015 5.06587 47.9015 5.1064 47.942C5.22798 48.1041 5.39008 48.2257 5.55218 48.3878C5.67376 48.4689 5.75481 48.5905 5.87639 48.6715C5.95744 48.7526 6.07902 48.8336 6.16007 48.9147C6.28165 48.9957 6.40323 49.0768 6.56533 49.1578C6.68691 49.2389 6.80849 49.3199 6.97059 49.401C7.2948 49.6036 7.61901 49.7657 7.98374 49.9278C8.06479 49.9683 8.18637 50.0089 8.30795 50.0494C8.59163 50.171 8.87531 50.252 9.15899 50.3736C9.28057 50.4141 9.36162 50.4546 9.4832 50.4952C9.68583 50.5357 9.84793 50.6168 10.0506 50.6573C10.1721 50.6978 10.3342 50.7383 10.4558 50.7789C10.6585 50.8194 10.8611 50.8599 11.0232 50.9004C11.1448 50.941 11.3069 50.941 11.4284 50.9815C11.8337 51.0625 12.239 51.1031 12.6442 51.1436C12.7658 51.1436 12.8874 51.1841 13.009 51.1841C13.2521 51.2246 13.4953 51.2246 13.7384 51.2246C13.9005 51.2246 14.0626 51.2246 14.1842 51.2246C14.3868 51.2246 14.5895 51.2246 14.7516 51.2246C14.9137 51.2246 15.0758 51.2246 15.2379 51.2246C15.4 51.2246 15.6026 51.2246 15.7647 51.1841C15.9268 51.1841 16.0889 51.1436 16.251 51.1436C16.4131 51.1436 16.6158 51.1031 16.7779 51.1031C16.94 51.1031 17.1021 51.0625 17.2642 51.022C17.4668 50.9815 17.6289 50.941 17.8315 50.941C17.9936 50.9004 18.1152 50.9004 18.2773 50.8599C18.5205 50.8194 18.7231 50.7383 18.9663 50.6978C19.0878 50.6573 19.2094 50.6168 19.331 50.6168C19.7363 50.4952 20.101 50.3736 20.4657 50.2115C20.6684 50.1304 20.8305 50.0494 21.0331 49.9683C21.1141 49.9278 21.1952 49.8873 21.2763 49.8468C21.5599 49.7252 21.8031 49.6036 22.0462 49.4415C24.1536 48.2257 25.2073 46.6047 25.2073 45.0242L25.2478 66.0166C25.2478 67.5971 24.1941 69.2182 22.0868 70.4339C21.8436 70.596 21.5599 70.7176 21.3168 70.8392C21.2357 70.8797 21.1141 70.9203 21.0331 70.9608C20.871 71.0418 20.7089 71.1229 20.5468 71.1634H20.5063C20.1415 71.3255 19.7363 71.4471 19.331 71.5687C19.2905 71.5687 19.2905 71.6092 19.25 71.6092C19.1689 71.6497 19.0878 71.6497 18.9663 71.6902C18.7636 71.7308 18.5205 71.8118 18.2773 71.8523C18.2368 71.8523 18.1558 71.8929 18.1152 71.8929C18.0342 71.8929 17.9531 71.9334 17.8721 71.9334C17.6694 71.9739 17.5073 72.0145 17.3047 72.0145C17.2237 72.0145 17.1426 72.055 17.0616 72.055C16.9805 72.055 16.8994 72.055 16.8184 72.0955C16.6563 72.136 16.4537 72.136 16.2916 72.1766C16.2105 72.1766 16.1295 72.2171 16.0484 72.2171C15.9674 72.2171 15.8863 72.2171 15.8052 72.2171C15.6026 72.2171 15.4405 72.2576 15.2379 72.2576C15.1568 72.2576 15.0758 72.2576 14.9542 72.2576C14.8732 72.2576 14.7921 72.2576 14.7516 72.2576C14.5489 72.2576 14.3463 72.2576 14.1437 72.2576C14.0626 72.2576 13.9411 72.2576 13.86 72.2576C13.8195 72.2576 13.7384 72.2576 13.6979 72.2576C13.4547 72.2576 13.2116 72.2171 12.9684 72.2171C12.8874 72.2171 12.7658 72.2171 12.6847 72.2171C12.6442 72.2171 12.6442 72.2171 12.6037 72.2171C12.1984 72.1766 11.7932 72.136 11.3879 72.055H11.3474C11.2258 72.0145 11.1042 72.0145 11.0232 71.9739C10.8206 71.9334 10.6179 71.8929 10.4153 71.8523C10.2937 71.8118 10.1316 71.7713 10.01 71.7308C9.80741 71.6902 9.6453 71.6497 9.44267 71.5687C9.40215 71.5687 9.36162 71.5687 9.3211 71.5281C9.24004 71.5281 9.19952 71.4876 9.11847 71.4471C8.83479 71.366 8.5511 71.2445 8.26742 71.1229C8.18637 71.0824 8.06479 71.0418 7.98374 71.0013C7.61901 70.8392 7.2948 70.6771 6.97059 70.4745C6.93007 70.4339 6.88954 70.4339 6.84901 70.3934C6.76796 70.3529 6.68691 70.2718 6.56533 70.1908C6.44375 70.1097 6.28165 70.0287 6.16007 69.9476C6.03849 69.8666 5.95744 69.7855 5.83586 69.7045C5.71429 69.6234 5.59271 69.5424 5.51166 69.4208C5.47113 69.4208 5.47113 69.3803 5.43061 69.3803C5.30903 69.2587 5.14692 69.1371 5.02535 68.975C4.98482 68.9345 4.98482 68.9345 4.94429 68.894C4.86324 68.8129 4.78219 68.7318 4.74166 68.6508C4.70114 68.6103 4.70114 68.5697 4.66061 68.5292C4.57956 68.4076 4.49851 68.2861 4.41746 68.1645C4.37693 68.124 4.33641 68.0429 4.29588 68.0024C4.29588 67.9619 4.25535 67.9619 4.25535 67.9213C4.21483 67.7998 4.13378 67.7187 4.09325 67.5971C4.05272 67.5161 4.0122 67.4755 4.0122 67.3945C4.0122 67.354 4.0122 67.354 4.0122 67.3134C3.97167 67.2324 3.93115 67.1108 3.93115 67.0298C3.93115 66.9487 3.89062 66.8677 3.85009 66.7866C3.85009 66.7461 3.85009 66.7461 3.85009 66.7056C3.85009 66.584 3.80957 66.5029 3.80957 66.3813C3.80957 66.3003 3.76904 66.2192 3.76904 66.1382C3.76904 66.0977 3.76904 66.0571 3.76904 66.0571L3.72852 45.0647C3.85009 45.1457 3.89062 45.2673 3.89062 45.3889Z" fill="url(#paint2_linear)"/>
<g opacity="0.1">
<path opacity="0.1" d="M109.906 102.693L68.732 126.603L0 86.9281L41.1338 63.0178L109.906 102.693Z" fill="black"/>
</g>
<path d="M102.855 101.72C102.369 103.544 71.2447 120.119 71.2447 120.119C69.2184 121.294 65.2064 121.091 63.1395 119.916C49.077 111.811 7.98372 87.8196 7.98372 87.8196C5.95742 86.6443 5.34953 83.6049 7.33531 82.4701L39.7561 64.6793C39.7966 64.6387 107.475 84.7396 102.855 101.72Z" fill="#95C4DE"/>
<path d="M103.098 100.302L71.2851 118.822C69.2588 119.997 65.2467 119.795 63.1799 118.619C49.1174 110.474 7.65935 86.3203 7.65935 86.3203C5.63305 85.145 5.63305 83.2403 7.61882 82.065L39.7964 63.3826L103.098 100.302Z" fill="#DEF6FF"/>
<path d="M111.487 55.9662C111.446 55.7231 111.406 55.4799 111.365 55.2368C111.325 55.1557 111.325 55.1152 111.325 55.0341C111.244 54.791 111.203 54.5478 111.082 54.3047C111.082 54.2642 111.041 54.2236 111.041 54.1831C110.96 53.9805 110.879 53.7778 110.757 53.5752C110.717 53.4942 110.676 53.4131 110.595 53.2915C110.474 53.1294 110.393 52.9673 110.271 52.8457C110.271 52.8052 110.19 52.7647 110.19 52.7242C110.028 52.5215 109.866 52.3594 109.704 52.1973C109.663 52.1568 109.623 52.1163 109.582 52.0758C109.42 51.9137 109.217 51.7921 109.015 51.6705L53.089 19.4118C52.8864 19.2903 52.6433 19.2092 52.4406 19.1282C52.3596 19.0876 52.319 19.0876 52.238 19.0876C52.1569 19.0471 52.0354 19.0471 51.9543 19.0471C51.8733 19.0471 51.7922 19.0471 51.6706 19.0471C51.5896 19.0471 51.5491 19.0471 51.468 19.0471C51.3059 19.0471 51.1843 19.0876 51.0627 19.1282L52.6433 18.7229C52.7243 18.6824 52.8459 18.6824 52.9269 18.6824C52.9675 18.6824 53.008 18.6824 53.0485 18.6824C53.1296 18.6824 53.1701 18.6824 53.2511 18.6824C53.2917 18.6824 53.3322 18.6824 53.3727 18.6824C53.4132 18.6824 53.4538 18.6824 53.4943 18.6824C53.5754 18.6824 53.6969 18.7229 53.778 18.7229C53.8185 18.7229 53.859 18.7229 53.9401 18.7634C53.9806 18.7634 54.0211 18.804 54.0211 18.804C54.2238 18.8445 54.4669 18.9661 54.6696 19.0876L110.555 51.3463C110.757 51.4679 110.96 51.5894 111.122 51.7515C111.163 51.7921 111.203 51.8326 111.244 51.8326C111.406 51.9947 111.568 52.1973 111.73 52.3594C111.771 52.4 111.771 52.4405 111.811 52.481C111.852 52.5621 111.933 52.6431 112.014 52.7242C112.054 52.8052 112.095 52.8863 112.135 52.9673C112.216 53.0484 112.257 53.1294 112.297 53.2105C112.338 53.251 112.338 53.2915 112.379 53.3321C112.46 53.4942 112.541 53.6563 112.581 53.8589C112.581 53.8994 112.622 53.8994 112.622 53.8994C112.703 54.1021 112.784 54.2642 112.824 54.4668C112.824 54.5478 112.865 54.5884 112.865 54.6694C112.865 54.7099 112.905 54.791 112.905 54.8315C112.946 54.9126 112.946 54.9936 112.946 55.0341C112.986 55.1963 112.986 55.3584 113.027 55.561C113.027 55.6015 113.027 55.6015 113.027 55.642C113.027 55.642 113.027 55.642 113.027 55.6826C113.067 55.9257 113.067 56.1689 113.067 56.412V56.4526C113.067 56.7768 113.027 57.0604 112.946 57.3847L102.814 101.68L101.477 102.45L111.365 57.7899C111.446 57.5062 111.487 57.1415 111.487 56.8578C111.487 56.5741 111.487 56.2905 111.487 56.0473C111.487 56.0068 111.487 56.0068 111.487 55.9662Z" fill="#95C4DE"/>
<path d="M53.0889 19.4119C51.2652 18.3583 49.3605 19.3714 48.8337 21.7219L39.7964 63.3421L101.842 101.031L111.365 57.8305C111.892 55.5206 110.798 52.7648 108.974 51.7111L53.0889 19.4119Z" fill="#DEF6FF"/>
<path d="M109.217 59.0462L50.0901 25.2881L42.2686 61.0725L100.585 96.8569L109.217 59.0462Z" fill="url(#paint3_linear)"/>
<path d="M37.5675 69.1777L93.9391 101.72L75.135 112.662L18.7634 80.1197L37.5675 69.1777ZM61.7209 103.26L64.2335 101.801L37.9727 86.6444L35.4601 88.1034L61.7209 103.26ZM45.0648 82.5108L42.5116 83.9697L44.8216 85.3071L47.3342 83.8481L45.0648 82.5108ZM36.8785 80.7276L39.3911 79.2687L37.0812 77.9313L34.528 79.4308L36.8785 80.7276ZM68.7724 99.1669L71.3256 97.708L69.0156 96.3706L66.4625 97.8296L68.7724 99.1669ZM60.9915 91.7507L58.4383 93.2096L60.7483 94.547L63.2609 93.0475L60.9915 91.7507ZM76.7155 103.746L79.2687 102.287L76.9587 100.95L74.4056 102.409L76.7155 103.746ZM50.4952 88.6302L52.8052 89.9675L55.3584 88.5086L53.0484 87.1713L50.4952 88.6302ZM50.3737 85.5907L47.8611 87.0497L50.171 88.387L52.6836 86.9281L50.3737 85.5907ZM82.065 106.826L84.6181 105.367L82.3081 104.03L79.755 105.489L82.065 106.826ZM34.2038 79.2282L36.7569 77.7692L34.447 76.4319L31.9344 77.8908L34.2038 79.2282ZM58.3573 90.2107L55.8447 91.6696L58.1546 93.007L60.6673 91.5481L58.3573 90.2107ZM42.1874 83.8076L44.7406 82.3487L42.4306 81.0113L39.8774 82.4702L42.1874 83.8076ZM66.3004 94.7901L63.7472 96.2491L66.0572 97.5864L68.6103 96.1275L66.3004 94.7901ZM74.0813 102.206L76.6345 100.747L74.3245 99.4101L71.7714 100.869L74.0813 102.206ZM69.7045 107.839L72.2171 106.381L69.8666 105.043L67.354 106.502L69.7045 107.839ZM33.3528 82.7945L35.8654 81.3355L33.5554 79.9982L31.0428 81.4571L33.3528 82.7945ZM57.4657 93.777L54.9531 95.2359L57.2631 96.5733L59.7757 95.1143L57.4657 93.777ZM48.55 80.4845L46.0374 81.9434L48.3474 83.2808L50.86 81.8218L48.55 80.4845ZM40.4043 78.7013L42.9169 77.2424L40.6069 75.905L38.0943 77.364L40.4043 78.7013ZM51.8326 90.5349L49.4821 89.1976L46.9695 90.6565L49.32 91.9938L51.8326 90.5349ZM54.021 86.5634L56.331 87.9007L58.8841 86.4418L56.5336 85.1044L54.021 86.5634ZM41.539 84.5776L39.0264 86.0365L41.3769 87.3739L43.8895 85.915L41.539 84.5776ZM29.827 84.8208L32.3801 83.3618L30.0296 82.0245L27.517 83.4834L29.827 84.8208ZM64.5172 89.6839L62.0046 91.1428L64.3146 92.4802L66.8677 91.0212L64.5172 89.6839ZM73.2303 105.813L75.7429 104.354L73.4329 103.017L70.9203 104.476L73.2303 105.813ZM65.2467 101.193L67.7593 99.7343L65.4493 98.3969L62.8962 99.8559L65.2467 101.193ZM72.2982 97.1001L74.8108 95.6412L72.5008 94.3038L69.9882 95.7628L72.2982 97.1001ZM80.2413 101.72L82.7944 100.261L80.4439 98.9238L77.9313 100.383L80.2413 101.72ZM53.8994 83.5644L51.3868 85.0234L53.7373 86.3607L56.2499 84.9018L53.8994 83.5644ZM70.5556 104.273L73.0682 102.774L70.7177 101.436L68.2051 102.895L70.5556 104.273ZM77.6071 100.18L80.1197 98.7212L77.8097 97.3838L75.2566 98.8427L77.6071 100.18ZM54.8315 92.237L52.3189 93.6959L54.6289 95.0333L57.182 93.5744L54.8315 92.237ZM45.7132 81.7813L48.2258 80.3224L45.9158 78.985L43.4032 80.4439L45.7132 81.7813ZM61.8425 88.1439L59.3299 89.6028L61.6804 90.9402L64.193 89.4812L61.8425 88.1439ZM38.6617 85.8744L41.1743 84.4155L38.8643 83.0781L36.3517 84.5371L38.6617 85.8744ZM46.8479 87.6576L44.3353 89.1165L46.6453 90.4539L49.1579 88.9949L46.8479 87.6576ZM35.1764 87.9007L37.689 86.4418L35.3385 85.1044L32.8259 86.5634L35.1764 87.9007ZM62.8151 96.857L60.3025 98.3159L62.6125 99.6532L65.1251 98.1943L62.8151 96.857ZM69.8261 92.7638L67.273 94.2228L69.6235 95.5601L72.1361 94.1012L69.8261 92.7638ZM75.0134 110.919L77.5261 109.461L75.1755 108.123L72.6629 109.582L75.0134 110.919ZM27.1928 83.2808L29.7054 81.8218L27.3955 80.4845L24.8828 81.9434L27.1928 83.2808ZM30.7186 81.2545L33.2312 79.7955L30.9212 78.4582L28.4086 79.9171L30.7186 81.2545ZM78.5392 108.853L81.0518 107.394L78.7418 106.056L76.1887 107.515L78.5392 108.853ZM37.7296 77.1613L40.2422 75.7024L37.9322 74.3651L35.4196 75.824L37.7296 77.1613ZM67.0704 106.299L69.583 104.841L67.2325 103.503L64.6793 104.962L67.0704 106.299ZM85.5907 104.76L88.1033 103.301L85.7528 101.963L83.2402 103.422L85.5907 104.76ZM31.5291 77.6477L34.0822 76.1887L31.7723 74.8514L29.2596 76.3103L31.5291 77.6477ZM63.6662 93.2907L61.1536 94.7496L63.4635 96.087L66.0167 94.628L63.6662 93.2907ZM71.4066 100.666L73.9598 99.2075L71.6498 97.8701L69.0967 99.329L71.4066 100.666ZM39.5127 82.2676L42.0658 80.8087L39.7559 79.4713L37.2433 80.9303L39.5127 82.2676ZM47.6989 84.0508L45.1863 85.5097L47.4963 86.847L50.0495 85.3476L47.6989 84.0508ZM79.3902 105.286L81.9029 103.827L79.5929 102.49L77.0397 103.949L79.3902 105.286ZM53.17 90.1702L55.4799 91.5075L57.9925 90.0486L55.6826 88.7112L53.17 90.1702ZM82.916 103.26L85.4691 101.801L83.1592 100.464L80.6465 101.923L82.916 103.26ZM28.0439 79.7145L30.5565 78.2556L28.2465 76.9182L25.7339 78.3771L28.0439 79.7145ZM75.8645 107.353L78.3771 105.894L76.0671 104.557L73.5545 106.016L75.8645 107.353ZM44.1732 86.1176L41.6606 87.617L43.9706 88.9544L46.4832 87.4955L44.1732 86.1176ZM43.0385 80.2413L45.5511 78.7824L43.2411 77.445L40.688 78.904L43.0385 80.2413ZM51.2247 82.0245L48.7121 83.4834L51.0221 84.8208L53.5347 83.3618L51.2247 82.0245ZM64.3956 104.76L66.9083 103.301L64.5983 101.963L62.0857 103.422L64.3956 104.76ZM24.5181 81.7813L27.0307 80.3224L24.7207 78.985L22.1676 80.4439L24.5181 81.7813ZM67.9214 102.733L70.434 101.274L68.124 99.9369L65.6114 101.396L67.9214 102.733ZM36.0275 84.3344L38.5401 82.835L36.2301 81.4976L33.677 82.9566L36.0275 84.3344ZM74.9324 98.6401L77.4855 97.1812L75.1755 95.8438L72.6224 97.3027L74.9324 98.6401ZM72.3793 109.379L74.8919 107.921L72.5414 106.583L70.0287 108.042L72.3793 109.379ZM67.1919 91.2239L64.6388 92.6828L66.9488 94.0201L69.4614 92.5612L67.1919 91.2239ZM32.5017 86.3607L35.0549 84.9018L32.7449 83.5644L30.2323 85.0234L32.5017 86.3607ZM56.6957 88.1034L59.0057 89.4407L61.5183 87.9818L59.2083 86.6444L56.6957 88.1034ZM54.4668 92.0344L52.1568 90.697L49.6442 92.1559L51.9542 93.4933L54.4668 92.0344ZM35.0954 75.6214L37.608 74.1624L35.298 72.8251L32.7854 74.284L35.0954 75.6214ZM60.1404 95.317L57.6278 96.7759L59.9378 98.1133L62.4504 96.6543L60.1404 95.317ZM57.7494 82.3487L56.0068 83.3618L58.3167 84.6992L60.0594 83.686L57.7494 82.3487ZM74.5677 92.0344L72.825 93.0475L75.1755 94.3849L76.9182 93.3717L74.5677 92.0344ZM41.7822 73.1493L39.999 74.1624L42.3495 75.4998L44.0921 74.4866L41.7822 73.1493ZM51.5489 78.7824L49.8063 79.7955L52.1163 81.1329L53.8994 80.1197L51.5489 78.7824ZM47.9826 76.7156L46.24 77.7287L48.55 79.0661L50.3331 78.0529L47.9826 76.7156ZM84.3344 97.6675L82.5513 98.6806L84.9018 100.018L86.6444 99.0048L84.3344 97.6675ZM87.8602 99.7343L86.1175 100.747L88.4275 102.085L90.1701 101.072L87.8602 99.7343ZM78.7013 96.4517L80.4439 95.4386L78.1339 94.1012L76.3913 95.1549L78.7013 96.4517ZM38.8238 73.433L40.5664 72.4198L38.2564 71.0825L36.4733 72.0956L38.8238 73.433ZM61.2751 84.375L59.5325 85.3881L61.8425 86.7255L63.5851 85.7123L61.2751 84.375Z" fill="#A9D6EA"/>
<path d="M56.2095 84.9021L53.6969 86.361L51.3464 85.0236L53.8996 83.5647L56.2095 84.9021Z" fill="#72B5D3"/>
<path d="M37.608 74.1626L35.0954 75.6215L32.7449 74.2841L35.2575 72.8252L37.608 74.1626Z" fill="#72B5D3"/>
<path d="M48.2259 80.2819L45.7133 81.7814L43.3628 80.444L45.9159 78.9446L48.2259 80.2819Z" fill="#72B5D3"/>
<path d="M41.2149 84.3752L38.6618 85.8747L36.3518 84.5373L38.8644 83.0378L41.2149 84.3752Z" fill="#72B5D3"/>
<path d="M40.5665 72.4199L38.8239 73.433L36.5139 72.0957L38.2565 71.0825L40.5665 72.4199Z" fill="#72B5D3"/>
<path d="M44.0921 74.4868L42.3495 75.4999L40.0396 74.1626L41.7822 73.1494L44.0921 74.4868Z" fill="#72B5D3"/>
<path d="M40.2423 75.7026L37.7297 77.1615L35.4197 75.8242L37.9323 74.3652L40.2423 75.7026Z" fill="#72B5D3"/>
<path d="M34.0824 76.1889L31.5292 77.6479L29.2192 76.3105L31.7724 74.8516L34.0824 76.1889Z" fill="#72B5D3"/>
<path d="M42.9171 77.2426L40.4045 78.7016L38.054 77.3642L40.6071 75.8647L42.9171 77.2426Z" fill="#72B5D3"/>
<path d="M50.3334 78.0529L48.5502 79.1066L46.2402 77.7287L47.9829 76.7156L50.3334 78.0529Z" fill="#72B5D3"/>
<path d="M36.7569 77.729L34.2038 79.2284L31.8938 77.8505L34.4064 76.3916L36.7569 77.729Z" fill="#72B5D3"/>
<path d="M30.5565 78.2556L28.0439 79.7145L25.7339 78.3771L28.2465 76.9182L30.5565 78.2556Z" fill="#72B5D3"/>
<path d="M45.5511 78.7824L43.0385 80.2414L40.7285 78.904L43.2817 77.4045L45.5511 78.7824Z" fill="#72B5D3"/>
<path d="M39.3912 79.2688L36.8786 80.7277L34.5281 79.3903L37.0812 77.9314L39.3912 79.2688Z" fill="#72B5D3"/>
<path d="M53.859 80.1198L52.0758 81.133L49.7659 79.7956L51.549 78.7825L53.859 80.1198Z" fill="#72B5D3"/>
<path d="M33.2313 79.7956L30.7187 81.2545L28.3682 79.9172L30.9213 78.4177L33.2313 79.7956Z" fill="#72B5D3"/>
<path d="M27.0308 80.2819L24.5182 81.7814L22.2083 80.444L24.7209 78.9446L27.0308 80.2819Z" fill="#72B5D3"/>
<path d="M42.066 80.8088L39.5129 82.2677L37.2029 80.9304L39.756 79.4714L42.066 80.8088Z" fill="#72B5D3"/>
<path d="M35.8656 81.3356L33.3529 82.7946L31.043 81.4572L33.5556 79.9578L35.8656 81.3356Z" fill="#72B5D3"/>
<path d="M50.9007 81.822L48.3476 83.2809L46.0376 81.9435L48.5502 80.4846L50.9007 81.822Z" fill="#72B5D3"/>
<path d="M44.7003 82.3488L42.1877 83.8078L39.8777 82.4704L42.3903 81.0115L44.7003 82.3488Z" fill="#72B5D3"/>
<path d="M38.5401 82.8352L36.0275 84.3346L33.677 82.9973L36.2301 81.4978L38.5401 82.8352Z" fill="#72B5D3"/>
<path d="M60.0594 83.6862L58.3168 84.6994L55.9663 83.362L57.7494 82.3489L60.0594 83.6862Z" fill="#72B5D3"/>
<path d="M53.5347 83.362L51.0221 84.821L48.7122 83.4836L51.2248 82.0247L53.5347 83.362Z" fill="#72B5D3"/>
<path d="M47.3748 83.8889L44.8217 85.3478L42.5117 84.0104L45.0649 82.511L47.3748 83.8889Z" fill="#72B5D3"/>
<path d="M35.0145 84.9021L32.5019 86.361L30.1919 85.0236L32.7045 83.5647L35.0145 84.9021Z" fill="#72B5D3"/>
<path d="M63.5853 85.7124L61.8427 86.766L59.5327 85.4287L61.2753 84.375L63.5853 85.7124Z" fill="#72B5D3"/>
<path d="M50.0091 85.3881L47.4965 86.8876L45.1865 85.5502L47.6991 84.0508L50.0091 85.3881Z" fill="#72B5D3"/>
<path d="M43.849 85.915L41.3363 87.3739L38.9858 86.0366L41.539 84.5776L43.849 85.915Z" fill="#72B5D3"/>
<path d="M58.8841 86.4418L56.331 87.9008L54.021 86.5634L56.5336 85.1045L58.8841 86.4418Z" fill="#72B5D3"/>
<path d="M37.689 86.4418L35.1764 87.9008L32.8259 86.5634L35.3385 85.1045L37.689 86.4418Z" fill="#72B5D3"/>
<path d="M46.5238 87.455L43.9706 88.914L41.6606 87.5766L44.1733 86.1177L46.5238 87.455Z" fill="#72B5D3"/>
<path d="M61.5184 87.9819L59.0058 89.4408L56.6958 88.1035L59.2084 86.6445L61.5184 87.9819Z" fill="#72B5D3"/>
<path d="M55.3585 88.4682L52.8053 89.9677L50.4954 88.6303L53.008 87.1309L55.3585 88.4682Z" fill="#72B5D3"/>
<path d="M49.158 88.9951L46.6454 90.454L44.3354 89.1166L46.8481 87.6577L49.158 88.9951Z" fill="#72B5D3"/>
<path d="M64.1932 89.5219L61.6806 90.9809L59.3301 89.603L61.8427 88.144L64.1932 89.5219Z" fill="#72B5D3"/>
<path d="M57.9925 90.0083L55.4799 91.4672L53.1699 90.1704L55.6825 88.6709L57.9925 90.0083Z" fill="#72B5D3"/>
<path d="M51.8328 90.5351L49.2797 91.994L46.9697 90.6567L49.4823 89.1978L51.8328 90.5351Z" fill="#72B5D3"/>
<path d="M66.8272 91.0617L64.3146 92.5207L62.0046 91.1428L64.5172 89.6838L66.8272 91.0617Z" fill="#72B5D3"/>
<path d="M60.6673 91.548L58.1547 93.007L55.8042 91.6696L58.3573 90.2107L60.6673 91.548Z" fill="#72B5D3"/>
<path d="M54.4669 92.0344L51.9543 93.5338L49.6443 92.1965L52.1569 90.697L54.4669 92.0344Z" fill="#72B5D3"/>
<path d="M69.502 92.5612L66.9489 94.0202L64.6389 92.6828L67.1921 91.2239L69.502 92.5612Z" fill="#72B5D3"/>
<path d="M76.9183 93.3718L75.1352 94.4255L72.8252 93.0881L74.5678 92.0344L76.9183 93.3718Z" fill="#72B5D3"/>
<path d="M63.3421 93.0881L60.789 94.547L58.479 93.2097L60.9916 91.7507L63.3421 93.0881Z" fill="#72B5D3"/>
<path d="M57.1417 93.5744L54.6291 95.0739L52.2786 93.696L54.8317 92.2371L57.1417 93.5744Z" fill="#72B5D3"/>
<path d="M72.1768 94.1013L69.6237 95.5602L67.3137 94.2229L69.8263 92.7639L72.1768 94.1013Z" fill="#72B5D3"/>
<path d="M65.9762 94.6281L63.423 96.0871L61.113 94.7497L63.6662 93.2908L65.9762 94.6281Z" fill="#72B5D3"/>
<path d="M80.444 95.4387L78.7013 96.4518L76.3508 95.1145L78.134 94.1013L80.444 95.4387Z" fill="#72B5D3"/>
<path d="M59.8162 95.1145L57.2631 96.6139L54.9531 95.2766L57.4657 93.7771L59.8162 95.1145Z" fill="#72B5D3"/>
<path d="M74.8109 95.6413L72.2983 97.1002L69.9478 95.7629L72.5009 94.304L74.8109 95.6413Z" fill="#72B5D3"/>
<path d="M68.651 96.1682L66.0978 97.6271L63.7878 96.2897L66.3005 94.7903L68.651 96.1682Z" fill="#72B5D3"/>
<path d="M62.4505 96.6545L59.9379 98.1134L57.6279 96.7761L60.1405 95.3171L62.4505 96.6545Z" fill="#72B5D3"/>
<path d="M77.4857 97.1814L74.9325 98.6403L72.6226 97.3029L75.1757 95.844L77.4857 97.1814Z" fill="#72B5D3"/>
<path d="M71.2852 97.6677L68.7726 99.1671L66.4221 97.8298L68.9753 96.3303L71.2852 97.6677Z" fill="#72B5D3"/>
<path d="M65.1251 98.1945L62.6125 99.6535L60.262 98.3161L62.8151 96.8572L65.1251 98.1945Z" fill="#72B5D3"/>
<path d="M86.6444 99.0456L84.9018 100.059L82.5513 98.7214L84.3344 97.6677L86.6444 99.0456Z" fill="#72B5D3"/>
<path d="M80.1197 98.7211L77.6071 100.18L75.2566 98.8427L77.8097 97.3838L80.1197 98.7211Z" fill="#72B5D3"/>
<path d="M73.9598 99.2077L71.4067 100.667L69.0967 99.3293L71.6498 97.8704L73.9598 99.2077Z" fill="#72B5D3"/>
<path d="M82.7945 100.261L80.2414 101.72L77.9314 100.342L80.444 98.8833L82.7945 100.261Z" fill="#72B5D3"/>
<path d="M90.1703 101.072L88.4277 102.085L86.1177 100.748L87.8603 99.7344L90.1703 101.072Z" fill="#72B5D3"/>
<path d="M76.6346 100.748L74.0815 102.206L71.731 100.869L74.2841 99.4102L76.6346 100.748Z" fill="#72B5D3"/>
<path d="M70.4342 101.274L67.9216 102.733L65.571 101.396L68.1242 99.937L70.4342 101.274Z" fill="#72B5D3"/>
<path d="M85.4288 101.761L82.9162 103.26L80.6062 101.923L83.1188 100.423L85.4288 101.761Z" fill="#72B5D3"/>
<path d="M64.2742 101.761L61.721 103.26L35.5007 88.1035L38.0133 86.6445L64.2742 101.761Z" fill="#72B5D3"/>
<path d="M79.2689 102.288L76.7157 103.746L74.4058 102.409L76.9589 100.95L79.2689 102.288Z" fill="#72B5D3"/>
<path d="M73.109 102.814L70.5558 104.273L68.2458 102.936L70.7585 101.477L73.109 102.814Z" fill="#72B5D3"/>
<path d="M88.1033 103.301L85.5907 104.76L83.2402 103.463L85.7528 101.963L88.1033 103.301Z" fill="#72B5D3"/>
<path d="M66.9083 103.301L64.3957 104.76L62.0452 103.463L64.5983 101.963L66.9083 103.301Z" fill="#72B5D3"/>
<path d="M81.9029 103.828L79.3903 105.287L77.0803 103.949L79.5929 102.49L81.9029 103.828Z" fill="#72B5D3"/>
<path d="M75.743 104.354L73.2304 105.813L70.8799 104.476L73.433 102.977L75.743 104.354Z" fill="#72B5D3"/>
<path d="M69.5831 104.841L67.0705 106.3L64.72 104.962L67.2326 103.503L69.5831 104.841Z" fill="#72B5D3"/>
<path d="M84.5777 105.368L82.0651 106.827L79.7146 105.489L82.2677 104.03L84.5777 105.368Z" fill="#72B5D3"/>
<path d="M78.4178 105.854L75.8647 107.353L73.5547 106.016L76.0673 104.517L78.4178 105.854Z" fill="#72B5D3"/>
<path d="M72.2174 106.381L69.7048 107.84L67.3948 106.502L69.9074 105.043L72.2174 106.381Z" fill="#72B5D3"/>
<path d="M81.0518 107.394L78.5392 108.853L76.2292 107.515L78.7419 106.056L81.0518 107.394Z" fill="#72B5D3"/>
<path d="M74.8919 107.921L72.3793 109.38L70.0288 108.042L72.5414 106.583L74.8919 107.921Z" fill="#72B5D3"/>
<path d="M77.5667 109.461L75.0136 110.92L72.7036 109.582L75.2162 108.123L77.5667 109.461Z" fill="#72B5D3"/>
<path d="M52.6837 86.9687L50.1711 88.4276L47.8206 87.0498L50.3737 85.5908L52.6837 86.9687Z" fill="#72B5D3"/>
<path d="M67.7999 99.7343L65.2467 101.193L62.8962 99.8559L65.4494 98.397L67.7999 99.7343Z" fill="#72B5D3"/>
<path d="M32.3802 83.362L29.8271 84.821L27.5171 83.4836L30.0297 82.0247L32.3802 83.362Z" fill="#72B5D3"/>
<path d="M29.7056 81.822L27.193 83.2809L24.8425 81.9435L27.3957 80.4846L29.7056 81.822Z" fill="#72B5D3"/>
<path d="M48.915 98.8427C49.7255 99.329 49.7255 100.059 48.915 100.545L43.6061 103.625C42.7956 104.111 41.4987 104.111 40.6477 103.625L33.4746 99.4506C32.6641 98.9643 32.6641 98.2348 33.4746 97.7485L38.743 94.6686C39.5535 94.2228 40.8503 94.2228 41.6608 94.6686L48.915 98.8427Z" fill="#72B5D3"/>
<path d="M48.915 99.0858C49.7255 99.5721 49.7255 100.342 48.915 100.788L43.6061 103.868C42.7956 104.354 41.4987 104.354 40.6477 103.868L33.4746 99.6937C32.6641 99.2479 32.6641 98.4779 33.4746 97.9916L38.743 94.9116C39.5535 94.4253 40.8503 94.4253 41.6608 94.9116L48.915 99.0858Z" fill="#A9D6EA"/>
<g opacity="0.1">
<g opacity="0.1">
<path opacity="0.1" d="M120.038 119.43C125.712 122.712 125.712 128.021 120.119 131.263C114.486 134.546 105.368 134.546 99.6939 131.263C94.0202 128.021 94.0202 122.712 99.6128 119.43C105.246 116.188 114.364 116.188 120.038 119.43Z" fill="black"/>
</g>
</g>
<path d="M115.661 126.846C115.742 126.603 115.783 126.36 115.783 126.117L119.673 102.652H92.8855L96.8165 126.157C96.8165 126.36 96.857 126.603 96.9381 126.806L96.9786 126.927C97.3028 127.981 98.1944 128.954 99.5723 129.764C103.26 131.912 109.299 131.912 112.986 129.764C114.405 128.954 115.256 127.941 115.621 126.927L115.661 126.846Z" fill="url(#paint4_linear)"/>
<path d="M96.857 97.1812C91.6291 100.221 91.5886 105.124 96.7759 108.164C102.004 111.203 110.474 111.203 115.702 108.164C120.929 105.124 120.97 100.221 115.742 97.1812C110.595 94.1417 102.125 94.1417 96.857 97.1812Z" fill="#FFFFFE"/>
<path d="M96.857 97.1812C91.6291 100.221 91.5886 105.124 96.7759 108.164C102.004 111.203 110.474 111.203 115.702 108.164C120.929 105.124 120.97 100.221 115.742 97.1812C110.595 94.1417 102.125 94.1417 96.857 97.1812Z" fill="#FFE85F"/>
<path d="M98.2753 97.9916C93.8175 100.585 93.777 104.759 98.2348 107.353C102.693 109.947 109.906 109.947 114.405 107.353C118.863 104.759 118.903 100.585 114.445 97.9916C109.987 95.398 102.733 95.398 98.2753 97.9916Z" fill="#ED8001"/>
<path d="M114.364 107.353C109.906 109.947 102.652 109.947 98.1942 107.353C96.8569 106.583 95.9248 105.651 95.3979 104.638C95.8032 103.341 96.8569 102.044 98.5995 101.031C103.057 98.4375 110.312 98.4375 114.729 101.031C116.066 101.801 116.998 102.733 117.525 103.746C117.16 105.084 116.107 106.34 114.364 107.353Z" fill="#58361A"/>
<path d="M112.946 123.402C112.905 123.402 112.905 123.361 112.865 123.361C112.662 123.28 112.5 123.199 112.297 123.077L113.554 122.348C113.756 122.469 113.918 122.551 114.121 122.632C114.162 122.672 114.243 122.672 114.283 122.713C114.405 122.753 114.486 122.794 114.607 122.834C114.688 122.834 114.729 122.875 114.81 122.875C114.891 122.875 114.932 122.915 115.013 122.915C115.094 122.915 115.175 122.956 115.215 122.956C115.256 122.956 115.296 122.956 115.337 122.956C115.418 122.956 115.499 122.956 115.58 122.956C115.62 122.956 115.661 122.956 115.661 122.956C115.783 122.956 115.864 122.956 115.985 122.915C116.026 122.915 116.026 122.915 116.026 122.915C116.107 122.915 116.188 122.875 116.269 122.834C116.309 122.834 116.309 122.834 116.35 122.794C116.431 122.753 116.553 122.713 116.634 122.672L115.377 123.402C115.377 123.402 115.377 123.402 115.337 123.402C115.256 123.442 115.215 123.483 115.134 123.523H115.094C115.053 123.523 115.053 123.523 115.013 123.564C114.972 123.564 114.972 123.604 114.932 123.604C114.891 123.604 114.85 123.645 114.81 123.645C114.769 123.645 114.769 123.645 114.729 123.645C114.729 123.645 114.729 123.645 114.688 123.645C114.607 123.645 114.526 123.685 114.445 123.685C114.445 123.685 114.445 123.685 114.405 123.685C114.364 123.685 114.324 123.685 114.283 123.685C114.243 123.685 114.162 123.685 114.121 123.685C114.081 123.685 114.081 123.685 114.04 123.685C113.999 123.685 113.959 123.685 113.878 123.685C113.837 123.685 113.837 123.685 113.797 123.685C113.756 123.685 113.716 123.685 113.675 123.645C113.594 123.645 113.554 123.604 113.473 123.604C113.432 123.604 113.432 123.604 113.392 123.564C113.351 123.564 113.311 123.523 113.27 123.523C113.148 123.483 113.067 123.442 112.946 123.402C112.986 123.402 112.986 123.402 112.946 123.402Z" fill="#F79534"/>
<path d="M118.093 121.861C118.093 121.659 118.093 121.456 118.052 121.294C118.052 121.254 118.052 121.173 118.052 121.132C118.052 121.01 118.012 120.889 118.012 120.767C118.012 120.646 117.971 120.524 117.93 120.403C117.89 120.281 117.89 120.159 117.849 120.078C117.849 119.997 117.809 119.916 117.768 119.835C117.728 119.673 117.687 119.551 117.647 119.43C117.647 119.349 117.606 119.308 117.606 119.227C117.525 119.025 117.485 118.822 117.404 118.619C117.404 118.579 117.363 118.538 117.363 118.538C117.282 118.376 117.242 118.174 117.12 118.012C117.079 117.971 117.079 117.89 117.039 117.849C116.958 117.687 116.877 117.485 116.755 117.282C116.755 117.282 116.755 117.241 116.715 117.241C116.593 117.039 116.512 116.836 116.39 116.674C116.35 116.634 116.309 116.553 116.309 116.512C116.228 116.39 116.147 116.228 116.026 116.107C115.985 116.026 115.945 115.985 115.904 115.904C115.823 115.783 115.702 115.62 115.62 115.499C115.58 115.458 115.539 115.377 115.499 115.337C115.418 115.215 115.296 115.094 115.215 114.972C115.175 114.891 115.094 114.81 115.013 114.729C114.972 114.688 114.932 114.648 114.891 114.607C114.729 114.445 114.567 114.283 114.405 114.121C114.324 114.04 114.202 113.918 114.121 113.837C114.04 113.797 113.999 113.716 113.918 113.675C113.797 113.594 113.675 113.473 113.554 113.392C113.513 113.351 113.432 113.27 113.351 113.229C113.229 113.108 113.067 113.027 112.946 112.946C112.905 112.905 112.824 112.865 112.784 112.824C112.581 112.703 112.419 112.581 112.216 112.459L113.473 111.73C113.675 111.852 113.837 111.973 114.04 112.095C114.081 112.135 114.162 112.176 114.202 112.216C114.324 112.297 114.486 112.419 114.607 112.5C114.648 112.54 114.729 112.622 114.81 112.662C114.932 112.743 115.053 112.865 115.134 112.946C115.215 113.027 115.256 113.067 115.337 113.148C115.418 113.189 115.458 113.27 115.539 113.351C115.58 113.392 115.58 113.392 115.62 113.432C115.783 113.594 115.945 113.756 116.107 113.959C116.147 113.999 116.188 114.04 116.228 114.04C116.228 114.04 116.228 114.04 116.228 114.08C116.309 114.162 116.39 114.243 116.431 114.364C116.512 114.445 116.593 114.526 116.674 114.648C116.674 114.648 116.674 114.648 116.715 114.688C116.755 114.729 116.796 114.81 116.836 114.85C116.917 114.932 116.998 115.053 117.079 115.175C117.12 115.215 117.12 115.256 117.16 115.256C117.201 115.296 117.242 115.377 117.282 115.418C117.323 115.499 117.404 115.58 117.444 115.661C117.485 115.742 117.525 115.783 117.566 115.864C117.606 115.904 117.647 115.985 117.647 116.026C117.687 116.066 117.687 116.107 117.728 116.147C117.809 116.309 117.89 116.472 118.012 116.634C118.093 116.796 118.174 116.917 118.255 117.079C118.255 117.12 118.295 117.16 118.336 117.241C118.376 117.282 118.376 117.363 118.417 117.404C118.457 117.444 118.457 117.525 118.498 117.566C118.538 117.687 118.579 117.809 118.66 117.93C118.66 117.971 118.7 118.011 118.7 118.052C118.7 118.052 118.7 118.052 118.7 118.093C118.782 118.255 118.822 118.417 118.863 118.579C118.863 118.619 118.863 118.619 118.903 118.66C118.903 118.741 118.944 118.781 118.944 118.863C118.984 118.944 118.984 119.025 119.025 119.146C119.025 119.187 119.065 119.268 119.065 119.308C119.106 119.389 119.106 119.47 119.146 119.551C119.146 119.592 119.187 119.673 119.187 119.714C119.187 119.754 119.187 119.835 119.227 119.876C119.268 119.997 119.268 120.119 119.308 120.281C119.308 120.321 119.308 120.403 119.349 120.443C119.349 120.524 119.349 120.565 119.389 120.646C119.389 120.686 119.389 120.767 119.389 120.848C119.389 121.051 119.43 121.254 119.43 121.416C119.43 123.037 118.822 124.171 117.89 124.739L116.634 125.468C117.485 124.617 118.052 123.483 118.093 121.861Z" fill="#F79534"/>
<path d="M112.338 112.338V113.999C114.648 115.337 116.553 118.457 116.553 120.97C116.553 123.483 114.648 124.415 112.297 123.077V124.739C115.499 126.562 118.052 125.306 118.093 121.861C118.093 118.457 115.499 114.162 112.338 112.338Z" fill="#FACD00"/>
<path d="M56.4932 7.98362L57.5063 7.37573V8.22678L56.4932 8.83467V7.98362Z" fill="#ABBEC5"/>
<path d="M56.5337 5.79515L57.5063 5.18726V6.0383L56.5337 6.64619V5.79515Z" fill="#ABBEC5"/>
<path d="M56.5337 3.48509L57.5468 2.8772V3.72824L56.5337 4.33613V3.48509Z" fill="#ABBEC5"/>
<path d="M56.4932 8.8347L57.5063 8.22681L82.835 22.8567L81.8219 23.424L56.4932 8.8347Z" fill="#BFD4DC"/>
<path d="M56.4932 7.98362L57.5063 7.37573L82.835 22.0056L81.8219 22.6135L56.4932 7.98362Z" fill="#36A0B7"/>
<path d="M81.8218 22.6135L82.8349 22.0056V22.8567L81.8218 23.424V22.6135Z" fill="#3190A4"/>
<path d="M56.5337 6.64622L57.5063 6.03833L82.835 20.6682L81.8219 21.2356L56.5337 6.64622Z" fill="#BFD4DC"/>
<path d="M56.5337 5.79515L57.5063 5.18726L82.835 19.8171L81.8219 20.3845L56.5337 5.79515Z" fill="#36A0B7"/>
<path d="M81.8218 20.3845L82.8349 19.8171V20.6682L81.8218 21.2355V20.3845Z" fill="#3190A4"/>
<path d="M56.5337 4.33616L57.5468 3.72827L82.835 18.3581L81.8219 18.9255L56.5337 4.33616Z" fill="#BFD4DC"/>
<path d="M81.8623 18.0744L82.8349 17.5071V18.3581L81.8218 18.9255L81.8623 18.0744Z" fill="#3190A4"/>
<path d="M81.8624 18.0744L81.8219 18.9255L56.5337 4.33615V3.48511L81.8624 18.0744Z" fill="#3FBAD4"/>
<path d="M56.5337 3.48509L57.5468 2.8772L82.835 17.5071L81.8624 18.0744L56.5337 3.48509Z" fill="#36A0B7"/>
<path d="M81.5787 15.8862C82.5108 16.413 83.2808 17.7099 83.2808 18.8041V24.3966C83.2808 24.4777 83.2808 24.5182 83.2402 24.5993L83.1997 31.4482L77.6477 23.0998L56.6957 10.9825C55.7636 10.4557 54.9937 9.15888 54.9937 8.06468V2.4721C54.9937 1.41842 55.7636 0.97264 56.6957 1.49948L81.5787 15.8862ZM81.8218 18.9256V18.0746L56.5336 3.48525V4.33629L81.8218 18.9256ZM81.8218 23.424V22.573L56.4931 7.9431V8.79415L81.8218 23.424ZM81.8218 21.2356V20.3846L56.4931 5.7547V6.60575L81.8218 21.2356Z" fill="#F8F9FD"/>
<path d="M81.8219 22.6135V23.424L56.4932 8.83469V7.98364L81.8219 22.6135Z" fill="#3FBAD4"/>
<path d="M81.8219 20.3845V21.2356L56.5337 6.64621V5.79517L81.8219 20.3845Z" fill="#3FBAD4"/>
<path d="M84.2534 18.1556C84.2534 18.1151 84.2534 18.1151 84.2534 18.0746C84.2534 18.0341 84.2534 18.0341 84.2534 17.9935C84.2534 17.953 84.2534 17.953 84.2534 17.9125C84.2534 17.872 84.2534 17.872 84.2534 17.8314C84.2534 17.7909 84.2534 17.7909 84.2534 17.7504C84.2534 17.7099 84.2534 17.7099 84.2534 17.6693C84.2534 17.6288 84.2534 17.6288 84.2129 17.5883C84.2129 17.5478 84.2129 17.5072 84.1723 17.5072C84.1723 17.4667 84.1723 17.4667 84.1723 17.4262C84.1723 17.3857 84.1724 17.3857 84.1318 17.3451C84.1318 17.3046 84.1318 17.3046 84.0913 17.2641C84.0913 17.2236 84.0913 17.2236 84.0508 17.183C84.0508 17.1425 84.0102 17.1425 84.0102 17.102C84.0102 17.102 84.0102 17.0614 83.9697 17.0209C83.9697 16.9804 83.9292 16.9804 83.9292 16.9399C83.9292 16.8993 83.8887 16.8993 83.8887 16.8588C83.8887 16.8183 83.8481 16.7778 83.8481 16.7778C83.8481 16.7372 83.8076 16.6967 83.7671 16.6562C83.7266 16.5751 83.686 16.5346 83.6455 16.4536C83.605 16.413 83.5645 16.3725 83.5239 16.2915C83.5239 16.2509 83.4834 16.2104 83.4429 16.2104C83.4024 16.1699 83.4024 16.1699 83.3618 16.1294C83.3213 16.0888 83.3213 16.0888 83.2808 16.0483C83.2403 16.0078 83.2403 16.0078 83.1997 15.9672L83.1592 15.9267C83.1187 15.8862 83.1187 15.8862 83.0781 15.8457C83.0376 15.8051 83.0376 15.8051 82.9971 15.7646C82.9566 15.7241 82.9566 15.7241 82.916 15.6836L82.8755 15.643C82.8755 15.643 82.8755 15.643 82.835 15.6025C82.7945 15.6025 82.7945 15.562 82.7539 15.562C82.7134 15.562 82.7134 15.5215 82.6729 15.5215C82.6324 15.5215 82.6324 15.4809 82.5918 15.4809C82.5513 15.4809 82.5513 15.4404 82.5108 15.4404L57.7494 0.972649C57.7494 0.972649 57.7089 0.972649 57.7089 0.932123C57.6684 0.932123 57.6684 0.891597 57.6279 0.891597C57.5873 0.891597 57.5873 0.851071 57.5468 0.851071C57.5063 0.851071 57.5063 0.851071 57.4658 0.810545C57.4252 0.810545 57.4252 0.810545 57.3847 0.77002H57.3442C57.3036 0.77002 57.3036 0.77002 57.2631 0.77002C57.2226 0.77002 57.2226 0.77002 57.1821 0.77002C57.1415 0.77002 57.1415 0.77002 57.101 0.77002H57.0605C57.02 0.77002 57.02 0.77002 56.9794 0.77002C56.9389 0.77002 56.9389 0.77002 56.8984 0.77002C56.8579 0.77002 56.8173 0.77002 56.8173 0.77002C56.7768 0.77002 56.7363 0.77002 56.6958 0.810545C56.6552 0.810545 56.6147 0.851071 56.5742 0.851071C56.25 1.0537 55.8852 1.25633 55.561 1.41843C55.6421 1.37791 55.7231 1.33738 55.8042 1.33738C55.8852 1.33738 56.0068 1.29686 56.0879 1.33738C56.2094 1.33738 56.2905 1.37791 56.4121 1.41843C56.5337 1.45896 56.6552 1.49949 56.7363 1.58054L81.5787 15.9267C81.7003 16.0078 81.8218 16.0888 81.9029 16.1699C82.0245 16.2509 82.1055 16.332 82.2271 16.4536C82.3082 16.5751 82.4297 16.6562 82.5108 16.7778C82.5918 16.8993 82.6729 17.0209 82.7539 17.1425C82.835 17.2641 82.916 17.3857 82.9566 17.5478C82.9971 17.6693 83.0782 17.8314 83.1187 17.953C83.1997 18.2367 83.2403 18.5204 83.2403 18.8041V24.3966C83.2403 24.4777 83.2403 24.5182 83.1997 24.5993L83.1592 31.4482L84.1723 30.8808L84.2129 24.0319V23.9914V23.9509V23.9103C84.2129 23.9103 84.2129 23.9103 84.2129 23.8698C84.2129 23.8698 84.2129 23.8698 84.2129 23.8293V18.2367C84.2534 18.1962 84.2534 18.1556 84.2534 18.1556Z" fill="#A9D6EA"/>
<path d="M87.8604 6.56517L88.7924 6.03833V6.80832L87.8604 7.33516V6.56517Z" fill="#ABBEC5"/>
<path d="M87.9006 4.57933L88.7922 4.05249V4.82248L87.9006 5.34932V4.57933Z" fill="#ABBEC5"/>
<path d="M87.9006 2.47215L88.7922 1.94531V2.71531L87.9006 3.24214V2.47215Z" fill="#ABBEC5"/>
<path d="M87.8604 7.33519L88.7924 6.80835L111.892 20.1414L110.96 20.6682L87.8604 7.33519Z" fill="#BFD4DC"/>
<path d="M87.8604 6.56517L88.7924 6.03833L111.892 19.3714L110.96 19.8982L87.8604 6.56517Z" fill="#36A0B7"/>
<path d="M110.96 19.8982V20.6682L87.8604 7.33518V6.56519L110.96 19.8982Z" fill="#3FBAD4"/>
<path d="M110.96 19.8982L111.892 19.3713V20.1413L110.96 20.6682V19.8982Z" fill="#3190A4"/>
<path d="M87.9006 5.34935L88.7922 4.82251L111.892 18.1555L110.96 18.6824L87.9006 5.34935Z" fill="#BFD4DC"/>
<path d="M87.9006 4.57933L88.7922 4.05249L111.892 17.345L110.96 17.9124L87.9006 4.57933Z" fill="#36A0B7"/>
<path d="M110.96 17.9126L111.892 17.3452V18.1557L110.96 18.6826V17.9126Z" fill="#3190A4"/>
<path d="M87.9006 3.24217L88.7922 2.71533L111.892 16.0484L110.96 16.5752L87.9006 3.24217Z" fill="#BFD4DC"/>
<path d="M87.9006 2.47215L88.7922 1.94531L111.892 15.2783L110.96 15.8052L87.9006 2.47215Z" fill="#36A0B7"/>
<path d="M110.96 15.8052L111.892 15.2783V16.0483L110.96 16.5752V15.8052Z" fill="#3190A4"/>
<path d="M110.798 13.8194C111.649 14.3057 112.338 15.4809 112.338 16.4536V21.5598C112.338 22.5325 111.649 22.9377 110.798 22.4514L91.6697 11.4284L86.604 13.171V6.88945C86.604 6.80839 86.604 6.76787 86.604 6.68682V1.58055C86.604 0.607925 87.2929 0.202665 88.144 0.688977L110.798 13.8194ZM110.96 18.6825V17.9125L87.8603 4.57947V5.34946L110.96 18.6825ZM110.96 20.6683V19.8983L87.8603 6.56524V7.33523L110.96 20.6683ZM110.96 16.5751V15.8052L87.8603 2.47212V3.24211L110.96 16.5751Z" fill="#F8F9FD"/>
<path d="M110.96 17.9124V18.6824L87.9006 5.34934V4.57935L110.96 17.9124Z" fill="#3FBAD4"/>
<path d="M110.96 15.8052V16.5752L87.9006 3.24216V2.47217L110.96 15.8052Z" fill="#3FBAD4"/>
<path d="M113.23 15.8862C113.23 15.8456 113.23 15.8456 113.23 15.8051C113.23 15.7646 113.23 15.7646 113.23 15.7241C113.23 15.6835 113.23 15.6835 113.23 15.643C113.23 15.6025 113.23 15.6025 113.23 15.562C113.23 15.5214 113.23 15.5214 113.23 15.4809C113.23 15.4404 113.23 15.4404 113.23 15.3999C113.23 15.3593 113.23 15.3593 113.23 15.3188C113.23 15.2783 113.23 15.2783 113.23 15.2378C113.23 15.1972 113.23 15.1972 113.23 15.1567C113.23 15.1162 113.23 15.1162 113.189 15.0757C113.189 15.0351 113.189 15.0351 113.149 14.9946C113.149 14.9541 113.149 14.9541 113.108 14.9135C113.108 14.873 113.067 14.873 113.067 14.8325C113.067 14.8325 113.067 14.792 113.027 14.792C113.027 14.7514 112.986 14.7514 112.986 14.7109C112.986 14.6704 112.946 14.6704 112.946 14.6299C112.946 14.5893 112.905 14.5893 112.905 14.5488C112.905 14.5083 112.865 14.4678 112.865 14.4678C112.824 14.3867 112.784 14.3462 112.743 14.2651C112.703 14.2246 112.662 14.1841 112.662 14.1436C112.622 14.103 112.622 14.103 112.581 14.0625C112.541 14.022 112.541 14.022 112.5 13.9815C112.5 13.9409 112.46 13.9409 112.46 13.9004C112.46 13.8599 112.419 13.8599 112.419 13.8193L112.379 13.7788C112.338 13.7383 112.338 13.7383 112.297 13.6978C112.257 13.6978 112.257 13.6572 112.216 13.6167C112.176 13.6167 112.176 13.5762 112.135 13.5762C112.135 13.5762 112.095 13.5762 112.095 13.5357C112.095 13.5357 112.095 13.5357 112.054 13.4951C112.014 13.4951 112.014 13.4546 111.973 13.4546C111.933 13.4546 111.933 13.4141 111.892 13.4141C111.852 13.4141 111.852 13.3736 111.811 13.3736C111.771 13.3736 111.771 13.333 111.73 13.333L89.0761 0.20263C89.0761 0.20263 89.0356 0.20263 89.0356 0.162104C89.0356 0.162104 88.9951 0.162104 88.9545 0.121578C88.914 0.121578 88.914 0.121578 88.8735 0.0810519C88.8329 0.0810519 88.8329 0.0810519 88.7924 0.040526C88.7924 0.040526 88.7519 0.040526 88.7114 0H88.6708C88.6303 0 88.6303 0 88.5898 0C88.5493 0 88.5493 0 88.5087 0C88.4682 0 88.4682 0 88.4277 0H88.3872C88.3466 0 88.3466 0 88.3061 0C88.2656 0 88.2656 0 88.2251 0C88.1845 0 88.144 0 88.144 0C88.1035 0 88.063 0 88.0224 0.040526C87.9819 0.040526 87.9414 0.0810519 87.9008 0.0810519C87.6172 0.243156 87.3335 0.405259 87.0903 0.567363C87.0498 0.567363 87.0093 0.607889 87.0093 0.607889C87.0903 0.567363 87.1714 0.526837 87.2524 0.526837C87.3335 0.526837 87.4145 0.526837 87.4956 0.526837C87.5766 0.526837 87.6982 0.567363 87.7793 0.567363C87.9009 0.607889 87.9819 0.648415 88.1035 0.729467L110.757 13.8193C110.879 13.9004 110.96 13.9409 111.082 14.022C111.163 14.103 111.284 14.1841 111.365 14.3057C111.568 14.5083 111.73 14.7109 111.852 14.9541C111.933 15.0757 111.973 15.1972 112.054 15.3188C112.095 15.4404 112.135 15.562 112.176 15.6835C112.257 15.9267 112.297 16.2104 112.297 16.4535V21.5598C112.297 21.6814 112.297 21.803 112.257 21.884C112.216 21.9651 112.216 22.0866 112.176 22.1677C112.135 22.2487 112.095 22.2893 112.054 22.3298L112.014 22.3703C111.973 22.4109 111.892 22.4919 111.852 22.4919C112.176 22.3298 112.46 22.1272 112.784 21.9651C112.865 21.9245 112.905 21.884 112.946 21.8435L112.986 21.803C112.986 21.7624 113.027 21.7624 113.027 21.7219C113.067 21.6814 113.067 21.6409 113.067 21.6003C113.067 21.5598 113.108 21.5598 113.108 21.5193C113.108 21.4788 113.108 21.4788 113.149 21.4382C113.149 21.3977 113.149 21.3977 113.189 21.3572V21.3166C113.189 21.3166 113.189 21.3166 113.189 21.2761C113.189 21.2356 113.189 21.2356 113.189 21.1951C113.189 21.1545 113.189 21.1545 113.189 21.114C113.189 21.0735 113.189 21.0735 113.189 21.033C113.189 20.9924 113.189 20.9924 113.189 20.9519V15.8456C113.23 15.9267 113.23 15.8862 113.23 15.8862Z" fill="#A9D6EA"/>
<g opacity="0.1">
<g opacity="0.1">
<path opacity="0.1" d="M143.584 89.1977C149.379 92.5613 149.419 97.9918 143.665 101.315C137.91 104.679 128.548 104.679 122.753 101.315C116.958 97.9918 116.917 92.5613 122.672 89.1977C128.427 85.8745 137.788 85.8745 143.584 89.1977Z" fill="black"/>
</g>
</g>
<path d="M150.797 78.3367L121.213 78.823L124.779 97.1407H124.82C125.063 98.5996 126.157 100.018 128.103 101.112C132.52 103.665 139.612 103.665 143.948 101.112C145.853 99.9775 146.947 98.5591 147.15 97.1002L150.797 78.3367Z" fill="url(#paint5_linear)"/>
<path d="M146.42 72.2983C152.215 75.6619 152.256 81.0924 146.501 84.4155C140.747 87.7386 131.385 87.7386 125.59 84.4155C119.795 81.0519 119.754 75.6619 125.509 72.2983C131.264 68.9751 140.625 68.9751 146.42 72.2983Z" fill="#29BADF"/>
<path d="M143.219 73.9192C147.474 76.3913 147.474 80.3223 143.259 82.7944C139.045 85.226 132.236 85.226 127.981 82.7944C123.766 80.3628 123.726 76.3913 127.94 73.9597C132.115 71.4877 138.963 71.4877 143.219 73.9192Z" fill="url(#paint6_linear)"/>
<path d="M130.858 74.122C128.305 70.5152 116.917 67.962 121.213 59.2895C125.509 50.6169 119.268 50.5359 116.877 41.9444C114.486 33.3934 123.645 37.8918 120.403 26.0177C117.08 13.9815 122.915 8.59152 127.819 11.8336C134.384 16.1293 137.707 25.9366 136.856 36.1086C136.046 46.2806 135.884 47.1317 137.383 57.1821C138.883 67.2326 135.033 79.2688 133.168 79.7956C131.264 80.363 131.75 75.3783 130.858 74.122Z" fill="url(#paint7_linear)"/>
<path opacity="0.5" d="M132.074 61.6805L132.034 61.5995C131.872 60.1811 131.709 58.7627 131.507 57.3037L133.452 50.2117L132.966 50.0901L131.304 56.088C130.818 52.5622 130.291 49.0364 129.724 45.6728L129.643 46.3212L131.831 38.3781L131.345 38.2565L129.521 44.7812C128.913 41.2555 128.305 37.9729 127.738 35.0145L129.764 27.7603L129.278 27.6387L127.535 33.9608C126.279 27.3956 125.266 22.9783 125.225 22.8567L124.739 22.9783C124.779 23.0998 125.914 28.1251 127.292 35.3792L123.402 30.1514L122.996 30.435L127.495 36.4734C128.224 40.2423 128.994 44.5786 129.683 49.1175L125.387 43.3628L124.982 43.6465L129.845 50.3738L129.724 49.5633C130.129 52.1164 130.494 54.7506 130.858 57.3443L130.818 57.4658H130.858C131.02 58.6006 131.142 59.7353 131.264 60.87L127.373 55.6422L126.968 55.9259L131.345 61.8427C132.074 68.4079 132.52 74.7704 132.277 79.8767L132.763 79.9172C132.966 74.7704 132.56 68.3673 131.831 61.7616L132.074 61.6805Z" fill="#DEF6FF"/>
<path d="M138.072 75.9051C140.868 73.4736 150.716 73.7167 148.973 65.7736C147.231 57.79 152.337 59.0058 156.066 52.4811C159.794 45.9565 151.365 47.7801 156.471 38.7428C161.658 29.584 158.011 23.9509 153.31 25.6124C147.069 27.8008 142.327 35.136 140.949 43.606C139.531 52.0759 139.49 52.8053 136.208 60.7484C132.925 68.651 133.614 79.3093 135.033 80.1198C136.451 80.8898 137.099 76.7157 138.072 75.9051Z" fill="url(#paint8_linear)"/>
<path opacity="0.5" d="M139.612 65.4494L139.652 65.4089C140.058 64.2741 140.503 63.1394 140.949 62.0047L140.787 55.8042H141.192L141.314 61.0321C142.449 58.2358 143.583 55.48 144.759 52.8458L144.678 53.3727L144.516 46.4427H144.921L145.083 52.1569C146.299 49.4011 147.474 46.8075 148.528 44.538L148.366 38.1754H148.771L148.892 43.687C151.283 38.5807 152.985 35.1765 153.067 35.0549L153.431 35.2576C153.391 35.3791 151.405 39.2291 148.811 44.9027L153.067 41.4175L153.31 41.7417L148.406 45.7538C147.028 48.7122 145.529 52.0758 144.029 55.6421L148.73 51.7922L148.973 52.1164L143.624 56.6147L143.908 55.9663C143.057 57.9926 142.206 60.0189 141.395 62.0857V62.2073H141.355C140.99 63.0989 140.666 63.9905 140.301 64.882L144.556 61.3968L144.799 61.721L140.017 65.652C138.072 70.8799 136.41 75.9861 135.559 80.2008L135.154 80.1198C136.046 75.8646 137.667 70.7178 139.612 65.4494Z" fill="#DEF6FF"/>
<path d="M71.0014 45.9565L73.3519 44.5786L56.412 22.2488L54.0615 23.6267L71.0014 45.9565Z" fill="#CACACA"/>
<path d="M87.9818 43.2006L90.3323 41.8228L73.352 44.5785L71.0015 45.9564L87.9818 43.2006Z" fill="#B8B8B8"/>
<path d="M87.9006 68.2457L90.2511 66.9083L90.3322 41.8228L87.9817 43.2006L87.9006 68.2457Z" fill="#96C4FF"/>
<path d="M54.0615 23.6265L71.0014 45.9563L87.9817 43.2005L54.0615 23.6265Z" fill="#B4E3ED"/>
<path d="M87.9817 43.2007L90.3322 41.8228L56.412 22.2488L54.0615 23.6267L87.9817 43.2007Z" fill="#EEFAFE"/>
<path d="M54.0615 23.6265L53.9805 48.6715L87.9007 68.2455L87.9817 43.2005L71.0014 45.9563L54.0615 23.6265Z" fill="white"/>
<path d="M84.6588 80.6872L86.2393 79.7551L74.9731 64.9226L73.3926 65.8547L84.6588 80.6872Z" fill="#CACACA"/>
<path d="M95.9654 78.8635L97.5054 77.9314L86.2392 79.7551L84.6587 80.6872L95.9654 78.8635Z" fill="#B8B8B8"/>
<path d="M95.9248 95.5197L97.4648 94.6281L97.5053 77.9314L95.9653 78.8635L95.9248 95.5197Z" fill="#96C4FF"/>
<path d="M73.3926 65.8547L84.6588 80.6872L95.9655 78.8636L73.3926 65.8547Z" fill="#B4E3ED"/>
<path d="M95.9655 78.8635L97.5055 77.9314L74.9731 64.9226L73.3926 65.8547L95.9655 78.8635Z" fill="#EEFAFE"/>
<path d="M73.3926 65.8547L73.3521 82.5109L95.925 95.5197L95.9655 78.8636L84.6588 80.6872L73.3926 65.8547Z" fill="white"/>
<path d="M95.56 25.8149C95.479 25.7744 95.3979 25.7744 95.3169 25.7744H95.2763C95.1953 25.7744 95.1142 25.7744 95.0332 25.7744C94.9521 25.7744 94.8711 25.8149 94.8306 25.8149C94.8306 25.8149 94.8306 25.8149 94.79 25.8149C94.709 25.8554 94.6685 25.8554 94.5874 25.896L96.4516 24.8018C96.4921 24.8018 96.5327 24.7612 96.5732 24.7612C96.6137 24.7612 96.6137 24.7612 96.6542 24.7207C96.6542 24.7207 96.6542 24.7207 96.6948 24.7207C96.7353 24.7207 96.7758 24.7207 96.8163 24.6802C96.8569 24.6802 96.8569 24.6802 96.8974 24.6802H96.9379C96.9784 24.6802 97.019 24.6802 97.0595 24.6802H97.1H97.1405H97.1811C97.2621 24.6802 97.3026 24.7207 97.3837 24.7207C97.4242 24.7207 97.4242 24.7207 97.4647 24.7612C97.5458 24.7612 97.5863 24.8018 97.6674 24.8423C97.789 24.8828 97.87 24.9233 97.9916 25.0044C98.1132 25.0854 98.1942 25.126 98.3158 25.207C98.3563 25.2475 98.3968 25.2475 98.3968 25.2881C98.4779 25.3691 98.5995 25.4502 98.6805 25.5312C98.7211 25.5312 98.7211 25.5717 98.7616 25.5717C98.8426 25.6528 98.9642 25.7338 99.0453 25.8554L99.0858 25.896C99.2479 26.0581 99.3695 26.1796 99.5316 26.3417C99.5721 26.3823 99.5721 26.4228 99.6126 26.4228C99.7342 26.5444 99.8153 26.6659 99.9368 26.7875C100.058 26.9496 100.18 27.0712 100.261 27.2333L100.302 27.2738C100.423 27.4359 100.545 27.6386 100.666 27.8007C100.666 27.8007 100.666 27.8007 100.666 27.8412C100.707 27.8817 100.707 27.9223 100.747 28.0033C100.828 28.1249 100.909 28.2465 100.991 28.4086C100.991 28.4491 101.031 28.4491 101.031 28.4896C101.153 28.4086 101.234 28.368 101.355 28.3275C101.396 28.3275 101.396 28.3275 101.436 28.287C101.517 28.2465 101.598 28.2059 101.679 28.2059H101.72C101.76 28.2059 101.801 28.2059 101.842 28.1654C101.882 28.1654 101.963 28.1249 102.004 28.1249C102.044 28.1249 102.044 28.1249 102.085 28.1249C102.125 28.1249 102.166 28.1249 102.206 28.1249C102.247 28.1249 102.287 28.1249 102.328 28.1249C102.368 28.1249 102.409 28.1249 102.449 28.1249C102.49 28.1249 102.53 28.1249 102.571 28.1249C102.612 28.1249 102.612 28.1249 102.652 28.1249C102.733 28.1249 102.814 28.1249 102.895 28.1654C102.936 28.1654 102.936 28.1654 102.976 28.1654C103.098 28.1654 103.179 28.2059 103.3 28.2465C103.382 28.2465 103.422 28.287 103.503 28.3275C103.584 28.368 103.625 28.368 103.706 28.4086C103.827 28.4491 103.949 28.5301 104.07 28.6112C104.192 28.6922 104.314 28.7733 104.435 28.8543C104.476 28.8949 104.516 28.8949 104.557 28.9354C104.638 29.0165 104.719 29.057 104.8 29.138C104.84 29.138 104.84 29.1786 104.881 29.1786L104.922 29.2191C104.962 29.2596 105.003 29.3001 105.003 29.3001C105.043 29.3407 105.043 29.3407 105.084 29.3812C105.124 29.4217 105.165 29.5028 105.205 29.5433C105.205 29.5433 105.205 29.5838 105.246 29.5838C105.286 29.6243 105.327 29.7054 105.367 29.7864C105.408 29.827 105.448 29.8675 105.448 29.908C105.448 29.908 105.448 29.908 105.448 29.9485C105.489 29.9891 105.529 30.0701 105.57 30.1107C105.61 30.1512 105.651 30.2322 105.692 30.3133C105.732 30.3538 105.773 30.4349 105.773 30.4754C105.813 30.5564 105.854 30.597 105.854 30.678C105.854 30.678 105.854 30.678 105.854 30.7185V30.7591C105.894 30.7996 105.894 30.8806 105.935 30.9212C105.975 31.0022 106.016 31.0833 106.016 31.1643C106.056 31.2454 106.097 31.367 106.097 31.448C106.097 31.4885 106.097 31.5291 106.137 31.5291C106.137 31.5696 106.178 31.6101 106.178 31.6912C106.178 31.7317 106.218 31.7722 106.218 31.8127C106.218 31.8533 106.218 31.8938 106.218 31.9343C106.218 32.0154 106.259 32.1369 106.259 32.218C106.259 32.2585 106.259 32.2991 106.259 32.3396C106.259 32.3801 106.259 32.4206 106.259 32.4206C106.259 32.5422 106.259 32.6233 106.299 32.7448C106.299 32.8259 106.299 32.8664 106.299 32.9475C106.299 33.069 106.299 33.1906 106.299 33.3527C106.299 33.3933 106.299 33.4338 106.299 33.4743C106.299 33.6364 106.259 33.7985 106.259 34.0011C106.259 34.0417 106.259 34.0822 106.218 34.1227C106.218 34.2443 106.178 34.3659 106.137 34.4875C106.137 34.5685 106.097 34.609 106.097 34.6496C106.056 34.7711 106.056 34.8522 106.016 34.9738C106.016 35.0548 105.975 35.0953 105.935 35.1764C105.894 35.2574 105.854 35.379 105.813 35.4601C105.773 35.5006 105.773 35.5817 105.732 35.6222C105.692 35.7438 105.651 35.8248 105.57 35.9059C105.529 35.9464 105.529 35.9869 105.489 36.068C105.408 36.2301 105.327 36.3516 105.205 36.4732C104.516 37.4053 103.625 38.4995 102.693 39.0264L100.828 40.1206C101.76 39.5937 102.652 38.4995 103.341 37.5674C103.422 37.4458 103.544 37.2837 103.625 37.1622C103.665 37.1216 103.665 37.0811 103.706 37.0001C103.746 36.919 103.827 36.7974 103.868 36.7164C103.908 36.6759 103.908 36.5948 103.949 36.5543C103.989 36.4732 104.03 36.3516 104.07 36.2706C104.111 36.1895 104.111 36.149 104.152 36.068C104.192 35.9464 104.192 35.8653 104.233 35.7438C104.233 35.6627 104.273 35.6222 104.273 35.5411C104.314 35.4195 104.314 35.298 104.354 35.1764C104.354 35.1359 104.354 35.0953 104.395 35.0548C104.435 34.8927 104.435 34.7306 104.435 34.528C104.435 34.4875 104.435 34.4469 104.435 34.4064C104.435 34.2848 104.435 34.1632 104.435 34.0011C104.435 33.9201 104.435 33.8796 104.435 33.7985C104.435 33.6769 104.435 33.5959 104.395 33.4743C104.395 33.3933 104.395 33.3527 104.354 33.2717C104.354 33.1906 104.314 33.069 104.314 32.988C104.314 32.9069 104.273 32.8259 104.273 32.7448C104.273 32.7043 104.233 32.6638 104.233 32.5827C104.192 32.4612 104.152 32.3396 104.111 32.1775C104.07 32.0559 104.03 31.8938 103.949 31.7722V31.7317C103.908 31.6101 103.827 31.448 103.746 31.3264C103.665 31.2049 103.584 31.0833 103.503 30.9212C103.503 30.9212 103.503 30.9212 103.503 30.8806C103.422 30.7591 103.341 30.6375 103.26 30.5159C103.179 30.4349 103.138 30.3538 103.057 30.2728C103.017 30.2322 102.976 30.1917 102.976 30.1917C102.936 30.1512 102.895 30.1107 102.855 30.0701C102.774 29.9891 102.693 29.908 102.612 29.8675C102.571 29.827 102.53 29.827 102.49 29.7864C102.368 29.7054 102.247 29.6243 102.125 29.5433C102.004 29.4622 101.882 29.4217 101.76 29.3407C101.679 29.3001 101.639 29.3001 101.558 29.2596C101.477 29.2191 101.436 29.2191 101.355 29.1786C101.234 29.138 101.112 29.138 100.991 29.0975C100.95 29.0975 100.95 29.0975 100.909 29.0975C100.828 29.0975 100.707 29.0975 100.626 29.057C100.585 29.057 100.545 29.057 100.504 29.057C100.423 29.057 100.342 29.057 100.261 29.057C100.221 29.057 100.18 29.057 100.139 29.057C100.058 29.057 99.9774 29.0975 99.8963 29.0975C99.8558 29.0975 99.8153 29.0975 99.7747 29.138C99.6937 29.1786 99.5721 29.1786 99.491 29.2191C99.4505 29.2191 99.4505 29.2191 99.41 29.2596C99.2884 29.3001 99.1668 29.3812 99.0453 29.4217C98.9642 29.2596 98.8832 29.138 98.7616 28.9759C98.7211 28.9354 98.6805 28.8543 98.64 28.8138C98.5184 28.6112 98.3968 28.4491 98.2753 28.2465L98.2347 28.2059C98.1132 28.0438 97.9916 27.8817 97.87 27.7196C97.7484 27.598 97.6674 27.4765 97.5863 27.3549C97.5458 27.3144 97.5458 27.2738 97.5053 27.2333C97.3432 27.0712 97.2216 26.9091 97.0595 26.7875C96.9379 26.6659 96.8569 26.5849 96.7353 26.4633C96.6948 26.4633 96.6948 26.4228 96.6542 26.4228C96.5732 26.3417 96.4516 26.2607 96.3705 26.1796C96.33 26.1391 96.2895 26.1391 96.2895 26.0986C96.1679 26.0175 96.0463 25.9365 95.9653 25.896C95.8437 25.8149 95.7627 25.7744 95.6411 25.7338C95.56 25.6933 95.479 25.6933 95.4384 25.6528C95.6411 25.8554 95.6006 25.8554 95.56 25.8149Z" fill="#E1BB00"/>
<path d="M96.1681 26.0987C95.7628 25.8556 95.3575 25.734 95.0333 25.7745C93.4933 25.9366 93.4123 28.9761 94.8307 32.5424C95.9654 35.3792 97.6675 39.3507 99.0859 40.1612C99.1265 40.1612 99.1265 40.2018 99.167 40.2018C99.2075 40.2018 99.2075 40.2423 99.248 40.2423C100.666 41.0528 102.409 39.067 103.544 37.5676C104.962 35.6223 104.922 32.5018 103.382 30.5971C103.057 30.1513 102.652 29.8271 102.247 29.584C101.274 29.0166 100.14 29.0166 99.2075 29.5434C98.2754 27.9224 97.1407 26.6661 96.1681 26.0987Z" fill="#FFDF02"/>
<path d="M26.5041 12.4011C26.4231 12.3606 26.342 12.3606 26.261 12.3606H26.2204C26.1394 12.3606 26.0583 12.3606 25.9773 12.3606C25.8962 12.3606 25.8152 12.4011 25.7747 12.4011C25.7747 12.4011 25.7747 12.4011 25.7341 12.4011C25.6531 12.4416 25.6125 12.4416 25.572 12.4821L27.4362 11.3879C27.4767 11.3879 27.5173 11.3474 27.5578 11.3474C27.5983 11.3474 27.5983 11.3474 27.6388 11.3069C27.6388 11.3069 27.6388 11.3069 27.6794 11.3069C27.7199 11.3069 27.7604 11.3069 27.8009 11.2664C27.8415 11.2664 27.8415 11.2664 27.882 11.2664H27.9225C27.9631 11.2664 28.0036 11.2664 28.0441 11.2664H28.0846H28.1252H28.1657C28.2467 11.2664 28.2873 11.3069 28.3683 11.3069C28.4088 11.3069 28.4088 11.3069 28.4494 11.3474C28.5304 11.3474 28.5709 11.3879 28.652 11.4285C28.652 11.4285 28.652 11.4285 28.6925 11.4285C28.8141 11.469 28.8951 11.5095 29.0167 11.5906C29.1383 11.6716 29.2194 11.7121 29.3409 11.7932C29.3815 11.8337 29.422 11.8337 29.422 11.8742C29.503 11.9553 29.6246 12.0364 29.7057 12.1174C29.7462 12.1174 29.7462 12.1579 29.7867 12.1579C29.8678 12.239 29.9893 12.32 30.0704 12.4416L30.1109 12.4821C30.273 12.6442 30.3946 12.7658 30.5567 12.9279C30.5972 12.9684 30.5972 13.009 30.6378 13.009C30.7593 13.1306 30.8404 13.2521 30.962 13.3737C31.0836 13.5358 31.2051 13.6574 31.2862 13.8195C31.2862 13.8195 31.2862 13.86 31.3267 13.86C31.4483 14.0221 31.5699 14.2248 31.6914 14.3869C31.6914 14.3869 31.6914 14.3869 31.6914 14.4274C31.732 14.4679 31.732 14.5084 31.7725 14.5895C31.8535 14.7111 31.9346 14.8326 32.0156 14.9947C32.0156 15.0353 32.0562 15.0353 32.0562 15.0758C32.1778 14.9947 32.2588 14.9542 32.3804 14.9137C32.4209 14.9137 32.4209 14.9137 32.4614 14.8732C32.5425 14.8326 32.6235 14.7921 32.7046 14.7921H32.7451C32.7856 14.7921 32.8262 14.7921 32.8667 14.7516C32.9072 14.7516 32.9883 14.7111 33.0288 14.7111C33.0693 14.7111 33.0693 14.7111 33.1098 14.7111C33.1504 14.7111 33.1909 14.7111 33.2314 14.7111C33.272 14.7111 33.3125 14.7111 33.353 14.7111C33.3935 14.7111 33.4341 14.7111 33.4746 14.7111C33.5151 14.7111 33.5556 14.7111 33.5962 14.7111C33.6367 14.7111 33.6367 14.7111 33.6772 14.7111C33.7583 14.7111 33.8393 14.7111 33.8798 14.7516C33.9204 14.7516 33.9204 14.7516 33.9609 14.7516C34.0825 14.7516 34.1635 14.7921 34.2851 14.8326C34.3662 14.8326 34.4067 14.8732 34.4877 14.9137C34.5688 14.9542 34.6093 14.9542 34.6904 14.9947C34.8119 15.0353 34.9335 15.1163 35.0551 15.1974C35.1767 15.2784 35.2983 15.3595 35.4198 15.4405C35.4604 15.4811 35.5009 15.4811 35.5414 15.5216C35.6225 15.6026 35.7035 15.6432 35.7846 15.7242C35.8251 15.7242 35.8251 15.7647 35.8656 15.7647L35.9061 15.8053C35.9467 15.8458 35.9872 15.8863 35.9872 15.8863C36.0277 15.9268 36.0277 15.9268 36.0682 15.9674C36.1088 16.0079 36.1493 16.0889 36.1898 16.1295C36.1898 16.1295 36.1898 16.17 36.2303 16.17C36.2709 16.2105 36.3114 16.2916 36.3519 16.3726C36.3924 16.4132 36.433 16.4537 36.433 16.4942C36.433 16.4942 36.433 16.4942 36.433 16.5347C36.4735 16.5753 36.514 16.6563 36.5546 16.6968C36.5951 16.7374 36.6356 16.8184 36.6761 16.8995C36.7167 16.94 36.7167 17.021 36.7572 17.0616C36.7977 17.1426 36.8382 17.1831 36.8382 17.2642C36.8382 17.2642 36.8382 17.2642 36.8382 17.3047V17.3452C36.8788 17.3858 36.8788 17.4668 36.9193 17.5074C36.9598 17.5884 36.9598 17.6695 37.0003 17.7505C37.0409 17.8316 37.0814 17.9531 37.0814 18.0342C37.0814 18.0747 37.0814 18.1152 37.1219 18.1152C37.1219 18.1558 37.1624 18.1963 37.1624 18.2773C37.1624 18.3179 37.203 18.3584 37.203 18.3989C37.203 18.4395 37.203 18.48 37.203 18.5205C37.203 18.6016 37.2435 18.7231 37.2435 18.8042C37.2435 18.8447 37.2435 18.8852 37.284 18.9258C37.284 18.9663 37.284 19.0068 37.284 19.0068C37.284 19.1284 37.3245 19.2094 37.3245 19.331C37.3245 19.4121 37.3245 19.4526 37.3245 19.5337C37.3245 19.6552 37.3245 19.7768 37.3245 19.9389C37.3245 19.9794 37.3245 20.02 37.3245 20.0605C37.3245 20.2226 37.284 20.3847 37.284 20.5873C37.284 20.6279 37.284 20.6684 37.2435 20.7089C37.2435 20.8305 37.203 20.9521 37.1624 21.0736C37.1624 21.1547 37.1219 21.1952 37.1219 21.2357C37.0814 21.3573 37.0814 21.4384 37.0409 21.5599C37.0409 21.641 37.0003 21.6815 36.9598 21.7626C36.9193 21.8436 36.8788 21.9652 36.8382 22.0463C36.7977 22.0868 36.7977 22.1678 36.7572 22.2084C36.7167 22.3299 36.6761 22.411 36.5951 22.492C36.5546 22.5326 36.5546 22.5731 36.514 22.6541C36.433 22.8163 36.3519 22.9378 36.2303 23.0594C35.5414 23.9915 34.6498 25.0857 33.7177 25.6125L32.0156 26.7067C32.9477 26.1799 33.8393 25.0857 34.5283 24.1536C34.6093 24.032 34.7309 23.8699 34.8119 23.7483C34.8525 23.7078 34.8525 23.6673 34.893 23.5862C34.9335 23.5052 35.0146 23.3836 35.0551 23.3026C35.0956 23.262 35.0956 23.181 35.1361 23.1405C35.1767 23.0594 35.2172 22.9378 35.2577 22.8568C35.2982 22.7757 35.2982 22.7352 35.3388 22.6541C35.3793 22.5326 35.4198 22.4515 35.4198 22.3299C35.4198 22.2489 35.4604 22.2084 35.4604 22.1273C35.5009 22.0057 35.5009 21.8842 35.5414 21.7626C35.5414 21.7221 35.5414 21.6815 35.5819 21.641C35.6225 21.4789 35.6225 21.3168 35.6225 21.1142C35.6225 21.0736 35.6225 21.0331 35.6225 20.9926C35.6225 20.871 35.6225 20.7494 35.6225 20.5873C35.6225 20.5063 35.6225 20.4657 35.6225 20.3847C35.6225 20.2631 35.6225 20.1821 35.5819 20.0605C35.5819 19.9794 35.5819 19.9389 35.5414 19.8579C35.5414 19.7768 35.5009 19.6552 35.5009 19.5742C35.5009 19.4931 35.4604 19.4121 35.4604 19.331C35.4604 19.2905 35.4198 19.25 35.4198 19.1689C35.3793 19.0473 35.3388 18.9258 35.2982 18.7637C35.2577 18.6421 35.2172 18.48 35.1361 18.3584V18.3179C35.0956 18.1963 35.0146 18.0342 34.9335 17.9126C34.8525 17.791 34.7714 17.6695 34.6904 17.5074C34.6904 17.5074 34.6904 17.5074 34.6904 17.4668C34.6093 17.3452 34.5283 17.2237 34.4472 17.1021C34.3662 17.021 34.3256 16.94 34.2446 16.8589C34.204 16.8184 34.1635 16.7779 34.1635 16.7779C34.123 16.7374 34.0825 16.6968 34.0419 16.6563C33.9609 16.5753 33.8798 16.4942 33.7988 16.4537C33.7583 16.4132 33.7177 16.4132 33.6772 16.3726C33.5556 16.2916 33.4341 16.2105 33.3125 16.1295C33.1909 16.0484 33.0693 16.0079 32.9477 15.9268C32.8667 15.8863 32.8262 15.8863 32.7451 15.8458C32.6641 15.8053 32.6235 15.8053 32.5425 15.7647C32.4209 15.7242 32.2993 15.7242 32.1778 15.6837C32.1372 15.6837 32.1372 15.6837 32.0967 15.6837C32.0156 15.6837 31.8941 15.6837 31.813 15.6432C31.7725 15.6432 31.732 15.6432 31.6914 15.6432C31.6104 15.6432 31.5293 15.6432 31.4483 15.6432C31.4078 15.6432 31.3672 15.6432 31.3267 15.6432C31.2457 15.6432 31.1646 15.6837 31.0835 15.6837C31.043 15.6837 31.0025 15.6837 30.962 15.7242C30.8809 15.7647 30.7593 15.7647 30.6783 15.8053C30.6378 15.8053 30.6378 15.8053 30.5972 15.8458C30.4757 15.8863 30.3541 15.9674 30.2325 16.0079C30.1515 15.8458 30.0704 15.7242 29.9488 15.5621C29.9083 15.5216 29.8678 15.4405 29.8272 15.4C29.7057 15.1974 29.5841 15.0353 29.4625 14.8326C29.4625 14.8326 29.4625 14.7921 29.422 14.7921C29.3004 14.63 29.1788 14.4679 29.0573 14.3058C28.9762 14.1842 28.8546 14.0626 28.7736 13.9411C28.733 13.9005 28.733 13.86 28.6925 13.8195C28.5304 13.6574 28.4088 13.4953 28.2467 13.3737C28.1252 13.2521 28.0441 13.1711 27.9225 13.0495C27.882 13.0495 27.882 13.009 27.8415 13.009C27.7604 12.9279 27.6388 12.8469 27.5578 12.7658C27.5173 12.7253 27.4767 12.7253 27.4767 12.6848C27.3552 12.6037 27.2741 12.5227 27.1525 12.4821C27.031 12.4011 26.9499 12.3606 26.8283 12.32C26.7473 12.2795 26.7067 12.2795 26.6257 12.239C26.5446 12.4011 26.5446 12.4011 26.5041 12.4011Z" fill="#EA49BD"/>
<path d="M27.1119 12.6441C26.7066 12.401 26.3014 12.2794 25.9772 12.3199C24.4372 12.482 24.3561 15.5215 25.7745 19.0878C26.9093 21.9246 28.6114 25.8961 30.0298 26.7066C30.0703 26.7066 30.0703 26.7472 30.1108 26.7472C30.1514 26.7472 30.1514 26.7877 30.1919 26.7877C31.6103 27.5982 33.3529 25.6124 34.4876 24.113C35.906 22.1677 35.8655 19.0472 34.3255 17.1425C34.0013 16.6967 33.5961 16.3725 33.1908 16.1294C32.2182 15.562 31.0834 15.562 30.1514 16.0888C29.2193 14.5083 28.0845 13.2115 27.1119 12.6441Z" fill="#FF61CB"/>
<g opacity="0.1">
<path opacity="0.1" d="M36.8788 87.0901C30.1515 90.9806 30.1109 97.3026 36.7977 101.193C43.4845 105.084 54.386 105.084 61.1133 101.193C67.8406 97.3026 67.8811 90.9806 61.1943 87.1306C54.5076 83.1996 43.6061 83.1996 36.8788 87.0901Z" fill="black"/>
</g>
<path d="M43.6465 95.3574C43.6465 95.3574 41.8634 96.6542 43.2007 97.6674C44.5381 98.6805 44.457 97.5458 47.3749 99.6937C50.2928 101.801 50.6575 99.8153 50.7386 99.41C50.8196 99.0047 49.6038 97.9105 48.9554 97.4648C48.307 96.9784 45.7133 95.1953 45.7133 95.1953L43.8491 94.8306L43.6465 95.3574Z" fill="#111114"/>
<path d="M53.3323 92.0748C53.3323 92.0748 54.5481 92.7232 53.9807 93.3716C53.4134 94.02 51.5086 94.6279 51.1844 95.0332C50.8197 95.4385 49.1176 96.4921 48.6718 96.4111C47.9424 96.2895 47.2129 96.0058 48.0234 94.1416C48.7934 92.2369 51.6302 91.3859 53.3323 92.0748Z" fill="#111114"/>
<path d="M43.5655 55.8447C43.5655 55.8447 39.2698 60.4242 43.4845 67.0299C43.4845 67.0299 46.5645 76.8372 46.1592 78.8229C45.7945 80.8087 44.3761 85.5908 45.835 89.4813C45.835 89.4813 47.4155 93.6149 47.5371 94.6686C47.6992 96.2896 49.2797 95.317 49.4418 94.1012C49.8471 91.6697 49.1176 87.6981 49.3608 85.7934C50.1308 79.674 50.536 76.4724 49.8065 72.3793C49.0771 68.2862 49.766 59.4921 49.766 59.4921C49.766 59.4921 44.8624 58.9247 43.5655 55.8447Z" fill="#471BCE"/>
<path d="M48.753 59.0056C48.753 59.0056 43.4441 61.9234 47.6993 68.3671L48.5909 79.5928C48.5909 79.5928 44.822 84.2127 43.8088 95.1952C43.8088 95.1952 45.3488 97.3836 46.1593 95.7626C46.9699 94.1416 53.3324 82.8348 53.8998 79.228C54.4672 75.6212 57.6687 64.4361 55.764 57.8303C55.764 57.8303 53.2514 60.7077 48.753 59.0056Z" fill="#632BEE"/>
<path d="M55.4397 40.85C55.4397 40.85 47.6992 33.1095 44.8219 35.5411C44.8219 35.5411 41.3772 36.8379 42.4309 43.7273C43.5251 50.6167 45.0245 52.1162 43.3224 56.2498C43.3224 56.2498 49.1176 63.3419 56.0476 58.4382C56.0476 58.4382 55.2776 53.3725 56.6555 51.6704C58.0334 49.9683 60.1812 46.1589 58.3576 44.011C56.4934 41.9442 55.4397 40.85 55.4397 40.85Z" fill="#FE61CA"/>
<path d="M57.9116 45.1863C57.3442 43.4032 54.7506 42.7953 54.3048 45.3079C53.8185 47.8205 55.9258 57.8304 59.9379 60.3836C59.9379 60.4241 62.9368 61.1941 57.9116 45.1863Z" fill="#EFB185"/>
<path d="M59.9377 60.4241C59.9377 60.4241 63.4635 58.641 65.8951 53.6968C65.8951 53.6968 68.9345 52.6026 68.0835 47.9826C68.0835 47.9826 67.6782 47.3748 66.7461 49.7658C66.7461 49.7658 66.0572 51.1842 65.733 49.9279C65.4087 48.6716 64.963 47.9826 64.8009 49.1579C64.6388 50.3331 64.4767 52.4405 64.4767 52.4405L59.9377 56.0473V60.4241Z" fill="#EFB185"/>
<path d="M57.5469 43.6464C56.8579 43.1601 55.6827 42.6333 54.2643 44.0112C52.9269 45.308 54.2238 51.4274 55.0343 53.1295C55.0343 53.1295 58.56 54.2642 60.2621 50.9411C60.2216 50.9816 59.4516 44.9838 57.5469 43.6464Z" fill="#E545B8"/>
<path d="M54.5481 36.757L53.4134 40.4449C53.4134 40.4449 49.8471 41.5391 48.1045 38.297L49.2392 34.6091C49.2797 34.6091 51.8734 36.4733 54.5481 36.757Z" fill="#EFB185"/>
<path d="M54.7912 25.3691C54.7912 25.3691 57.6685 25.9365 58.3169 28.2464C58.9653 30.5969 59.249 33.9201 57.5469 35.4195C55.7232 37.0406 56.2501 38.3374 56.8174 39.0669C57.3848 39.8369 48.6717 40.9716 46.2402 35.0548C46.1997 35.0953 46.5239 21.7218 54.7912 25.3691Z" fill="#231202"/>
<g opacity="0.2">
<path opacity="0.5" d="M136.572 116.593C130.169 120.321 130.129 126.319 136.491 130.007C142.854 133.695 153.229 133.695 159.672 130.007C166.075 126.319 166.116 120.281 159.753 116.593C153.35 112.905 142.975 112.905 136.572 116.593Z" fill="black"/>
</g>
<path d="M142.894 64.3147C142.894 64.3147 140.422 63.7068 139.855 65.571C139.288 67.4352 137.667 74.973 137.667 74.973L128.467 72.1362C128.467 72.1362 126.157 70.8799 124.496 71.0015C122.794 71.0825 124.212 73.6762 127.697 74.3651C131.142 75.0946 137.545 79.0661 139.126 78.6203C140.666 78.134 145.529 66.1789 142.894 64.3147Z" fill="#E8A476"/>
<path d="M141.557 74.2434C141.557 74.2434 138.112 75.0945 136.086 72.2577C136.086 72.2577 138.923 62.1262 142.692 64.5577C142.692 64.5577 145.488 65.9356 141.557 74.2434Z" fill="#4D9B12"/>
<path d="M141.638 120.322C141.436 120.322 141.355 120.119 141.03 120.038C141.03 120.443 140.706 121.01 140.706 121.416C140.666 121.456 140.666 121.497 140.625 121.537C139.693 123.239 136.937 125.063 137.424 126.117C137.748 126.846 139.612 127.13 140.463 126.4C140.706 126.198 140.828 125.955 140.99 125.671C141.233 125.266 141.436 124.82 142.084 124.617C142.206 124.577 142.651 124.334 142.773 124.05C143.543 122.51 142.611 121.983 142.813 120.484C142.408 120.403 142.003 120.362 141.638 120.322Z" fill="#171716"/>
<path d="M141.517 81.8623C141.517 81.8623 137.464 92.1154 139.693 105.043C139.693 105.043 141.314 116.593 140.828 119.835C140.585 121.497 142.53 122.591 143.219 121.132C143.219 121.132 143.502 116.998 144.272 114.526C145.042 112.014 145.164 108.65 143.827 106.421C143.827 106.421 150.432 90.4538 147.758 85.9959C147.758 85.9554 145.083 84.9018 141.517 81.8623Z" fill="#632BEE"/>
<path d="M143.827 106.381C145.164 108.61 145.042 112.014 144.272 114.486C143.502 116.998 143.219 121.092 143.219 121.092C143.057 121.456 142.813 121.618 142.53 121.699C143.705 116.836 142.53 105.651 142.53 105.651C144.191 100.829 144.759 88.7113 144.88 84.2939C146.623 85.4287 147.758 85.8745 147.758 85.8745C150.392 90.4134 143.827 106.381 143.827 106.381Z" fill="#471BCE"/>
<path d="M155.174 120.767C154.971 120.808 154.89 120.646 154.566 120.646C154.647 121.01 154.444 121.618 154.526 121.983C154.526 122.024 154.485 122.064 154.485 122.105C153.918 123.928 151.689 126.238 152.337 127.089C152.783 127.697 154.566 127.535 155.214 126.644C155.417 126.4 155.498 126.117 155.579 125.833C155.701 125.387 155.822 124.941 156.39 124.617C156.511 124.536 156.876 124.212 156.957 123.928C157.403 122.307 156.43 122.024 156.349 120.605C155.944 120.646 155.539 120.686 155.174 120.767Z" fill="#171716"/>
<path d="M144.961 84.3345C144.961 84.3345 144.272 95.8438 149.703 107.394C149.703 107.394 153.31 117.16 154.12 120.403C154.566 122.267 156.349 122.186 156.552 120.889C156.552 120.889 156.471 117.363 156.552 114.607C156.633 111.892 155.903 108.569 154.039 106.988C154.039 106.988 155.052 88.5086 151.364 85.3071C151.364 85.2666 147.15 86.5634 144.961 84.3345Z" fill="#632BEE"/>
<path d="M154.039 106.989C155.903 108.569 156.633 111.892 156.552 114.607C156.471 117.323 156.552 120.889 156.552 120.889C156.471 121.254 156.309 121.497 156.065 121.659C156.349 117.201 152.215 106.016 152.215 106.016C152.337 99.937 150.027 90.0081 148.933 85.6719C150.27 85.6313 151.364 85.3071 151.364 85.3071C155.052 88.4682 154.039 106.989 154.039 106.989Z" fill="#471BCE"/>
<path d="M153.796 68.9346C153.796 68.9346 151.243 64.8009 141.557 63.7067C141.557 63.7067 140.017 63.0988 140.301 68.0835C140.341 68.813 139.612 70.0693 139.166 70.7177C138.68 71.4067 137.423 73.9193 140.422 76.8371C140.422 76.8371 141.679 81.2545 140.422 84.1723C139.288 86.766 145.691 89.1165 151.081 88.4275C151.729 88.3465 153.188 87.8602 152.58 85.5502C151.932 83.2402 150.432 79.2282 151.405 74.9324C152.297 70.6367 154.566 71.0824 153.796 68.9346Z" fill="#73C139"/>
<path d="M153.796 68.9345C154.566 71.0824 152.337 70.6366 151.364 74.9323C150.392 79.2281 151.891 83.2401 152.54 85.5501C153.188 87.8601 151.729 88.3464 151.04 88.4275C150.149 88.549 149.217 88.549 148.325 88.549C150.108 84.3343 147.433 76.8776 147.19 72.7439C146.947 68.3266 150.878 66.5029 150.878 66.5029C153.067 67.7592 153.796 68.9345 153.796 68.9345Z" fill="#4D9B12"/>
<path d="M153.391 69.3398C152.58 68.6914 149.46 67.7188 150.635 71.3661C151.81 75.054 156.43 81.0923 156.43 81.0923L150.473 83.2402C150.473 83.2402 148.041 82.4702 146.096 83.1997C144.191 83.8886 147.393 85.8744 149.946 85.226C152.499 84.537 161.293 84.7397 159.996 81.8623C158.7 78.9445 156.146 71.6903 153.391 69.3398Z" fill="#E8A476"/>
<path d="M157.443 74.122C157.443 74.122 156.227 77.1209 153.026 77.1209C153.026 77.1209 147.069 69.5425 150.878 68.0836C150.878 68.0431 153.391 66.7462 157.443 74.122Z" fill="#73C139"/>
<path d="M143.057 55.9257C143.057 55.9257 143.827 60.9104 144.272 65.652C144.353 66.3409 143.624 67.5567 142.368 67.273C142.368 67.273 138.599 61.7615 141.314 56.0473C142.165 54.2642 145.407 51.6705 149.257 54.1426L143.057 55.9257Z" fill="#301806"/>
<path d="M142.206 62.4909C142.206 62.4909 143.989 64.4361 143.259 66.665C143.057 67.2729 142.611 69.745 146.258 68.6103C146.258 68.6103 150.068 66.5435 148.852 65.4087C148.082 64.6387 147.271 63.5445 148.284 59.5325L142.206 62.4909Z" fill="#E8A476"/>
<path d="M148.892 65.409C149.014 65.5306 149.095 65.6521 149.095 65.7737C145.569 66.5842 143.057 64.1932 143.057 64.1932L147.514 59.9785C147.514 59.9785 147.758 60.1406 148.122 60.3838C147.433 63.7069 148.122 64.6795 148.892 65.409Z" fill="#DB9669"/>
<path d="M142.611 55.399C142.611 55.399 141.638 55.7637 141.679 58.7221C141.679 59.0463 141.192 59.4921 141.071 60.3026C140.949 61.1132 140.909 64.4363 142.813 64.72C144.191 64.9226 147.596 63.95 148.649 60.5863C149.662 57.2632 146.704 53.089 142.611 55.399Z" fill="#F1B287"/>
<path d="M142.813 56.5743C142.813 56.5743 151.405 59.4111 145.367 70.5557C145.367 70.5557 149.784 70.8394 151.648 66.9894C152.54 65.1253 152.053 61.4374 151.648 57.9116C151.648 57.9116 150.513 52.5217 145.975 53.4538C146.015 53.4538 143.057 54.7101 142.813 56.5743Z" fill="#231202"/>
<path d="M142.813 56.5742C142.813 56.5742 141.314 56.331 140.666 59.0868C140.666 59.0868 140.666 51.3464 148.041 53.4537C148.082 53.4942 143.745 53.8184 142.813 56.5742Z" fill="#301806"/>
<path d="M146.947 61.2346C146.947 61.2346 147.433 59.5731 148.365 60.0594C148.649 60.2215 149.014 60.5457 148.568 61.3967C148.122 62.2478 147.231 63.0583 146.501 62.9772L146.947 61.2346Z" fill="#F1B287"/>
<path d="M134.465 73.9193L125.874 68.8535C125.752 68.7725 125.63 68.7725 125.59 68.813C125.428 68.894 125.306 68.9751 125.144 69.0561C125.225 69.0156 125.347 69.0156 125.428 69.0967L125.874 69.3804C125.874 69.3804 125.874 69.3804 125.833 69.3804C125.752 69.4209 125.671 69.4614 125.59 69.5425C125.549 69.583 125.468 69.6235 125.428 69.6235C125.387 69.664 125.347 69.7046 125.347 69.7856L125.266 75.054C125.266 75.2161 125.387 75.4187 125.509 75.4998C125.59 75.4593 125.63 75.4187 125.711 75.3782L125.509 75.4998L133.736 80.4034C133.817 80.4439 133.857 80.4439 133.938 80.4034C134.06 80.3224 134.222 80.2413 134.343 80.1603V80.6871C134.343 80.8087 134.303 80.9303 134.222 80.9708C134.303 80.9303 134.384 80.8897 134.424 80.8492C134.506 80.8087 134.546 80.7681 134.627 80.7276C134.708 80.6871 134.749 80.606 134.749 80.4439L134.83 74.6893C134.911 74.3651 134.708 74.0408 134.465 73.9193Z" fill="#292B34"/>
<path d="M133.29 73.5544V73.6355C133.249 73.595 133.249 73.595 133.249 73.5544V73.4734C133.249 73.5139 133.249 73.5139 133.29 73.5544Z" fill="#1B1823"/>
<path d="M133.573 73.7168V73.7978L133.29 73.6357V73.5547L133.573 73.7168Z" fill="#22232C"/>
<path d="M133.857 73.676V73.7571C133.857 73.7571 133.857 73.7571 133.816 73.7976C133.776 73.7976 133.776 73.7976 133.735 73.8381V73.7571C133.776 73.7166 133.776 73.7166 133.857 73.676C133.816 73.7166 133.857 73.676 133.857 73.676Z" fill="#1D2027"/>
<path d="M133.735 73.7165V73.7976C133.695 73.7976 133.614 73.7976 133.573 73.7571V73.676C133.614 73.7166 133.695 73.7165 133.735 73.7165Z" fill="#1B1823"/>
<path d="M133.817 73.5546C133.898 73.5951 133.898 73.6356 133.817 73.6761C133.736 73.7167 133.655 73.7167 133.573 73.6761L133.29 73.514C133.209 73.4735 133.209 73.433 133.29 73.3925C133.371 73.3519 133.452 73.3519 133.533 73.3925L133.817 73.5546Z" fill="#1E2129"/>
<path d="M134.06 74.1624L125.468 69.0967C125.225 68.9751 125.063 69.0562 125.022 69.3399L124.941 75.0945C124.941 75.3782 125.144 75.7024 125.347 75.824L133.938 80.8898C134.181 81.0113 134.384 80.9303 134.384 80.6466L134.465 74.8919C134.465 74.6082 134.262 74.284 134.06 74.1624Z" fill="#23262F"/>
<path d="M133.776 75.0539C133.776 74.8107 133.614 74.527 133.411 74.4055C133.209 74.2839 133.047 74.3649 133.047 74.6081C133.047 74.8513 133.209 75.1349 133.411 75.2565C133.614 75.3781 133.776 75.297 133.776 75.0539Z" fill="#0B0B0B"/>
<path d="M134.546 76.3508L134.789 76.2292V75.4998L134.546 75.6213V76.3508Z" fill="#0B0B0B"/>
<path d="M134.546 77.364L134.789 77.2424V76.4724L134.546 76.6345V77.364Z" fill="#0B0B0B"/>
<path d="M132.966 73.1088C132.885 73.0682 132.803 73.0682 132.722 73.1088C132.641 73.1493 132.641 73.1898 132.722 73.2303C132.763 73.2709 132.885 73.2709 132.966 73.2303C133.047 73.2303 133.047 73.1493 132.966 73.1088Z" fill="#0B0B0B"/>
<path d="M132.398 72.7845C132.317 72.744 132.236 72.744 132.155 72.7845C132.074 72.8251 132.074 72.9061 132.155 72.9061C132.236 72.9466 132.317 72.9466 132.398 72.9061C132.479 72.9061 132.479 72.8251 132.398 72.7845Z" fill="#0B0B0B"/>
<path d="M131.871 72.4602L131.669 72.5818L131.182 72.3386L131.426 72.217L131.871 72.4602Z" fill="#0B0B0B"/>
<path d="M123.766 71.4066C123.766 71.4066 126.481 70.4745 126.198 71.8523C125.914 73.2708 124.577 75.8239 123.766 71.4066Z" fill="#E8A476"/>
<defs>
<linearGradient id="paint0_linear" x1="20.1808" y1="46.8647" x2="13.1914" y2="46.8647" gradientUnits="userSpaceOnUse">
<stop stop-color="#FFDF02"/>
<stop offset="0.1253" stop-color="#F9D402"/>
<stop offset="0.4425" stop-color="#ECBD01"/>
<stop offset="0.7411" stop-color="#E4AF00"/>
<stop offset="1" stop-color="#E1AA00"/>
</linearGradient>
<linearGradient id="paint1_linear" x1="14.7055" y1="44.5447" x2="7.78017" y2="43.587" gradientUnits="userSpaceOnUse">
<stop stop-color="#FFDF02"/>
<stop offset="0.1253" stop-color="#F9D402"/>
<stop offset="0.4425" stop-color="#ECBD01"/>
<stop offset="0.7411" stop-color="#E4AF00"/>
<stop offset="1" stop-color="#E1AA00"/>
</linearGradient>
<linearGradient id="paint2_linear" x1="14.6021" y1="48.9339" x2="14.6021" y2="75.5665" gradientUnits="userSpaceOnUse">
<stop stop-color="#FF4CAA"/>
<stop offset="1" stop-color="#E53399"/>
</linearGradient>
<linearGradient id="paint3_linear" x1="55.3522" y1="28.5304" x2="101.323" y2="99.632" gradientUnits="userSpaceOnUse">
<stop stop-color="#90D9F9"/>
<stop offset="1" stop-color="#29B7E0"/>
</linearGradient>
<linearGradient id="paint4_linear" x1="106.313" y1="106.819" x2="106.313" y2="138.889" gradientUnits="userSpaceOnUse">
<stop stop-color="#FFDF02"/>
<stop offset="0.1253" stop-color="#F9D402"/>
<stop offset="0.4425" stop-color="#ECBD01"/>
<stop offset="0.7411" stop-color="#E4AF00"/>
<stop offset="1" stop-color="#E1AA00"/>
</linearGradient>
<linearGradient id="paint5_linear" x1="136.04" y1="81.2563" x2="136.575" y2="118.207" gradientUnits="userSpaceOnUse">
<stop stop-color="#43D9E5"/>
<stop offset="0.2589" stop-color="#3FD4E4"/>
<stop offset="0.5575" stop-color="#33C6E1"/>
<stop offset="0.8747" stop-color="#20AFDD"/>
<stop offset="1" stop-color="#17A4DB"/>
</linearGradient>
<linearGradient id="paint6_linear" x1="124.775" y1="78.3605" x2="146.397" y2="78.3605" gradientUnits="userSpaceOnUse">
<stop stop-color="#6474D6"/>
<stop offset="1" stop-color="#1B4B92"/>
</linearGradient>
<linearGradient id="paint7_linear" x1="124.895" y1="4.85754" x2="130.25" y2="94.2916" gradientUnits="userSpaceOnUse">
<stop stop-color="#1B4B92"/>
<stop offset="1" stop-color="#6474D6"/>
</linearGradient>
<linearGradient id="paint8_linear" x1="133.819" y1="52.7336" x2="158.977" y2="52.7336" gradientUnits="userSpaceOnUse">
<stop stop-color="#6474D6"/>
<stop offset="1" stop-color="#1B4B92"/>
</linearGradient>
</defs>
</svg>
