<svg width="166" height="135" viewBox="0 0 166 135" fill="none" xmlns="http://www.w3.org/2000/svg">
<path d="M157.053 4.00439H1.06274V100.74H157.053V4.00439Z" fill="url(#paint0_linear)"/>
<path opacity="0.18" d="M157.053 4.88057V99.9264C157.053 100.427 156.677 100.802 156.177 100.802H1.876C1.37543 100.802 1 100.427 1 99.9264V4.88057C1 4.81799 1 4.75542 1 4.75542C1.06257 4.38 1.31286 4.12971 1.68829 4.06714C1.75086 4.06714 1.81343 4.06714 1.81343 4.06714H156.114C156.177 4.06714 156.239 4.06714 156.239 4.06714C156.615 4.12971 156.865 4.38 156.928 4.75542C157.053 4.75542 157.053 4.81799 157.053 4.88057Z" fill="white"/>
<path d="M157.053 14.2661H1.06274V4.88039C1.06274 4.37982 1.43817 4.00439 1.93874 4.00439H156.177C156.678 4.00439 157.053 4.37982 157.053 4.88039V14.2661Z" fill="#4192BF"/>
<path d="M9.1341 8.94767C9.1341 10.0739 8.19553 11.0125 7.06925 11.0125C5.94296 11.0125 5.00439 10.0739 5.00439 8.94767C5.00439 7.82138 5.94296 6.88281 7.06925 6.88281C8.19553 6.88281 9.1341 7.82138 9.1341 8.94767Z" fill="white"/>
<path d="M16.4551 8.94767C16.4551 10.0739 15.5166 11.0125 14.3903 11.0125C13.264 11.0125 12.3254 10.0739 12.3254 8.94767C12.3254 7.82138 13.264 6.88281 14.3903 6.88281C15.5791 6.88281 16.4551 7.82138 16.4551 8.94767Z" fill="white"/>
<path d="M23.8385 8.94767C23.8385 10.0739 22.8999 11.0125 21.7736 11.0125C20.6473 11.0125 19.7087 10.0739 19.7087 8.94767C19.7087 7.82138 20.6473 6.88281 21.7736 6.88281C22.8999 6.88281 23.8385 7.82138 23.8385 8.94767Z" fill="white"/>
<path d="M101.865 92.23H58.6907V93.8568H101.865V92.23Z" fill="#ACE2F9"/>
<path d="M104.993 89.1641H58.6907V90.7909H104.993V89.1641Z" fill="#ACE2F9"/>
<path d="M104.993 86.0356H58.6907V87.6625H104.993V86.0356Z" fill="#ACE2F9"/>
<path d="M86.9729 82.9697H58.6907V84.5966H86.9729V82.9697Z" fill="#ACE2F9"/>
<path d="M90.4769 79.8411H58.6907V81.4679H90.4769V79.8411Z" fill="#ACE2F9"/>
<path d="M145.665 92.23H110.75V93.8568H145.665V92.23Z" fill="#ACE2F9"/>
<path d="M149.169 89.1641H110.75V90.7909H149.169V89.1641Z" fill="#ACE2F9"/>
<path d="M149.169 86.0356H110.75V87.6625H149.169V86.0356Z" fill="#ACE2F9"/>
<path d="M128.958 82.9697H110.75V84.5966H128.958V82.9697Z" fill="#ACE2F9"/>
<path d="M132.9 79.8411H110.75V81.4679H132.9V79.8411Z" fill="#ACE2F9"/>
<path d="M101.865 75.8989H58.6907V77.5258H101.865V75.8989Z" fill="#ACE2F9"/>
<path d="M104.993 72.833H58.6907V74.4599H104.993V72.833Z" fill="#ACE2F9"/>
<path d="M104.993 69.7671H58.6907V71.3939H104.993V69.7671Z" fill="#ACE2F9"/>
<path d="M86.9729 66.6384H58.6907V68.2653H86.9729V66.6384Z" fill="#ACE2F9"/>
<path d="M90.4769 63.5725H58.6907V65.1994H90.4769V63.5725Z" fill="#ACE2F9"/>
<path d="M145.665 75.8989H110.75V77.5258H145.665V75.8989Z" fill="#ACE2F9"/>
<path d="M149.169 72.833H110.75V74.4599H149.169V72.833Z" fill="#ACE2F9"/>
<path d="M149.169 69.7671H110.75V71.3939H149.169V69.7671Z" fill="#ACE2F9"/>
<path d="M128.958 66.6384H110.75V68.2653H128.958V66.6384Z" fill="#ACE2F9"/>
<path d="M132.9 63.5725H110.75V65.1994H132.9V63.5725Z" fill="#ACE2F9"/>
<path d="M8.50854 67.3892V93.7317H50.3688" stroke="white" stroke-width="0.3347" stroke-miterlimit="10"/>
<path d="M8.50854 90.9785H50.3688" stroke="white" stroke-width="0.3347" stroke-miterlimit="10"/>
<path d="M8.50854 88.0378H50.3688" stroke="white" stroke-width="0.3347" stroke-miterlimit="10"/>
<path d="M8.50854 85.0969H50.3688" stroke="white" stroke-width="0.3347" stroke-miterlimit="10"/>
<path d="M8.50854 82.1562H50.3688" stroke="white" stroke-width="0.3347" stroke-miterlimit="10"/>
<path d="M8.50854 79.2153H50.3688" stroke="white" stroke-width="0.3347" stroke-miterlimit="10"/>
<path d="M8.50854 76.3369H50.3688" stroke="white" stroke-width="0.3347" stroke-miterlimit="10"/>
<path d="M8.50854 73.3962H50.3688" stroke="white" stroke-width="0.3347" stroke-miterlimit="10"/>
<path d="M8.50854 70.4553H50.3688" stroke="white" stroke-width="0.3347" stroke-miterlimit="10"/>
<path d="M8.50854 67.4519H50.3688" stroke="white" stroke-width="0.3347" stroke-miterlimit="10"/>
<path d="M8.50854 64.4485H50.3688" stroke="white" stroke-width="0.3347" stroke-miterlimit="10"/>
<path d="M8.50854 61.5076V93.7318" stroke="white" stroke-width="0.3347" stroke-miterlimit="10"/>
<path d="M17.1433 69.8296H12.8259V93.6693H17.1433V69.8296Z" fill="#BDECF9"/>
<path d="M24.1514 78.4019H19.834V93.6693H24.1514V78.4019Z" fill="#BDECF9"/>
<path d="M31.1595 73.0208H26.842V93.6693H31.1595V73.0208Z" fill="#BDECF9"/>
<path d="M38.1673 64.824H33.8499V93.6694H38.1673V64.824Z" fill="#BDECF9"/>
<path d="M45.1128 69.3291H40.7954V93.6693H45.1128V69.3291Z" fill="#BDECF9"/>
<path d="M15.0159 69.8297L22.0239 78.402L28.9693 73.0208L35.9773 64.824L42.9852 69.3291" stroke="white" stroke-width="0.3347" stroke-miterlimit="10" stroke-linecap="round" stroke-linejoin="round"/>
<path d="M22.4618 78.4019C22.4618 78.6522 22.2741 78.9025 21.9613 78.9025C21.6484 78.9025 21.4607 78.7148 21.4607 78.4019C21.4607 78.1517 21.6484 77.9014 21.9613 77.9014C22.2741 77.9014 22.4618 78.1517 22.4618 78.4019Z" fill="white"/>
<path d="M29.4074 73.0833C29.4074 73.3336 29.2197 73.5839 28.9068 73.5839C28.594 73.5839 28.4062 73.3962 28.4062 73.0833C28.4062 72.8331 28.594 72.5828 28.9068 72.5828C29.2197 72.5828 29.4074 72.7705 29.4074 73.0833Z" fill="white"/>
<path d="M43.486 69.3289C43.486 69.5792 43.2983 69.8295 42.9854 69.8295C42.7352 69.8295 42.4849 69.6418 42.4849 69.3289C42.4849 69.0787 42.6726 68.8284 42.9854 68.8284C43.2357 68.8909 43.486 69.0787 43.486 69.3289Z" fill="white"/>
<path d="M15.5165 69.7669C15.5165 70.0172 15.3288 70.2675 15.0159 70.2675C14.7657 70.2675 14.5154 70.0798 14.5154 69.7669C14.5154 69.4541 14.7031 69.2664 15.0159 69.2664C15.3288 69.3289 15.5165 69.5166 15.5165 69.7669Z" fill="white"/>
<path d="M36.4779 64.6988C36.4779 64.9491 36.2902 65.1994 35.9774 65.1994C35.6645 65.1994 35.4768 65.0117 35.4768 64.6988C35.4768 64.4485 35.6645 64.1982 35.9774 64.1982C36.2902 64.1982 36.4779 64.4485 36.4779 64.6988Z" fill="white"/>
<path d="M157.053 4.00439H1.06274V100.74H157.053V4.00439Z" stroke="white" stroke-width="0.5" stroke-miterlimit="10"/>
<path opacity="0.36" d="M164.186 50.1821H79.5896C78.9013 50.1821 78.3381 49.619 78.3381 48.9307V2.81564C78.3381 2.12735 78.9013 1.56421 79.5896 1.56421H164.249C164.937 1.56421 165.5 2.12735 165.5 2.81564V48.9307C165.5 49.619 164.937 50.1821 164.186 50.1821Z" fill="#65B0C4"/>
<path d="M162.246 48.6179H77.5871C76.8988 48.6179 76.3357 48.0548 76.3357 47.3665V1.25143C76.3357 0.563142 76.8988 0 77.5871 0H162.246C162.934 0 163.498 0.563142 163.498 1.25143V47.3665C163.498 48.0548 162.934 48.6179 162.246 48.6179Z" fill="#ACE2F9"/>
<path d="M162.246 48.6179H77.5871C76.8988 48.6179 76.3357 48.0548 76.3357 47.3665V1.25143C76.3357 0.563142 76.8988 0 77.5871 0H162.246C162.934 0 163.498 0.563142 163.498 1.25143V47.3665C163.498 48.0548 162.934 48.6179 162.246 48.6179Z" fill="white"/>
<path opacity="0.25" d="M82.9685 43.9251C82.9685 43.9251 83.9071 16.8943 99.675 17.082C113.19 17.2697 109.749 39.6077 119.322 39.6077C131.274 39.6077 124.516 15.2674 132.212 9.26058C137.593 5.06831 144.914 8.5723 145.602 24.1526C145.728 26.8431 146.166 30.8477 148.481 32.2243C151.86 34.2891 158.367 28.2197 158.617 43.8625" fill="url(#paint1_linear)"/>
<path d="M82.9685 43.925C82.9685 43.925 83.9071 17.3948 99.675 17.5825C113.19 17.7702 109.749 40.1082 119.322 40.1082C131.274 40.1082 124.516 15.7679 132.212 9.76107C137.593 5.56879 144.914 9.07279 145.602 24.653C145.728 27.3436 146.166 31.3482 148.481 32.7247C151.86 34.7896 158.367 28.2822 158.617 43.925" stroke="url(#paint2_linear)" stroke-width="1.2534" stroke-miterlimit="10"/>
<path d="M137.906 8.07168C137.906 8.94768 137.155 9.69853 136.279 9.69853C135.403 9.69853 134.652 8.94768 134.652 8.07168C134.652 7.19568 135.403 6.44482 136.279 6.44482C137.218 6.44482 137.906 7.19568 137.906 8.07168Z" fill="#00A651"/>
<path d="M104.141 11.8158V12.2005H104.058C103.705 12.207 103.424 12.3116 103.215 12.5141C103.006 12.7166 102.885 13.0016 102.852 13.3691C103.04 13.1535 103.297 13.0457 103.622 13.0457C103.932 13.0457 104.179 13.1552 104.364 13.374C104.55 13.5929 104.643 13.8755 104.643 14.2217C104.643 14.5892 104.543 14.8832 104.342 15.1037C104.143 15.3242 103.875 15.4345 103.538 15.4345C103.197 15.4345 102.92 15.3038 102.708 15.0425C102.495 14.7795 102.389 14.4414 102.389 14.0282V13.8542C102.389 13.1976 102.529 12.6962 102.808 12.3499C103.089 12.002 103.507 11.824 104.06 11.8158H104.141ZM103.546 13.423C103.391 13.423 103.248 13.4696 103.117 13.5627C102.986 13.6558 102.896 13.7726 102.845 13.913V14.0796C102.845 14.3736 102.911 14.6105 103.043 14.7901C103.176 14.9698 103.341 15.0596 103.538 15.0596C103.743 15.0596 103.903 14.9845 104.019 14.8342C104.136 14.684 104.195 14.4872 104.195 14.2438C104.195 13.9988 104.135 13.8012 104.016 13.6509C103.899 13.499 103.742 13.423 103.546 13.423ZM107.483 12.0731L106.006 15.3855H105.53L107.003 12.1907H105.072V11.8183H107.483V12.0731ZM110.161 12.7493C110.161 12.9273 110.113 13.0858 110.019 13.2246C109.926 13.3634 109.799 13.472 109.639 13.5504C109.825 13.6305 109.972 13.7473 110.08 13.9008C110.189 14.0543 110.244 14.2283 110.244 14.4226C110.244 14.7313 110.139 14.9772 109.93 15.1601C109.723 15.343 109.449 15.4345 109.11 15.4345C108.767 15.4345 108.491 15.343 108.284 15.1601C108.078 14.9755 107.975 14.7297 107.975 14.4226C107.975 14.2299 108.028 14.056 108.132 13.9008C108.238 13.7456 108.384 13.628 108.571 13.548C108.412 13.4696 108.287 13.361 108.196 13.2221C108.104 13.0833 108.059 12.9257 108.059 12.7493C108.059 12.4488 108.155 12.2103 108.348 12.0339C108.54 11.8575 108.794 11.7693 109.11 11.7693C109.423 11.7693 109.676 11.8575 109.869 12.0339C110.064 12.2103 110.161 12.4488 110.161 12.7493ZM109.791 14.4128C109.791 14.2136 109.727 14.0511 109.6 13.9253C109.474 13.7995 109.309 13.7366 109.105 13.7366C108.901 13.7366 108.736 13.7987 108.612 13.9228C108.49 14.047 108.429 14.2103 108.429 14.4128C108.429 14.6154 108.488 14.7746 108.607 14.8906C108.728 15.0066 108.896 15.0645 109.11 15.0645C109.322 15.0645 109.489 15.0066 109.609 14.8906C109.73 14.773 109.791 14.6137 109.791 14.4128ZM109.11 12.1417C108.932 12.1417 108.787 12.1972 108.676 12.3083C108.567 12.4177 108.512 12.5672 108.512 12.7566C108.512 12.9379 108.566 13.0849 108.674 13.1976C108.783 13.3087 108.928 13.3642 109.11 13.3642C109.291 13.3642 109.436 13.3087 109.543 13.1976C109.653 13.0849 109.707 12.9379 109.707 12.7566C109.707 12.5753 109.651 12.4275 109.538 12.3132C109.426 12.1989 109.283 12.1417 109.11 12.1417ZM110.847 16.096L110.589 15.9196C110.743 15.7056 110.823 15.4851 110.83 15.2581V14.8489H111.273V15.2042C111.273 15.3692 111.232 15.5341 111.151 15.6991C111.07 15.8641 110.969 15.9964 110.847 16.096ZM104.599 19.864C104.599 20.3949 104.509 20.7893 104.327 21.0474C104.146 21.3055 103.863 21.4345 103.477 21.4345C103.097 21.4345 102.815 21.3087 102.632 21.0572C102.449 20.804 102.354 20.4267 102.348 19.9253V19.3201C102.348 18.7958 102.438 18.4063 102.62 18.1515C102.801 17.8967 103.085 17.7693 103.472 17.7693C103.856 17.7693 104.139 17.8926 104.32 18.1392C104.501 18.3842 104.594 18.7632 104.599 19.276V19.864ZM104.146 19.2442C104.146 18.8604 104.092 18.5811 103.984 18.4063C103.876 18.2299 103.706 18.1417 103.472 18.1417C103.24 18.1417 103.071 18.2291 102.965 18.4038C102.859 18.5786 102.804 18.8473 102.801 19.2099V19.9351C102.801 20.3206 102.856 20.6056 102.968 20.7901C103.08 20.9731 103.25 21.0645 103.477 21.0645C103.701 21.0645 103.867 20.978 103.974 20.8048C104.084 20.6317 104.141 20.3589 104.146 19.9865V19.2442ZM106.917 19.8175C106.822 19.9302 106.709 20.0208 106.576 20.0894C106.446 20.158 106.302 20.1923 106.145 20.1923C105.939 20.1923 105.76 20.1417 105.606 20.0404C105.454 19.9392 105.337 19.7971 105.253 19.6141C105.17 19.4296 105.128 19.2262 105.128 19.0041C105.128 18.7656 105.173 18.5508 105.263 18.3597C105.355 18.1686 105.484 18.0225 105.65 17.9212C105.817 17.8199 106.011 17.7693 106.233 17.7693C106.586 17.7693 106.864 17.9016 107.066 18.1662C107.271 18.4292 107.373 18.7885 107.373 19.2442V19.3765C107.373 20.0707 107.235 20.5778 106.961 20.8979C106.687 21.2164 106.273 21.3798 105.719 21.3879H105.631V21.0057H105.726C106.1 20.9992 106.388 20.902 106.589 20.7142C106.79 20.5247 106.899 20.2258 106.917 19.8175ZM106.219 19.8175C106.371 19.8175 106.51 19.7709 106.638 19.6778C106.767 19.5847 106.861 19.4696 106.919 19.3324V19.1511C106.919 18.8538 106.855 18.6121 106.726 18.4259C106.597 18.2397 106.433 18.1466 106.236 18.1466C106.037 18.1466 105.876 18.2234 105.756 18.3769C105.635 18.5288 105.574 18.7297 105.574 18.9796C105.574 19.223 105.632 19.4239 105.748 19.5823C105.866 19.7391 106.023 19.8175 106.219 19.8175Z" fill="#00A651"/>
<path d="M99.4873 16.9568L101.615 14.2036H108.498" stroke="#00A651" stroke-width="0.1567" stroke-miterlimit="10"/>
<path d="M141.654 4.87121C141.559 4.98391 141.446 5.07456 141.313 5.14316C141.183 5.21176 141.039 5.24606 140.882 5.24606C140.676 5.24606 140.497 5.19543 140.343 5.09416C140.191 4.99289 140.074 4.85079 139.99 4.66786C139.907 4.48329 139.865 4.27994 139.865 4.05781C139.865 3.81934 139.91 3.60456 140 3.41346C140.092 3.22236 140.221 3.07618 140.387 2.97491C140.554 2.87364 140.748 2.82301 140.97 2.82301C141.323 2.82301 141.601 2.95531 141.803 3.21991C142.007 3.48288 142.11 3.84221 142.11 4.29791V4.43021C142.11 5.12438 141.972 5.63153 141.698 5.95166C141.424 6.27016 141.01 6.43349 140.456 6.44166H140.368V6.05946H140.463C140.837 6.05293 141.125 5.95574 141.326 5.76791C141.526 5.57844 141.636 5.27954 141.654 4.87121ZM140.956 4.87121C141.108 4.87121 141.247 4.82466 141.375 4.73156C141.504 4.63846 141.598 4.52331 141.656 4.38611V4.20481C141.656 3.90754 141.592 3.66581 141.463 3.47961C141.334 3.29341 141.17 3.20031 140.973 3.20031C140.773 3.20031 140.613 3.27708 140.493 3.43061C140.372 3.58251 140.311 3.78341 140.311 4.03331C140.311 4.27668 140.369 4.47758 140.485 4.63601C140.603 4.79281 140.76 4.87121 140.956 4.87121ZM145.037 3.12681L143.56 6.43921H143.085L144.557 3.24441H142.627V2.87201H145.037V3.12681ZM147.715 3.80301C147.715 3.98104 147.668 4.13948 147.573 4.27831C147.48 4.41714 147.353 4.52576 147.193 4.60416C147.38 4.68419 147.527 4.80098 147.634 4.95451C147.744 5.10804 147.798 5.28199 147.798 5.47636C147.798 5.78506 147.694 6.03088 147.485 6.21381C147.277 6.39674 147.004 6.48821 146.664 6.48821C146.321 6.48821 146.046 6.39674 145.838 6.21381C145.633 6.02924 145.53 5.78343 145.53 5.47636C145.53 5.28363 145.582 5.10968 145.687 4.95451C145.793 4.79934 145.939 4.68174 146.125 4.60171C145.967 4.52331 145.842 4.41469 145.75 4.27586C145.659 4.13703 145.613 3.97941 145.613 3.80301C145.613 3.50248 145.709 3.26401 145.902 3.08761C146.095 2.91121 146.349 2.82301 146.664 2.82301C146.978 2.82301 147.231 2.91121 147.424 3.08761C147.618 3.26401 147.715 3.50248 147.715 3.80301ZM147.345 5.46656C147.345 5.26729 147.282 5.10478 147.154 4.97901C147.028 4.85324 146.863 4.79036 146.659 4.79036C146.455 4.79036 146.291 4.85243 146.167 4.97656C146.044 5.10069 145.983 5.26403 145.983 5.46656C145.983 5.66909 146.043 5.82834 146.162 5.94431C146.283 6.06028 146.45 6.11826 146.664 6.11826C146.876 6.11826 147.043 6.06028 147.164 5.94431C147.285 5.82671 147.345 5.66746 147.345 5.46656ZM146.664 3.19541C146.486 3.19541 146.342 3.25094 146.23 3.36201C146.121 3.47144 146.066 3.62089 146.066 3.81036C146.066 3.99166 146.12 4.13866 146.228 4.25136C146.337 4.36243 146.483 4.41796 146.664 4.41796C146.845 4.41796 146.99 4.36243 147.098 4.25136C147.207 4.13866 147.262 3.99166 147.262 3.81036C147.262 3.62906 147.206 3.48124 147.093 3.36691C146.98 3.25258 146.837 3.19541 146.664 3.19541ZM148.401 7.14971L148.144 6.97331C148.297 6.75934 148.377 6.53884 148.384 6.31181V5.90266H148.827V6.25791C148.827 6.42288 148.787 6.58784 148.705 6.75281C148.625 6.91778 148.524 7.05008 148.401 7.14971ZM141.406 12.4392H140.951V9.41836L140.037 9.75401V9.34241L141.335 8.85486H141.406V12.4392ZM145.072 12.4392H142.734V12.1134L143.969 10.7414C144.152 10.5339 144.278 10.3657 144.346 10.2367C144.417 10.106 144.452 9.97124 144.452 9.83241C144.452 9.64621 144.395 9.49349 144.283 9.37426C144.17 9.25503 144.02 9.19541 143.832 9.19541C143.607 9.19541 143.431 9.25993 143.305 9.38896C143.181 9.51636 143.119 9.69439 143.119 9.92306H142.666C142.666 9.59476 142.771 9.32934 142.982 9.12681C143.194 8.92428 143.477 8.82301 143.832 8.82301C144.163 8.82301 144.426 8.91039 144.618 9.08516C144.811 9.25829 144.907 9.48941 144.907 9.77851C144.907 10.1297 144.684 10.5478 144.236 11.0329L143.281 12.0693H145.072V12.4392Z" fill="#00A651"/>
<path d="M137.03 8.009L139.157 5.25586H146.04" stroke="#00A651" stroke-width="0.1567" stroke-miterlimit="10"/>
<path d="M136.279 10.3242V11.2628" stroke="#00AEEF" stroke-width="0.3133" stroke-miterlimit="10"/>
<path d="M136.279 12.0764V42.4861" stroke="#00AEEF" stroke-width="0.3133" stroke-miterlimit="10" stroke-dasharray="3.2 3.2"/>
<path d="M136.279 42.9241V43.9252" stroke="#00AEEF" stroke-width="0.3133" stroke-miterlimit="10"/>
<path d="M98.924 19.272C99.8225 19.272 100.551 18.5437 100.551 17.6452C100.551 16.7467 99.8225 16.0183 98.924 16.0183C98.0255 16.0183 97.2971 16.7467 97.2971 17.6452C97.2971 18.5437 98.0255 19.272 98.924 19.272Z" fill="#00A651"/>
<path d="M98.9241 19.835V20.8361" stroke="#00AEEF" stroke-width="0.3133" stroke-miterlimit="10"/>
<path d="M98.9241 21.5872V42.5485" stroke="#00AEEF" stroke-width="0.3133" stroke-miterlimit="10" stroke-dasharray="3.04 3.04"/>
<path d="M98.9241 42.9238V43.925" stroke="#00AEEF" stroke-width="0.3133" stroke-miterlimit="10"/>
<path d="M82.593 9.76123V43.9252" stroke="#00AEEF" stroke-width="0.1567" stroke-miterlimit="10"/>
<path d="M158.68 43.925H82.593" stroke="#00AEEF" stroke-width="0.1567" stroke-miterlimit="10"/>
<path d="M15.5791 34.4141C10.9489 34.4141 7.19458 30.6599 7.19458 26.0296C7.19458 21.3993 10.9489 17.645 15.5791 17.645C20.2094 17.645 23.9637 21.3993 23.9637 26.0296C23.9637 30.5973 20.2094 34.4141 15.5791 34.4141ZM15.5791 19.0216C11.6997 19.0216 8.57115 22.1502 8.57115 26.0296C8.57115 29.909 11.6997 33.0376 15.5791 33.0376C19.4586 33.0376 22.5871 29.909 22.5871 26.0296C22.5871 22.1502 19.4586 19.0216 15.5791 19.0216Z" fill="white"/>
<path d="M23.9637 26.0296H22.5871C22.5871 22.1502 19.4585 19.0216 15.5791 19.0216V17.645C20.2094 17.645 23.9637 21.3993 23.9637 26.0296Z" fill="white"/>
<path d="M21.606 26.9954C22.1447 23.6869 19.8994 20.5682 16.5909 20.0295C13.2824 19.4908 10.1637 21.7362 9.62501 25.0446C9.08634 28.3531 11.3317 31.4718 14.6402 32.0105C17.9486 32.5492 21.0674 30.3038 21.606 26.9954Z" stroke="white" stroke-width="0.5025" stroke-miterlimit="10"/>
<path d="M15.2998 29.5459H12.9625V29.22L14.1973 27.848C14.3802 27.6406 14.506 27.4724 14.5746 27.3433C14.6448 27.2127 14.6799 27.0779 14.6799 26.9391C14.6799 26.7529 14.6236 26.6002 14.5109 26.4809C14.3982 26.3617 14.2479 26.3021 14.0601 26.3021C13.8347 26.3021 13.6591 26.3666 13.5333 26.4956C13.4092 26.623 13.3471 26.8011 13.3471 27.0297H12.8939C12.8939 26.7014 12.9992 26.436 13.2099 26.2335C13.4222 26.031 13.7056 25.9297 14.0601 25.9297C14.3916 25.9297 14.6538 26.0171 14.8465 26.1918C15.0392 26.365 15.1356 26.5961 15.1356 26.8852C15.1356 27.2364 14.9118 27.6545 14.4643 28.1396L13.5088 29.1759H15.2998V29.5459ZM15.9882 27.7574L16.1695 25.9787H17.9972V26.3976H16.5542L16.4464 27.3703C16.6211 27.2674 16.8196 27.2159 17.0417 27.2159C17.3667 27.2159 17.6248 27.3237 17.8159 27.5393C18.007 27.7533 18.1026 28.0432 18.1026 28.4091C18.1026 28.7766 18.0029 29.0665 17.8037 29.2788C17.606 29.4895 17.3292 29.5949 16.9731 29.5949C16.6579 29.5949 16.4006 29.5075 16.2014 29.3327C16.0021 29.158 15.8886 28.9162 15.8608 28.6075H16.2896C16.3173 28.8117 16.39 28.9661 16.5076 29.0706C16.6252 29.1735 16.7804 29.2249 16.9731 29.2249C17.1838 29.2249 17.3488 29.1531 17.468 29.0093C17.5889 28.8656 17.6493 28.6672 17.6493 28.414C17.6493 28.1755 17.584 27.9844 17.4533 27.8407C17.3243 27.6953 17.152 27.6226 16.9364 27.6226C16.7387 27.6226 16.5836 27.6659 16.4709 27.7525L16.3508 27.8505L15.9882 27.7574ZM12.9233 32.6647C12.9233 32.4507 12.991 32.2743 13.1266 32.1355C13.2638 31.9967 13.4394 31.9272 13.6534 31.9272C13.8706 31.9272 14.0462 31.9975 14.1801 32.1379C14.3157 32.2768 14.3835 32.4573 14.3835 32.6794V32.8533C14.3835 33.0689 14.3149 33.2453 14.1777 33.3825C14.0421 33.5181 13.869 33.5859 13.6583 33.5859C13.4459 33.5859 13.2703 33.5181 13.1315 33.3825C12.9927 33.2453 12.9233 33.0632 12.9233 32.8362V32.6647ZM13.2614 32.8533C13.2614 32.9807 13.2973 33.0861 13.3692 33.1694C13.441 33.2511 13.5374 33.2919 13.6583 33.2919C13.7742 33.2919 13.8673 33.2519 13.9376 33.1718C14.0094 33.0918 14.0454 32.9824 14.0454 32.8435V32.6647C14.0454 32.5373 14.0102 32.4319 13.94 32.3486C13.8698 32.2653 13.7742 32.2237 13.6534 32.2237C13.5325 32.2237 13.4369 32.2653 13.3667 32.3486C13.2965 32.4319 13.2614 32.5406 13.2614 32.6745V32.8533ZM14.6603 34.6712C14.6603 34.4573 14.7281 34.2817 14.8637 34.1445C15.0009 34.0057 15.1764 33.9362 15.3904 33.9362C15.6044 33.9362 15.78 34.0048 15.9172 34.142C16.0544 34.2792 16.123 34.4614 16.123 34.6884V34.8623C16.123 35.0763 16.0544 35.2527 15.9172 35.3915C15.7816 35.5287 15.6076 35.5973 15.3953 35.5973C15.183 35.5973 15.0074 35.5296 14.8686 35.394C14.7297 35.2568 14.6603 35.0747 14.6603 34.8476V34.6712ZM14.9984 34.8623C14.9984 34.9914 15.0343 35.0975 15.1062 35.1808C15.1781 35.2625 15.2744 35.3033 15.3953 35.3033C15.5129 35.3033 15.6068 35.2633 15.6771 35.1833C15.7473 35.1016 15.7824 34.9914 15.7824 34.8525V34.6712C15.7824 34.5422 15.7465 34.4369 15.6746 34.3552C15.6044 34.2735 15.5096 34.2327 15.3904 34.2327C15.2744 34.2327 15.1797 34.2735 15.1062 34.3552C15.0343 34.4352 14.9984 34.5438 14.9984 34.681V34.8623ZM13.7612 35.2764L13.5039 35.1147L15.2459 32.3266L15.5031 32.4883L13.7612 35.2764Z" fill="#F1F2F2"/>
<path d="M38.793 34.4141C34.1627 34.4141 30.4084 30.6599 30.4084 26.0296C30.4084 21.3993 34.1627 17.645 38.793 17.645C43.4233 17.645 47.1776 21.3993 47.1776 26.0296C47.1776 30.5973 43.4233 34.4141 38.793 34.4141ZM38.793 19.0216C34.9136 19.0216 31.785 22.1502 31.785 26.0296C31.785 29.909 34.9136 33.0376 38.793 33.0376C42.6724 33.0376 45.801 29.909 45.801 26.0296C45.801 22.1502 42.6098 19.0216 38.793 19.0216Z" fill="white"/>
<path d="M38.793 34.4142V32.9751C42.6724 32.9751 45.801 29.8465 45.801 25.9671C45.801 22.0877 42.6724 18.9591 38.793 18.9591V17.5825C43.4232 17.5825 47.1775 21.3368 47.1775 25.9671C47.1775 30.5974 43.4232 34.4142 38.793 34.4142Z" fill="white"/>
<path d="M44.713 27.3983C45.4863 24.1368 43.4692 20.8659 40.2077 20.0925C36.9461 19.3192 33.6752 21.3363 32.9019 24.5979C32.1286 27.8594 34.1457 31.1303 37.4073 31.9036C40.6688 32.677 43.9397 30.6598 44.713 27.3983Z" stroke="white" stroke-width="0.5025" stroke-miterlimit="10"/>
<path d="M36.2288 27.7574L36.4101 25.9787H38.2378V26.3976H36.7948L36.687 27.3703C36.8617 27.2674 37.0602 27.2159 37.2823 27.2159C37.6074 27.2159 37.8654 27.3237 38.0565 27.5393C38.2476 27.7533 38.3432 28.0432 38.3432 28.4091C38.3432 28.7766 38.2435 29.0665 38.0443 29.2788C37.8466 29.4895 37.5698 29.5949 37.2137 29.5949C36.8985 29.5949 36.6412 29.5075 36.442 29.3327C36.2427 29.158 36.1292 28.9162 36.1014 28.6075H36.5302C36.5579 28.8117 36.6306 28.9661 36.7482 29.0706C36.8658 29.1735 37.021 29.2249 37.2137 29.2249C37.4244 29.2249 37.5894 29.1531 37.7086 29.0093C37.8295 28.8656 37.8899 28.6672 37.8899 28.414C37.8899 28.1755 37.8246 27.9844 37.6939 27.8407C37.5649 27.6953 37.3926 27.6226 37.177 27.6226C36.9793 27.6226 36.8242 27.6659 36.7115 27.7525L36.5914 27.8505L36.2288 27.7574ZM41.0749 28.0244C41.0749 28.5553 40.9843 28.9497 40.803 29.2078C40.6217 29.4659 40.3383 29.5949 39.9528 29.5949C39.5723 29.5949 39.2905 29.4691 39.1076 29.2176C38.9246 28.9644 38.8299 28.5871 38.8234 28.0857V27.4805C38.8234 26.9562 38.914 26.5667 39.0953 26.3119C39.2766 26.0571 39.5608 25.9297 39.9479 25.9297C40.3318 25.9297 40.6143 26.053 40.7956 26.2996C40.9769 26.5446 41.07 26.9236 41.0749 27.4364V28.0244ZM40.6217 27.4046C40.6217 27.0208 40.5678 26.7415 40.46 26.5667C40.3522 26.3903 40.1815 26.3021 39.9479 26.3021C39.716 26.3021 39.5469 26.3895 39.4408 26.5642C39.3346 26.739 39.2799 27.0077 39.2766 27.3703V28.0955C39.2766 28.481 39.3322 28.766 39.4432 28.9505C39.5559 29.1335 39.7258 29.2249 39.9528 29.2249C40.1766 29.2249 40.3424 29.1384 40.4502 28.9652C40.5596 28.7921 40.6168 28.5193 40.6217 28.1469V27.4046ZM35.9814 32.6647C35.9814 32.4507 36.0492 32.2743 36.1847 32.1355C36.3219 31.9967 36.4975 31.9272 36.7115 31.9272C36.9287 31.9272 37.1043 31.9975 37.2382 32.1379C37.3738 32.2768 37.4416 32.4573 37.4416 32.6794V32.8533C37.4416 33.0689 37.373 33.2453 37.2358 33.3825C37.1002 33.5181 36.9271 33.5859 36.7164 33.5859C36.504 33.5859 36.3285 33.5181 36.1896 33.3825C36.0508 33.2453 35.9814 33.0632 35.9814 32.8362V32.6647ZM36.3195 32.8533C36.3195 32.9807 36.3554 33.0861 36.4273 33.1694C36.4991 33.2511 36.5955 33.2919 36.7164 33.2919C36.8323 33.2919 36.9254 33.2519 36.9957 33.1718C37.0675 33.0918 37.1035 32.9824 37.1035 32.8435V32.6647C37.1035 32.5373 37.0684 32.4319 36.9981 32.3486C36.9279 32.2653 36.8323 32.2237 36.7115 32.2237C36.5906 32.2237 36.4951 32.2653 36.4248 32.3486C36.3546 32.4319 36.3195 32.5406 36.3195 32.6745V32.8533ZM37.7184 34.6712C37.7184 34.4573 37.7862 34.2817 37.9218 34.1445C38.059 34.0057 38.2346 33.9362 38.4485 33.9362C38.6625 33.9362 38.8381 34.0048 38.9753 34.142C39.1125 34.2792 39.1811 34.4614 39.1811 34.6884V34.8623C39.1811 35.0763 39.1125 35.2527 38.9753 35.3915C38.8397 35.5287 38.6658 35.5973 38.4534 35.5973C38.2411 35.5973 38.0655 35.5296 37.9267 35.394C37.7878 35.2568 37.7184 35.0747 37.7184 34.8476V34.6712ZM38.0565 34.8623C38.0565 34.9914 38.0925 35.0975 38.1643 35.1808C38.2362 35.2625 38.3326 35.3033 38.4534 35.3033C38.571 35.3033 38.6649 35.2633 38.7352 35.1833C38.8054 35.1016 38.8405 34.9914 38.8405 34.8525V34.6712C38.8405 34.5422 38.8046 34.4369 38.7327 34.3552C38.6625 34.2735 38.5678 34.2327 38.4485 34.2327C38.3326 34.2327 38.2378 34.2735 38.1643 34.3552C38.0925 34.4352 38.0565 34.5438 38.0565 34.681V34.8623ZM36.8193 35.2764L36.562 35.1147L38.304 32.3266L38.5612 32.4883L36.8193 35.2764Z" fill="#F1F2F2"/>
<path d="M15.5791 57.2528C10.9489 57.2528 7.19458 53.4985 7.19458 48.8682C7.19458 46.8033 7.94544 44.8011 9.32201 43.2994C10.8863 41.5474 13.2014 40.4836 15.5791 40.4836C20.2094 40.4836 23.9637 44.2379 23.9637 48.8682C23.9637 53.4985 20.2094 57.2528 15.5791 57.2528ZM15.5791 41.9228C13.5769 41.9228 11.6997 42.7988 10.3857 44.2379C9.25944 45.5519 8.63372 47.1788 8.63372 48.8682C8.63372 52.7476 11.7623 55.8762 15.6417 55.8762C19.5211 55.8762 22.6497 52.7476 22.6497 48.8682C22.5871 45.0513 19.4586 41.9228 15.5791 41.9228Z" fill="white"/>
<path d="M15.5791 57.2528C10.9489 57.2528 7.19458 53.4985 7.19458 48.8682H8.57115C8.57115 52.7476 11.6997 55.8762 15.5791 55.8762C19.4586 55.8762 22.5871 52.7476 22.5871 48.8682C22.5871 44.9888 19.4586 41.8602 15.5791 41.8602V40.4836C20.2094 40.4836 23.9637 44.2379 23.9637 48.8682C23.9637 53.4985 20.2094 57.2528 15.5791 57.2528Z" fill="white"/>
<path d="M15.5792 54.9377C18.9312 54.9377 21.6486 52.2203 21.6486 48.8682C21.6486 45.5162 18.9312 42.7988 15.5792 42.7988C12.2271 42.7988 9.50977 45.5162 9.50977 48.8682C9.50977 52.2203 12.2271 54.9377 15.5792 54.9377Z" stroke="url(#paint3_linear)" stroke-width="0.5025" stroke-miterlimit="10"/>
<path d="M15.2655 49.3683L13.7881 52.6807H13.3128L14.7853 49.4859H12.8547V49.1135H15.2655V49.3683ZM15.9882 50.8922L16.1695 49.1135H17.9972V49.5324H16.5542L16.4464 50.5051C16.6211 50.4022 16.8196 50.3507 17.0417 50.3507C17.3667 50.3507 17.6248 50.4585 17.8159 50.6741C18.007 50.8881 18.1026 51.178 18.1026 51.5439C18.1026 51.9114 18.0029 52.2013 17.8037 52.4136C17.606 52.6243 17.3292 52.7297 16.9731 52.7297C16.6579 52.7297 16.4006 52.6423 16.2014 52.4675C16.0021 52.2927 15.8886 52.051 15.8608 51.7423H16.2896C16.3173 51.9465 16.39 52.1008 16.5076 52.2054C16.6252 52.3083 16.7804 52.3597 16.9731 52.3597C17.1838 52.3597 17.3488 52.2878 17.468 52.1441C17.5889 52.0004 17.6493 51.8019 17.6493 51.5488C17.6493 51.3103 17.584 51.1192 17.4533 50.9755C17.3243 50.8301 17.152 50.7574 16.9364 50.7574C16.7387 50.7574 16.5836 50.8007 16.4709 50.8873L16.3508 50.9853L15.9882 50.8922ZM12.9233 55.7995C12.9233 55.5855 12.991 55.4091 13.1266 55.2703C13.2638 55.1314 13.4394 55.062 13.6534 55.062C13.8706 55.062 14.0462 55.1322 14.1801 55.2727C14.3157 55.4115 14.3835 55.592 14.3835 55.8142V55.9881C14.3835 56.2037 14.3149 56.3801 14.1777 56.5173C14.0421 56.6529 13.869 56.7207 13.6583 56.7207C13.4459 56.7207 13.2703 56.6529 13.1315 56.5173C12.9927 56.3801 12.9233 56.198 12.9233 55.971V55.7995ZM13.2614 55.9881C13.2614 56.1155 13.2973 56.2209 13.3692 56.3042C13.441 56.3858 13.5374 56.4267 13.6583 56.4267C13.7742 56.4267 13.8673 56.3866 13.9376 56.3066C14.0094 56.2266 14.0454 56.1171 14.0454 55.9783V55.7995C14.0454 55.6721 14.0102 55.5667 13.94 55.4834C13.8698 55.4001 13.7742 55.3585 13.6534 55.3585C13.5325 55.3585 13.4369 55.4001 13.3667 55.4834C13.2965 55.5667 13.2614 55.6753 13.2614 55.8093V55.9881ZM14.6603 57.806C14.6603 57.592 14.7281 57.4165 14.8637 57.2793C15.0009 57.1404 15.1764 57.071 15.3904 57.071C15.6044 57.071 15.78 57.1396 15.9172 57.2768C16.0544 57.414 16.123 57.5961 16.123 57.8232V57.9971C16.123 58.2111 16.0544 58.3875 15.9172 58.5263C15.7816 58.6635 15.6076 58.7321 15.3953 58.7321C15.183 58.7321 15.0074 58.6643 14.8686 58.5288C14.7297 58.3916 14.6603 58.2094 14.6603 57.9824V57.806ZM14.9984 57.9971C14.9984 58.1261 15.0343 58.2323 15.1062 58.3156C15.1781 58.3973 15.2744 58.4381 15.3953 58.4381C15.5129 58.4381 15.6068 58.3981 15.6771 58.3181C15.7473 58.2364 15.7824 58.1261 15.7824 57.9873V57.806C15.7824 57.677 15.7465 57.5716 15.6746 57.49C15.6044 57.4083 15.5096 57.3675 15.3904 57.3675C15.2744 57.3675 15.1797 57.4083 15.1062 57.49C15.0343 57.57 14.9984 57.6786 14.9984 57.8158V57.9971ZM13.7612 58.4112L13.5039 58.2495L15.2459 55.4614L15.5031 55.6231L13.7612 58.4112Z" fill="#F1F2F2"/>
<path d="M38.793 57.2528C34.1627 57.2528 30.4084 53.4985 30.4084 48.8682C30.4084 44.2379 34.1627 40.4836 38.793 40.4836C43.4233 40.4836 47.1776 44.2379 47.1776 48.8682C47.1776 53.4985 43.4233 57.2528 38.793 57.2528ZM38.793 41.9228C34.9136 41.9228 31.785 45.0513 31.785 48.9308C31.785 52.8102 34.9136 55.9388 38.793 55.9388C42.6724 55.9388 45.801 52.8102 45.801 48.9308C45.801 45.0513 42.6098 41.9228 38.793 41.9228Z" fill="white"/>
<path d="M38.793 54.9377C42.1451 54.9377 44.8625 52.2203 44.8625 48.8682C44.8625 45.5162 42.1451 42.7988 38.793 42.7988C35.441 42.7988 32.7236 45.5162 32.7236 48.8682C32.7236 52.2203 35.441 54.9377 38.793 54.9377Z" stroke="url(#paint4_linear)" stroke-width="0.5025" stroke-miterlimit="10"/>
<path d="M37.091 52.6807H36.6353V49.6598L35.7214 49.9955V49.5839L37.0199 49.0963H37.091V52.6807ZM40.6557 51.1592C40.6557 51.69 40.5651 52.0845 40.3838 52.3426C40.2025 52.6006 39.9191 52.7297 39.5336 52.7297C39.1531 52.7297 38.8713 52.6039 38.6884 52.3524C38.5054 52.0992 38.4107 51.7219 38.4042 51.2205V50.6153C38.4042 50.091 38.4948 49.7015 38.6761 49.4467C38.8574 49.1919 39.1416 49.0645 39.5287 49.0645C39.9126 49.0645 40.1951 49.1878 40.3764 49.4344C40.5577 49.6794 40.6508 50.0583 40.6557 50.5712V51.1592ZM40.2025 50.5394C40.2025 50.1555 40.1486 49.8762 40.0408 49.7015C39.933 49.5251 39.7623 49.4369 39.5287 49.4369C39.2968 49.4369 39.1277 49.5242 39.0216 49.699C38.9154 49.8738 38.8607 50.1425 38.8574 50.5051V51.2303C38.8574 51.6157 38.913 51.9007 39.024 52.0853C39.1367 52.2682 39.3066 52.3597 39.5336 52.3597C39.7574 52.3597 39.9232 52.2731 40.031 52.1C40.1404 51.9269 40.1976 51.6541 40.2025 51.2817V50.5394ZM37.8382 57.1592C37.8382 57.69 37.7476 58.0845 37.5663 58.3426C37.385 58.6006 37.1016 58.7297 36.7161 58.7297C36.3356 58.7297 36.0538 58.6039 35.8709 58.3524C35.6879 58.0992 35.5932 57.7219 35.5867 57.2205V56.6153C35.5867 56.091 35.6773 55.7015 35.8586 55.4467C36.0399 55.1919 36.3241 55.0645 36.7112 55.0645C37.0951 55.0645 37.3776 55.1878 37.5589 55.4344C37.7402 55.6794 37.8333 56.0583 37.8382 56.5712V57.1592ZM37.385 56.5394C37.385 56.1555 37.3311 55.8762 37.2233 55.7015C37.1155 55.5251 36.9448 55.4369 36.7112 55.4369C36.4793 55.4369 36.3102 55.5242 36.2041 55.699C36.0979 55.8738 36.0432 56.1425 36.0399 56.5051V57.2303C36.0399 57.6157 36.0955 57.9007 36.2065 58.0853C36.3192 58.2682 36.4891 58.3597 36.7161 58.3597C36.9399 58.3597 37.1057 58.2731 37.2135 58.1C37.3229 57.9269 37.3801 57.6541 37.385 57.2817V56.5394ZM38.3797 55.7995C38.3797 55.5855 38.4475 55.4091 38.583 55.2703C38.7202 55.1314 38.8958 55.062 39.1098 55.062C39.327 55.062 39.5026 55.1322 39.6365 55.2727C39.7721 55.4115 39.8399 55.592 39.8399 55.8142V55.9881C39.8399 56.2037 39.7713 56.3801 39.6341 56.5173C39.4985 56.6529 39.3254 56.7207 39.1147 56.7207C38.9023 56.7207 38.7268 56.6529 38.5879 56.5173C38.4491 56.3801 38.3797 56.198 38.3797 55.971V55.7995ZM38.7178 55.9881C38.7178 56.1155 38.7537 56.2209 38.8256 56.3042C38.8974 56.3858 38.9938 56.4267 39.1147 56.4267C39.2306 56.4267 39.3237 56.3866 39.394 56.3066C39.4658 56.2266 39.5018 56.1171 39.5018 55.9783V55.7995C39.5018 55.6721 39.4667 55.5667 39.3964 55.4834C39.3262 55.4001 39.2306 55.3585 39.1098 55.3585C38.9889 55.3585 38.8934 55.4001 38.8231 55.4834C38.7529 55.5667 38.7178 55.6753 38.7178 55.8093V55.9881ZM40.1167 57.806C40.1167 57.592 40.1845 57.4165 40.3201 57.2793C40.4573 57.1404 40.6329 57.071 40.8468 57.071C41.0608 57.071 41.2364 57.1396 41.3736 57.2768C41.5108 57.414 41.5794 57.5961 41.5794 57.8232V57.9971C41.5794 58.2111 41.5108 58.3875 41.3736 58.5263C41.238 58.6635 41.0641 58.7321 40.8517 58.7321C40.6394 58.7321 40.4638 58.6643 40.325 58.5288C40.1861 58.3916 40.1167 58.2094 40.1167 57.9824V57.806ZM40.4548 57.9971C40.4548 58.1261 40.4908 58.2323 40.5626 58.3156C40.6345 58.3973 40.7309 58.4381 40.8517 58.4381C40.9693 58.4381 41.0632 58.3981 41.1335 58.3181C41.2037 58.2364 41.2388 58.1261 41.2388 57.9873V57.806C41.2388 57.677 41.2029 57.5716 41.131 57.49C41.0608 57.4083 40.9661 57.3675 40.8468 57.3675C40.7309 57.3675 40.6361 57.4083 40.5626 57.49C40.4908 57.57 40.4548 57.6786 40.4548 57.8158V57.9971ZM39.2176 58.4112L38.9603 58.2495L40.7023 55.4614L40.9595 55.6231L39.2176 58.4112Z" fill="#F1F2F2"/>
<path d="M60.8181 34.4141C56.1879 34.4141 52.4336 30.6599 52.4336 26.0296C52.4336 21.3993 56.1879 17.645 60.8181 17.645C65.4484 17.645 69.2027 21.3993 69.2027 26.0296C69.2027 30.5973 65.4484 34.4141 60.8181 34.4141ZM60.8181 19.0216C56.9387 19.0216 53.8102 22.1502 53.8102 26.0296C53.8102 29.909 56.9387 33.0376 60.8181 33.0376C64.6976 33.0376 67.8261 29.909 67.8261 26.0296C67.8261 22.1502 64.635 19.0216 60.8181 19.0216Z" fill="white"/>
<path d="M60.8184 34.4142V32.9751C64.6978 32.9751 67.8264 29.8465 67.8264 25.9671C67.8264 22.0877 64.6978 18.9591 60.8184 18.9591V17.5825C65.4486 17.5825 69.2029 21.3368 69.2029 25.9671C69.2029 30.5974 65.4486 34.4142 60.8184 34.4142Z" fill="white"/>
<path d="M65.1241 30.3051C67.4943 27.9349 67.4943 24.092 65.1241 21.7217C62.7539 19.3515 58.9109 19.3515 56.5407 21.7217C54.1705 24.092 54.1705 27.9349 56.5407 30.3051C58.9109 32.6753 62.7538 32.6753 65.1241 30.3051Z" stroke="white" stroke-width="0.5025" stroke-miterlimit="10"/>
<path d="M58.2542 27.7574L58.4355 25.9787H60.2632V26.3976H58.8202L58.7124 27.3703C58.8871 27.2674 59.0856 27.2159 59.3077 27.2159C59.6327 27.2159 59.8908 27.3237 60.0819 27.5393C60.273 27.7533 60.3686 28.0432 60.3686 28.4091C60.3686 28.7766 60.2689 29.0665 60.0697 29.2788C59.872 29.4895 59.5952 29.5949 59.2391 29.5949C58.9239 29.5949 58.6666 29.5075 58.4674 29.3327C58.2681 29.158 58.1546 28.9162 58.1268 28.6075H58.5556C58.5833 28.8117 58.656 28.9661 58.7736 29.0706C58.8912 29.1735 59.0464 29.2249 59.2391 29.2249C59.4498 29.2249 59.6148 29.1531 59.734 29.0093C59.8549 28.8656 59.9153 28.6672 59.9153 28.414C59.9153 28.1755 59.85 27.9844 59.7193 27.8407C59.5903 27.6953 59.418 27.6226 59.2024 27.6226C59.0047 27.6226 58.8496 27.6659 58.7369 27.7525L58.6168 27.8505L58.2542 27.7574ZM63.1003 28.0244C63.1003 28.5553 63.0097 28.9497 62.8284 29.2078C62.6471 29.4659 62.3637 29.5949 61.9782 29.5949C61.5976 29.5949 61.3159 29.4691 61.133 29.2176C60.95 28.9644 60.8553 28.5871 60.8488 28.0857V27.4805C60.8488 26.9562 60.9394 26.5667 61.1207 26.3119C61.302 26.0571 61.5862 25.9297 61.9733 25.9297C62.3571 25.9297 62.6397 26.053 62.821 26.2996C63.0023 26.5446 63.0954 26.9236 63.1003 27.4364V28.0244ZM62.6471 27.4046C62.6471 27.0208 62.5932 26.7415 62.4854 26.5667C62.3776 26.3903 62.2069 26.3021 61.9733 26.3021C61.7414 26.3021 61.5723 26.3895 61.4662 26.5642C61.36 26.739 61.3053 27.0077 61.302 27.3703V28.0955C61.302 28.481 61.3575 28.766 61.4686 28.9505C61.5813 29.1335 61.7512 29.2249 61.9782 29.2249C62.202 29.2249 62.3678 29.1384 62.4756 28.9652C62.585 28.7921 62.6422 28.5193 62.6471 28.1469V27.4046ZM58.0068 32.6647C58.0068 32.4507 58.0745 32.2743 58.2101 32.1355C58.3473 31.9967 58.5229 31.9272 58.7369 31.9272C58.9541 31.9272 59.1297 31.9975 59.2636 32.1379C59.3992 32.2768 59.467 32.4573 59.467 32.6794V32.8533C59.467 33.0689 59.3984 33.2453 59.2612 33.3825C59.1256 33.5181 58.9525 33.5859 58.7418 33.5859C58.5294 33.5859 58.3538 33.5181 58.215 33.3825C58.0762 33.2453 58.0068 33.0632 58.0068 32.8362V32.6647ZM58.3449 32.8533C58.3449 32.9807 58.3808 33.0861 58.4527 33.1694C58.5245 33.2511 58.6209 33.2919 58.7418 33.2919C58.8577 33.2919 58.9508 33.2519 59.0211 33.1718C59.0929 33.0918 59.1289 32.9824 59.1289 32.8435V32.6647C59.1289 32.5373 59.0937 32.4319 59.0235 32.3486C58.9533 32.2653 58.8577 32.2237 58.7369 32.2237C58.616 32.2237 58.5204 32.2653 58.4502 32.3486C58.38 32.4319 58.3449 32.5406 58.3449 32.6745V32.8533ZM59.7438 34.6712C59.7438 34.4573 59.8116 34.2817 59.9472 34.1445C60.0844 34.0057 60.2599 33.9362 60.4739 33.9362C60.6879 33.9362 60.8635 34.0048 61.0007 34.142C61.1379 34.2792 61.2065 34.4614 61.2065 34.6884V34.8623C61.2065 35.0763 61.1379 35.2527 61.0007 35.3915C60.8651 35.5287 60.6911 35.5973 60.4788 35.5973C60.2665 35.5973 60.0909 35.5296 59.9521 35.394C59.8132 35.2568 59.7438 35.0747 59.7438 34.8476V34.6712ZM60.0819 34.8623C60.0819 34.9914 60.1178 35.0975 60.1897 35.1808C60.2616 35.2625 60.3579 35.3033 60.4788 35.3033C60.5964 35.3033 60.6903 35.2633 60.7606 35.1833C60.8308 35.1016 60.8659 34.9914 60.8659 34.8525V34.6712C60.8659 34.5422 60.83 34.4369 60.7581 34.3552C60.6879 34.2735 60.5931 34.2327 60.4739 34.2327C60.3579 34.2327 60.2632 34.2735 60.1897 34.3552C60.1178 34.4352 60.0819 34.5438 60.0819 34.681V34.8623ZM58.8447 35.2764L58.5874 35.1147L60.3294 32.3266L60.5866 32.4883L58.8447 35.2764Z" fill="#F1F2F2"/>
<path d="M60.8181 57.2528C56.1879 57.2528 52.4336 53.4985 52.4336 48.8682C52.4336 44.2379 56.1879 40.4836 60.8181 40.4836C65.4484 40.4836 69.2027 44.2379 69.2027 48.8682C69.2027 53.4985 65.4484 57.2528 60.8181 57.2528ZM60.8181 41.9228C56.9387 41.9228 53.8102 45.0513 53.8102 48.9308C53.8102 52.8102 56.9387 55.9388 60.8181 55.9388C64.6976 55.9388 67.8261 52.8102 67.8261 48.9308C67.8261 45.0513 64.635 41.9228 60.8181 41.9228Z" fill="white"/>
<path d="M60.8182 54.9377C64.1702 54.9377 66.8876 52.2203 66.8876 48.8682C66.8876 45.5162 64.1702 42.7988 60.8182 42.7988C57.4661 42.7988 54.7488 45.5162 54.7488 48.8682C54.7488 52.2203 57.4661 54.9377 60.8182 54.9377Z" stroke="url(#paint5_linear)" stroke-width="0.5025" stroke-miterlimit="10"/>
<path d="M59.1164 52.6807H58.6607V49.6598L57.7468 49.9955V49.5839L59.0453 49.0963H59.1164V52.6807ZM62.6811 51.1592C62.6811 51.69 62.5905 52.0845 62.4092 52.3426C62.2279 52.6006 61.9445 52.7297 61.559 52.7297C61.1785 52.7297 60.8967 52.6039 60.7138 52.3524C60.5308 52.0992 60.4361 51.7219 60.4296 51.2205V50.6153C60.4296 50.091 60.5202 49.7015 60.7015 49.4467C60.8828 49.1919 61.167 49.0645 61.5541 49.0645C61.938 49.0645 62.2205 49.1878 62.4018 49.4344C62.5831 49.6794 62.6762 50.0583 62.6811 50.5712V51.1592ZM62.2279 50.5394C62.2279 50.1555 62.174 49.8762 62.0662 49.7015C61.9584 49.5251 61.7877 49.4369 61.5541 49.4369C61.3222 49.4369 61.1531 49.5242 61.047 49.699C60.9408 49.8738 60.8861 50.1425 60.8828 50.5051V51.2303C60.8828 51.6157 60.9384 51.9007 61.0494 52.0853C61.1621 52.2682 61.332 52.3597 61.559 52.3597C61.7828 52.3597 61.9486 52.2731 62.0564 52.1C62.1658 51.9269 62.223 51.6541 62.2279 51.2817V50.5394ZM59.8636 57.1592C59.8636 57.69 59.773 58.0845 59.5917 58.3426C59.4104 58.6006 59.127 58.7297 58.7415 58.7297C58.361 58.7297 58.0792 58.6039 57.8963 58.3524C57.7133 58.0992 57.6186 57.7219 57.6121 57.2205V56.6153C57.6121 56.091 57.7027 55.7015 57.884 55.4467C58.0653 55.1919 58.3495 55.0645 58.7366 55.0645C59.1205 55.0645 59.403 55.1878 59.5843 55.4344C59.7656 55.6794 59.8587 56.0583 59.8636 56.5712V57.1592ZM59.4104 56.5394C59.4104 56.1555 59.3565 55.8762 59.2487 55.7015C59.1409 55.5251 58.9702 55.4369 58.7366 55.4369C58.5047 55.4369 58.3356 55.5242 58.2295 55.699C58.1233 55.8738 58.0686 56.1425 58.0653 56.5051V57.2303C58.0653 57.6157 58.1209 57.9007 58.2319 58.0853C58.3446 58.2682 58.5145 58.3597 58.7415 58.3597C58.9653 58.3597 59.1311 58.2731 59.2389 58.1C59.3483 57.9269 59.4055 57.6541 59.4104 57.2817V56.5394ZM60.4051 55.7995C60.4051 55.5855 60.4729 55.4091 60.6084 55.2703C60.7456 55.1314 60.9212 55.062 61.1352 55.062C61.3524 55.062 61.528 55.1322 61.6619 55.2727C61.7975 55.4115 61.8653 55.592 61.8653 55.8142V55.9881C61.8653 56.2037 61.7967 56.3801 61.6595 56.5173C61.5239 56.6529 61.3508 56.7207 61.1401 56.7207C60.9277 56.7207 60.7522 56.6529 60.6133 56.5173C60.4745 56.3801 60.4051 56.198 60.4051 55.971V55.7995ZM60.7432 55.9881C60.7432 56.1155 60.7791 56.2209 60.851 56.3042C60.9228 56.3858 61.0192 56.4267 61.1401 56.4267C61.256 56.4267 61.3491 56.3866 61.4194 56.3066C61.4912 56.2266 61.5272 56.1171 61.5272 55.9783V55.7995C61.5272 55.6721 61.4921 55.5667 61.4218 55.4834C61.3516 55.4001 61.256 55.3585 61.1352 55.3585C61.0143 55.3585 60.9188 55.4001 60.8485 55.4834C60.7783 55.5667 60.7432 55.6753 60.7432 55.8093V55.9881ZM62.1421 57.806C62.1421 57.592 62.2099 57.4165 62.3455 57.2793C62.4827 57.1404 62.6583 57.071 62.8722 57.071C63.0862 57.071 63.2618 57.1396 63.399 57.2768C63.5362 57.414 63.6048 57.5961 63.6048 57.8232V57.9971C63.6048 58.2111 63.5362 58.3875 63.399 58.5263C63.2634 58.6635 63.0895 58.7321 62.8771 58.7321C62.6648 58.7321 62.4892 58.6643 62.3504 58.5288C62.2115 58.3916 62.1421 58.2094 62.1421 57.9824V57.806ZM62.4802 57.9971C62.4802 58.1261 62.5162 58.2323 62.588 58.3156C62.6599 58.3973 62.7563 58.4381 62.8771 58.4381C62.9947 58.4381 63.0886 58.3981 63.1589 58.3181C63.2291 58.2364 63.2642 58.1261 63.2642 57.9873V57.806C63.2642 57.677 63.2283 57.5716 63.1564 57.49C63.0862 57.4083 62.9915 57.3675 62.8722 57.3675C62.7563 57.3675 62.6615 57.4083 62.588 57.49C62.5162 57.57 62.4802 57.6786 62.4802 57.8158V57.9971ZM61.243 58.4112L60.9857 58.2495L62.7277 55.4614L62.9849 55.6231L61.243 58.4112Z" fill="#F1F2F2"/>
<path d="M128.145 49.7441C128.145 49.7441 127.144 50.2447 125.83 51.371C124.516 52.4973 116.131 65.9501 123.765 64.073C123.827 64.073 125.454 52.9978 128.145 49.7441Z" fill="#594A5F"/>
<path d="M137.093 66.7637C136.53 68.1403 136.404 69.7046 136.78 71.1437C137.406 74.0846 136.717 74.2723 136.717 74.2723C136.717 74.2723 132.775 76.7751 129.459 77.7763C127.081 78.5271 125.079 78.402 125.142 75.774V75.7114C125.142 75.5237 125.142 75.3986 125.142 75.2734C125.267 69.4543 124.015 69.1414 123.702 62.5714C123.39 55.8763 125.204 52.122 126.956 50.4952C128.708 48.8683 131.148 48.8058 135.716 49.8695C139.158 50.6829 140.284 51.6215 140.284 54.1243C140.284 55.0003 140.159 56.0015 139.908 57.2529C139.408 60.5066 138.031 64.386 137.093 66.7637Z" fill="white"/>
<path opacity="0.08" d="M126.08 75.3984C125.955 74.2095 125.642 71.8318 125.642 71.7692C125.642 71.7067 124.516 60.131 124.578 59.8807C124.641 59.6304 125.079 54.6873 125.079 54.6873L126.768 50.6201C126.768 50.6201 128.333 49.619 128.583 49.5564C128.771 49.4938 128.583 49.9318 128.583 49.9318L128.458 49.9944C128.458 49.9944 126.08 54.875 126.643 59.4427L127.081 62.759L128.458 62.1332L129.897 63.4472L129.709 63.635C129.709 63.635 128.52 63.0718 128.145 62.8841L127.081 63.2595C127.081 63.2595 127.144 63.9478 127.144 64.8864C127.206 65.825 127.332 66.8887 127.394 67.577C127.457 68.3278 127.519 69.0787 127.582 70.0798C127.644 70.8932 127.519 74.4598 127.457 75.3358C128.082 75.3358 128.833 75.2732 129.709 75.1481C131.524 74.9604 133.151 74.3972 134.277 74.0218C135.09 73.7089 135.528 72.8955 135.403 72.0821C135.216 70.9558 134.965 69.2664 134.965 68.0149C134.965 66.701 135.591 64.5735 136.029 63.0092C136.404 61.8204 136.53 60.569 136.467 59.3175C136.342 57.1275 136.467 55.0627 136.467 55.0627L138.907 53.7487L140.284 54.2493C140.284 55.1253 140.159 56.1264 139.908 57.3778C139.345 60.569 137.969 64.3858 137.093 66.8261C136.53 68.2027 136.404 69.7669 136.78 71.2061C137.406 74.1469 136.717 74.3347 136.717 74.3347C136.717 74.3347 132.775 76.8375 129.459 77.8386L126.393 77.5258L125.142 76.5872V75.8364C125.142 75.6486 125.142 75.5235 125.142 75.3984C125.392 75.3358 125.705 75.3358 126.08 75.3984Z" fill="black"/>
<path d="M137.155 79.1526C137.405 79.2152 138.156 77.9637 138.156 77.9637L137.843 77.5883C137.656 77.338 137.405 77.2129 137.155 77.0878H137.093C136.842 77.0252 136.592 77.0878 136.467 77.338C136.279 77.6509 135.966 77.9637 135.591 77.9637C135.591 77.9637 135.591 77.9637 135.528 77.9637C135.215 77.9012 136.842 79.09 137.155 79.1526Z" fill="#F4D5B5"/>
<path d="M126.33 43.1742C126.768 43.3619 126.581 44.7385 126.643 45.2391C126.706 45.6771 127.081 47.4916 128.02 47.7419C128.958 47.9922 129.521 48.1174 129.521 48.2425C129.521 48.3051 129.521 48.6179 129.459 48.9933C129.459 49.3688 129.396 49.7442 129.396 49.7442L130.21 50.8079L131.148 50.8705L133.401 50.2448C133.401 50.2448 133.526 47.8671 133.589 47.5542C133.651 47.3039 134.465 45.7396 135.09 44.1754C135.466 43.2994 135.716 42.3608 135.716 41.7976C135.716 40.1708 135.653 38.4188 134.652 37.6054C133.651 36.7919 127.269 33.7259 127.081 38.7317C127.081 38.7317 126.33 41.6099 125.955 42.1105C125.705 42.4234 125.892 42.9865 126.33 43.1742Z" fill="#FEAF84"/>
<path d="M129.459 48.9308C129.459 49.3063 129.396 49.6817 129.396 49.6817L129.647 50.8706L131.148 50.808L133.401 50.1823C133.401 50.1823 133.526 47.8046 133.589 47.4917C133.651 47.2414 134.465 45.6771 135.09 44.1129L135.028 43.1743C135.028 43.1743 133.213 42.9866 133.088 42.9866C133.025 42.9866 132.4 44.1129 132.4 44.1754C132.4 44.238 132.775 45.3017 132.775 45.3017C132.775 45.3017 132.838 46.8034 132.775 47.9923C132.713 48.618 132.337 49.1186 131.711 49.3063C131.399 49.3688 131.023 49.494 130.648 49.494C130.147 49.3688 129.709 49.1186 129.459 48.9308Z" fill="#F29D77"/>
<path d="M133.026 42.5486C133.026 42.5486 133.776 45.7397 132.024 47.4917C130.21 49.2437 127.081 48.2426 126.643 47.8671C126.205 47.4917 124.704 44.8012 126.08 43.5497C127.457 42.2983 129.271 43.6749 129.271 43.6749C129.271 43.6749 130.335 44.6134 130.71 44.5509C131.023 44.4883 131.837 43.362 131.586 41.2972C131.586 41.172 131.461 41.1094 131.399 41.1094C130.961 41.0469 130.022 40.734 130.085 38.6692C130.085 38.4814 129.96 38.3563 129.772 38.3563C129.209 38.3563 127.957 38.4189 127.707 38.4814C127.707 38.4814 127.519 38.544 127.332 38.6066C127.269 38.6066 127.206 38.6692 127.206 38.7317C127.144 38.9194 127.019 39.3574 127.019 39.4826C126.956 39.6077 126.643 40.6089 126.643 40.6089C126.643 40.6089 126.33 40.4212 126.33 40.0457C126.33 39.6703 126.456 38.8569 126.393 38.7317C126.33 38.544 125.83 38.4189 125.705 37.9809C125.517 37.0423 125.142 33.3506 128.145 35.1026C128.52 35.3529 128.896 35.6032 129.209 35.6657C129.647 35.7283 130.022 35.3529 130.898 35.2903C132.087 35.1652 137.531 35.5406 136.842 40.9217C136.217 46.3029 133.651 47.5543 133.651 47.5543C133.651 47.5543 133.651 43.1117 133.026 42.5486Z" fill="#0B0B3A"/>
<path d="M133.025 42.5485C133.025 42.5485 133.088 41.61 133.839 41.7351C134.777 41.9228 135.215 44.3631 133.213 44.4257C133.151 44.4883 133.213 43.4245 133.025 42.5485Z" fill="#F29D77"/>
<path d="M129.772 52.685C129.772 52.685 128.958 65.1993 129.647 69.5793C129.647 69.5793 128.771 71.957 128.208 72.1447C127.644 72.3324 127.206 70.9559 126.643 69.3916C126.08 67.8899 128.708 52.4973 128.708 52.4973L129.772 52.685Z" fill="#FFB41D"/>
<path d="M130.46 51.8716L129.772 52.685L128.708 52.5599C128.708 52.5599 128.646 52.1844 128.646 51.1833C128.646 51.1833 129.271 50.8079 129.709 50.8079L130.46 51.8716Z" fill="#FFB41D"/>
<path d="M133.526 48.6804C133.526 48.6804 133.964 48.9307 134.465 49.619C134.465 49.619 133.839 49.9318 133.276 50.2447C132.775 50.5576 130.335 52.247 130.335 52.247L129.647 50.8078C129.647 50.8078 132.15 49.0558 133.526 48.6804Z" fill="#E8DDE1"/>
<path d="M129.646 50.8079C129.646 50.8079 128.77 51.1208 128.52 51.7465C128.52 51.7465 128.082 50.9331 128.645 49.4314C128.645 49.4314 129.083 48.9934 129.459 48.8057L129.646 50.8079Z" fill="#E8DDE1"/>
<path d="M136.342 77.0879C136.342 77.0879 135.904 77.6511 135.778 77.7136C135.653 77.7762 135.653 77.6511 135.653 77.5259C135.716 77.4008 136.342 76.9628 136.342 77.0879Z" fill="#E5BB98"/>
<path opacity="0.5" d="M115.943 133.777C115.943 134.403 122.764 134.966 131.211 134.966C139.658 134.966 146.478 134.466 146.478 133.777C146.478 133.152 139.658 132.589 131.211 132.589C122.764 132.651 115.943 133.152 115.943 133.777Z" fill="#5FB0E7"/>
<path d="M139.47 133.777C141.285 133.84 142.349 133.715 142.036 132.651C141.786 131.838 141.723 131.4 141.66 131.024C141.66 130.962 141.66 130.899 141.66 130.837C141.66 130.774 141.66 130.774 141.66 130.711C141.598 130.524 141.535 130.148 141.16 130.086C140.472 130.023 139.533 129.773 139.283 130.524C139.283 130.524 139.283 130.524 139.283 130.586C139.22 131.024 139.22 131.212 139.158 131.525C139.095 132.025 138.657 132.151 138.407 132.526C138.219 133.089 137.781 133.777 139.47 133.777Z" fill="#402C2C"/>
<path d="M141.535 128.459C141.535 128.459 141.535 130.336 141.535 130.711C141.535 130.962 140.597 131.4 139.846 130.836C139.783 130.774 139.721 130.711 139.721 130.649C139.658 130.398 139.595 128.959 139.595 128.208" fill="#FFE1BD"/>
<path d="M138.281 88.7262C138.281 88.7262 142.787 81.0299 136.717 74.2722C136.717 74.2722 132.525 76.1494 129.146 76.3996C126.518 76.5874 125.141 76.2745 125.141 76.2745C125.141 76.2745 124.891 84.3462 124.891 88.7262H138.281Z" fill="#473B4C"/>
<path d="M127.644 128.396L127.394 131.337L125.642 131.275L125.955 128.271" fill="#FFE1BD"/>
<path d="M124.203 103.493C124.391 107.623 125.204 120.387 125.204 128.834C126.768 129.022 128.395 128.96 128.395 128.96C129.271 121.639 131.962 109.312 129.459 102.992C130.46 99.2382 132.087 91.2291 132.713 87.5374C132.713 87.4748 132.713 87.4122 132.775 87.3497L132.212 85.6602C132.4 80.9674 129.334 77.5885 126.205 78.7774C125.517 79.0277 125.267 81.1551 125.204 82.5317C125.141 83.658 124.766 93.2939 124.516 98.5499C124.516 98.8628 124.516 99.1756 124.453 99.4885C124.391 100.364 124.391 101.115 124.328 101.491C124.265 101.991 124.265 102.429 124.328 102.805C124.203 103.055 124.203 103.243 124.203 103.493Z" fill="#473B4C"/>
<path d="M129.271 117.446C128.708 123.641 128.395 129.022 128.395 129.022C129.209 122.077 131.712 110.689 129.834 104.119C129.647 103.368 129.584 102.617 129.772 101.866C130.773 97.7989 132.15 90.9787 132.713 87.5998L131.899 86.9115C131.899 86.9115 130.523 80.9673 130.21 80.7795C129.897 80.5918 130.272 82.7818 130.46 85.535C130.648 88.2881 131.086 89.9775 130.398 93.2312C129.709 96.4849 128.458 100.99 128.208 102.867C129.146 105.745 129.834 111.252 129.271 117.446Z" fill="#312935"/>
<path d="M135.215 103.243C136.154 107.31 138.219 124.141 138.719 128.897H138.782C139.408 129.022 141.535 129.022 141.911 129.022C141.911 128.959 141.911 128.897 141.911 128.834C141.723 123.265 142.912 106.872 140.221 101.866C138.719 98.8 134.214 98.8626 135.215 103.243Z" fill="#473B4C"/>
<path d="M131.836 86.8491C131.398 81.4054 133.463 77.2131 136.717 78.9651C138.094 79.7159 139.783 81.0299 139.658 82.4065C139.47 84.9093 139.971 98.8002 140.284 101.491C141.097 107.498 135.966 105.808 135.466 104.119C134.214 99.9265 132.087 89.7899 131.836 86.8491Z" fill="#473B4C"/>
<path d="M122.075 133.214C123.139 133.59 124.328 133.34 124.954 133.277C125.579 133.152 126.143 133.152 126.893 133.152C127.832 133.152 127.832 133.089 127.707 132.026C127.644 131.65 127.582 131.337 127.394 131.15C126.956 131.4 126.33 131.275 126.268 130.962C126.205 130.649 125.955 130.524 125.892 130.524C125.705 130.586 125.579 130.837 125.454 131.024C125.329 131.275 124.703 131.9 123.827 132.276C122.889 132.651 121.074 132.839 122.075 133.214Z" fill="#402C2C"/>
<path d="M141.535 130.962C141.535 130.962 141.535 130.336 140.909 130.273C140.284 130.273 139.783 130.336 139.595 130.837C139.408 131.337 140.596 131.4 140.596 131.4L141.285 131.275L141.535 130.962Z" fill="#402C2C"/>
<path opacity="0.5" d="M125.642 52.0593C125.642 52.0593 123.89 54.0616 123.64 57.5656L124.078 57.8785L124.391 56.5645C124.391 56.5645 124.641 54.0616 125.642 52.0593Z" fill="#392F3D"/>
<path d="M126.831 63.0718C125.142 54.6872 128.395 49.8067 128.583 49.5564C128.52 49.5564 128.395 49.619 128.145 49.7441C127.206 50.1821 125.142 51.5587 124.14 55.751C123.39 58.817 123.828 66.1378 123.89 71.5815C123.953 75.5861 123.014 78.2141 123.014 78.2141C124.766 79.1526 127.144 79.2152 127.144 79.2152C127.144 79.2152 127.394 73.2709 127.394 71.3312C127.394 68.7658 126.956 65.1992 126.956 65.1992V64.0104C126.956 63.6349 126.956 63.3847 126.831 63.0718Z" fill="#594A5F"/>
<path opacity="0.5" d="M126.831 63.0718C125.142 54.6872 128.395 49.8067 128.583 49.5564C128.52 49.5564 128.395 49.619 128.145 49.7441C128.145 49.7441 126.205 52.0592 125.267 54.5621L125.767 55.751C125.767 55.751 125.267 56.0012 124.954 56.5018C124.954 56.5018 126.143 63.3847 126.894 65.1367V63.9478C126.956 63.6349 126.956 63.3847 126.831 63.0718Z" fill="#392F3D"/>
<path d="M125.642 59.0674C125.642 59.0674 124.954 57.9411 123.953 57.3154C123.953 57.3154 123.327 57.8786 123.577 59.0049C123.64 59.0049 124.703 59.568 125.642 59.0674Z" fill="#FEAF84"/>
<path d="M129.084 73.0208C129.146 76.7125 129.647 79.1528 129.647 79.1528C131.461 79.4031 133.151 79.3405 134.652 79.1528C134.715 79.1528 134.778 79.1528 134.84 79.1528C134.903 79.1528 135.028 79.1528 135.09 79.0902C135.153 79.0902 135.215 79.0902 135.215 79.0902C137.969 78.6522 139.846 77.8388 139.846 77.8388C139.846 77.8388 138.094 72.9582 137.781 70.518C137.531 68.0777 138.031 65.7625 138.031 65.7625C138.031 65.3245 137.969 64.8865 137.969 64.386C138.031 59.5054 139.408 51.4963 139.408 51.4963C137.969 50.1823 136.092 49.8069 135.09 49.6817C134.652 49.6191 134.402 49.6191 134.402 49.6191C131.712 58.1914 130.272 60.444 129.647 62.8217C129.647 62.8843 129.584 62.9468 129.584 63.072C129.522 63.2597 129.522 63.4474 129.459 63.6351C129.334 64.1983 129.271 64.8865 129.271 65.6374V65.8877C129.334 68.5157 129.021 70.956 129.084 73.0208Z" fill="#594A5F"/>
<path opacity="0.5" d="M129.521 63.635C130.272 64.073 133.213 65.7624 136.78 66.8261C136.78 66.8261 136.404 68.8284 136.467 70.8307C136.529 72.8955 137.843 77.9638 137.843 77.9638C137.843 77.9638 136.592 78.7772 135.215 79.0901C137.969 78.6521 139.846 77.8386 139.846 77.8386C139.846 77.8386 138.094 72.9581 137.781 70.5178C137.531 68.0775 138.031 65.7624 138.031 65.7624C138.031 65.3244 137.969 64.8864 137.969 64.3858L134.84 63.6975L129.709 62.8215C129.647 63.0092 129.584 63.3847 129.521 63.635Z" fill="#392F3D"/>
<path opacity="0.5" d="M136.967 53.3733C136.967 53.3733 135.779 54.9376 136.091 59.6304C136.091 59.6304 134.715 58.7544 133.088 59.3176C131.461 59.8807 133.901 60.3813 133.901 60.3813L137.218 60.7567L136.967 53.3733Z" fill="#392F3D"/>
<path d="M134.402 59.5679C134.402 59.5679 134.652 59.5053 135.278 59.6305C136.342 59.8807 137.343 60.9445 137.343 60.9445V61.6327L134.903 61.5076L133.964 61.1947L134.402 59.5679Z" fill="#FEAF84"/>
<path d="M139.157 51.2458C139.157 51.2458 140.659 52.1844 141.535 57.0024C142.348 61.6952 141.034 65.5746 140.409 66.5758C140.158 66.9512 139.533 66.388 138.031 65.6998C136.592 65.0115 136.78 56.4392 136.717 55.0626C136.717 53.7486 137.468 50.6826 139.157 51.2458Z" fill="#594A5F"/>
<path opacity="0.5" d="M133.776 58.1914C133.776 57.5031 133.338 56.8148 133.338 56.8148C133.839 56.4394 135.153 56.064 135.153 56.064C135.403 53.9991 135.215 50.4326 135.153 49.6817C134.715 49.6191 134.465 49.6191 134.465 49.6191C131.711 58.4417 130.272 60.6317 129.647 63.0094C129.459 63.7603 129.396 64.5737 129.334 65.6374C130.46 62.8843 133.776 58.1914 133.776 58.1914Z" fill="#392F3D"/>
<path d="M139.846 67.0766C137.593 67.0766 127.331 62.3837 125.454 61.1949L125.892 59.4429C125.892 59.4429 138.156 60.6943 141.222 62.3211C141.222 62.2586 140.972 67.0766 139.846 67.0766Z" fill="#594A5F"/>
<path opacity="0.5" d="M135.966 60.8192C135.966 60.8192 135.528 61.1946 134.402 60.9443C134.402 60.9443 130.46 62.008 128.646 62.7589C128.646 62.7589 128.208 62.6963 128.02 62.446C127.77 62.1957 129.709 60.7566 129.96 60.7566C130.21 60.7566 133.026 60.3812 133.026 60.3812C133.026 60.3812 134.59 60.3186 134.652 60.3186C134.652 60.3812 135.966 60.8192 135.966 60.8192Z" fill="#392F3D"/>
<path d="M134.465 60.5689C134.465 60.5689 134.715 60.9443 135.09 60.9443C135.779 61.0695 136.154 60.8192 136.154 60.8192L135.466 60.4437L134.465 60.3186V60.5689Z" fill="#FEAF84"/>
<path d="M123.828 64.073C123.828 64.073 130.836 61.5701 134.465 60.6941C134.527 60.2561 134.527 59.8807 134.465 59.3801C132.838 59.1299 127.081 59.0047 124.516 58.9421C123.765 58.9421 123.264 58.9421 123.264 58.9421C123.264 58.9421 122.826 59.0673 122.388 59.255C121.825 59.5053 121.074 59.8807 121.012 60.2561C120.762 61.007 120.949 64.4484 123.828 64.073Z" fill="#594A5F"/>
<path opacity="0.5" d="M122.451 57.6908C122.138 58.3165 122.326 59.4428 122.389 59.5054C122.576 59.8808 123.765 59.0674 124.516 59.0048C123.765 59.0048 123.264 59.0048 123.264 59.0048C123.264 59.0048 122.952 57.5031 122.451 57.6908Z" fill="#392F3D"/>
<path d="M123.953 57.3154C123.953 57.3154 123.452 57.0025 122.889 57.2528C122.201 57.5031 122.388 58.8171 122.451 59.1925C122.514 59.5054 123.452 59.0674 124.14 59.0674C124.829 59.0674 124.14 57.8785 124.14 57.8785L123.953 57.3154Z" fill="#FEAF84"/>
<path opacity="0.8" d="M111.313 63.5097L105.932 64.6986L104.868 62.5711C105.432 61.1946 105.244 60.3811 104.556 59.38C104.43 59.1923 104.243 58.942 104.055 58.6917C103.805 58.3789 103.617 58.1286 103.429 57.7532C102.428 56.0012 101.865 53.7486 100.739 53.0603C102.804 49.8066 102.929 45.5517 102.866 43.3618C102.929 43.2992 103.054 43.2992 103.116 43.2366C104.556 42.4858 103.93 41.1718 103.93 41.1718C103.93 41.1718 103.242 41.2343 102.303 40.7338C102.178 40.6712 102.053 40.6086 101.928 40.4835C101.802 40.4209 101.74 40.3583 101.615 40.2958C100.176 39.2946 98.4236 37.7303 94.9822 39.3572C93.4179 40.108 92.4793 42.3606 91.9788 44.8635C91.9788 44.9886 91.9162 45.1138 91.9162 45.1763C91.1654 49.1183 91.3531 53.4357 91.3531 53.4357C91.2279 53.5609 91.1028 53.686 90.9776 53.7486C90.8525 53.8737 90.7274 53.9989 90.6022 54.124C89.7888 54.9374 89.2256 56.2514 88.9128 57.5654C88.7876 58.066 88.6625 58.6292 88.5999 59.1297C88.5374 59.4426 88.4748 59.7554 88.4748 60.0057L88.5999 60.0683C88.4122 60.9443 88.0368 62.446 87.6614 63.9477C87.5362 64.5109 87.4111 65.074 87.3485 65.5746C87.1608 66.4506 87.0356 67.2014 87.0356 67.702C87.0356 67.9523 87.0356 68.14 87.0356 68.2651V68.3277C87.1608 68.6406 88.2871 69.5166 89.9765 70.0171C90.0391 70.0171 90.1642 70.0797 90.2268 70.0797C90.6022 70.2048 90.9776 70.33 91.3531 70.3926C91.3531 70.8306 91.4156 71.2686 91.4156 71.644C91.4156 72.1446 91.4156 72.6451 91.3531 73.1457C91.2905 73.7088 91.2905 74.272 91.2279 74.7726C91.1653 75.3357 91.0402 75.8363 90.9776 76.2743C90.8525 76.9625 90.6648 77.5257 90.6022 77.9011C90.5396 78.2765 90.4771 78.5268 90.6022 78.5894C90.6648 78.5894 90.6648 78.652 90.7273 78.652C90.6022 78.8397 90.4771 79.1525 90.2894 79.5905C90.1016 80.0285 89.9139 80.5917 89.7262 81.2174C89.3508 82.4688 89.0379 84.0957 89.1005 85.7851C89.1005 86.2857 89.1631 86.8488 89.2882 87.412C89.3508 87.85 89.4759 88.288 89.6011 88.726C89.6011 88.7885 89.6636 88.8511 89.6636 88.9137C89.7888 89.2891 89.9139 89.8522 90.0391 90.5405C90.1642 90.9785 90.2268 91.5417 90.3519 92.0422C90.4771 92.6054 90.5396 93.1685 90.6648 93.6691C90.7899 94.5451 90.9776 95.2334 91.0402 95.6088C91.1028 96.0468 91.1653 96.4848 91.2279 96.9228C91.3531 97.7988 91.4782 98.6122 91.6034 99.3631C91.6659 99.8011 91.7285 100.177 91.7911 100.615H104.18C104.18 100.239 104.18 99.8637 104.18 99.3631C104.18 98.6748 104.18 97.8614 104.18 96.9228C104.18 95.2334 104.18 93.1059 104.118 90.6031C104.118 90.1025 104.118 89.5394 104.055 88.9762C104.055 88.4757 104.055 87.9751 103.992 87.4745C103.992 86.974 103.93 86.4108 103.93 85.8477C103.867 83.8454 103.805 81.5928 103.68 79.1525C103.742 79.09 103.805 79.0274 103.805 78.9023C103.867 78.7771 103.554 77.0877 103.304 74.8977L104.806 74.5848L108.936 73.6463C109.248 73.6463 109.499 73.396 109.624 73.1457L110.187 70.9557C110.375 70.9557 110.5 70.8931 110.625 70.8306C110.813 70.7054 111 70.5177 111.126 70.2674C111.376 69.7668 111.438 69.1411 111.501 68.7657C111.501 68.6406 111.501 68.578 111.501 68.578C111.313 67.9523 111 67.8271 111 67.8271L111.188 67.1389L111.564 65.6371L111.939 64.1354C111.939 64.0729 111.939 64.0103 111.939 64.0103C112.002 63.8226 111.689 63.5097 111.313 63.5097ZM90.1016 67.0763C89.9139 67.0137 89.8513 66.826 89.9139 66.6383L90.2268 65.8249L90.4771 65.1366C90.6648 65.95 90.8525 66.7634 90.9776 67.5143C90.6648 67.3266 90.4145 67.2014 90.1016 67.0763Z" fill="#65B0C4"/>
<path d="M86.9729 133.84C86.9729 134.466 91.7283 134.966 97.61 134.966C103.492 134.966 108.247 134.466 108.247 133.84C108.247 133.214 103.492 132.714 97.61 132.714C91.7283 132.714 86.9729 133.214 86.9729 133.84Z" fill="#5FB0E7"/>
<path d="M101.865 41.9854C101.865 41.9854 102.929 49.3062 99.2994 53.8739C95.6703 58.4416 97.1094 51.4336 97.1094 51.4336L97.9854 43.4245L101.865 41.9854Z" fill="#CC5605"/>
<path d="M103.617 61.7578L105.932 66.3881L103.429 67.1389L102.178 64.3858L103.617 61.7578Z" fill="#FFE1BD"/>
<path d="M90.6645 93.6693C90.6645 93.6693 86.7851 86.4111 90.7271 80.4668C90.7271 80.4668 94.7317 82.2814 97.9854 82.4691C100.551 82.6568 101.802 82.4065 101.802 82.4065C101.802 82.4065 102.365 87.0994 102.053 94.5453L90.6645 93.6693Z" fill="#FFE1BD"/>
<path d="M95.1071 92.8558C95.1071 92.9184 95.1071 92.981 95.1071 93.1061C95.2949 94.7956 96.0457 99.4258 96.5463 102.68C96.8591 104.619 97.1094 106.058 97.1094 106.058C97.1094 106.058 97.3597 107.435 97.4849 107.998C97.61 108.937 97.6726 110.126 97.4849 111.252C97.4223 111.502 97.4223 111.815 97.4223 111.815C97.1094 115.006 97.4849 118.698 97.9229 122.139C98.3609 125.581 98.9866 128.834 99.2369 131.212C99.2994 131.212 100.488 131.024 100.488 131.024C100.488 131.024 102.616 111.377 102.741 107.498C102.741 107.247 102.741 106.997 102.741 106.809C102.741 106.559 102.803 106.371 102.803 106.121C102.803 103.743 103.492 86.2859 102.803 86.0356C99.5497 84.5964 94.6691 88.0379 95.1071 92.8558Z" fill="#FFE1BD"/>
<path d="M100.926 130.586C100.926 130.586 102.804 132.151 104.931 132.964C105.119 133.027 105.181 133.34 104.994 133.402C104.18 133.84 101.364 133.214 100.551 132.714C100.363 133.152 100.238 133.527 100.238 133.527H99.237C99.237 133.527 98.4236 131.838 99.237 130.586" fill="#3A3A3A"/>
<path d="M99.3621 130.586L99.9878 129.71L100.613 129.21C100.613 129.21 100.739 130.336 101.302 130.774C101.615 130.962 101.865 131.212 102.303 131.525C102.303 131.525 102.303 131.775 101.927 131.775C101.677 131.838 101.051 131.713 100.613 131.212C100.613 131.212 100.613 131.212 100.551 131.149C100.488 131.087 100.488 131.087 100.426 131.024C100.301 130.899 99.9252 130.586 99.3621 130.586Z" fill="#FFE1BD"/>
<path d="M97.485 107.998C97.6101 108.937 97.6727 110.126 97.485 111.252C97.4224 111.502 97.4224 111.815 97.4224 111.815C97.1095 115.006 97.485 118.698 97.923 122.139C97.7978 119.324 97.923 112.316 98.1107 110.439C98.2984 108.561 97.7352 107.811 97.7978 107.122C97.8604 106.434 98.9241 103.431 98.9241 103.431L96.5464 102.68C96.8592 104.619 97.1095 106.059 97.1095 106.059C97.1095 106.059 97.3598 107.435 97.485 107.998Z" fill="#FFC9A1"/>
<path d="M96.7966 108.436C95.858 112.503 94.2311 125.643 93.7306 130.398C93.7306 130.398 92.792 130.461 92.4791 130.461C92.4791 130.398 89.1003 112.065 91.7283 107.059C93.2926 103.993 97.7977 104.056 96.7966 108.436Z" fill="#FFE1BD"/>
<path d="M100.175 91.9799C100.613 86.5362 98.5486 82.3439 95.2949 84.0959C93.9183 84.8468 92.2289 86.1608 92.3541 87.5374C92.5418 90.0402 92.0412 103.931 91.7283 106.622C90.9149 112.628 96.0458 110.939 96.5463 109.25C97.7352 105.12 99.9252 94.9833 100.175 91.9799Z" fill="#FFE1BD"/>
<path d="M88.7874 88.9765C89.1629 90.1028 89.9763 94.6079 90.164 95.7968C90.6646 98.8628 90.9774 100.99 91.478 103.743C91.478 103.743 91.7283 103.743 92.2289 103.806C92.354 103.806 92.4166 103.806 92.5417 103.806C93.7306 103.868 95.7329 103.994 97.7977 103.931C99.362 103.931 100.864 103.806 102.053 103.618C102.491 103.556 102.866 103.43 103.179 103.305C103.179 103.305 103.679 97.2985 102.929 79.0277C102.929 79.0277 94.106 77.4634 90.3517 78.5271C90.2266 78.5897 90.1014 78.5897 89.9763 78.6522C90.0389 78.6522 87.1606 83.7205 88.7874 88.9765Z" fill="#594A5F"/>
<path opacity="0.5" d="M88.7876 88.9764C89.163 90.1027 89.9764 94.6079 90.1641 95.7967C90.6647 98.8627 90.9776 100.99 91.4781 103.743C91.4781 103.743 91.7284 103.743 92.229 103.806C91.7284 99.0504 89.2881 88.4133 89.5384 85.097C89.7261 81.4679 91.2278 79.2779 91.2278 79.2779L90.477 78.5896C90.3519 78.6522 90.2267 78.6522 90.1016 78.7147C90.039 78.6522 87.1607 83.7205 88.7876 88.9764Z" fill="#392F3D"/>
<path d="M89.6009 64.6362C91.9786 74.2722 89.2255 78.4645 89.7886 78.8399C92.9798 80.717 97.0469 80.5919 99.7375 80.2165H99.8626C101.427 79.9662 102.491 79.6533 102.491 79.6533C102.491 79.6533 103.054 79.4656 103.116 79.0902C103.179 78.7148 101.177 67.6396 103.179 64.2608C104.868 61.3825 104.681 60.5065 103.179 58.6919C101.74 56.8774 101.239 53.8739 99.8626 53.0605C99.4872 52.8102 98.8615 52.4974 98.1106 52.3722C94.8569 51.6839 91.6032 52.3722 90.1015 53.9365C89.9138 54.1242 89.7261 54.3119 89.6009 54.5622C88.2243 56.7522 88.6623 61.0071 89.6009 64.6362Z" fill="#FFB41D"/>
<path d="M92.1662 131.149C92.1662 131.149 91.9785 131.525 92.0411 132.088C92.1037 132.651 92.1037 132.776 92.1037 133.277C92.1037 133.277 92.2914 133.339 92.8545 133.277C93.4177 133.214 92.3539 131.963 92.3539 131.963" fill="#161616"/>
<path d="M92.5418 130.774C92.5418 130.774 92.2289 130.837 92.1038 131.462C92.0412 132.088 92.5418 132.463 92.5418 132.901C92.5418 133.339 92.6669 133.59 93.2301 133.84C93.7932 134.09 94.6067 133.965 94.8569 133.84C95.8581 133.465 94.4815 132.964 94.1687 132.151C93.9809 131.65 93.9184 130.711 93.4178 130.524C92.6669 130.273 92.5418 130.774 92.5418 130.774Z" fill="#3A3A3A"/>
<path d="M89.6009 64.6361C91.9786 74.2721 89.2254 78.4644 89.7886 78.8398C92.9797 80.7169 97.0469 80.5918 99.7374 80.2164C98.1106 80.4041 95.7329 80.2789 93.9183 79.8409C92.2914 79.4655 91.1026 78.8398 91.1026 78.8398C91.6657 76.8375 91.8534 71.7067 91.8534 71.7067C92.6669 71.957 95.2949 72.0195 95.2949 72.0195L91.8534 68.6407C91.8534 68.6407 91.6032 65.3244 91.7283 63.7601C91.8534 62.1958 92.6043 61.1321 93.5429 58.2538C94.7317 54.6247 92.5417 53.8113 90.9774 53.8113C90.4769 53.8113 89.9763 54.0616 89.726 54.4996C88.2243 56.7521 88.6623 61.007 89.6009 64.6361Z" fill="#E59A17"/>
<path d="M93.4805 49.494C93.4805 49.494 93.7308 49.6191 94.1063 49.8068C94.1063 49.9945 94.1063 50.1823 94.1063 50.37C94.0437 51.5588 94.0437 52.3097 94.0437 52.3097C94.9197 53.874 96.6091 53.9365 97.4225 53.5611C97.4851 53.4985 97.5477 53.4985 97.6102 53.436C97.9231 53.1857 98.0482 52.8728 97.9857 52.4974C97.9231 51.8717 97.8605 51.3711 97.9231 50.808C98.5488 50.9331 99.112 51.0583 99.55 50.808C99.9254 50.5577 100.176 49.932 100.489 49.494C102.053 46.7408 101.803 40.9843 101.803 40.9843C101.803 40.9843 96.6717 38.6691 95.0448 40.734C93.418 42.924 93.4805 49.494 93.4805 49.494Z" fill="#FFE1BD"/>
<path d="M94.0435 52.3722C94.9195 53.9365 96.6089 53.9991 97.4223 53.6236C95.5452 54.1242 95.6703 51.8091 95.9206 51.3711C96.2335 50.9331 97.4849 50.8079 97.4849 50.8079C96.8592 50.7454 95.2323 50.1822 94.2937 48.1799C94.2937 49.3688 94.0435 52.3722 94.0435 52.3722Z" fill="#FCCFB6"/>
<path d="M98.3609 76.024L108.247 73.834C108.56 73.834 108.873 73.6463 108.935 73.3335L111.125 64.3858C111.251 63.9478 110.875 63.5098 110.437 63.5098L100.551 65.6998C100.238 65.6998 99.9252 65.8875 99.8626 66.2003L97.6726 75.148C97.5474 75.586 97.9229 76.024 98.3609 76.024Z" fill="#DCF4F3"/>
<path d="M98.361 75.7113L108.185 73.5213C108.372 73.5213 108.56 73.3962 108.56 73.2085L110.75 64.3233C110.813 64.073 110.625 63.8228 110.375 63.8228L100.864 66.0127C100.551 66.0127 100.301 66.2005 100.238 66.5133L98.0482 75.3359C97.9856 75.461 98.1107 75.7113 98.361 75.7113Z" fill="white"/>
<path d="M86.1597 68.5155C86.1597 68.7658 87.3485 69.7044 89.1005 70.2675C92.6045 71.3312 95.1074 71.9569 96.2337 72.2072C96.6091 72.2698 96.8594 72.3323 96.8594 72.3323L97.0471 71.5815L97.2974 71.6441L97.4225 71.0809C97.4225 71.0809 97.2974 71.1435 97.1722 71.1435C97.0471 71.1435 96.8594 71.1435 96.7342 71.0183C95.5454 70.3301 91.9163 68.1401 89.2257 67.0764C89.038 67.0138 88.9754 66.8261 89.038 66.6384L91.228 61.0695L87.9117 59.6304C87.9117 59.6304 87.9117 59.6929 87.9117 59.7555C87.6614 60.6315 86.0345 67.0764 86.1597 68.5155Z" fill="#FFE1BD"/>
<path d="M86.1597 68.5154C86.1597 68.7657 87.3485 69.7043 89.1005 70.2674C92.6045 71.3311 95.1074 71.9568 96.2337 72.2071C95.608 72.082 88.5374 69.454 87.9117 69.1411C87.286 68.8283 86.7854 68.7031 86.7854 67.7646C86.7854 66.826 88.6 60.0683 88.6 60.0683L87.9117 59.6929C87.6614 60.6314 86.0345 67.0763 86.1597 68.5154Z" fill="#FCCFB6"/>
<path d="M89.8512 54.2493C88.5372 55.5633 87.9115 58.0036 87.5986 60.2562L91.4155 61.7579C91.4155 61.7579 94.9195 56.4393 92.7295 54.437C91.8535 53.561 90.5395 53.4985 89.8512 54.2493Z" fill="#FFB41D"/>
<path d="M96.6089 70.956C96.6089 70.956 96.9843 71.0185 97.1094 71.0185C97.2972 71.0185 97.3597 70.956 97.3597 70.956C97.3597 70.956 98.1732 70.4554 98.7989 70.3928L98.6737 70.956C98.6737 70.956 99.5497 71.5191 99.8626 71.7068C99.8626 71.7068 100.175 71.832 100.301 71.8945C100.426 71.9571 101.489 71.8945 101.74 71.8945C101.99 71.8945 102.115 72.0822 102.115 72.2074C102.115 72.2074 102.115 72.27 101.927 72.3325C101.927 72.3325 101.802 72.3325 101.74 72.3325C101.865 72.3325 101.99 72.3325 102.053 72.3325C102.303 72.3325 102.428 72.5202 102.428 72.6454C102.428 72.6454 102.428 72.708 102.24 72.7705C102.178 72.7705 101.99 72.7705 101.74 72.8331C101.927 72.8957 102.053 73.0208 102.053 73.146C102.053 73.146 102.053 73.2085 101.865 73.2711C101.802 73.2711 101.615 73.2711 101.364 73.3337C101.427 73.3962 101.489 73.4588 101.489 73.584C101.489 73.584 101.489 73.6465 101.302 73.7091C101.177 73.7091 99.2995 73.9594 99.1117 73.8968C98.7363 73.8342 97.4849 72.8331 97.4223 72.7705C97.172 72.6454 96.8592 72.4577 96.8592 72.4577L96.6089 70.956Z" fill="#FFE1BD"/>
<path d="M106.746 70.0173C106.746 70.0173 106.746 70.0798 106.871 70.1424C106.933 70.1424 107.121 70.1424 107.371 70.205C107.184 70.2676 107.058 70.3927 107.058 70.5178C107.058 70.5178 107.058 70.5804 107.246 70.643C107.309 70.643 107.496 70.643 107.747 70.7056C107.684 70.7681 107.622 70.8307 107.622 70.9558C107.622 70.9558 107.622 71.0184 107.747 71.081C107.809 71.081 108.623 71.2061 109.248 71.2687C110.625 71.2687 110.688 69.0787 110.688 68.891C110.5 68.2027 110.187 68.1401 110.187 68.1401L110.062 68.7033C110.062 68.7033 109.499 69.0787 109.186 69.2664C109.186 69.2664 108.873 69.3916 108.81 69.4541C108.685 69.5167 107.622 69.4541 107.371 69.4541C107.121 69.4541 106.996 69.6419 106.996 69.767C106.996 69.767 106.996 69.8296 107.184 69.8921C107.184 69.8921 107.309 69.8921 107.371 69.8921H107.058C106.871 69.7044 106.746 69.8296 106.746 70.0173Z" fill="#FFE1BD"/>
<path opacity="0.2" d="M97.7979 103.931C99.3621 103.931 100.926 103.806 102.115 103.618C101.802 103.368 101.427 103.118 100.989 102.805C99.4873 101.616 98.6738 94.3575 98.4236 95.2335C98.2359 96.1095 97.7979 103.931 97.7979 103.931Z" fill="#392F3D"/>
<path d="M93.7306 129.71C93.7306 129.71 93.668 130.899 93.668 131.212C93.7306 131.713 93.7931 132.088 93.1674 132.026C92.9171 132.026 92.5417 131.65 92.4791 131.087C92.4791 130.837 92.354 130.148 92.354 130.148L93.7306 129.71Z" fill="#FFE1BD"/>
<path d="M101.427 40.7966C102.366 41.2971 103.054 41.2346 103.054 41.2346C103.054 41.2346 103.617 42.5486 102.24 43.2994C101.677 43.6123 100.989 43.7374 100.301 43.8C99.2996 43.8626 98.361 43.6748 97.6102 43.4871C97.1096 43.362 96.6091 43.8 96.6716 44.3631C96.7342 44.8637 96.7342 45.4894 96.4839 45.99C95.9208 47.2414 94.8571 44.7386 94.2313 45.6771C93.7308 46.428 94.6693 48.3051 94.7319 50.6828C94.7319 51.8091 93.9185 52.7477 92.7922 52.8103C92.0413 52.8728 91.1654 53.0605 90.4771 53.6237C90.4771 53.6237 89.9765 41.4849 94.1062 39.4826C98.0482 37.4803 99.8002 39.9206 101.427 40.7966Z" fill="#EA5F00"/>
<defs>
<linearGradient id="paint0_linear" x1="6.2653" y1="96.8748" x2="154.774" y2="6.10998" gradientUnits="userSpaceOnUse">
<stop stop-color="#1C75BC"/>
<stop offset="0.533" stop-color="#27AAE1"/>
<stop offset="1" stop-color="#00BFD8"/>
</linearGradient>
<linearGradient id="paint1_linear" x1="120.828" y1="44.623" x2="120.828" y2="3.55921" gradientUnits="userSpaceOnUse">
<stop offset="0.00194311" stop-color="#03B8CB"/>
<stop offset="0.998" stop-color="#BEFF3F"/>
</linearGradient>
<linearGradient id="paint2_linear" x1="82.6" y1="25.7965" x2="159.056" y2="25.7965" gradientUnits="userSpaceOnUse">
<stop offset="0.00194311" stop-color="#03B8CB"/>
<stop offset="0.998" stop-color="#BEFF3F"/>
</linearGradient>
<linearGradient id="paint3_linear" x1="9.38756" y1="48.8893" x2="21.7923" y2="48.8893" gradientUnits="userSpaceOnUse">
<stop offset="0.00194311" stop-color="#03B8CB"/>
<stop offset="0.998" stop-color="#BEFF3F"/>
</linearGradient>
<linearGradient id="paint4_linear" x1="32.578" y1="48.8893" x2="44.9827" y2="48.8893" gradientUnits="userSpaceOnUse">
<stop offset="0.00194311" stop-color="#03B8CB"/>
<stop offset="0.998" stop-color="#BEFF3F"/>
</linearGradient>
<linearGradient id="paint5_linear" x1="54.6036" y1="48.8893" x2="67.0082" y2="48.8893" gradientUnits="userSpaceOnUse">
<stop offset="0.00194311" stop-color="#03B8CB"/>
<stop offset="0.998" stop-color="#BEFF3F"/>
</linearGradient>
</defs>
</svg>
