<svg width="51" height="50" viewBox="0 0 51 50" fill="none" xmlns="http://www.w3.org/2000/svg">
<path d="M49.1947 23.2561C46.6214 20.6943 43.6465 23.0921 43.6465 23.0921V9.60595C43.6465 9.15307 43.2795 8.78563 42.8266 8.78563C42.3733 8.78563 42.0063 9.15307 42.0063 9.60595V24.2461C42.0063 24.2461 38.0948 27.3295 36.4136 28.0832V3.80093C36.4136 2.67213 37.3317 1.75398 38.4605 1.75398H39.9593C41.0881 1.75398 42.0063 2.67213 42.0063 3.80093V6.24778C42.0063 6.70109 42.3733 7.06809 42.8266 7.06809C43.2795 7.06809 43.6465 6.70109 43.6465 6.24778V3.80093C43.6465 1.76765 41.9926 0.11377 39.9593 0.11377H38.4605C36.4272 0.11377 34.7729 1.76765 34.7729 3.80093V28.7334C34.2837 28.8706 33.7817 28.9637 33.2716 29.0129V11.7191C33.2716 9.67559 31.6092 8.01317 29.5661 8.01317H28.1036C26.0605 8.01317 24.3981 9.67559 24.3981 11.7191V20.077L22.8963 20.8742V18.0928C22.8963 16.2531 21.3996 14.7564 19.5603 14.7564H17.3591C15.5194 14.7564 14.0232 16.2531 14.0232 18.0928V25.5842L11.3448 27.0057L3.82348 29.1551C2.51482 29.529 1.42192 30.386 0.746865 31.5678C0.0713852 32.75 -0.111904 34.1266 0.230749 35.4438L1.072 38.6806C1.18565 39.119 1.63341 39.3818 2.07219 39.2681C2.51055 39.154 2.77373 38.7063 2.65966 38.2675L1.8184 35.0311C1.33049 33.1538 2.40929 31.2653 4.27466 30.7325L11.1512 28.7672L16.3196 42.5613C16.6657 43.4851 16.611 46.1203 13.8771 47.0915L8.68044 48.2719C6.86934 48.683 5.08472 47.5973 4.61731 45.7995L3.56243 41.7402C3.44836 41.3018 3.0006 41.0386 2.56224 41.1523C2.12346 41.2664 1.8607 41.7141 1.97435 42.1529L3.02965 46.2126C3.62267 48.4933 5.64869 50.0002 7.90413 50.0002C9.56143 50.0002 14.2407 48.6911 14.2407 48.6911C15.6647 48.3681 16.8789 47.4452 17.5715 46.1601C18.1431 45.0996 18.3128 43.8794 18.0675 42.7169L36.0461 38.3153C37.533 37.9509 38.9446 37.2447 40.1272 36.2727L48.8764 29.0838C51.5437 26.7181 49.9791 24.0367 49.1947 23.2561ZM28.1036 9.6538H29.5661C30.7047 9.6538 31.631 10.5805 31.631 11.7191V29.0539L26.4548 29.0517C25.9793 29.0475 26.3083 28.7334 26.3344 28.7121L27.825 27.5047C29.2157 26.378 30.124 24.8117 30.5244 22.8485C30.7786 21.6031 30.3035 20.3564 29.2854 19.595C28.3343 18.8841 27.1111 18.7474 26.0387 19.2173V11.7191C26.0387 10.5805 26.965 9.6538 28.1036 9.6538ZM15.6638 18.0928C15.6638 17.158 16.4243 16.3971 17.3591 16.3971H19.5603C20.4951 16.3971 21.2561 17.158 21.2561 18.0928V21.7449L15.6634 24.7135V18.0928H15.6638ZM47.8352 27.8166L39.0856 35.0055C38.0918 35.8224 36.9058 36.4158 35.6561 36.7217L17.545 41.1561L12.6744 28.1579L26.5813 20.7759C27.1466 20.4756 27.7904 20.5256 28.3027 20.9088C28.815 21.2921 29.0448 21.8945 28.9171 22.5208C28.5945 24.1012 27.8797 25.3492 26.7924 26.2298L25.3017 27.4376C24.6907 27.9324 24.4656 28.7309 24.7279 29.4722C24.9902 30.213 25.6678 30.6924 26.454 30.6924L32.4308 30.6949H32.435C34.5627 30.6949 36.6075 30.0481 38.3482 28.824L45.0278 24.1269C45.963 23.4689 47.2221 23.5851 48.0211 24.4029C48.4812 24.8728 49.3818 26.2695 47.8352 27.8166Z" fill="black"/>
</svg>
