<svg width="56" height="50" viewBox="0 0 56 50" fill="none" xmlns="http://www.w3.org/2000/svg">
<path d="M39.8173 19.833C39.7689 19.7243 39.6916 19.631 39.5937 19.5635C38.1665 17.8709 36.3861 16.5113 34.3775 15.5802C32.369 14.649 30.1809 14.1688 27.967 14.1734C25.753 14.1779 23.5669 14.6671 21.5622 15.6065C19.5574 16.5459 17.7827 17.9128 16.3624 19.6112C16.3179 19.6501 16.2782 19.6942 16.2439 19.7424C16.2378 19.7512 16.2343 19.7608 16.229 19.7695C14.0139 22.4776 12.8037 25.8686 12.8037 29.3672C12.8037 32.8658 14.0139 36.2568 16.229 38.9648C16.2347 38.9736 16.2382 38.9837 16.2439 38.9924C16.2783 39.0406 16.3182 39.0847 16.3629 39.1237C17.7834 40.8218 19.5584 42.1884 21.5633 43.1275C23.5682 44.0665 25.7544 44.5553 27.9683 44.5595C30.1822 44.5636 32.3702 44.0831 34.3787 43.1516C36.3871 42.2201 38.1672 40.8602 39.5941 39.1674C39.6901 39.1005 39.7657 39.0085 39.8129 38.9014C41.9983 36.2032 43.1909 32.8362 43.1909 29.3639C43.1909 25.8916 41.9983 22.5246 39.8129 19.8264L39.8173 19.833ZM38.9475 37.5355C37.9356 36.9269 36.8616 36.4283 35.7437 36.048C36.2534 34.1169 36.5333 32.1324 36.5776 30.1357H41.6403C41.4928 32.814 40.5558 35.3888 38.9475 37.5355ZM14.36 30.1348H19.4214C19.4658 32.1315 19.7459 34.1161 20.2558 36.0472C19.1379 36.4274 18.0638 36.9261 17.0519 37.5347C15.4435 35.3879 14.5064 32.8132 14.3587 30.1348H14.36ZM17.0524 21.2032C18.0643 21.8118 19.1383 22.3105 20.2562 22.6907C19.7464 24.6218 19.4665 26.6063 19.4223 28.6031H14.3587C14.5063 25.9248 15.4432 23.35 17.0515 21.2032H17.0524ZM28.766 23.9157C30.618 23.8669 32.4585 23.6074 34.2518 23.1422C34.7283 24.9254 34.9939 26.7584 35.0433 28.6035H28.7651L28.766 23.9157ZM28.766 22.3845V15.7922C30.8223 16.245 32.6466 18.4938 33.7938 21.6845C32.1488 22.1042 30.4622 22.3397 28.7651 22.3867L28.766 22.3845ZM27.2348 15.79V22.3867C25.538 22.3395 23.8517 22.1038 22.207 21.684C23.3533 18.4938 25.1759 16.245 27.2339 15.7922L27.2348 15.79ZM27.2348 23.9157V28.6013H20.9558C21.0058 26.7567 21.272 24.9244 21.7489 23.1418C23.5419 23.6076 25.3821 23.8678 27.2339 23.9175L27.2348 23.9157ZM20.9558 30.1348H27.2339V34.8204C25.3818 34.8692 23.5414 35.1287 21.7481 35.5939C21.2715 33.8114 21.0056 31.9792 20.9558 30.1348ZM27.2339 36.3517V42.9461C25.1776 42.4933 23.3533 40.2445 22.2061 37.0538C23.8508 36.6342 25.5371 36.3986 27.2339 36.3517ZM28.7651 42.9465V36.3517C30.4619 36.3988 32.1482 36.6344 33.7929 37.0543C32.6458 40.2445 30.8231 42.4933 28.7651 42.9461V42.9465ZM28.7651 34.8208V30.1348H35.0433C34.9932 31.9794 34.727 33.8118 34.2501 35.5943C32.457 35.1291 30.6169 34.8695 28.7651 34.8204V34.8208ZM36.5776 28.604C36.5332 26.6071 36.2532 24.6224 35.7433 22.6912C36.8612 22.311 37.9352 21.8123 38.9471 21.2037C40.5555 23.3507 41.4925 25.9258 41.6399 28.6044L36.5776 28.604ZM37.9461 20.0163C37.1018 20.5062 36.2122 20.9133 35.2896 21.2321C34.7194 19.5046 33.8198 17.904 32.6405 16.5189C34.6587 17.2526 36.4761 18.4505 37.9461 20.0158V20.0163ZM23.3589 16.5185C22.1797 17.9036 21.2801 19.5042 20.7099 21.2317C19.7871 20.9129 18.8974 20.5057 18.0529 20.0158C19.523 18.4503 21.3406 17.2522 23.3589 16.5185ZM18.0529 38.7225C18.8974 38.2326 19.7871 37.8254 20.7099 37.5067C21.2801 39.2341 22.1797 40.8347 23.3589 42.2198C21.3406 41.486 19.523 40.288 18.0529 38.7225ZM32.6396 42.2198C33.8189 40.8346 34.7185 39.2338 35.2887 37.5062C36.2114 37.825 37.1012 38.2321 37.9456 38.722C36.4757 40.2877 34.6583 41.4859 32.6401 42.2198H32.6396Z" fill="white"/>
<path d="M53.4844 0.915527H2.51562C1.84861 0.916338 1.20916 1.1817 0.73755 1.65339C0.265942 2.12508 0.000694674 2.76458 0 3.43159L0 46.5691C0.000810444 47.236 0.266109 47.8754 0.737705 48.347C1.2093 48.8186 1.84869 49.0839 2.51562 49.0847H53.4844C54.1513 49.0839 54.7907 48.8186 55.2623 48.347C55.7339 47.8754 55.9992 47.236 56 46.5691V3.43159C55.9993 2.76458 55.7341 2.12508 55.2625 1.65339C54.7908 1.1817 54.1514 0.916338 53.4844 0.915527ZM1.53125 3.43159C1.53148 3.17059 1.63527 2.92034 1.81982 2.73579C2.00438 2.55123 2.25462 2.44745 2.51562 2.44721H53.4844C53.7454 2.44745 53.9956 2.55123 54.1802 2.73579C54.3647 2.92034 54.4685 3.17059 54.4688 3.43159V9.65153H1.53125V3.43159ZM53.4844 47.5539H2.51562C2.25455 47.5537 2.00424 47.4498 1.81967 47.2652C1.6351 47.0805 1.53137 46.8302 1.53125 46.5691V11.1828H54.4688V46.5691C54.4686 46.8302 54.3649 47.0805 54.1803 47.2652C53.9958 47.4498 53.7455 47.5537 53.4844 47.5539Z" fill="white"/>
<path d="M7.5105 5.2832H4.8855C4.68244 5.2832 4.4877 5.36387 4.34412 5.50745C4.20054 5.65103 4.11987 5.84577 4.11987 6.04883C4.11987 6.25188 4.20054 6.44662 4.34412 6.59021C4.4877 6.73379 4.68244 6.81445 4.8855 6.81445H7.5105C7.71355 6.81445 7.90829 6.73379 8.05188 6.59021C8.19546 6.44662 8.27612 6.25188 8.27612 6.04883C8.27612 5.84577 8.19546 5.65103 8.05188 5.50745C7.90829 5.36387 7.71355 5.2832 7.5105 5.2832Z" fill="white"/>
<path d="M14.8835 5.2832H12.2585C12.0555 5.2832 11.8607 5.36387 11.7172 5.50745C11.5736 5.65103 11.4929 5.84577 11.4929 6.04883C11.4929 6.25188 11.5736 6.44662 11.7172 6.59021C11.8607 6.73379 12.0555 6.81445 12.2585 6.81445H14.8835C15.0866 6.81445 15.2813 6.73379 15.4249 6.59021C15.5685 6.44662 15.6492 6.25188 15.6492 6.04883C15.6492 5.84577 15.5685 5.65103 15.4249 5.50745C15.2813 5.36387 15.0866 5.2832 14.8835 5.2832Z" fill="white"/>
<path d="M22.2566 5.2832H19.6316C19.4285 5.2832 19.2338 5.36387 19.0902 5.50745C18.9466 5.65103 18.866 5.84577 18.866 6.04883C18.866 6.25188 18.9466 6.44662 19.0902 6.59021C19.2338 6.73379 19.4285 6.81445 19.6316 6.81445H22.2566C22.4596 6.81445 22.6544 6.73379 22.798 6.59021C22.9416 6.44662 23.0222 6.25188 23.0222 6.04883C23.0222 5.84577 22.9416 5.65103 22.798 5.50745C22.6544 5.36387 22.4596 5.2832 22.2566 5.2832Z" fill="white"/>
</svg>
