<svg width="56" height="56" viewBox="0 0 56 56" fill="none" xmlns="http://www.w3.org/2000/svg">
<path d="M53.33 32.8009H52.492V25.2524C52.492 24.0573 51.8972 22.9992 50.9888 22.3563V21.3285C50.9888 19.8376 49.776 18.6248 48.2851 18.6248H47.6594L50.0535 15.1117C50.8559 13.9341 50.5508 12.3231 49.3733 11.5206L33.1277 0.449613C32.5573 0.0607846 31.8698 -0.0827154 31.1912 0.046019C30.513 0.174535 29.9253 0.559425 29.5366 1.12993L15.5146 21.7059H11.6126L12.554 12.176C12.5646 12.0686 12.6344 11.9756 12.7318 11.9389C13.9446 11.4816 14.9957 10.6276 15.6913 9.5343C15.7461 9.44822 15.8495 9.399 15.9565 9.40983L22.0765 10.0145C22.5154 10.057 22.9057 9.73741 22.949 9.29882C22.9923 8.86022 22.672 8.46964 22.2334 8.42633L16.1133 7.82171C15.4029 7.75214 14.7255 8.0795 14.3448 8.67757C13.8334 9.48147 13.0605 10.1093 12.1688 10.4455C11.4976 10.6986 11.0367 11.3015 10.9658 12.0191L10.009 21.7058H8.99147L10.4803 6.63346C10.5339 6.09096 11.0181 5.69239 11.5612 5.74675L23.9287 6.96847C24.3673 7.0108 24.7579 6.69142 24.8012 6.25283C24.8445 5.81424 24.5241 5.42366 24.0855 5.38035L11.7181 4.15863C10.3001 4.01874 9.03215 5.05835 8.89205 6.4765L7.69198 18.6248H5.64831C4.15753 18.6248 2.94456 19.8376 2.94456 21.3285V22.0296C1.72492 22.5912 0.875732 23.824 0.875732 25.2524V52.4534C0.875732 54.409 2.4667 56 4.42244 56H48.9454C50.901 56 52.492 54.409 52.492 52.4534V44.905H53.33C54.3192 44.905 55.1239 44.1003 55.1239 43.1112V34.5947C55.124 33.6056 54.3192 32.8009 53.33 32.8009ZM48.2851 20.2208C48.8961 20.2207 49.393 20.7177 49.393 21.3286V21.7352C49.2462 21.7166 49.0971 21.706 48.9454 21.706H45.5597L46.5717 20.2208H48.2851ZM30.8553 2.02855C31.0041 1.81035 31.2288 1.66313 31.4883 1.61391C31.5503 1.60221 31.6125 1.5963 31.6743 1.5963C31.8709 1.5963 32.0629 1.65514 32.229 1.76824L48.4745 12.8392C48.9249 13.1462 49.0417 13.7624 48.7348 14.2128L43.6286 21.7057H42.4031L44.9066 18.0321C45.3126 17.4363 45.3461 16.6781 44.9937 16.0533C44.5253 15.2231 44.3355 14.2456 44.459 13.3007C44.5509 12.5978 44.2416 11.9116 43.6519 11.5097L35.2302 5.7706C34.6403 5.36864 33.8885 5.33178 33.2679 5.67446C32.4339 6.13493 31.4547 6.31572 30.5108 6.1836C29.8108 6.08538 29.1008 6.40147 28.7008 6.98827L18.6713 21.7058H17.4458L30.8553 2.02855ZM31.2067 15.5791C27.7318 15.5791 24.8793 18.2887 24.6469 21.7058H20.6023L30.0194 7.887C30.0195 7.887 30.0195 7.887 30.0195 7.887C30.073 7.80836 30.1617 7.76155 30.2528 7.76155C30.2649 7.76155 30.277 7.76243 30.2892 7.76407C31.573 7.94366 32.9047 7.698 34.0391 7.07161C34.1284 7.02218 34.243 7.02928 34.3314 7.08944L42.7531 12.8287C42.8413 12.8888 42.8897 12.993 42.8766 13.094C42.7085 14.3791 42.9668 15.7084 43.6037 16.8374C43.6548 16.928 43.6486 17.0442 43.588 17.1333L40.4721 21.7057H37.7669C37.5343 18.2887 34.6819 15.5791 31.2067 15.5791ZM36.1667 21.7059H26.2469C26.4755 19.1696 28.612 17.1751 31.2067 17.1751C33.8015 17.175 35.9382 19.1696 36.1667 21.7059ZM4.54045 21.3285C4.54045 20.7176 5.03734 20.2206 5.64831 20.2206H7.53437L7.3877 21.7058H4.54045V21.3285ZM2.47162 25.2524C2.47162 24.1768 3.34673 23.3017 4.42244 23.3017H48.9454C50.0211 23.3017 50.8961 24.1768 50.8961 25.2524V27.4665H2.47162V25.2524ZM50.8961 52.4534C50.8961 53.529 50.0211 54.4041 48.9454 54.4041H4.42244C3.34673 54.4041 2.47162 53.529 2.47162 52.4534V50.2392H6.77465C7.21544 50.2392 7.57255 49.882 7.57255 49.4413C7.57255 49.0006 7.21533 48.6434 6.77465 48.6434H2.47162V29.0624H50.8961V32.8009H43.3092H43.3091C40.9186 32.8009 38.8479 34.1943 37.8652 36.2113C37.8619 36.2181 37.8582 36.2246 37.8548 36.2314C37.8465 36.2486 37.8392 36.2664 37.8311 36.2837C37.7141 36.5323 37.6124 36.7897 37.5296 37.0552C37.5294 37.056 37.5292 37.0567 37.5289 37.0574C37.3523 37.625 37.257 38.228 37.257 38.8529C37.257 42.1901 39.9719 44.905 43.309 44.905H43.3091H50.896V48.6434H11.884C11.4432 48.6434 11.0861 49.0006 11.0861 49.4413C11.0861 49.882 11.4433 50.2392 11.884 50.2392H50.8961V52.4534ZM53.5281 43.1111C53.5281 43.2203 53.4393 43.3091 53.33 43.3091H43.3093C41.62 43.3091 40.1472 42.3642 39.3917 40.9752C39.3574 40.9121 39.3245 40.848 39.2932 40.7832C39.2305 40.6533 39.1739 40.52 39.124 40.3835C38.9487 39.906 38.8531 39.3904 38.8531 38.8529C38.8531 38.3155 38.9488 37.7999 39.124 37.3223C39.174 37.1859 39.2306 37.0526 39.2932 36.9227C39.3245 36.8578 39.3574 36.7937 39.3917 36.7306C40.1472 35.3417 41.62 34.3968 43.3093 34.3968H53.33C53.4392 34.3968 53.5281 34.4856 53.5281 34.5947V43.1111Z" fill="black"/>
</svg>
