<svg width="25" height="17" viewBox="0 0 25 17" fill="none" xmlns="http://www.w3.org/2000/svg">
<path d="M24.4638 2.6294C24.1872 1.60122 23.3766 0.790724 22.3485 0.513868C20.4704 0 12.958 0 12.958 0C12.958 0 5.44581 0 3.56773 0.494386C2.55948 0.770949 1.72905 1.60137 1.45249 2.6294C0.958252 4.50733 0.958252 8.40192 0.958252 8.40192C0.958252 8.40192 0.958252 12.3161 1.45249 14.1744C1.72935 15.2025 2.5397 16.013 3.56788 16.2898C5.46558 16.8038 12.9583 16.8038 12.9583 16.8038C12.9583 16.8038 20.4704 16.8038 22.3485 16.3095C23.3767 16.0327 24.1872 15.2222 24.4641 14.1942C24.9582 12.3161 24.9582 8.4217 24.9582 8.4217C24.9582 8.4217 24.9779 4.50733 24.4638 2.6294ZM10.5662 11.9999V4.80396L16.8132 8.40192L10.5662 11.9999Z" fill="#35305A"/>
</svg>
